<svg xmlns="http://www.w3.org/2000/svg" width="840" height="280" viewBox="0 0 840 280" role="img" aria-labelledby="lp14cjxp3-t lp14cjxp3-d"><title id="lp14cjxp3-t">🏞️ Công viên thú của Tanx-1811</title><desc id="lp14cjxp3-d">6 bé · sức khỏe 71% · 3 bé cần chăm. Doto (awesome-cli, phấn khích, Lv.21); Nirin (dotfiles, vui, Lv.21); Pibbo (api-server, ốm, Lv.21); Wamo (ml-notebooks, đói, Lv.21); Luffin (rust-game, đang quẩy, Lv.21); Pimi (old-blog, thây ma, Lv.21)</desc><style>svg{--lp-bg:#ffffff;--lp-border:#e3e8ef;--lp-text:#1f2430;--lp-muted:#6b7385;--lp-bubble:#f5f7fb;--lp-bubble-border:#d5dbe7;--lp-track:#e6eaf1;--lp-shadow:rgba(0,0,0,.16);--lp-logo:#0f8a7e;--lp-sky1:#9ad9ff;--lp-sky2:#e4f6ff;--lp-g1:#79c267;--lp-g2:#5aa851;--lp-water:#5fb8e8;--lp-water2:#e4f7ff;--lp-far:#a9d8a0;--lp-mid:#8cc97c}.lp-night{display:none}.lp-card{fill:var(--lp-bg);stroke:var(--lp-border)}.lp-sky1{stop-color:var(--lp-sky1)}.lp-sky2{stop-color:var(--lp-sky2)}.lp-ground{fill:var(--lp-g1)}.lp-ground2{fill:var(--lp-g2)}.lp-shadow{fill:var(--lp-shadow)}.lp-px{shape-rendering:crispEdges}.lp-name{font:700 16px ui-monospace,SFMono-Regular,'SF Mono',Menlo,Consolas,'Liberation Mono',monospace;fill:var(--lp-text)}.lp-sub{font:400 11px ui-monospace,SFMono-Regular,'SF Mono',Menlo,Consolas,'Liberation Mono',monospace;fill:var(--lp-muted)}.lp-say{font:400 11.5px ui-monospace,SFMono-Regular,'SF Mono',Menlo,Consolas,'Liberation Mono',monospace;fill:var(--lp-text)}.lp-label{font:400 11px ui-monospace,SFMono-Regular,'SF Mono',Menlo,Consolas,'Liberation Mono',monospace;fill:var(--lp-muted)}.lp-val{font:700 11px ui-monospace,SFMono-Regular,'SF Mono',Menlo,Consolas,'Liberation Mono',monospace;fill:var(--lp-text)}.lp-icon{font:400 11px ui-monospace,SFMono-Regular,'SF Mono',Menlo,Consolas,'Liberation Mono',monospace}.lp-trophy{font:400 14px ui-monospace,SFMono-Regular,'SF Mono',Menlo,Consolas,'Liberation Mono',monospace}.lp-foot{font:400 9.5px ui-monospace,SFMono-Regular,'SF Mono',Menlo,Consolas,'Liberation Mono',monospace;fill:var(--lp-muted)}.lp-brand{font:700 9.5px ui-monospace,SFMono-Regular,'SF Mono',Menlo,Consolas,'Liberation Mono',monospace;fill:var(--lp-muted)}.lp-logo{fill:var(--lp-logo);shape-rendering:crispEdges}.lp-mini-name{font:700 12px ui-monospace,SFMono-Regular,'SF Mono',Menlo,Consolas,'Liberation Mono',monospace;fill:var(--lp-text)}.lp-tag{font:700 11px ui-monospace,SFMono-Regular,'SF Mono',Menlo,Consolas,'Liberation Mono',monospace;fill:var(--lp-text)}.lp-tag-sub{font:400 9.5px ui-monospace,SFMono-Regular,'SF Mono',Menlo,Consolas,'Liberation Mono',monospace;fill:var(--lp-muted)}.lp-mini-sub{font:400 9.5px ui-monospace,SFMono-Regular,'SF Mono',Menlo,Consolas,'Liberation Mono',monospace;fill:var(--lp-muted)}.lp-z{font:700 12px ui-monospace,SFMono-Regular,'SF Mono',Menlo,Consolas,'Liberation Mono',monospace;fill:var(--lp-text)}.lp-bit{font:700 10px ui-monospace,SFMono-Regular,'SF Mono',Menlo,Consolas,'Liberation Mono',monospace;fill:#3fb950}.lp-bubble,.lp-thought{fill:var(--lp-bubble);stroke:var(--lp-bubble-border)}.lp-tail{fill:var(--lp-bubble);stroke:var(--lp-bubble-border);stroke-linejoin:round}.lp-seg,.lp-track{fill:var(--lp-track)}.lp-good{fill:#3fb950}.lp-mid{fill:#e3b341}.lp-low{fill:#f85149}.lp-xp{fill:#a371f7}.lp-ink{fill:var(--lp-text)}.lp-fly{fill:var(--lp-text)}.lp-star{fill:#fff8d6}.lp-snow{fill:#ffffff}.lp-raindrop{fill:#5ec8ff}.lp-firefly{fill:#fff59d}.lp-string{fill:#5a1e1e}.lp-far{fill:var(--lp-far)}.lp-mid{fill:var(--lp-mid)}.lp-water{fill:var(--lp-water)}.lp-water2{fill:var(--lp-water2)}.lp-ripple-line{stroke:var(--lp-water2)}.lp-sea{fill:var(--lp-water);opacity:.38}.lp-bubble-c{fill:none;stroke:#e4f7ff;stroke-width:1;opacity:.85}.lp-bounce{animation:lp-bounce 2s ease-in-out infinite}.lp-hop{animation:lp-hop 1s ease-in-out infinite}.lp-breathe{animation:lp-breathe 4s ease-in-out infinite}.lp-sway{animation:lp-sway 3s ease-in-out infinite}.lp-shiver{animation:lp-shiver .35s linear infinite}.lp-wobble{animation:lp-wobble 3s ease-in-out infinite}.lp-growl{animation:lp-growl 3s linear infinite}.lp-blink-open{animation:lp-blink-open 4s infinite}.lp-blink-closed{opacity:0;animation:lp-blink-closed 4s infinite}.lp-rise{animation:lp-rise 3s ease-out infinite both}.lp-zz{animation:lp-zz 3s ease-out infinite both}.lp-fall{animation:lp-fall 3s linear infinite}.lp-drift{animation:lp-drift 9s linear infinite}.lp-drip{animation:lp-drip 1.6s ease-in infinite both}.lp-orbit{animation:lp-orbit 2.4s linear infinite}.lp-twinkle{animation:lp-twinkle 2s ease-in-out infinite both}.lp-burst{animation:lp-burst 2.4s ease-out infinite both}.lp-float{animation:lp-float 3s ease-in-out infinite}.lp-swing{animation:lp-swing 3s ease-in-out infinite}.lp-cloud{animation:lp-cloud 14s ease-in-out infinite alternate}.lp-alert{animation:lp-alert 1.2s steps(2) infinite}.lp-flap{animation:lp-flap .5s steps(1) infinite}.lp-fly{animation:lp-fly 16s linear infinite}.lp-flutter{animation:lp-flutter 6s ease-in-out infinite}.lp-sway-soft{animation:lp-sway-soft 5s ease-in-out infinite}.lp-kelp{animation:lp-kelp 4s ease-in-out infinite}.lp-spin{animation:lp-orbit 6s linear infinite}.lp-mist{animation:lp-mist 9s ease-in-out infinite}.lp-shoot{animation:lp-shoot 8s linear infinite}.lp-aurora{animation:lp-aurora 6s ease-in-out infinite}.lp-rainbow{animation:lp-rainbow 5s ease-in-out infinite}.lp-wave{animation:lp-wave 3s ease-in-out infinite}.lp-tide{animation:lp-tide 4s ease-in-out infinite}.lp-ripple{animation:lp-ripple 3s ease-out infinite both}.lp-bubbling{animation:lp-bubble 5s ease-in infinite both}.lp-swim{animation:lp-swim 14s linear infinite}.lp-roll{animation:lp-roll 9s linear infinite}.lp-ray{animation:lp-ray 5s ease-in-out infinite}.lp-flow{animation:lp-flow 1s linear infinite both}.lp-glow{animation:lp-glow 2s ease-in-out infinite}.lp-haze{animation:lp-haze 2.2s ease-in-out infinite}.lp-flag{animation:lp-flag 1.8s ease-in-out infinite}.lp-bulb{animation:lp-bulb 1.2s steps(1) infinite}.lp-twinkle-soft{animation:lp-twinkle-soft 2.5s ease-in-out infinite}.lp-new{animation:lp-float 1.6s ease-in-out infinite}.lp-lvup{font:700 11px ui-monospace,SFMono-Regular,'SF Mono',Menlo,Consolas,'Liberation Mono',monospace;stroke:#3d2c00;stroke-width:2.5px;paint-order:stroke;stroke-linejoin:round}.lp-aura{opacity:.8;animation:lp-aura 1.1s ease-in-out infinite}.lp-pal-fly{animation:lp-pal-fly 3.4s ease-in-out infinite}.lp-pal-hop{animation:lp-pal-hop 1.6s ease-in-out infinite}.lp-quest{font:700 11px ui-monospace,SFMono-Regular,'SF Mono',Menlo,Consolas,'Liberation Mono',monospace;fill:var(--lp-muted)}.lp-more{font:700 10px ui-monospace,SFMono-Regular,'SF Mono',Menlo,Consolas,'Liberation Mono',monospace;fill:var(--lp-muted)}@keyframes lp-pal-fly{0%,100%{transform:translate(0,0)}25%{transform:translate(2px,-4px)}50%{transform:translate(0,-6px)}75%{transform:translate(-2px,-3px)}}@keyframes lp-pal-hop{0%,55%,100%{transform:translateY(0)}25%{transform:translateY(-5px)}}@keyframes lp-aura{0%,100%{opacity:.45}50%{opacity:.95}}@keyframes lp-bounce{0%,100%{transform:translateY(0)}50%{transform:translateY(-5px)}}@keyframes lp-hop{0%,100%{transform:translateY(0)}35%{transform:translateY(-14px)}55%{transform:translateY(0)}65%{transform:translateY(-3px)}}@keyframes lp-breathe{0%,100%{transform:scale(1,1)}50%{transform:scale(1.04,.96)}}@keyframes lp-sway{0%,100%{transform:rotate(-5deg)}50%{transform:rotate(5deg)}}@keyframes lp-shiver{0%,100%{transform:translateX(0)}25%{transform:translateX(-1.5px)}75%{transform:translateX(1.5px)}}@keyframes lp-wobble{0%,60%,100%{transform:rotate(0)}68%{transform:rotate(-9deg)}78%{transform:rotate(8deg)}88%{transform:rotate(-4deg)}}@keyframes lp-growl{0%,78%,100%{transform:translateX(0)}82%{transform:translateX(-2px)}86%{transform:translateX(2px)}90%{transform:translateX(-2px)}94%{transform:translateX(1px)}}@keyframes lp-blink-open{0%,93%,100%{opacity:1}94%,98%{opacity:0}}@keyframes lp-blink-closed{0%,93%,100%{opacity:0}94%,98%{opacity:1}}@keyframes lp-rise{0%{transform:translateY(0);opacity:0}20%{opacity:1}100%{transform:translateY(-34px);opacity:0}}@keyframes lp-zz{0%{transform:translate(0,0);opacity:0}20%{opacity:1}100%{transform:translate(10px,-26px);opacity:0}}@keyframes lp-fall{0%{transform:translateY(-20px) rotate(0)}100%{transform:translateY(260px) rotate(540deg)}}@keyframes lp-drift{0%{transform:translate(0,-20px) rotate(0)}50%{transform:translate(14px,110px) rotate(160deg)}100%{transform:translate(-8px,260px) rotate(340deg)}}@keyframes lp-drip{0%{transform:translateY(0);opacity:0}15%{opacity:1}100%{transform:translateY(16px);opacity:0}}@keyframes lp-orbit{to{transform:rotate(360deg)}}@keyframes lp-twinkle{0%,100%{opacity:.15}50%{opacity:1}}@keyframes lp-burst{0%{transform:scale(.1);opacity:0}10%{opacity:1}70%{opacity:.9}100%{transform:scale(1.3);opacity:0}}@keyframes lp-float{0%,100%{transform:translateY(0)}50%{transform:translateY(-3px)}}@keyframes lp-swing{0%,100%{transform:rotate(-6deg)}50%{transform:rotate(6deg)}}@keyframes lp-cloud{from{transform:translateX(-6px)}to{transform:translateX(10px)}}@keyframes lp-alert{0%{opacity:1}50%{opacity:.35}}@keyframes lp-flap{0%{opacity:1}50%{opacity:0}}@keyframes lp-fly{from{transform:translate(-40px,0)}50%{transform:translate(130px,-8px)}to{transform:translate(300px,4px)}}@keyframes lp-flutter{0%,100%{transform:translate(0,0)}25%{transform:translate(14px,-9px)}50%{transform:translate(24px,1px)}75%{transform:translate(9px,7px)}}@keyframes lp-sway-soft{0%,100%{transform:rotate(-2deg)}50%{transform:rotate(2deg)}}@keyframes lp-kelp{0%,100%{transform:skewX(-9deg)}50%{transform:skewX(9deg)}}@keyframes lp-mist{0%,100%{transform:translateX(-14px)}50%{transform:translateX(14px)}}@keyframes lp-shoot{0%,86%{transform:translate(0,0);opacity:0}88%{opacity:1}100%{transform:translate(-70px,36px);opacity:0}}@keyframes lp-aurora{0%,100%{opacity:.1;transform:translateY(0)}50%{opacity:.5;transform:translateY(3px)}}@keyframes lp-rainbow{0%,100%{opacity:.25}50%{opacity:.6}}@keyframes lp-wave{0%,100%{transform:translateX(0)}50%{transform:translateX(-7px)}}@keyframes lp-tide{0%,100%{transform:translateY(0);opacity:.2}50%{transform:translateY(4px);opacity:.9}}@keyframes lp-ripple{0%{transform:scale(.2);opacity:.9}100%{transform:scale(1.5);opacity:0}}@keyframes lp-bubble{0%{transform:translate(0,0);opacity:0}10%{opacity:.9}50%{transform:translate(4px,-80px)}100%{transform:translate(-3px,-170px);opacity:0}}@keyframes lp-swim{from{transform:translateX(0)}50%{transform:translate(-160px,-6px)}to{transform:translateX(-340px)}}@keyframes lp-roll{0%{transform:translate(0,0)}20%{transform:translate(60px,-6px)}25%{transform:translate(75px,0)}55%{transform:translate(165px,-8px)}60%{transform:translate(180px,0)}100%{transform:translate(300px,0)}}@keyframes lp-ray{0%,100%{opacity:.04}50%{opacity:.2}}@keyframes lp-flow{0%{transform:translateY(-4px);opacity:0}25%{opacity:1}100%{transform:translateY(24px);opacity:0}}@keyframes lp-glow{0%,100%{opacity:.55}50%{opacity:1}}@keyframes lp-haze{0%,100%{transform:scale(1,1);opacity:.15}50%{transform:scale(1,2.5);opacity:.4}}@keyframes lp-flag{0%,100%{transform:rotate(-8deg)}50%{transform:rotate(8deg)}}@keyframes lp-bulb{0%{opacity:1}50%{opacity:.25}}@keyframes lp-twinkle-soft{0%,100%{opacity:.75}50%{opacity:1}}@media (prefers-reduced-motion:reduce){*{animation-play-state:paused!important}}</style><defs><linearGradient id="lp14cjxp3-sky" x1="0" y1="0" x2="0" y2="1"><stop offset="0" class="lp-sky1"/><stop offset="1" class="lp-sky2"/></linearGradient><clipPath id="lp14cjxp3-clip"><rect x="10" y="10" width="820" height="260" rx="10"/></clipPath></defs><rect x="0.5" y="0.5" width="839" height="279" rx="14" class="lp-card"/><g clip-path="url(#lp14cjxp3-clip)"><rect x="10" y="10" width="820" height="260" fill="url(#lp14cjxp3-sky)"/><g class="lp-day lp-px"><g transform="translate(75.6 30.8)"><g class="lp-cloud" style="animation-duration:14.16s"><g transform="translate(0 0) scale(3)"><path fill="#ffffffd9" d="M3 0h3v1h-3zm-2 1h7v1h-7zm-1 1h9v1h-9zm1 1h7v1h-7z"/></g></g></g><g transform="translate(461 62)"><g class="lp-cloud" style="animation-duration:10.01s"><g transform="translate(0 0) scale(3)"><path fill="#ffffffd9" d="M3 0h3v1h-3zm-2 1h7v1h-7zm-1 1h9v1h-9zm1 1h7v1h-7z"/></g></g></g></g><g class="lp-night lp-px"><g transform="translate(798 24) scale(3)"><path fill="#fff3b0" d="M2 0h3v1h-3zm-1 1h2v1h-2zm-1 1h2v2h-2zm1 2h2v1h-2zm1 1h3v1h-3z"/></g><rect x="102.5" y="81.7" width="2" height="2" class="lp-star lp-twinkle" style="animation-duration:2.65s;animation-delay:-0.95s"/><rect x="267.6" y="114" width="2" height="2" class="lp-star lp-twinkle" style="animation-duration:2.45s;animation-delay:-0.03s"/><rect x="586.9" y="62.8" width="2" height="2" class="lp-star lp-twinkle" style="animation-duration:2.05s;animation-delay:-1.97s"/><rect x="426.5" y="32.5" width="2" height="2" class="lp-star lp-twinkle" style="animation-duration:1.63s;animation-delay:-0.03s"/><rect x="35" y="18.9" width="2" height="2" class="lp-star lp-twinkle" style="animation-duration:2.08s;animation-delay:-0.45s"/><rect x="30.3" y="92.5" width="2" height="2" class="lp-star lp-twinkle" style="animation-duration:2.92s;animation-delay:-2.68s"/><rect x="501.2" y="112.5" width="2" height="2" class="lp-star lp-twinkle" style="animation-duration:1.78s;animation-delay:-2.01s"/></g><g class="lp-night"><g transform="translate(607.9 46.1)"><g class="lp-shoot" style="animation-duration:6.84s;animation-delay:-0.72s"><rect x="0" y="0" width="14" height="1.5" fill="#fff8d6" transform="rotate(-27)"/><rect x="-1" y="-1" width="3" height="3" fill="#ffffff"/></g></g><g transform="translate(620.3 42.6)"><g class="lp-shoot" style="animation-duration:7.23s;animation-delay:-5.88s"><rect x="0" y="0" width="14" height="1.5" fill="#fff8d6" transform="rotate(-27)"/><rect x="-1" y="-1" width="3" height="3" fill="#ffffff"/></g></g><g transform="translate(514.9 72.4)"><g class="lp-shoot" style="animation-duration:7.07s;animation-delay:-8.31s"><rect x="0" y="0" width="14" height="1.5" fill="#fff8d6" transform="rotate(-27)"/><rect x="-1" y="-1" width="3" height="3" fill="#ffffff"/></g></g></g><g class="lp-day lp-px"><g transform="translate(171.9 45.1)"><g class="lp-fly" style="animation-duration:16.86s;animation-delay:-12.01s"><g class="lp-flap" style="animation-duration:0.41s;animation-delay:-0.00s"><g transform="translate(-5 0) scale(2)"><path fill="#3a4a5c" d="M0 0h1v1h-1zm4 0h1v1h-1zm-3 1h1v1h-1zm2 0h1v1h-1zm-1 1h1v1h-1z"/></g></g><g class="lp-flap" style="animation-duration:0.41s;animation-delay:-0.20s"><g transform="translate(-5 0) scale(2)"><path fill="#3a4a5c" d="M2 0h1v1h-1zm-1 1h1v1h-1zm2 0h1v1h-1zm-3 1h1v1h-1zm4 0h1v1h-1z"/></g></g></g></g><g transform="translate(420.2 87.2)"><g class="lp-fly" style="animation-duration:17.63s;animation-delay:-0.62s"><g class="lp-flap" style="animation-duration:0.51s;animation-delay:-0.00s"><g transform="translate(-5 0) scale(2)"><path fill="#3a4a5c" d="M0 0h1v1h-1zm4 0h1v1h-1zm-3 1h1v1h-1zm2 0h1v1h-1zm-1 1h1v1h-1z"/></g></g><g class="lp-flap" style="animation-duration:0.51s;animation-delay:-0.26s"><g transform="translate(-5 0) scale(2)"><path fill="#3a4a5c" d="M2 0h1v1h-1zm-1 1h1v1h-1zm2 0h1v1h-1zm-3 1h1v1h-1zm4 0h1v1h-1z"/></g></g></g></g><g transform="translate(152.6 53.2)"><g class="lp-fly" style="animation-duration:18.32s;animation-delay:-10.28s"><g class="lp-flap" style="animation-duration:0.43s;animation-delay:-0.00s"><g transform="translate(-5 0) scale(2)"><path fill="#3a4a5c" d="M0 0h1v1h-1zm4 0h1v1h-1zm-3 1h1v1h-1zm2 0h1v1h-1zm-1 1h1v1h-1z"/></g></g><g class="lp-flap" style="animation-duration:0.43s;animation-delay:-0.22s"><g transform="translate(-5 0) scale(2)"><path fill="#3a4a5c" d="M2 0h1v1h-1zm-1 1h1v1h-1zm2 0h1v1h-1zm-3 1h1v1h-1zm4 0h1v1h-1z"/></g></g></g></g><g transform="translate(316.8 38)"><g class="lp-fly" style="animation-duration:15.24s;animation-delay:-6.57s"><g class="lp-flap" style="animation-duration:0.45s;animation-delay:-0.00s"><g transform="translate(-5 0) scale(2)"><path fill="#3a4a5c" d="M0 0h1v1h-1zm4 0h1v1h-1zm-3 1h1v1h-1zm2 0h1v1h-1zm-1 1h1v1h-1z"/></g></g><g class="lp-flap" style="animation-duration:0.45s;animation-delay:-0.22s"><g transform="translate(-5 0) scale(2)"><path fill="#3a4a5c" d="M2 0h1v1h-1zm-1 1h1v1h-1zm2 0h1v1h-1zm-3 1h1v1h-1zm4 0h1v1h-1z"/></g></g></g></g><g transform="translate(550.1 59.5)"><g class="lp-fly" style="animation-duration:19.61s;animation-delay:-17.56s"><g class="lp-flap" style="animation-duration:0.41s;animation-delay:-0.00s"><g transform="translate(-5 0) scale(2)"><path fill="#3a4a5c" d="M0 0h1v1h-1zm4 0h1v1h-1zm-3 1h1v1h-1zm2 0h1v1h-1zm-1 1h1v1h-1z"/></g></g><g class="lp-flap" style="animation-duration:0.41s;animation-delay:-0.20s"><g transform="translate(-5 0) scale(2)"><path fill="#3a4a5c" d="M2 0h1v1h-1zm-1 1h1v1h-1zm2 0h1v1h-1zm-3 1h1v1h-1zm4 0h1v1h-1z"/></g></g></g></g><g transform="translate(591.6 64.9)"><g class="lp-fly" style="animation-duration:17.55s;animation-delay:-19.11s"><g class="lp-flap" style="animation-duration:0.49s;animation-delay:-0.00s"><g transform="translate(-5 0) scale(2)"><path fill="#3a4a5c" d="M0 0h1v1h-1zm4 0h1v1h-1zm-3 1h1v1h-1zm2 0h1v1h-1zm-1 1h1v1h-1z"/></g></g><g class="lp-flap" style="animation-duration:0.49s;animation-delay:-0.24s"><g transform="translate(-5 0) scale(2)"><path fill="#3a4a5c" d="M2 0h1v1h-1zm-1 1h1v1h-1zm2 0h1v1h-1zm-3 1h1v1h-1zm4 0h1v1h-1z"/></g></g></g></g></g><g class="lp-px"><path d="M10 188V132H16V132H22V126H28V124H34V128H40V142H46V160H52V172H58V176H64V168H70V160H76V154H82V156H88V160H94V158H100V148H106V132H112V118H118V112H124V116H130V128H136V138H142V142H148V140H154V138H160V144H166V156H172V172H178V180H184V176H190V164H196V150H202V142H208V140H214V144H220V142H226V134H232V122H238V112H244V112H250V124H256V140H262V152H268V158H274V156H280V154H286V156H292V164H298V174H304V176H310V168H316V152H322V134H328V126H334V126H340V130H346V134H352V130H358V124H364V118H370V124H376V138H382V156H388V170H394V172H400V166H406V158H412V156H418V160H424V164H430V162H436V152H442V134H448V120H454V114H460V118H466V128H472V136H478V138H484V134H490V134H496V140H502V154H508V170H514V180H520V176H526V166H532V152H538V146H544V146H550V148H556V146H562V136H568V122H574V112H580V112H586V122H592V138H598V148H604V152H610V150H616V150H622V154H628V164H634V176H640V178H646V170H652V154H658V138H664V130H670V130H676V134H682V136H688V130H694V120H700V116H706V120H712V136H718V154H724V166H730V168H736V162H742V158H748V158H754V164H760V168H766V166H772V154H778V136H784V122H790V116H796V120H802V130H808V134H814V134H820V130H826V128H830V188Z" class="lp-far"/><g class="lp-prop"><g transform="translate(512.4 149.2) scale(2)"><path fill="#c8553d" d="M1 0h4v1h-4zm-1 1h6v1h-6z"/><path fill="#efe6d8" d="M1 2h4v1h-4zm0 1h1v1h-1zm3 0h1v1h-1zm-3 1h4v2h-4zm-1 2h6v1h-6zm0 1h2v2h-2zm4 0h2v2h-2z"/><path fill="#7a5a3b" d="M2 3h2v1h-2zm0 4h2v2h-2z"/></g><g transform="translate(518.4 152.2)"><g class="lp-spin" style="animation-duration:6.29s"><g transform="rotate(45)"><rect x="-1" y="-22" width="2" height="22" fill="#7a5a3b"/><rect x="1" y="-20" width="4" height="14" fill="#f4f1ea"/></g><g transform="rotate(135)"><rect x="-1" y="-22" width="2" height="22" fill="#7a5a3b"/><rect x="1" y="-20" width="4" height="14" fill="#f4f1ea"/></g><g transform="rotate(225)"><rect x="-1" y="-22" width="2" height="22" fill="#7a5a3b"/><rect x="1" y="-20" width="4" height="14" fill="#f4f1ea"/></g><g transform="rotate(315)"><rect x="-1" y="-22" width="2" height="22" fill="#7a5a3b"/><rect x="1" y="-20" width="4" height="14" fill="#f4f1ea"/></g><rect x="-2" y="-2" width="4" height="4" fill="#5a3a22"/></g></g></g><path d="M10 188V166H16V168H22V164H28V158H34V162H40V170H46V178H52V178H58V176H64V178H70V182H76V178H82V168H88V160H94V162H100V166H106V166H112V162H118V168H124V178H130V184H136V180H142V174H148V174H154V176H160V170H166V162H172V158H178V162H184V170H190V170H196V170H202V174H208V182H214V184H220V178H226V170H232V168H238V170H244V166H250V160H256V158H262V166H268V176H274V176H280V174H286V176H292V182H298V182H304V172H310V164H316V162H322V166H328V166H334V162H340V164H346V174H352V182H358V180H364V176H370V176H376V178H382V174H388V166H394V158H400V160H406V166H412V168H418V168H424V170H430V180H436V184H442V180H448V174H454V170H460V172H466V168H472V160H478V156H484V162H490V172H496V174H502V174H508V176H514V182H520V184H526V176H532V166H538V164H544V166H550V166H556V162H562V160H568V168H574V178H580V180H586V176H592V176H598V178H604V178H610V170H616V160H622V160H628V164H634V168H640V166H646V166H652V176H658V184H664V182H670V176H676V172H682V174H688V172H694V164H700V158H706V160H712V168H718V172H724V172H730V172H736V180H742V184H748V180H754V170H760V166H766V168H772V168H778V162H784V158H790V164H796V174H802V178H808V176H814V176H820V180H826V182H830V188Z" class="lp-mid"/></g><g class="lp-px"><rect x="10" y="188" width="820" height="82" class="lp-ground"/><rect x="10" y="188" width="820" height="2" class="lp-ground2"/><rect x="15" y="185" width="2" height="3" class="lp-ground2"/><rect x="18" y="183" width="2" height="5" class="lp-ground2"/><rect x="32" y="185" width="2" height="3" class="lp-ground2"/><rect x="35" y="183" width="2" height="5" class="lp-ground2"/><rect x="48" y="185" width="2" height="3" class="lp-ground2"/><rect x="51" y="183" width="2" height="5" class="lp-ground2"/><rect x="69" y="185" width="2" height="3" class="lp-ground2"/><rect x="72" y="183" width="2" height="5" class="lp-ground2"/><rect x="87" y="185" width="2" height="3" class="lp-ground2"/><rect x="90" y="183" width="2" height="5" class="lp-ground2"/><rect x="99" y="185" width="2" height="3" class="lp-ground2"/><rect x="102" y="183" width="2" height="5" class="lp-ground2"/><rect x="115" y="185" width="2" height="3" class="lp-ground2"/><rect x="118" y="183" width="2" height="5" class="lp-ground2"/><rect x="128" y="185" width="2" height="3" class="lp-ground2"/><rect x="131" y="183" width="2" height="5" class="lp-ground2"/><rect x="146" y="185" width="2" height="3" class="lp-ground2"/><rect x="149" y="183" width="2" height="5" class="lp-ground2"/><rect x="161" y="185" width="2" height="3" class="lp-ground2"/><rect x="164" y="183" width="2" height="5" class="lp-ground2"/><rect x="174" y="185" width="2" height="3" class="lp-ground2"/><rect x="177" y="183" width="2" height="5" class="lp-ground2"/><rect x="195" y="185" width="2" height="3" class="lp-ground2"/><rect x="198" y="183" width="2" height="5" class="lp-ground2"/><rect x="217" y="185" width="2" height="3" class="lp-ground2"/><rect x="220" y="183" width="2" height="5" class="lp-ground2"/><rect x="239" y="185" width="2" height="3" class="lp-ground2"/><rect x="242" y="183" width="2" height="5" class="lp-ground2"/><rect x="253" y="185" width="2" height="3" class="lp-ground2"/><rect x="256" y="183" width="2" height="5" class="lp-ground2"/><rect x="269" y="185" width="2" height="3" class="lp-ground2"/><rect x="272" y="183" width="2" height="5" class="lp-ground2"/><rect x="286" y="185" width="2" height="3" class="lp-ground2"/><rect x="289" y="183" width="2" height="5" class="lp-ground2"/><rect x="303" y="185" width="2" height="3" class="lp-ground2"/><rect x="306" y="183" width="2" height="5" class="lp-ground2"/><rect x="316" y="185" width="2" height="3" class="lp-ground2"/><rect x="319" y="183" width="2" height="5" class="lp-ground2"/><rect x="333" y="185" width="2" height="3" class="lp-ground2"/><rect x="336" y="183" width="2" height="5" class="lp-ground2"/><rect x="351" y="185" width="2" height="3" class="lp-ground2"/><rect x="354" y="183" width="2" height="5" class="lp-ground2"/><rect x="369" y="185" width="2" height="3" class="lp-ground2"/><rect x="372" y="183" width="2" height="5" class="lp-ground2"/><rect x="388" y="185" width="2" height="3" class="lp-ground2"/><rect x="391" y="183" width="2" height="5" class="lp-ground2"/><rect x="406" y="185" width="2" height="3" class="lp-ground2"/><rect x="409" y="183" width="2" height="5" class="lp-ground2"/><rect x="418" y="185" width="2" height="3" class="lp-ground2"/><rect x="421" y="183" width="2" height="5" class="lp-ground2"/><rect x="432" y="185" width="2" height="3" class="lp-ground2"/><rect x="435" y="183" width="2" height="5" class="lp-ground2"/><rect x="446" y="185" width="2" height="3" class="lp-ground2"/><rect x="449" y="183" width="2" height="5" class="lp-ground2"/><rect x="459" y="185" width="2" height="3" class="lp-ground2"/><rect x="462" y="183" width="2" height="5" class="lp-ground2"/><rect x="480" y="185" width="2" height="3" class="lp-ground2"/><rect x="483" y="183" width="2" height="5" class="lp-ground2"/><rect x="498" y="185" width="2" height="3" class="lp-ground2"/><rect x="501" y="183" width="2" height="5" class="lp-ground2"/><rect x="518" y="185" width="2" height="3" class="lp-ground2"/><rect x="521" y="183" width="2" height="5" class="lp-ground2"/><rect x="530" y="185" width="2" height="3" class="lp-ground2"/><rect x="533" y="183" width="2" height="5" class="lp-ground2"/><rect x="551" y="185" width="2" height="3" class="lp-ground2"/><rect x="554" y="183" width="2" height="5" class="lp-ground2"/><rect x="568" y="185" width="2" height="3" class="lp-ground2"/><rect x="571" y="183" width="2" height="5" class="lp-ground2"/><rect x="585" y="185" width="2" height="3" class="lp-ground2"/><rect x="588" y="183" width="2" height="5" class="lp-ground2"/><rect x="601" y="185" width="2" height="3" class="lp-ground2"/><rect x="604" y="183" width="2" height="5" class="lp-ground2"/><rect x="617" y="185" width="2" height="3" class="lp-ground2"/><rect x="620" y="183" width="2" height="5" class="lp-ground2"/><rect x="636" y="185" width="2" height="3" class="lp-ground2"/><rect x="639" y="183" width="2" height="5" class="lp-ground2"/><rect x="658" y="185" width="2" height="3" class="lp-ground2"/><rect x="661" y="183" width="2" height="5" class="lp-ground2"/><rect x="679" y="185" width="2" height="3" class="lp-ground2"/><rect x="682" y="183" width="2" height="5" class="lp-ground2"/><rect x="691" y="185" width="2" height="3" class="lp-ground2"/><rect x="694" y="183" width="2" height="5" class="lp-ground2"/><rect x="710" y="185" width="2" height="3" class="lp-ground2"/><rect x="713" y="183" width="2" height="5" class="lp-ground2"/><rect x="727" y="185" width="2" height="3" class="lp-ground2"/><rect x="730" y="183" width="2" height="5" class="lp-ground2"/><rect x="744" y="185" width="2" height="3" class="lp-ground2"/><rect x="747" y="183" width="2" height="5" class="lp-ground2"/><rect x="764" y="185" width="2" height="3" class="lp-ground2"/><rect x="767" y="183" width="2" height="5" class="lp-ground2"/><rect x="780" y="185" width="2" height="3" class="lp-ground2"/><rect x="783" y="183" width="2" height="5" class="lp-ground2"/><rect x="794" y="185" width="2" height="3" class="lp-ground2"/><rect x="797" y="183" width="2" height="5" class="lp-ground2"/><rect x="812" y="185" width="2" height="3" class="lp-ground2"/><rect x="815" y="183" width="2" height="5" class="lp-ground2"/><rect x="50.8" y="223.9" width="3" height="2" class="lp-ground2"/><rect x="716.7" y="220.9" width="3" height="2" class="lp-ground2"/><rect x="782.5" y="251.8" width="3" height="2" class="lp-ground2"/><rect x="724.6" y="220.1" width="3" height="2" class="lp-ground2"/><rect x="251" y="221.1" width="3" height="2" class="lp-ground2"/></g><g class="lp-px"><g transform="translate(805.4 191)"><g class="lp-sway-soft lp-prop" style="animation-duration:7.91s;animation-delay:-0.00s"><g transform="translate(-18 -33) scale(3)"><path fill="#f0a030" d="M3 0h6v1h-6zm-2 1h4v1h-4zm5 0h5v1h-5zm-6 1h2v1h-2zm3 0h6v1h-6zm7 0h2v1h-2zm-10 1h7v1h-7zm8 0h4v1h-4zm-8 1h1v1h-1zm2 0h8v1h-8zm9 0h1v1h-1zm-11 1h4v1h-4zm5 0h7v1h-7zm-4 1h6v1h-6zm7 0h3v1h-3zm-5 1h6v1h-6z"/><path fill="#d9542b" d="M5 1h1v1h-1zm-3 1h1v1h-1zm7 0h1v1h-1zm-2 1h1v1h-1zm-6 1h1v1h-1zm9 0h1v1h-1zm-6 1h1v1h-1zm3 1h1v1h-1z"/><path fill="#7a4b2a" d="M5 8h2v2h-2zm-1 2h4v1h-4z"/></g></g></g><g transform="translate(26.4 190.4)"><g class="lp-sway-soft lp-prop" style="animation-duration:5.06s;animation-delay:-0.00s"><g transform="translate(-14.4 -26.4) scale(2.4000000000000004)"><path fill="#f0a030" d="M3 0h6v1h-6zm-2 1h4v1h-4zm5 0h5v1h-5zm-6 1h2v1h-2zm3 0h6v1h-6zm7 0h2v1h-2zm-10 1h7v1h-7zm8 0h4v1h-4zm-8 1h1v1h-1zm2 0h8v1h-8zm9 0h1v1h-1zm-11 1h4v1h-4zm5 0h7v1h-7zm-4 1h6v1h-6zm7 0h3v1h-3zm-5 1h6v1h-6z"/><path fill="#d9542b" d="M5 1h1v1h-1zm-3 1h1v1h-1zm7 0h1v1h-1zm-2 1h1v1h-1zm-6 1h1v1h-1zm9 0h1v1h-1zm-6 1h1v1h-1zm3 1h1v1h-1z"/><path fill="#7a4b2a" d="M5 8h2v2h-2zm-1 2h4v1h-4z"/></g></g></g></g><g class="lp-px"><g transform="translate(700 182) scale(2)"><path fill="#4a4f5c" d="M2 0h4v1h-4zm-1 1h1v1h-1zm5 0h1v1h-1zm-6 1h1v6h-1zm7 0h1v6h-1zm-5 1h4v1h-4zm0 2h2v1h-2zm-2 3h8v1h-8z"/><path fill="#9aa0ae" d="M2 1h4v1h-4zm-1 1h6v1h-6zm0 1h1v1h-1zm5 0h1v1h-1zm-5 1h6v1h-6zm0 1h1v1h-1zm3 0h3v1h-3zm-3 1h6v2h-6z"/></g></g><ellipse cx="95" cy="199" rx="30" ry="3" class="lp-shadow"/><g transform="translate(95 200)"><style>@keyframes lp-mv-waddle{0%,76%,100%{transform:translate(0,0) rotate(0) scale(1,1) skewX(0)}80%{transform:translate(-3px,0) rotate(-10deg) scale(1,1) skewX(0)}84%{transform:translate(0,0) rotate(10deg) scale(1,1) skewX(0)}88%{transform:translate(3px,0) rotate(-10deg) scale(1,1) skewX(0)}92%{transform:translate(0,0) rotate(10deg) scale(1,1) skewX(0)}96%{transform:translate(0,0) rotate(-4deg) scale(1,1) skewX(0)}}.lp-mv-waddle{animation:lp-mv-waddle 7s ease-in-out infinite}</style><g class="lp-mv-waddle" style="animation-duration:7.00s;animation-delay:1.00s"><g class="lp-hop" style="animation-duration:1.20s"><g transform="translate(-95 -200)" class="lp-px"><g transform="translate(55 125) scale(2.5)"><path fill="#3d2c00" d="M10 2h12v1h-12zm-1 1h2v1h-2zm12 0h2v1h-2zm-13 1h3v1h-3zm13 0h3v1h-3zm-14 1h2v1h-2zm16 0h2v1h-2zm-17 1h2v1h-2zm18 0h2v1h-2zm-18 1h1v1h-1zm19 0h1v1h-1zm-19 5h1v1h-1zm19 0h1v1h-1zm-20 1h2v1h-2zm20 0h2v1h-2zm-21 1h4v1h-4zm8 0h2v2h-2zm6 0h2v2h-2zm6 0h4v1h-4zm-21 1h2v1h-2zm3 0h2v1h-2zm18 0h2v1h-2zm3 0h2v1h-2zm-25 1h3v1h-3zm25 0h3v1h-3zm-26 1h2v1h-2zm28 0h2v1h-2zm-29 1h3v1h-3zm29 0h3v1h-3zm-29 1h1v4h-1zm31 0h1v4h-1zm-31 4h3v1h-3zm29 0h3v1h-3zm-28 1h2v1h-2zm28 0h2v1h-2zm-27 1h3v1h-3zm25 0h3v1h-3zm-24 1h2v1h-2zm24 0h2v1h-2zm-23 1h1v1h-1zm23 0h1v1h-1zm-22 1h1v1h-1zm21 0h1v1h-1zm-20 1h20v1h-20z"/><path fill="#fff0b6" d="M11 3h2v1h-2zm0 1h8v1h-8zm-2 1h9v1h-9zm3 1h1v1h-1zm-4 1h4v1h-4zm0 1h2v1h-2zm-3 7h1v1h-1zm0 1h5v1h-5zm-2 1h7v1h-7zm0 1h3v1h-3zm5 0h1v1h-1zm-7 1h5v1h-5zm0 1h3v1h-3z"/><path fill="#ffd93d" d="M13 3h7v1h-7zm6 1h1v1h-1zm-1 1h4v1h-4zm-5 1h7v1h-7zm0 1h6v1h-6zm7 0h4v1h-4zm-13 1h1v1h-1zm5 0h1v2h-1zm2 0h4v1h-4zm5 0h4v2h-4zm-12 1h3v1h-3zm0 1h6v2h-6zm7 0h4v2h-4zm5 0h3v2h-3zm-10 4h3v1h-3zm11 0h1v1h-1zm-12 1h4v1h-4zm12 0h3v1h-3zm6 0h1v1h-1zm-16 1h2v2h-2zm10 0h7v1h-7zm0 1h8v1h-8zm-11 1h15v1h-15zm17 0h2v1h-2zm-17 1h14v1h-14zm17 0h5v1h-5zm-22 1h3v1h-3zm6 0h12v2h-12zm15 0h5v1h-5zm-22 1h5v1h-5zm21 0h2v1h-2zm-19 1h20v1h-20zm1 1h18v2h-18zm0 2h4v1h-4z"/><path fill="#f2ba00" d="M20 3h1v2h-1zm2 2h1v1h-1zm1 3h1v2h-1zm-1 2h1v2h-1zm-15 3h1v1h-1zm1 1h1v1h-1zm13 0h1v1h-1zm7 3h1v2h-1zm-27 4h2v1h-2zm25 0h3v1h-3zm-22 1h1v1h-1zm21 0h2v1h-2zm-21 1h2v1h-2zm20 0h2v1h-2zm0 1h1v1h-1zm-19 1h1v1h-1zm5 0h15v1h-15zm0 1h12v1h-12z"/><path fill="#4c6ef5" d="M8 6h4v1h-4zm12 0h4v1h-4zm-13 1h1v1h-1zm5 0h1v1h-1zm7 0h1v1h-1zm5 0h1v1h-1zm-18 1h1v4h-1zm7 0h1v1h-1zm5 0h1v1h-1zm7 0h1v4h-1zm-12 1h6v1h-6zm0 1h1v2h-1zm5 0h1v2h-1zm-11 2h1v1h-1zm5 0h1v1h-1zm7 0h1v1h-1zm5 0h1v1h-1zm-16 1h4v1h-4zm12 0h4v1h-4z"/><path fill="#fffbea" d="M10 8h1v1h-1z"/><path fill="#fff3a6" d="M11 8h1v1h-1zm-1 1h2v1h-2z"/><path fill="#dc9b00" d="M24 8h1v2h-1zm-1 2h2v2h-2zm1 3h1v1h-1zm-2 1h2v1h-2zm1 1h1v1h-1zm7 5h1v1h-1zm-1 1h2v1h-2zm-28 1h3v1h-3zm26 0h4v1h-4zm-24 1h1v1h-1zm23 0h3v1h-3zm-23 1h3v1h-3zm22 0h4v1h-4zm0 1h2v1h-2zm-15 2h12v2h-12z"/><path fill="#ffad7f" d="M8 12h4v1h-4zm12 0h1v1h-1z"/><path fill="#ff8c1a" d="M13 12h6v1h-6zm-1 1h8v1h-8z"/><path fill="#faa067" d="M21 12h2v1h-2z"/><path fill="#f19467" d="M23 12h1v1h-1z"/><path fill="#ff5d73" d="M14 14h4v2h-4z"/><path fill="#d96a00" d="M12 16h8v2h-8z"/><path fill="#f8d159" d="M6 18h2v1h-2z"/><path fill="#f2b705" d="M24 18h2v1h-2zm-18 1h3v1h-3zm17 0h3v1h-3zm-16 1h3v1h-3zm15 0h3v1h-3zm-14 1h2v1h-2zm14 0h2v1h-2z"/><path fill="#df9a00" d="M5 26h5v1h-5zm17 0h3v1h-3zm-17 1h1v1h-1z"/><path fill="#c67d00" d="M25 26h2v1h-2zm-19 1h4v2h-4zm16 0h5v1h-5zm0 1h4v1h-4z"/></g><g transform="translate(55 125) scale(2.5)"><path fill="#3d2c00" d="M9 9h2v1h-2zm12 0h2v1h-2zm-13 1h1v1h-1zm3 0h1v1h-1zm9 0h1v1h-1zm3 0h1v1h-1z"/></g><g transform="translate(55 125) scale(2.5)"><path fill="#ffd23f" d="M8 -4h2v1h-2zm8 0h2v2h-2zm7 0h1v1h-1zm-15 1h3v3h-3zm6 0h1v1h-1zm0 1h4v2h-4zm6 0h1v2h-1zm2 0h1v2h-1zm-14 2h5v1h-5zm10 0h1v1h-1zm3 0h1v1h-1zm-13 1h6v1h-6zm10 0h4v1h-4z"/><path fill="#ffeb9f" d="M14 -4h2v1h-2zm8 0h1v1h-1zm-7 1h1v1h-1zm6 0h2v1h-2zm0 1h1v2h-1zm-8 2h1v1h-1zm6 0h2v1h-2z"/><path fill="#f2b300" d="M23 -3h1v1h-1zm-12 1h1v2h-1zm11 2h1v2h-1z"/><path fill="#db9400" d="M23 -2h1v4h-1z"/><path fill="#ff7c7e" d="M14 0h1v1h-1z"/><path fill="#ff4d6d" d="M15 0h3v1h-3zm-1 1h4v1h-4z"/><path fill="#c99a06" d="M8 2h1v2h-1z"/><path fill="#b67f00" d="M9 2h14v1h-14z"/><path fill="#9d6300" d="M23 2h1v1h-1zm-14 1h15v1h-15z"/></g></g></g></g></g><g transform="translate(55 134.2)"><g class="lp-rise lp-px" style="animation-duration:3.30s;animation-delay:-0.00s"><g transform="translate(-5 -4) scale(2)"><path fill="#ff5d8f" d="M0 0h2v1h-2zm3 0h2v1h-2zm-3 1h5v1h-5zm1 1h3v1h-3zm1 1h1v1h-1z"/></g></g></g><g transform="translate(130.2 127.2)"><g class="lp-rise lp-px" style="animation-duration:3.30s;animation-delay:-1.10s"><g transform="translate(-5 -4) scale(2)"><path fill="#ff5d8f" d="M0 0h2v1h-2zm3 0h2v1h-2zm-3 1h5v1h-5zm1 1h3v1h-3zm1 1h1v1h-1z"/></g></g></g><g transform="translate(95 120.2)"><g class="lp-rise lp-px" style="animation-duration:3.30s;animation-delay:-2.20s"><g transform="translate(-5 -4) scale(2)"><path fill="#ff5d8f" d="M0 0h2v1h-2zm3 0h2v1h-2zm-3 1h5v1h-5zm1 1h3v1h-3zm1 1h1v1h-1z"/></g></g></g><ellipse cx="225" cy="199" rx="30" ry="3" class="lp-shadow"/><g transform="translate(225 200)"><style>@keyframes lp-mv-stretch{0%,76%,100%{transform:translate(0,0) rotate(0) scale(1,1) skewX(0)}82%,92%{transform:translate(0,0) rotate(0) scale(1.16,.86) skewX(0)}}.lp-mv-stretch{animation:lp-mv-stretch 7s ease-in-out infinite}</style><g class="lp-mv-stretch" style="animation-duration:7.00s;animation-delay:0.87s"><g class="lp-bounce" style="animation-duration:2.00s"><g transform="translate(-225 -200)" class="lp-px"><g transform="translate(185 125) scale(2.5)"><path fill="#3b2416" d="M2 2h4v1h-4zm24 0h4v1h-4zm-24 1h2v1h-2zm4 0h1v1h-1zm19 0h1v1h-1zm3 0h2v1h-2zm-26 1h1v6h-1zm5 0h1v1h-1zm17 0h1v1h-1zm5 0h1v6h-1zm-22 1h2v1h-2zm16 0h2v1h-2zm-16 1h3v1h-3zm15 0h3v1h-3zm-13 1h2v1h-2zm12 0h2v1h-2zm-12 1h14v1h-14zm-8 2h2v2h-2zm28 0h2v2h-2zm-29 2h3v2h-3zm29 0h3v2h-3zm-29 2h1v7h-1zm31 0h1v7h-1zm-18 6h1v1h-1zm5 0h1v1h-1zm-18 1h3v1h-3zm14 0h4v1h-4zm15 0h3v1h-3zm-28 1h2v1h-2zm28 0h2v1h-2zm-27 1h3v1h-3zm25 0h3v1h-3zm-24 1h2v1h-2zm24 0h2v1h-2zm-23 1h1v3h-1zm23 0h1v3h-1zm-23 3h2v1h-2zm22 0h2v1h-2zm-22 1h24v1h-24z"/><path fill="#fdbc77" d="M4 3h1v3h-1zm22 0h1v3h-1zm-3 4h3v2h-3zm-1 2h3v1h-3zm-12 1h2v2h-2zm4 0h4v2h-4zm6 0h5v1h-5zm0 1h4v1h-4zm-19 3h4v1h-4zm1 1h3v1h-3z"/><path fill="#f4a259" d="M5 3h1v1h-1zm22 0h1v1h-1zm-24 1h1v2h-1zm2 0h2v1h-2zm20 0h1v3h-1zm2 0h2v1h-2zm-22 1h1v1h-1zm22 0h1v1h-1zm-21 2h2v1h-2zm-3 1h5v1h-5zm23 0h1v1h-1zm-23 1h9v1h-9zm11 0h4v1h-4zm6 0h2v1h-2zm5 0h2v2h-2zm-22 1h7v2h-7zm21 1h2v1h-2zm-21 1h9v2h-9zm11 0h4v2h-4zm6 0h6v1h-6zm0 1h7v1h-7zm-15 1h24v2h-24zm-4 1h1v1h-1zm0 1h28v1h-28zm0 1h27v1h-27zm0 1h26v1h-26zm3 1h22v1h-22zm4 1h5v1h-5zm6 0h4v1h-4zm5 0h5v1h-5zm-12 1h7v1h-7zm11 0h6v1h-6zm-12 1h18v1h-18zm-1 1h19v1h-19zm0 1h6v1h-6zm16 0h3v1h-3zm-16 1h5v1h-5zm1 1h1v1h-1z"/><path fill="#cc6430" d="M6 5h1v2h-1zm22 0h1v1h-1zm0 3h1v2h-1zm-1 2h2v2h-2zm1 2h1v2h-1zm2 3h1v2h-1zm-1 2h2v2h-2zm-1 2h3v2h-3zm-27 1h3v1h-3zm2 1h1v1h-1zm24 0h2v1h-2zm-24 1h3v1h-3zm22 0h4v1h-4zm0 1h2v4h-2zm-19 4h2v2h-2zm18 0h3v1h-3zm0 1h2v1h-2z"/><path fill="#ff9eb5" d="M3 6h3v2h-3z"/><path fill="#ffbec6" d="M26 6h1v2h-1z"/><path fill="#e584a9" d="M27 6h1v2h-1z"/><path fill="#c7699a" d="M28 6h1v2h-1z"/><path fill="#e38444" d="M8 7h1v2h-1zm19 1h1v2h-1zm-1 3h1v1h-1zm0 1h2v1h-2zm1 1h1v1h-1zm2 1h2v1h-2zm0 1h1v2h-1zm-1 2h1v1h-1zm-1 1h2v1h-2zm-26 1h3v1h-3zm25 0h2v1h-2zm-22 2h1v1h-1zm20 0h1v4h-1zm-2 4h3v1h-3zm-17 1h1v2h-1zm2 0h2v1h-2zm16 0h2v1h-2z"/><path fill="#d9822b" d="M12 9h2v1h-2zm6 0h2v1h-2zm-6 3h2v2h-2zm6 0h2v2h-2z"/><path fill="#e19c50" d="M12 10h2v2h-2zm6 0h2v2h-2z"/><path fill="#f48b82" d="M4 20h1v1h-1zm21 0h2v1h-2zm-20 1h1v1h-1zm20 0h1v1h-1z"/><path fill="#fb978a" d="M5 20h3v1h-3zm19 0h1v1h-1zm-18 1h1v1h-1z"/><path fill="#eb7e7a" d="M27 20h1v1h-1zm-1 1h1v1h-1z"/><path fill="#fff4e6" d="M11 24h10v1h-10zm-1 1h1v1h-1z"/><path fill="#f0d7c9" d="M11 25h11v1h-11zm-2 1h14v1h-14z"/><path fill="#dbbaa7" d="M8 27h16v2h-16z"/></g><g class="lp-blink-open" style="animation-duration:4.47s"><g transform="translate(185 125) scale(2.5)"><path fill="#3b2416" d="M9 16h2v1h-2zm12 0h2v1h-2zm-13 1h1v1h-1zm2 0h2v1h-2zm10 0h1v1h-1zm2 0h2v1h-2zm-14 1h4v1h-4zm12 0h4v1h-4zm-12 1h1v1h-1zm3 0h1v1h-1zm9 0h1v1h-1zm3 0h1v1h-1zm-14 1h2v1h-2zm12 0h2v1h-2z"/><path fill="#ffffff" d="M9 17h1v1h-1zm12 0h1v1h-1z"/><path fill="#6e5b50" d="M9 19h2v1h-2zm12 0h2v1h-2z"/></g></g><g class="lp-blink-closed" style="animation-duration:4.47s"><g transform="translate(185 125) scale(2.5)"><path fill="#3b2416" d="M8 18h4v1h-4zm12 0h4v1h-4zm-11 1h2v1h-2zm12 0h2v1h-2z"/></g></g></g></g></g></g><g transform="translate(261.8 130)"><g class="lp-rise lp-px" style="animation-duration:3.60s;animation-delay:-0.00s"><g transform="translate(-4 -5) scale(1)"><path class="lp-ink" d="M2 0h2v1h-2zm0 1h1v2h-1zm-2 2h3v1h-3zm0 1h2v1h-2z"/></g></g></g><g transform="translate(183.4 125.8)"><g class="lp-rise lp-px" style="animation-duration:3.60s;animation-delay:-1.60s"><g transform="translate(-4 -5) scale(1)"><path class="lp-ink" d="M2 0h2v1h-2zm0 1h1v2h-1zm-2 2h3v1h-3zm0 1h2v1h-2z"/></g></g></g><ellipse cx="355" cy="199" rx="30" ry="3" class="lp-shadow"/><g transform="translate(355 200)"><g class="lp-shiver" style="animation-duration:0.35s"><g transform="translate(-355 -200)" class="lp-px"><g transform="translate(315 130) scale(2.5)"><path fill="#2a1840" d="M10 2h12v1h-12zm-2 1h2v1h-2zm12 0h4v1h-4zm-14 1h3v1h-3zm14 0h6v1h-6zm-15 1h2v1h-2zm20 0h2v1h-2zm-21 1h3v1h-3zm21 0h3v1h-3zm-22 1h2v1h-2zm24 0h2v1h-2zm-25 1h3v1h-3zm25 0h3v1h-3zm-25 1h1v11h-1zm27 0h1v11h-1zm-15 8h1v1h-1zm3 0h1v1h-1zm-4 1h1v1h-1zm2 0h2v1h-2zm3 0h1v1h-1zm-17 2h2v1h-2zm28 0h2v1h-2zm-28 1h1v1h-1zm29 0h1v1h-1zm-30 1h1v4h-1zm31 0h1v4h-1zm-26 3h4v2h-4zm6 0h4v2h-4zm6 0h4v2h-4zm6 0h4v2h-4zm-22 1h1v1h-1zm29 0h1v1h-1zm-28 1h4v1h-4zm6 0h4v1h-4zm6 0h4v1h-4zm6 0h4v1h-4zm6 0h4v1h-4z"/><path fill="#ceb0eb" d="M10 3h1v1h-1zm-1 1h9v1h-9zm-2 1h1v2h-1zm2 0h8v1h-8zm12 1h2v1h-2zm-16 1h2v1h-2zm3 0h1v1h-1zm-3 1h1v1h-1zm-2 1h3v1h-3zm1 1h3v1h-3zm-2 11h1v1h-1zm0 1h2v1h-2z"/><path fill="#b79ce2" d="M11 3h8v1h-8zm7 1h1v1h-1zm-1 1h7v1h-7zm-5 1h9v1h-9zm11 0h1v1h-1zm-11 1h14v1h-14zm-3 1h17v1h-17zm-1 1h21v1h-21zm-5 1h1v1h-1zm4 0h20v1h-20zm-4 1h24v1h-24zm0 1h23v4h-23zm0 4h1v1h-1zm5 0h16v1h-16zm-5 1h2v1h-2zm4 0h7v1h-7zm8 0h2v1h-2zm3 0h7v1h-7zm-15 1h10v1h-10zm11 0h1v1h-1zm3 0h1v1h-1zm2 0h7v1h-7zm-16 1h23v1h-23zm3 1h20v1h-20zm0 1h6v1h-6zm7 0h5v1h-5zm6 0h7v1h-7zm-18 1h1v1h-1zm3 0h1v1h-1zm23 0h2v2h-2zm-26 1h4v1h-4zm1 1h2v1h-2z"/><path fill="#9f84cd" d="M19 3h1v2h-1zm5 2h1v2h-1zm2 2h1v2h-1zm1 3h1v2h-1zm-1 2h1v4h-1zm0 6h1v1h-1zm0 1h2v1h-2zm-14 2h1v1h-1zm6 0h1v1h-1zm11 0h1v1h-1zm-24 1h22v1h-22zm24 0h2v1h-2zm0 1h1v1h-1zm-28 1h1v2h-1z"/><path fill="#f0e9f6" d="M8 5h1v1h-1zm0 1h3v1h-3zm-1 1h1v1h-1zm2 0h1v1h-1zm-3 1h3v1h-3zm0 1h2v1h-2z"/><path fill="#dcd5e2" d="M11 6h1v1h-1zm-1 1h2v1h-2z"/><path fill="#866ab5" d="M28 10h1v2h-1zm-1 2h2v4h-2zm1 4h1v1h-1zm-1 1h2v2h-2zm1 2h1v1h-1zm-23 4h22v1h-22zm25 0h1v1h-1zm-26 1h27v1h-27zm-2 1h3v2h-3zm7 0h2v2h-2zm6 0h2v2h-2zm6 0h2v2h-2zm6 0h4v1h-4zm0 1h3v1h-3z"/><path fill="#e7677f" d="M4 16h4v1h-4zm20 0h2v1h-2zm-19 1h2v1h-2zm20 0h1v1h-1z"/><path fill="#df5f78" d="M26 16h1v2h-1z"/><path fill="#d75770" d="M27 16h1v1h-1z"/><path fill="#9779d6" d="M3 20h3v1h-3zm23 0h1v1h-1zm-22 1h2v1h-2zm22 0h2v1h-2z"/><path fill="#855fbf" d="M27 20h1v1h-1zm1 1h1v1h-1z"/><path fill="#6d44a7" d="M28 20h1v1h-1z"/><path fill="#af8ddc" d="M3 21h1v1h-1z"/></g><g transform="translate(315 130) scale(2.5)"><path fill="#2a1840" d="M8 11h2v1h-2zm14 0h2v1h-2zm-12 1h2v1h-2zm10 0h2v1h-2zm-8 1h2v1h-2zm6 0h2v1h-2zm-8 1h2v1h-2zm10 0h2v1h-2zm-12 1h2v1h-2zm14 0h2v1h-2z"/></g><g transform="translate(315 130) scale(2.5)"><path fill="#2b4a6b" d="M12 0h8v1h-8zm-1 1h1v1h-1zm9 0h1v1h-1zm-10 1h1v3h-1zm11 0h1v3h-1zm-11 3h2v1h-2zm10 0h2v1h-2z"/><path fill="#d6f5ff" d="M12 1h6v2h-6z"/><path fill="#a8e6ff" d="M18 1h2v1h-2zm-7 1h1v1h-1zm7 0h3v1h-3zm-7 1h9v1h-9z"/><path fill="#7aafd6" d="M20 3h1v1h-1zm-2 1h3v1h-3zm-6 1h8v1h-8z"/><path fill="#91ccec" d="M11 4h7v1h-7z"/></g></g></g></g><g transform="translate(388.6 140.6)"><g class="lp-drip lp-px" style="animation-duration:1.8s;animation-delay:-0.00s"><g transform="translate(-3 0) scale(2)"><path fill="#7fd3ff" d="M1 0h1v1h-1zm-1 1h3v2h-3zm1 2h1v1h-1z"/></g></g></g><g transform="translate(318.2 140.6)"><g class="lp-drip lp-px" style="animation-duration:1.8s;animation-delay:-0.90s"><g transform="translate(-3 0) scale(2)"><path fill="#7fd3ff" d="M1 0h1v1h-1zm-1 1h3v2h-3zm1 2h1v1h-1z"/></g></g></g><ellipse cx="485" cy="199" rx="30" ry="3" class="lp-shadow"/><g transform="translate(485 200)"><g class="lp-growl" style="animation-duration:3.00s"><g transform="translate(-485 -200)" class="lp-px"><g transform="translate(445 125) scale(2.5)"><path fill="#16351f" d="M10 2h12v1h-12zm-1 1h1v1h-1zm12 0h2v1h-2zm-13 1h1v1h-1zm13 0h3v1h-3zm-14 1h1v1h-1zm16 0h2v1h-2zm-17 1h1v5h-1zm17 0h3v1h-3zm2 1h1v4h-1zm-10 3h2v1h-2zm-9 1h3v1h-3zm8 0h1v2h-1zm3 0h1v2h-1zm6 0h3v1h-3zm-16 1h2v1h-2zm16 0h2v1h-2zm-15 1h3v1h-3zm7 0h2v1h-2zm6 0h3v1h-3zm-11 1h1v2h-1zm11 0h1v2h-1zm-15 2h6v1h-6zm14 0h6v1h-6zm-15 1h1v1h-1zm5 0h2v1h-2zm10 0h2v1h-2zm6 0h1v1h-1zm-22 1h1v2h-1zm23 0h1v2h-1zm-24 2h2v1h-2zm24 0h2v1h-2zm-24 1h1v1h-1zm25 0h1v1h-1zm-26 1h1v2h-1zm27 0h1v2h-1zm-28 2h2v1h-2zm28 0h2v1h-2zm-28 1h1v1h-1zm29 0h1v1h-1zm-30 1h1v2h-1zm31 0h1v2h-1zm-31 2h2v1h-2zm30 0h2v1h-2zm-30 1h32v1h-32z"/><path fill="#d9ffc1" d="M10 3h1v1h-1zm-1 1h5v2h-5z"/><path fill="#b6f0a8" d="M11 3h3v1h-3z"/><path fill="#6fcf6f" d="M14 3h6v1h-6zm5 1h1v1h-1zm-1 1h4v1h-4zm-11 1h1v1h-1zm4 0h11v1h-11zm-4 1h18v1h-18zm0 1h17v1h-17zm3 1h10v1h-10zm1 1h4v1h-4zm6 0h2v1h-2zm-5 1h2v2h-2zm0 2h3v1h-3zm5 0h1v1h-1zm-5 1h5v1h-5zm1 1h4v2h-4zm-6 2h3v1h-3zm5 0h7v1h-7zm11 0h3v1h-3zm-18 1h1v1h-1zm3 0h2v2h-2zm6 0h6v2h-6zm10 0h3v1h-3zm-19 1h2v1h-2zm19 0h1v1h-1zm-21 3h1v1h-1zm4 0h3v1h-3zm5 0h8v2h-8zm10 0h5v2h-5zm-19 1h7v1h-7zm-1 2h1v1h-1zm-1 1h4v1h-4z"/><path fill="#2bbb65" d="M20 3h1v2h-1zm2 2h1v2h-1zm-15 4h3v1h-3zm13 0h3v1h-3zm-10 1h1v1h-1zm9 0h2v1h-2zm-9 1h2v1h-2zm8 0h2v1h-2zm0 1h1v2h-1zm-7 1h1v2h-1zm6 1h2v1h-2zm-6 1h2v1h-2zm6 0h1v2h-1zm-5 1h1v1h-1zm13 3h1v1h-1zm2 2h1v1h-1zm0 1h2v1h-2zm0 1h1v1h-1zm2 2h1v1h-1zm-24 1h1v1h-1zm3 0h6v1h-6zm8 0h6v1h-6zm8 0h7v1h-7zm-23 1h2v1h-2z"/><path fill="#9bdd83" d="M14 4h5v1h-5zm-6 1h1v1h-1zm6 0h4v1h-4zm-6 1h3v1h-3zm-2 11h1v1h-1zm16 0h1v1h-1zm-16 1h2v1h-2zm6 0h2v2h-2zm10 0h2v2h-2zm-15 1h1v1h-1zm-3 2h1v1h-1zm0 1h3v1h-3z"/><path fill="#009d66" d="M24 8h1v1h-1zm-1 1h2v1h-2zm-16 1h3v1h-3zm14 0h4v1h-4zm-12 1h1v1h-1zm11 0h3v1h-3zm-11 1h3v1h-3zm10 0h4v1h-4zm0 1h2v2h-2zm-1 2h3v1h-3zm0 1h2v1h-2zm1 1h1v1h-1zm7 2h1v1h-1zm2 4h1v1h-1zm-25 4h3v1h-3zm5 0h6v2h-6zm8 0h6v2h-6zm8 0h7v1h-7zm-22 1h4v1h-4zm22 0h6v1h-6z"/><path fill="#773d36" d="M15 11h2v1h-2z"/><path fill="#ff5d73" d="M15 12h2v1h-2z"/><path fill="#2f7a3d" d="M10 18h1v1h-1zm10 0h1v2h-1zm-10 4h2v2h-2zm10 0h2v2h-2z"/><path fill="#55894e" d="M11 18h1v1h-1zm10 0h1v2h-1zm-11 1h2v1h-2z"/><path fill="#44a454" d="M5 20h6v1h-6zm8 0h8v1h-8zm10 0h2v1h-2zm-16 1h19v1h-19zm-4 3h24v1h-24zm0 1h6v1h-6zm21 0h3v1h-3z"/><path fill="#71b266" d="M11 20h2v1h-2zm10 0h2v1h-2zm-16 1h2v1h-2z"/><path fill="#008e50" d="M25 20h1v1h-1zm1 1h1v1h-1zm1 3h1v1h-1zm-18 1h15v1h-15zm18 0h2v1h-2z"/><path fill="#00704d" d="M26 20h1v1h-1zm2 4h1v1h-1z"/><path fill="#006437" d="M6 26h2v1h-2zm8 0h2v1h-2zm8 0h2v1h-2z"/><path fill="#004931" d="M6 27h2v2h-2zm8 0h2v2h-2zm8 0h2v2h-2z"/></g><g class="lp-blink-open" style="animation-duration:5.31s"><g transform="translate(445 125) scale(2.5)"><path fill="#16351f" d="M9 4h4v1h-4zm10 0h4v1h-4zm-11 1h1v2h-1zm3 0h3v2h-3zm7 0h1v2h-1zm3 0h3v2h-3zm-13 2h6v1h-6zm10 0h6v1h-6zm-10 1h4v1h-4zm5 0h1v1h-1zm5 0h4v1h-4zm5 0h1v1h-1zm-14 1h4v1h-4zm10 0h4v1h-4z"/><path fill="#ffffff" d="M9 5h2v2h-2zm10 0h2v2h-2zm-7 3h1v1h-1zm10 0h1v1h-1z"/></g></g><g class="lp-blink-closed" style="animation-duration:5.31s"><g transform="translate(445 125) scale(2.5)"><path fill="#16351f" d="M8 8h4v1h-4zm12 0h4v1h-4zm-11 1h2v1h-2zm12 0h2v1h-2z"/></g></g></g></g></g><g class="lp-float" style="animation-duration:2.6s"><circle cx="509" cy="131.4" r="1.4" class="lp-thought"/><circle cx="517" cy="125.8" r="2.1" class="lp-thought"/><rect x="516.1" y="112.5" width="21" height="15.4" rx="7" class="lp-thought"/><g class="lp-px"><g transform="translate(520.6 115.2) scale(2)"><path fill="#c8642c" d="M1 0h3v1h-3zm-1 1h5v2h-5zm1 2h3v1h-3z"/><path fill="#fff3e0" d="M4 3h1v1h-1zm0 1h2v1h-2z"/></g></g></g><ellipse cx="615" cy="199" rx="30" ry="3" class="lp-shadow"/><g transform="translate(615 200)"><style>@keyframes lp-mv-sidestep{0%,74%,100%{transform:translate(0,0) rotate(0) scale(1,1) skewX(0)}79%{transform:translate(-10px,0) rotate(0) scale(1,1) skewX(0)}82%{transform:translate(-10px,-3px) rotate(0) scale(1,1) skewX(0)}87%{transform:translate(10px,0) rotate(0) scale(1,1) skewX(0)}90%{transform:translate(10px,-3px) rotate(0) scale(1,1) skewX(0)}95%{transform:translate(0,0) rotate(0) scale(1,1) skewX(0)}}.lp-mv-sidestep{animation:lp-mv-sidestep 7s ease-in-out infinite}</style><g class="lp-mv-sidestep" style="animation-duration:7.00s;animation-delay:1.78s"><g class="lp-hop" style="animation-duration:0.90s"><g transform="translate(-615 -200)" class="lp-px"><g transform="translate(575 125) scale(2.5)"><path fill="#3a1010" d="M2 2h6v1h-6zm22 0h6v1h-6zm-23 1h1v1h-1zm7 0h1v1h-1zm15 0h1v1h-1zm7 0h1v1h-1zm-30 1h1v5h-1zm9 0h1v2h-1zm13 0h1v2h-1zm9 0h1v5h-1zm-25 2h1v2h-1zm2 0h2v2h-2zm14 0h2v2h-2zm3 0h1v2h-1zm-16 2h1v1h-1zm13 0h1v1h-1zm-22 1h3v1h-3zm8 0h1v1h-1zm2 0h1v1h-1zm11 0h1v1h-1zm2 0h1v1h-1zm6 0h3v1h-3zm-28 1h2v1h-2zm6 0h1v2h-1zm4 0h10v1h-10zm13 0h1v2h-1zm5 0h2v1h-2zm-27 1h1v1h-1zm8 0h1v1h-1zm11 0h1v1h-1zm8 0h1v1h-1zm-26 1h1v1h-1zm5 0h2v1h-2zm13 0h3v1h-3zm7 0h1v1h-1zm-24 1h1v1h-1zm23 0h1v1h-1zm-22 1h1v1h-1zm18 0h1v1h-1zm3 0h1v1h-1zm-21 1h2v1h-2zm20 0h2v1h-2zm-21 1h3v1h-3zm21 0h3v1h-3zm-22 1h2v1h-2zm24 0h2v1h-2zm-25 1h3v1h-3zm25 0h3v1h-3zm-25 1h1v4h-1zm27 0h1v4h-1zm-16 1h6v1h-6zm0 1h1v1h-1zm5 0h1v1h-1zm-4 1h1v1h-1zm3 0h1v1h-1zm-15 1h3v1h-3zm13 0h2v1h-2zm12 0h3v1h-3zm-24 1h2v1h-2zm24 0h2v1h-2zm-24 1h4v1h-4zm22 0h4v1h-4zm-21 1h4v1h-4zm6 0h2v1h-2zm10 0h2v1h-2zm4 0h4v1h-4zm-21 1h1v1h-1zm2 0h22v1h-22zm23 0h1v1h-1zm-26 1h2v2h-2zm4 0h7v1h-7zm13 0h7v1h-7zm9 0h2v2h-2zm-22 1h2v1h-2zm4 0h2v1h-2zm10 0h2v1h-2zm4 0h2v1h-2z"/><path fill="#ffc3b3" d="M2 3h2v2h-2zm22 0h2v1h-2zm0 1h1v1h-1zm-16 10h4v1h-4zm1 1h2v1h-2z"/><path fill="#ff6b5b" d="M4 3h4v1h-4zm22 0h4v1h-4zm-22 1h3v1h-3zm22 0h5v1h-5zm-25 2h2v1h-2zm6 1h1v1h-1zm21 0h1v1h-1zm-25 1h5v1h-5zm20 0h1v1h-1zm2 0h4v1h-4zm-21 1h2v1h-2zm20 0h4v1h-4zm1 1h3v1h-3zm-13 1h8v1h-8zm13 0h2v1h-2zm-18 1h1v1h-1zm12 0h1v1h-1zm-13 1h3v1h-3zm12 0h6v1h-6zm-12 1h1v1h-1zm6 0h11v1h-11zm0 1h12v1h-12zm-5 1h17v1h-17zm2 1h17v2h-17zm-1 2h21v1h-21zm0 1h5v1h-5zm11 0h5v2h-5zm-12 1h6v1h-6zm0 1h7v1h-7zm11 0h5v1h-5z"/><path fill="#ffa596" d="M1 4h1v1h-1zm22 0h1v1h-1zm2 0h1v1h-1zm-24 1h2v1h-2zm6 9h1v1h-1zm0 1h2v1h-2zm4 0h1v1h-1z"/><path fill="#e84955" d="M7 4h2v1h-2zm21 1h2v2h-2zm-27 2h2v1h-2zm28 0h1v1h-1zm-26 2h1v1h-1zm0 1h3v2h-3zm17 1h1v2h-1zm-16 1h3v1h-3zm1 1h1v1h-1zm19 1h1v3h-1zm2 3h1v2h-1zm-23 4h2v1h-2zm21 0h1v1h-1zm-18 1h1v1h-1zm17 0h2v1h-2zm-16 1h8v1h-8zm10 0h7v1h-7zm-5 1h7v1h-7z"/><path fill="#ce6d78" d="M3 5h1v1h-1zm21 0h2v1h-2zm0 1h1v1h-1z"/><path fill="#cc1c4f" d="M4 5h5v1h-5zm22 0h2v1h-2zm4 0h1v3h-1zm-27 1h1v2h-1zm4 0h1v1h-1zm-6 2h2v1h-2zm7 0h1v1h-1zm21 0h2v1h-2zm-23 1h2v1h-2zm22 0h1v2h-1zm-22 1h1v2h-1zm21 1h2v1h-2zm-1 1h2v1h-2zm-1 1h2v1h-2zm0 1h1v1h-1zm3 6h1v1h-1zm-1 1h2v1h-2zm-2 1h1v1h-1zm-1 1h1v1h-1zm-14 1h2v1h-2zm9 0h3v1h-3zm-9 1h12v1h-12zm2 1h8v1h-8z"/><path fill="#e98a87" d="M23 5h1v1h-1z"/><path fill="#ff9176" d="M24 7h1v2h-1zm-13 4h1v1h-1zm-1 1h9v1h-9zm14 0h2v1h-2zm-15 1h9v1h-9zm15 0h1v1h-1zm-19 4h4v2h-4zm-2 2h5v1h-5zm0 1h1v1h-1z"/><path fill="#ff9096" d="M4 20h2v1h-2z"/><path fill="#ff818b" d="M6 20h2v1h-2zm18 0h4v1h-4zm-19 1h2v1h-2z"/><path fill="#80222e" d="M14 21h4v1h-4z"/><path fill="#f67389" d="M25 21h2v1h-2z"/><path fill="#9f0037" d="M3 22h3v1h-3zm23 0h3v1h-3zm-21 1h1v1h-1zm20 0h2v1h-2zm-20 1h3v1h-3zm4 0h1v1h-1zm13 0h5v1h-5zm-15 1h3v1h-3zm15 0h3v1h-3zm-14 1h2v1h-2zm14 0h2v1h-2z"/><path fill="#ff5d73" d="M15 22h2v1h-2z"/><path fill="#c32638" d="M6 23h1v1h-1zm2 1h1v1h-1z"/></g><g transform="translate(575 125) scale(2.5)"><path fill="#ffd23f" d="M10 15h1v2h-1zm11 0h1v2h-1zm-13 2h5v1h-5zm11 0h5v1h-5zm-10 1h3v1h-3zm11 0h3v1h-3zm-11 1h1v1h-1zm2 0h1v1h-1zm9 0h1v1h-1zm2 0h1v1h-1z"/></g><g transform="translate(575 125) scale(2.5)"><path fill="#ffeb9f" d="M14 0h2v1h-2zm-1 7h1v1h-1z"/><path fill="#ffd23f" d="M16 0h2v1h-2zm-2 1h2v1h-2zm3 0h1v1h-1zm-2 1h1v1h-1zm-2 4h4v1h-4zm1 1h4v1h-4z"/><path fill="#f2b300" d="M16 1h1v2h-1zm1 5h2v1h-2zm1 1h1v1h-1zm-7 3h2v1h-2z"/><path fill="#4a1d5c" d="M14 2h1v1h-1zm3 0h1v1h-1zm-4 1h1v1h-1zm5 0h1v1h-1zm-6 1h1v2h-1zm7 0h1v2h-1zm-8 2h2v1h-2zm8 0h2v1h-2zm-8 1h1v1h-1zm9 0h1v1h-1zm-10 1h1v3h-1zm11 0h1v3h-1zm-11 3h2v1h-2zm10 0h2v1h-2z"/><path fill="#ff8baa" d="M14 3h2v2h-2zm-2 4h1v1h-1zm0 1h2v1h-2z"/><path fill="#ff5fa2" d="M16 3h1v2h-1zm-3 1h1v1h-1zm0 1h4v1h-4zm-2 3h1v1h-1zm3 0h5v1h-5zm-3 1h4v1h-4z"/><path fill="#e2419e" d="M17 3h1v1h-1zm0 1h2v2h-2zm2 3h1v1h-1zm0 1h2v1h-2zm-4 1h5v1h-5z"/><path fill="#c11697" d="M20 9h1v1h-1z"/><path fill="#db9400" d="M13 10h8v1h-8zm-1 1h8v1h-8z"/></g></g></g></g></g><g transform="translate(651.3 10)"><rect x="-1" y="-1.5" width="2" height="3" fill="#7ee081" class="lp-fall" style="animation-duration:3.19s;animation-delay:-1.61s"/></g><g transform="translate(655 10)"><rect x="-1" y="-1.5" width="2" height="3" fill="#ffd23f" class="lp-fall" style="animation-duration:2.67s;animation-delay:-0.43s"/></g><g transform="translate(624 10)"><rect x="-1" y="-1.5" width="2" height="3" fill="#b388ff" class="lp-fall" style="animation-duration:3.83s;animation-delay:-1.69s"/></g><g transform="translate(655.3 10)"><rect x="-1" y="-1.5" width="2" height="3" fill="#ff5fa2" class="lp-fall" style="animation-duration:2.57s;animation-delay:-3.55s"/></g><g transform="translate(649.6 10)"><rect x="-1" y="-1.5" width="2" height="3" fill="#ffd23f" class="lp-fall" style="animation-duration:4.05s;animation-delay:-3.30s"/></g><g transform="translate(596.7 10)"><rect x="-1" y="-1.5" width="2" height="3" fill="#5ec8ff" class="lp-fall" style="animation-duration:2.46s;animation-delay:-0.95s"/></g><g transform="translate(655.8 10)"><rect x="-1" y="-1.5" width="2" height="3" fill="#5ec8ff" class="lp-fall" style="animation-duration:3.62s;animation-delay:-3.25s"/></g><g transform="translate(649.1 10)"><rect x="-1" y="-1.5" width="2" height="3" fill="#b388ff" class="lp-fall" style="animation-duration:2.81s;animation-delay:-2.51s"/></g><g transform="translate(622.9 10)"><rect x="-1" y="-1.5" width="2" height="3" fill="#ffd23f" class="lp-fall" style="animation-duration:2.74s;animation-delay:-0.08s"/></g><g transform="translate(605.2 10)"><rect x="-1" y="-1.5" width="2" height="3" fill="#b388ff" class="lp-fall" style="animation-duration:3.38s;animation-delay:-3.80s"/></g><g transform="translate(617.2 10)"><rect x="-1" y="-1.5" width="2" height="3" fill="#b388ff" class="lp-fall" style="animation-duration:2.66s;animation-delay:-2.18s"/></g><g transform="translate(571.5 10)"><rect x="-1" y="-1.5" width="2" height="3" fill="#ffd23f" class="lp-fall" style="animation-duration:3.24s;animation-delay:-2.81s"/></g><ellipse cx="745" cy="199" rx="27" ry="3" class="lp-shadow"/><g transform="translate(745 200)"><g class="lp-sway" style="animation-duration:3.20s"><g transform="translate(-745 -200)" class="lp-px"><g transform="translate(705 125) scale(2.5)"><path fill="#566955" d="M12 6h8v1h-8zm-2 1h4v1h-4zm8 0h4v1h-4zm-10 1h6v1h-6zm10 0h6v1h-6zm-11 1h2v1h-2zm16 0h2v1h-2zm-17 1h3v1h-3zm17 0h3v1h-3zm-18 1h2v1h-2zm20 0h2v1h-2zm-21 1h3v1h-3zm21 0h3v1h-3zm-21 1h1v1h-1zm23 0h1v1h-1zm-24 1h2v2h-2zm24 0h2v2h-2zm-25 2h3v2h-3zm25 0h3v2h-3zm-25 2h1v7h-1zm27 0h1v7h-1zm-15 4h1v1h-1zm3 0h1v1h-1zm-4 1h6v1h-6zm1 1h1v1h-1zm3 0h1v1h-1zm-15 1h3v1h-3zm25 0h3v1h-3zm-24 1h2v1h-2zm24 0h2v1h-2zm-23 1h3v1h-3zm21 0h3v1h-3zm-20 1h2v1h-2zm20 0h2v1h-2zm-19 1h20v1h-20z"/><path fill="#ccdfc0" d="M14 7h2v2h-2zm-5 2h2v1h-2zm4 0h2v1h-2zm-4 1h5v1h-5zm-2 1h6v1h-6zm0 1h1v1h-1zm-2 1h2v1h-2z"/><path fill="#91bd8b" d="M16 7h1v2h-1zm0 2h6v1h-6zm0 1h3v1h-3zm5 0h1v1h-1zm-6 1h9v1h-9zm-4 1h13v1h-13zm-1 1h17v1h-17zm-5 1h1v1h-1zm4 0h16v1h-16zm-4 1h20v1h-20zm0 1h19v1h-19zm0 1h20v1h-20zm2 1h20v2h-20zm-4 1h1v1h-1zm0 1h24v1h-24zm0 1h23v1h-23zm0 1h11v1h-11zm12 0h2v1h-2zm3 0h7v1h-7zm-12 1h7v1h-7zm13 0h5v1h-5zm-12 1h7v1h-7zm8 0h2v1h-2zm3 0h5v1h-5zm-9 1h2v1h-2z"/><path fill="#6fa87a" d="M17 7h1v2h-1zm5 2h1v2h-1zm2 2h1v2h-1zm1 3h1v2h-1zm-1 2h2v1h-2zm1 1h1v1h-1zm2 1h2v1h-2zm0 1h1v2h-1zm-1 2h1v1h-1zm-1 1h1v1h-1zm-22 1h3v1h-3zm21 0h1v1h-1zm-18 1h1v1h-1zm17 0h1v1h-1zm-16 1h2v1h-2zm4 0h12v1h-12zm-1 1h12v1h-12z"/><path fill="#b3cdac" d="M11 9h2v1h-2z"/><path fill="#aecd9e" d="M15 9h1v1h-1zm-1 1h2v1h-2zm5 0h2v1h-2zm-6 1h2v1h-2zm-5 1h3v1h-3zm-1 1h3v1h-3zm-1 1h3v1h-3zm-3 4h4v1h-4zm1 1h3v1h-3z"/><path fill="#488f68" d="M26 14h1v4h-1zm2 5h1v2h-1zm-1 2h2v1h-2zm-17 6h12v2h-12z"/><path fill="#58926c" d="M26 22h1v1h-1zm-1 1h1v1h-1zm-1 1h1v1h-1zm-18 1h1v1h-1zm17 0h1v1h-1zm-15 1h2v1h-2zm14 0h1v1h-1z"/><path fill="#307a5a" d="M27 22h2v1h-2zm-1 1h3v1h-3zm-23 1h3v1h-3zm22 0h4v1h-4zm-20 1h1v1h-1zm19 0h3v1h-3zm-19 1h3v1h-3zm18 0h4v1h-4zm-16 1h3v2h-3zm15 0h3v2h-3z"/></g><g transform="translate(705 125) scale(2.5)"><path fill="#566955" d="M9 16h2v1h-2zm11 0h1v1h-1zm3 0h1v1h-1zm-15 1h1v2h-1zm3 0h1v1h-1zm10 0h2v2h-2zm-11 1h2v1h-2zm-1 1h2v1h-2zm11 0h1v1h-1zm3 0h1v1h-1z"/><path fill="#e9f5c9" d="M9 17h2v1h-2zm0 1h1v1h-1z"/></g></g></g></g><g transform="translate(745 145.6) scale(1 .42)"><g class="lp-orbit" style="animation-duration:1.80s;animation-direction:normal"><rect x="14" y="-3" width="3" height="4" class="lp-fly"/></g></g><g transform="translate(745 145.6) scale(1 .42)"><g class="lp-orbit" style="animation-duration:2.50s;animation-direction:reverse"><rect x="18" y="-3" width="3" height="4" class="lp-fly"/></g></g><g transform="translate(745 145.6) scale(1 .42)"><g class="lp-orbit" style="animation-duration:3.20s;animation-direction:normal"><rect x="22" y="-3" width="3" height="4" class="lp-fly"/></g></g><g class="lp-px"><g class="lp-day"><g transform="translate(682.9 141.3)"><g class="lp-flutter" style="animation-duration:7.45s;animation-delay:-1.14s"><g class="lp-flap" style="animation-duration:0.30s;animation-delay:-0.00s"><g transform="translate(-5 0) scale(2)"><path fill="#5ec8ff" d="M0 0h2v2h-2zm3 0h2v2h-2zm-2 2h1v1h-1zm2 0h1v1h-1z"/><path fill="#3b2a1a" d="M2 1h1v2h-1z"/></g></g><g class="lp-flap" style="animation-duration:0.30s;animation-delay:-0.15s"><g transform="translate(-5 0) scale(2)"><path fill="#5ec8ff" d="M1 0h1v2h-1zm2 0h1v2h-1z"/><path fill="#3b2a1a" d="M2 1h1v2h-1z"/></g></g></g></g><g transform="translate(203.5 116.5)"><g class="lp-flutter" style="animation-duration:7.66s;animation-delay:-5.28s"><g class="lp-flap" style="animation-duration:0.30s;animation-delay:-0.00s"><g transform="translate(-5 0) scale(2)"><path fill="#ffd23f" d="M0 0h2v2h-2zm3 0h2v2h-2zm-2 2h1v1h-1zm2 0h1v1h-1z"/><path fill="#3b2a1a" d="M2 1h1v2h-1z"/></g></g><g class="lp-flap" style="animation-duration:0.30s;animation-delay:-0.15s"><g transform="translate(-5 0) scale(2)"><path fill="#ffd23f" d="M1 0h1v2h-1zm2 0h1v2h-1z"/><path fill="#3b2a1a" d="M2 1h1v2h-1z"/></g></g></g></g><g transform="translate(337.1 145.2)"><g class="lp-flutter" style="animation-duration:5.74s;animation-delay:-7.32s"><g class="lp-flap" style="animation-duration:0.30s;animation-delay:-0.00s"><g transform="translate(-5 0) scale(2)"><path fill="#ff7eb6" d="M0 0h2v2h-2zm3 0h2v2h-2zm-2 2h1v1h-1zm2 0h1v1h-1z"/><path fill="#3b2a1a" d="M2 1h1v2h-1z"/></g></g><g class="lp-flap" style="animation-duration:0.30s;animation-delay:-0.15s"><g transform="translate(-5 0) scale(2)"><path fill="#ff7eb6" d="M1 0h1v2h-1zm2 0h1v2h-1z"/><path fill="#3b2a1a" d="M2 1h1v2h-1z"/></g></g></g></g><g transform="translate(656.5 129.6)"><g class="lp-flutter" style="animation-duration:7.43s;animation-delay:-5.73s"><g class="lp-flap" style="animation-duration:0.30s;animation-delay:-0.00s"><g transform="translate(-5 0) scale(2)"><path fill="#ff7eb6" d="M0 0h2v2h-2zm3 0h2v2h-2zm-2 2h1v1h-1zm2 0h1v1h-1z"/><path fill="#3b2a1a" d="M2 1h1v2h-1z"/></g></g><g class="lp-flap" style="animation-duration:0.30s;animation-delay:-0.15s"><g transform="translate(-5 0) scale(2)"><path fill="#ff7eb6" d="M1 0h1v2h-1zm2 0h1v2h-1z"/><path fill="#3b2a1a" d="M2 1h1v2h-1z"/></g></g></g></g><g transform="translate(269.1 114.1)"><g class="lp-flutter" style="animation-duration:6.19s;animation-delay:-4.54s"><g class="lp-flap" style="animation-duration:0.30s;animation-delay:-0.00s"><g transform="translate(-5 0) scale(2)"><path fill="#b388ff" d="M0 0h2v2h-2zm3 0h2v2h-2zm-2 2h1v1h-1zm2 0h1v1h-1z"/><path fill="#3b2a1a" d="M2 1h1v2h-1z"/></g></g><g class="lp-flap" style="animation-duration:0.30s;animation-delay:-0.15s"><g transform="translate(-5 0) scale(2)"><path fill="#b388ff" d="M1 0h1v2h-1zm2 0h1v2h-1z"/><path fill="#3b2a1a" d="M2 1h1v2h-1z"/></g></g></g></g><g transform="translate(706.4 140.4)"><g class="lp-flutter" style="animation-duration:6.00s;animation-delay:-2.10s"><g class="lp-flap" style="animation-duration:0.30s;animation-delay:-0.00s"><g transform="translate(-5 0) scale(2)"><path fill="#ffd23f" d="M0 0h2v2h-2zm3 0h2v2h-2zm-2 2h1v1h-1zm2 0h1v1h-1z"/><path fill="#3b2a1a" d="M2 1h1v2h-1z"/></g></g><g class="lp-flap" style="animation-duration:0.30s;animation-delay:-0.15s"><g transform="translate(-5 0) scale(2)"><path fill="#ffd23f" d="M1 0h1v2h-1zm2 0h1v2h-1z"/><path fill="#3b2a1a" d="M2 1h1v2h-1z"/></g></g></g></g></g></g><rect x="36" y="218" width="118" height="36" rx="8" class="lp-bubble"/><text x="95" y="233" text-anchor="middle" class="lp-tag">🤩 Doto Lv.21</text><text x="95" y="247" text-anchor="middle" class="lp-tag-sub">awesome-cli</text><rect x="166" y="218" width="118" height="36" rx="8" class="lp-bubble"/><text x="225" y="233" text-anchor="middle" class="lp-tag">😊 Nirin Lv.21</text><text x="225" y="247" text-anchor="middle" class="lp-tag-sub">dotfiles</text><rect x="296" y="218" width="118" height="36" rx="8" class="lp-bubble"/><text x="355" y="233" text-anchor="middle" class="lp-tag">🤒 Pibbo Lv.21</text><text x="355" y="247" text-anchor="middle" class="lp-tag-sub">api-server</text><rect x="426" y="218" width="118" height="36" rx="8" class="lp-bubble"/><text x="485" y="233" text-anchor="middle" class="lp-tag">🍖 Wamo Lv.21</text><text x="485" y="247" text-anchor="middle" class="lp-tag-sub">ml-notebooks</text><rect x="556" y="218" width="118" height="36" rx="8" class="lp-bubble"/><text x="615" y="233" text-anchor="middle" class="lp-tag">🥳 Luffin Lv.21</text><text x="615" y="247" text-anchor="middle" class="lp-tag-sub">rust-game</text><rect x="686" y="218" width="118" height="36" rx="8" class="lp-bubble"/><text x="745" y="233" text-anchor="middle" class="lp-tag">🧟 Pimi Lv.21</text><text x="745" y="247" text-anchor="middle" class="lp-tag-sub">old-blog</text><g class="lp-px"><g transform="translate(118.9 10)"><g class="lp-drift" style="animation-duration:8.40s;animation-delay:-10.08s"><g transform="translate(-3 -3) scale(2)"><path fill="#d62828" d="M1 0h2v1h-2zm-1 1h3v1h-3zm0 1h2v1h-2z"/></g></g></g><g transform="translate(250.9 10)"><g class="lp-drift" style="animation-duration:9.16s;animation-delay:-1.16s"><g transform="translate(-3 -3) scale(2)"><path fill="#e76f51" d="M1 0h2v1h-2zm-1 1h3v1h-3zm0 1h2v1h-2z"/></g></g></g><g transform="translate(652.9 10)"><g class="lp-drift" style="animation-duration:9.44s;animation-delay:-1.15s"><g transform="translate(-3 -3) scale(2)"><path fill="#d62828" d="M1 0h2v1h-2zm-1 1h3v1h-3zm0 1h2v1h-2z"/></g></g></g><g transform="translate(65.5 10)"><g class="lp-drift" style="animation-duration:9.01s;animation-delay:-1.23s"><g transform="translate(-3 -3) scale(2)"><path fill="#d62828" d="M1 0h2v1h-2zm-1 1h3v1h-3zm0 1h2v1h-2z"/></g></g></g><g transform="translate(514.5 10)"><g class="lp-drift" style="animation-duration:8.61s;animation-delay:-3.32s"><g transform="translate(-3 -3) scale(2)"><path fill="#f4a261" d="M1 0h2v1h-2zm-1 1h3v1h-3zm0 1h2v1h-2z"/></g></g></g><g transform="translate(568.2 10)"><g class="lp-drift" style="animation-duration:8.44s;animation-delay:-10.12s"><g transform="translate(-3 -3) scale(2)"><path fill="#e76f51" d="M1 0h2v1h-2zm-1 1h3v1h-3zm0 1h2v1h-2z"/></g></g></g><g transform="translate(533.7 10)"><g class="lp-drift" style="animation-duration:7.07s;animation-delay:-2.02s"><g transform="translate(-3 -3) scale(2)"><path fill="#e76f51" d="M1 0h2v1h-2zm-1 1h3v1h-3zm0 1h2v1h-2z"/></g></g></g><g transform="translate(69.3 10)"><g class="lp-drift" style="animation-duration:8.72s;animation-delay:-2.99s"><g transform="translate(-3 -3) scale(2)"><path fill="#d62828" d="M1 0h2v1h-2zm-1 1h3v1h-3zm0 1h2v1h-2z"/></g></g></g><g transform="translate(459.5 10)"><g class="lp-drift" style="animation-duration:10.89s;animation-delay:-6.41s"><g transform="translate(-3 -3) scale(2)"><path fill="#f4a261" d="M1 0h2v1h-2zm-1 1h3v1h-3zm0 1h2v1h-2z"/></g></g></g></g><text x="26" y="36" class="lp-name">🏞️ Công viên thú của Tanx-1811</text><text x="26" y="54" class="lp-sub">6 bé · sức khỏe 71% · 3 bé cần chăm</text></g></svg>