<svg xmlns="http://www.w3.org/2000/svg" width="520" height="200" viewBox="0 0 520 200" role="img" aria-labelledby="lp1g9tlao-t lp1g9tlao-d"><title id="lp1g9tlao-t">📈 Kobbo · last 30 days</title><desc id="lp1g9tlao-d">Fullness 99→99, Health 100→28, Joy 95→100, Energy 100→100</desc><style>svg{--lp-bg:#ffffff;--lp-border:#e3e8ef;--lp-text:#1f2430;--lp-muted:#6b7385;--lp-bubble:#f5f7fb;--lp-bubble-border:#d5dbe7;--lp-track:#e6eaf1;--lp-shadow:rgba(0,0,0,.16);--lp-logo:#0f8a7e}@media (prefers-color-scheme:dark){svg{--lp-bg:#0d1117;--lp-border:#30363d;--lp-text:#e6edf3;--lp-muted:#8b949e;--lp-bubble:#161b22;--lp-bubble-border:#30363d;--lp-track:#21262d;--lp-shadow:rgba(0,0,0,.45);--lp-logo:#2fc7b1}}.lp-card{fill:var(--lp-bg);stroke:var(--lp-border)}.lp-name{font:700 14px ui-monospace,SFMono-Regular,'SF Mono',Menlo,Consolas,'Liberation Mono',monospace;fill:var(--lp-text)}.lp-label{font:400 10px ui-monospace,SFMono-Regular,'SF Mono',Menlo,Consolas,'Liberation Mono',monospace;fill:var(--lp-muted)}.lp-grid{stroke:var(--lp-track);stroke-width:1}.lp-emoji{font:400 10px ui-monospace,SFMono-Regular,'SF Mono',Menlo,Consolas,'Liberation Mono',monospace}.lp-line{fill:none;stroke-width:2;stroke-linejoin:round;stroke-linecap:round;animation:lp-draw 1.6s ease-out both}.lp-dot{animation:lp-pop 1.6s ease-out both}@keyframes lp-draw{from{stroke-dashoffset:var(--lp-len)}to{stroke-dashoffset:0}}@keyframes lp-pop{0%,80%{opacity:0}100%{opacity:1}}@media (prefers-reduced-motion:reduce){.lp-line,.lp-dot{animation:none}}</style><rect x="0.5" y="0.5" width="519" height="199" rx="14" class="lp-card"/><text x="16" y="26" class="lp-name">📈 Kobbo · last 30 days</text><rect x="16" y="38" width="8" height="8" rx="2" fill="#f0883e"/><text x="28" y="46" class="lp-label">🍖 Fullness</text><rect x="128" y="38" width="8" height="8" rx="2" fill="#f85149"/><text x="140" y="46" class="lp-label">❤️ Health</text><rect x="240" y="38" width="8" height="8" rx="2" fill="#e3b341"/><text x="252" y="46" class="lp-label">😊 Joy</text><rect x="352" y="38" width="8" height="8" rx="2" fill="#58a6ff"/><text x="364" y="46" class="lp-label">⚡ Energy</text><line x1="34" y1="158" x2="504" y2="158" class="lp-grid"/><text x="28" y="161" text-anchor="end" class="lp-label">0</text><line x1="34" y1="110" x2="504" y2="110" class="lp-grid"/><text x="28" y="113" text-anchor="end" class="lp-label">50</text><line x1="34" y1="62" x2="504" y2="62" class="lp-grid"/><text x="28" y="65" text-anchor="end" class="lp-label">100</text><polyline points="471.6,63 487.8,64.9 504,63" stroke="#f0883e" class="lp-line" style="stroke-dasharray:33;--lp-len:33;animation-delay:0s"/><circle cx="504" cy="63" r="3" fill="#f0883e" class="lp-dot"/><polyline points="471.6,62 487.8,62 504,131.1" stroke="#f85149" class="lp-line" style="stroke-dasharray:88;--lp-len:88;animation-delay:0.15s"/><circle cx="504" cy="131.1" r="3" fill="#f85149" class="lp-dot"/><polyline points="471.6,66.8 487.8,62 504,62" stroke="#e3b341" class="lp-line" style="stroke-dasharray:34;--lp-len:34;animation-delay:0.3s"/><circle cx="504" cy="62" r="3" fill="#e3b341" class="lp-dot"/><polyline points="471.6,62 487.8,62 504,62" stroke="#58a6ff" class="lp-line" style="stroke-dasharray:33;--lp-len:33;animation-delay:0.44999999999999996s"/><circle cx="504" cy="62" r="3" fill="#58a6ff" class="lp-dot"/><text x="471.6" y="176" text-anchor="middle" class="lp-emoji">🥳</text><text x="487.8" y="176" text-anchor="middle" class="lp-emoji">🥳</text><text x="504" y="176" text-anchor="middle" class="lp-emoji">🤒</text><text x="34" y="188" class="lp-label">2026-10-08</text><text x="504" y="188" text-anchor="end" class="lp-label">2026-10-10</text></svg>