<svg xmlns="http://www.w3.org/2000/svg" width="520" height="256" viewBox="0 0 520 256" role="img" aria-labelledby="lp1m2gest-t lp1m2gest-d"><title id="lp1m2gest-t">Ruli the Festive 🥳 octo-org/demo</title><desc id="lp1m2gest-d">Ruli the Festive: Lv.21 Adult Crab, partying. Fullness 95%, Health 100%, Joy 100%, Energy 39%, Hygiene 80%. “Confetti everywhere!”</desc><style>svg{--lp-bg:#ffffff;--lp-border:#e3e8ef;--lp-text:#1f2430;--lp-muted:#6b7385;--lp-bubble:#f5f7fb;--lp-bubble-border:#d5dbe7;--lp-track:#e6eaf1;--lp-shadow:rgba(0,0,0,.16);--lp-sky1:#ffc8e4;--lp-sky2:#fff1c9;--lp-g1:#79c267;--lp-g2:#5aa851}.lp-night{display:none}.lp-card{fill:var(--lp-bg);stroke:var(--lp-border)}.lp-sky1{stop-color:var(--lp-sky1)}.lp-sky2{stop-color:var(--lp-sky2)}.lp-ground{fill:var(--lp-g1)}.lp-ground2{fill:var(--lp-g2)}.lp-shadow{fill:var(--lp-shadow)}.lp-px{shape-rendering:crispEdges}.lp-name{font:700 16px ui-monospace,SFMono-Regular,'SF Mono',Menlo,Consolas,'Liberation Mono',monospace;fill:var(--lp-text)}.lp-sub{font:400 11px ui-monospace,SFMono-Regular,'SF Mono',Menlo,Consolas,'Liberation Mono',monospace;fill:var(--lp-muted)}.lp-say{font:400 11.5px ui-monospace,SFMono-Regular,'SF Mono',Menlo,Consolas,'Liberation Mono',monospace;fill:var(--lp-text)}.lp-label{font:400 11px ui-monospace,SFMono-Regular,'SF Mono',Menlo,Consolas,'Liberation Mono',monospace;fill:var(--lp-muted)}.lp-val{font:700 11px ui-monospace,SFMono-Regular,'SF Mono',Menlo,Consolas,'Liberation Mono',monospace;fill:var(--lp-text)}.lp-icon{font:400 11px ui-monospace,SFMono-Regular,'SF Mono',Menlo,Consolas,'Liberation Mono',monospace}.lp-trophy{font:400 14px ui-monospace,SFMono-Regular,'SF Mono',Menlo,Consolas,'Liberation Mono',monospace}.lp-foot{font:400 9.5px ui-monospace,SFMono-Regular,'SF Mono',Menlo,Consolas,'Liberation Mono',monospace;fill:var(--lp-muted)}.lp-brand{font:700 9.5px ui-monospace,SFMono-Regular,'SF Mono',Menlo,Consolas,'Liberation Mono',monospace;fill:var(--lp-muted)}.lp-mini-name{font:700 12px ui-monospace,SFMono-Regular,'SF Mono',Menlo,Consolas,'Liberation Mono',monospace;fill:var(--lp-text)}.lp-tag{font:700 11px ui-monospace,SFMono-Regular,'SF Mono',Menlo,Consolas,'Liberation Mono',monospace;fill:var(--lp-text)}.lp-tag-sub{font:400 9.5px ui-monospace,SFMono-Regular,'SF Mono',Menlo,Consolas,'Liberation Mono',monospace;fill:var(--lp-muted)}.lp-mini-sub{font:400 9.5px ui-monospace,SFMono-Regular,'SF Mono',Menlo,Consolas,'Liberation Mono',monospace;fill:var(--lp-muted)}.lp-z{font:700 12px ui-monospace,SFMono-Regular,'SF Mono',Menlo,Consolas,'Liberation Mono',monospace;fill:var(--lp-text)}.lp-bit{font:700 10px ui-monospace,SFMono-Regular,'SF Mono',Menlo,Consolas,'Liberation Mono',monospace;fill:#3fb950}.lp-bubble,.lp-thought{fill:var(--lp-bubble);stroke:var(--lp-bubble-border)}.lp-tail{fill:var(--lp-bubble);stroke:var(--lp-bubble-border);stroke-linejoin:round}.lp-seg,.lp-track{fill:var(--lp-track)}.lp-good{fill:#3fb950}.lp-mid{fill:#e3b341}.lp-low{fill:#f85149}.lp-xp{fill:#a371f7}.lp-ink{fill:var(--lp-text)}.lp-fly{fill:var(--lp-text)}.lp-star{fill:#fff8d6}.lp-snow{fill:#ffffff}.lp-raindrop{fill:#5ec8ff}.lp-firefly{fill:#fff59d}.lp-string{fill:#5a1e1e}.lp-bounce{animation:lp-bounce 2s ease-in-out infinite}.lp-hop{animation:lp-hop 1s ease-in-out infinite}.lp-breathe{animation:lp-breathe 4s ease-in-out infinite}.lp-sway{animation:lp-sway 3s ease-in-out infinite}.lp-shiver{animation:lp-shiver .35s linear infinite}.lp-wobble{animation:lp-wobble 3s ease-in-out infinite}.lp-growl{animation:lp-growl 3s linear infinite}.lp-blink-open{animation:lp-blink-open 4s infinite}.lp-blink-closed{opacity:0;animation:lp-blink-closed 4s infinite}.lp-rise{animation:lp-rise 3s ease-out infinite both}.lp-zz{animation:lp-zz 3s ease-out infinite both}.lp-fall{animation:lp-fall 3s linear infinite}.lp-drift{animation:lp-drift 9s linear infinite}.lp-drip{animation:lp-drip 1.6s ease-in infinite both}.lp-orbit{animation:lp-orbit 2.4s linear infinite}.lp-twinkle{animation:lp-twinkle 2s ease-in-out infinite both}.lp-burst{animation:lp-burst 2.4s ease-out infinite both}.lp-float{animation:lp-float 3s ease-in-out infinite}.lp-swing{animation:lp-swing 3s ease-in-out infinite}.lp-cloud{animation:lp-cloud 14s ease-in-out infinite alternate}.lp-alert{animation:lp-alert 1.2s steps(2) infinite}.lp-new{animation:lp-float 1.6s ease-in-out infinite}@keyframes lp-bounce{0%,100%{transform:translateY(0)}50%{transform:translateY(-5px)}}@keyframes lp-hop{0%,100%{transform:translateY(0)}35%{transform:translateY(-14px)}55%{transform:translateY(0)}65%{transform:translateY(-3px)}}@keyframes lp-breathe{0%,100%{transform:scale(1,1)}50%{transform:scale(1.04,.96)}}@keyframes lp-sway{0%,100%{transform:rotate(-5deg)}50%{transform:rotate(5deg)}}@keyframes lp-shiver{0%,100%{transform:translateX(0)}25%{transform:translateX(-1.5px)}75%{transform:translateX(1.5px)}}@keyframes lp-wobble{0%,60%,100%{transform:rotate(0)}68%{transform:rotate(-9deg)}78%{transform:rotate(8deg)}88%{transform:rotate(-4deg)}}@keyframes lp-growl{0%,78%,100%{transform:translateX(0)}82%{transform:translateX(-2px)}86%{transform:translateX(2px)}90%{transform:translateX(-2px)}94%{transform:translateX(1px)}}@keyframes lp-blink-open{0%,93%,100%{opacity:1}94%,98%{opacity:0}}@keyframes lp-blink-closed{0%,93%,100%{opacity:0}94%,98%{opacity:1}}@keyframes lp-rise{0%{transform:translateY(0);opacity:0}20%{opacity:1}100%{transform:translateY(-34px);opacity:0}}@keyframes lp-zz{0%{transform:translate(0,0);opacity:0}20%{opacity:1}100%{transform:translate(10px,-26px);opacity:0}}@keyframes lp-fall{0%{transform:translateY(-20px) rotate(0)}100%{transform:translateY(260px) rotate(540deg)}}@keyframes lp-drift{0%{transform:translate(0,-20px) rotate(0)}50%{transform:translate(14px,110px) rotate(160deg)}100%{transform:translate(-8px,260px) rotate(340deg)}}@keyframes lp-drip{0%{transform:translateY(0);opacity:0}15%{opacity:1}100%{transform:translateY(16px);opacity:0}}@keyframes lp-orbit{to{transform:rotate(360deg)}}@keyframes lp-twinkle{0%,100%{opacity:.15}50%{opacity:1}}@keyframes lp-burst{0%{transform:scale(.1);opacity:0}10%{opacity:1}70%{opacity:.9}100%{transform:scale(1.3);opacity:0}}@keyframes lp-float{0%,100%{transform:translateY(0)}50%{transform:translateY(-3px)}}@keyframes lp-swing{0%,100%{transform:rotate(-6deg)}50%{transform:rotate(6deg)}}@keyframes lp-cloud{from{transform:translateX(-6px)}to{transform:translateX(10px)}}@keyframes lp-alert{0%{opacity:1}50%{opacity:.35}}@media (prefers-reduced-motion:reduce){*{animation:none!important}}</style><defs><linearGradient id="lp1m2gest-sky" x1="0" y1="0" x2="0" y2="1"><stop offset="0" class="lp-sky1"/><stop offset="1" class="lp-sky2"/></linearGradient><clipPath id="lp1m2gest-clip"><rect x="10" y="10" width="200" height="236" rx="10"/></clipPath></defs><rect x="0.5" y="0.5" width="519" height="255" rx="14" class="lp-card"/><g clip-path="url(#lp1m2gest-clip)"><rect x="10" y="10" width="200" height="236" fill="url(#lp1m2gest-sky)"/><g class="lp-day lp-px"><g transform="translate(26 28.9)"><g class="lp-cloud" style="animation-duration:12.40s"><rect x="9" y="0" width="9" height="3" fill="#ffffffd9"/><rect x="3" y="3" width="21" height="3" fill="#ffffffd9"/><rect x="0" y="6" width="27" height="3" fill="#ffffffd9"/><rect x="3" y="9" width="21" height="3" fill="#ffffffd9"/></g></g><g transform="translate(120 57.2)"><g class="lp-cloud" style="animation-duration:13.79s"><rect x="9" y="0" width="9" height="3" fill="#ffffffd9"/><rect x="3" y="3" width="21" height="3" fill="#ffffffd9"/><rect x="0" y="6" width="27" height="3" fill="#ffffffd9"/><rect x="3" y="9" width="21" height="3" fill="#ffffffd9"/></g></g></g><g class="lp-night lp-px"><rect x="184" y="24" width="9" height="3" fill="#fff3b0"/><rect x="181" y="27" width="6" height="3" fill="#fff3b0"/><rect x="178" y="30" width="6" height="3" fill="#fff3b0"/><rect x="178" y="33" width="6" height="3" fill="#fff3b0"/><rect x="181" y="36" width="6" height="3" fill="#fff3b0"/><rect x="184" y="39" width="9" height="3" fill="#fff3b0"/><rect x="54.3" y="95.8" width="2" height="2" class="lp-star lp-twinkle" style="animation-duration:2.52s;animation-delay:-1.30s"/><rect x="161.5" y="101.4" width="2" height="2" class="lp-star lp-twinkle" style="animation-duration:1.75s;animation-delay:-1.85s"/><rect x="163.7" y="19.3" width="2" height="2" class="lp-star lp-twinkle" style="animation-duration:2.67s;animation-delay:-0.62s"/><rect x="104.3" y="106.1" width="2" height="2" class="lp-star lp-twinkle" style="animation-duration:1.95s;animation-delay:-0.73s"/><rect x="105.1" y="54.8" width="2" height="2" class="lp-star lp-twinkle" style="animation-duration:3.06s;animation-delay:-0.24s"/><rect x="23" y="99.8" width="2" height="2" class="lp-star lp-twinkle" style="animation-duration:2.25s;animation-delay:-1.47s"/><rect x="98.1" y="29.3" width="2" height="2" class="lp-star lp-twinkle" style="animation-duration:1.83s;animation-delay:-0.63s"/></g><g class="lp-px"><rect x="10" y="206" width="200" height="40" class="lp-ground"/><rect x="10" y="206" width="200" height="2" class="lp-ground2"/><rect x="15" y="203" width="2" height="3" class="lp-ground2"/><rect x="18" y="201" width="2" height="5" class="lp-ground2"/><rect x="31" y="203" width="2" height="3" class="lp-ground2"/><rect x="34" y="201" width="2" height="5" class="lp-ground2"/><rect x="46" y="203" width="2" height="3" class="lp-ground2"/><rect x="49" y="201" width="2" height="5" class="lp-ground2"/><rect x="68" y="203" width="2" height="3" class="lp-ground2"/><rect x="71" y="201" width="2" height="5" class="lp-ground2"/><rect x="87" y="203" width="2" height="3" class="lp-ground2"/><rect x="90" y="201" width="2" height="5" class="lp-ground2"/><rect x="99" y="203" width="2" height="3" class="lp-ground2"/><rect x="102" y="201" width="2" height="5" class="lp-ground2"/><rect x="118" y="203" width="2" height="3" class="lp-ground2"/><rect x="121" y="201" width="2" height="5" class="lp-ground2"/><rect x="136" y="203" width="2" height="3" class="lp-ground2"/><rect x="139" y="201" width="2" height="5" class="lp-ground2"/><rect x="151" y="203" width="2" height="3" class="lp-ground2"/><rect x="154" y="201" width="2" height="5" class="lp-ground2"/><rect x="163" y="203" width="2" height="3" class="lp-ground2"/><rect x="166" y="201" width="2" height="5" class="lp-ground2"/><rect x="178" y="203" width="2" height="3" class="lp-ground2"/><rect x="181" y="201" width="2" height="5" class="lp-ground2"/><rect x="190" y="203" width="2" height="3" class="lp-ground2"/><rect x="193" y="201" width="2" height="5" class="lp-ground2"/><rect x="84.6" y="238.5" width="3" height="2" class="lp-ground2"/><rect x="76.7" y="220.5" width="3" height="2" class="lp-ground2"/><rect x="143.2" y="237.4" width="3" height="2" class="lp-ground2"/><rect x="41.3" y="220.1" width="3" height="2" class="lp-ground2"/><rect x="43.2" y="224.8" width="3" height="2" class="lp-ground2"/></g><g class="lp-px"><rect x="169" y="202" width="3" height="3" fill="#c47a3a"/><rect x="172" y="202" width="3" height="3" fill="#e8a35e"/><rect x="175" y="202" width="3" height="3" fill="#c47a3a"/><rect x="178" y="202" width="3" height="3" fill="#e8a35e"/><rect x="181" y="202" width="6" height="3" fill="#c47a3a"/><rect x="163" y="205" width="3" height="3" fill="#c47a3a"/><rect x="166" y="205" width="3" height="3" fill="#e8a35e"/><rect x="169" y="205" width="6" height="3" fill="#c47a3a"/><rect x="175" y="205" width="3" height="3" fill="#e8a35e"/><rect x="178" y="205" width="3" height="3" fill="#c47a3a"/><rect x="181" y="205" width="3" height="3" fill="#e8a35e"/><rect x="184" y="205" width="3" height="3" fill="#c47a3a"/><rect x="187" y="205" width="3" height="3" fill="#e8a35e"/><rect x="190" y="205" width="3" height="3" fill="#c47a3a"/><rect x="160" y="208" width="36" height="3" fill="#1b3a5c"/><rect x="163" y="211" width="3" height="3" fill="#1b3a5c"/><rect x="166" y="211" width="24" height="3" fill="#5ec8ff"/><rect x="190" y="211" width="3" height="3" fill="#1b3a5c"/><rect x="166" y="214" width="24" height="3" fill="#1b3a5c"/></g><ellipse cx="94" cy="213" rx="43" ry="4" class="lp-shadow"/><g transform="translate(94 214)"><g class="lp-hop" style="animation-duration:0.90s"><g transform="translate(-94 -214)" class="lp-px"><rect x="45" y="116" width="21" height="7" fill="#3a1010"/><rect x="122" y="116" width="21" height="7" fill="#3a1010"/><rect x="38" y="123" width="7" height="7" fill="#3a1010"/><rect x="45" y="123" width="7" height="7" fill="#ffa596"/><rect x="52" y="123" width="14" height="7" fill="#ff6b5b"/><rect x="66" y="123" width="7" height="7" fill="#3a1010"/><rect x="115" y="123" width="7" height="7" fill="#3a1010"/><rect x="122" y="123" width="7" height="7" fill="#ffa596"/><rect x="129" y="123" width="14" height="7" fill="#ff6b5b"/><rect x="143" y="123" width="7" height="7" fill="#3a1010"/><rect x="38" y="130" width="7" height="7" fill="#3a1010"/><rect x="45" y="130" width="7" height="7" fill="#ff6b5b"/><rect x="59" y="130" width="14" height="7" fill="#3a1010"/><rect x="115" y="130" width="14" height="7" fill="#3a1010"/><rect x="136" y="130" width="7" height="7" fill="#ff6b5b"/><rect x="143" y="130" width="7" height="7" fill="#3a1010"/><rect x="38" y="137" width="7" height="7" fill="#3a1010"/><rect x="45" y="137" width="21" height="7" fill="#ff6b5b"/><rect x="66" y="137" width="7" height="7" fill="#3a1010"/><rect x="115" y="137" width="7" height="7" fill="#3a1010"/><rect x="122" y="137" width="21" height="7" fill="#ff6b5b"/><rect x="143" y="137" width="7" height="7" fill="#3a1010"/><rect x="45" y="144" width="7" height="7" fill="#3a1010"/><rect x="52" y="144" width="7" height="7" fill="#ff6b5b"/><rect x="59" y="144" width="7" height="7" fill="#3a1010"/><rect x="73" y="144" width="42" height="7" fill="#3a1010"/><rect x="122" y="144" width="7" height="7" fill="#3a1010"/><rect x="129" y="144" width="7" height="7" fill="#ff6b5b"/><rect x="136" y="144" width="7" height="7" fill="#3a1010"/><rect x="52" y="151" width="7" height="7" fill="#3a1010"/><rect x="59" y="151" width="7" height="7" fill="#ff6b5b"/><rect x="66" y="151" width="7" height="7" fill="#3a1010"/><rect x="73" y="151" width="42" height="7" fill="#ff6b5b"/><rect x="115" y="151" width="7" height="7" fill="#3a1010"/><rect x="122" y="151" width="7" height="7" fill="#ff6b5b"/><rect x="129" y="151" width="7" height="7" fill="#3a1010"/><rect x="59" y="158" width="7" height="7" fill="#3a1010"/><rect x="66" y="158" width="14" height="7" fill="#ffa596"/><rect x="80" y="158" width="42" height="7" fill="#ff6b5b"/><rect x="122" y="158" width="7" height="7" fill="#3a1010"/><rect x="52" y="165" width="7" height="7" fill="#3a1010"/><rect x="59" y="165" width="70" height="7" fill="#ff6b5b"/><rect x="129" y="165" width="7" height="7" fill="#3a1010"/><rect x="45" y="172" width="7" height="7" fill="#3a1010"/><rect x="52" y="172" width="84" height="7" fill="#ff6b5b"/><rect x="136" y="172" width="7" height="7" fill="#3a1010"/><rect x="45" y="179" width="7" height="7" fill="#3a1010"/><rect x="52" y="179" width="14" height="7" fill="#ff8fab99"/><rect x="66" y="179" width="14" height="7" fill="#ff6b5b"/><rect x="80" y="179" width="28" height="7" fill="#3a1010"/><rect x="108" y="179" width="14" height="7" fill="#ff6b5b"/><rect x="122" y="179" width="14" height="7" fill="#ff8fab99"/><rect x="136" y="179" width="7" height="7" fill="#3a1010"/><rect x="45" y="186" width="7" height="7" fill="#3a1010"/><rect x="52" y="186" width="7" height="7" fill="#d94c3d"/><rect x="59" y="186" width="21" height="7" fill="#ff6b5b"/><rect x="80" y="186" width="7" height="7" fill="#3a1010"/><rect x="87" y="186" width="14" height="7" fill="#ff5d73"/><rect x="101" y="186" width="7" height="7" fill="#3a1010"/><rect x="108" y="186" width="21" height="7" fill="#ff6b5b"/><rect x="129" y="186" width="7" height="7" fill="#d94c3d"/><rect x="136" y="186" width="7" height="7" fill="#3a1010"/><rect x="52" y="193" width="7" height="7" fill="#3a1010"/><rect x="59" y="193" width="14" height="7" fill="#d94c3d"/><rect x="73" y="193" width="14" height="7" fill="#ff6b5b"/><rect x="87" y="193" width="14" height="7" fill="#3a1010"/><rect x="101" y="193" width="14" height="7" fill="#ff6b5b"/><rect x="115" y="193" width="14" height="7" fill="#d94c3d"/><rect x="129" y="193" width="7" height="7" fill="#3a1010"/><rect x="52" y="200" width="84" height="7" fill="#3a1010"/><rect x="45" y="207" width="7" height="7" fill="#3a1010"/><rect x="59" y="207" width="7" height="7" fill="#3a1010"/><rect x="73" y="207" width="7" height="7" fill="#3a1010"/><rect x="108" y="207" width="7" height="7" fill="#3a1010"/><rect x="122" y="207" width="7" height="7" fill="#3a1010"/><rect x="136" y="207" width="7" height="7" fill="#3a1010"/><rect x="73" y="158" width="7" height="7" fill="#ffd23f"/><rect x="108" y="158" width="7" height="7" fill="#ffd23f"/><rect x="66" y="165" width="21" height="7" fill="#ffd23f"/><rect x="101" y="165" width="21" height="7" fill="#ffd23f"/><rect x="73" y="172" width="7" height="7" fill="#ffd23f"/><rect x="108" y="172" width="7" height="7" fill="#ffd23f"/><rect x="87" y="109" width="14" height="7" fill="#ffd23f"/><rect x="87" y="116" width="14" height="7" fill="#4a1d5c"/><rect x="80" y="123" width="7" height="7" fill="#4a1d5c"/><rect x="87" y="123" width="14" height="7" fill="#ff5fa2"/><rect x="101" y="123" width="7" height="7" fill="#4a1d5c"/><rect x="80" y="130" width="7" height="7" fill="#4a1d5c"/><rect x="87" y="130" width="14" height="7" fill="#ffd23f"/><rect x="101" y="130" width="7" height="7" fill="#4a1d5c"/><rect x="73" y="137" width="7" height="7" fill="#4a1d5c"/><rect x="80" y="137" width="28" height="7" fill="#ff5fa2"/><rect x="108" y="137" width="7" height="7" fill="#4a1d5c"/><rect x="73" y="144" width="7" height="7" fill="#4a1d5c"/><rect x="80" y="144" width="28" height="7" fill="#ffd23f"/><rect x="108" y="144" width="7" height="7" fill="#4a1d5c"/></g></g></g><g transform="translate(163.2 10)"><rect x="-1.5" y="-2.5" width="3" height="5" fill="#ff5fa2" class="lp-fall" style="animation-duration:2.76s;animation-delay:-3.50s"/></g><g transform="translate(153.6 10)"><rect x="-1.5" y="-2.5" width="3" height="5" fill="#5ec8ff" class="lp-fall" style="animation-duration:4.08s;animation-delay:-0.95s"/></g><g transform="translate(91.2 10)"><rect x="-1.5" y="-2.5" width="3" height="5" fill="#7ee081" class="lp-fall" style="animation-duration:4.30s;animation-delay:-0.05s"/></g><g transform="translate(134.9 10)"><rect x="-1.5" y="-2.5" width="3" height="5" fill="#ff5fa2" class="lp-fall" style="animation-duration:3.06s;animation-delay:-2.54s"/></g><g transform="translate(18 10)"><rect x="-1.5" y="-2.5" width="3" height="5" fill="#ff5fa2" class="lp-fall" style="animation-duration:3.29s;animation-delay:-2.06s"/></g><g transform="translate(102 10)"><rect x="-1.5" y="-2.5" width="3" height="5" fill="#7ee081" class="lp-fall" style="animation-duration:3.65s;animation-delay:-1.49s"/></g><g transform="translate(190.8 10)"><rect x="-1.5" y="-2.5" width="3" height="5" fill="#ff8c42" class="lp-fall" style="animation-duration:2.71s;animation-delay:-1.08s"/></g><g transform="translate(49.4 10)"><rect x="-1.5" y="-2.5" width="3" height="5" fill="#ffd23f" class="lp-fall" style="animation-duration:3.43s;animation-delay:-0.72s"/></g><g transform="translate(81.9 10)"><rect x="-1.5" y="-2.5" width="3" height="5" fill="#ff5fa2" class="lp-fall" style="animation-duration:3.18s;animation-delay:-0.57s"/></g><g transform="translate(139.9 10)"><rect x="-1.5" y="-2.5" width="3" height="5" fill="#ff5fa2" class="lp-fall" style="animation-duration:3.51s;animation-delay:-2.31s"/></g><g transform="translate(73.3 10)"><rect x="-1.5" y="-2.5" width="3" height="5" fill="#ffd23f" class="lp-fall" style="animation-duration:2.81s;animation-delay:-2.04s"/></g><g transform="translate(176.4 10)"><rect x="-1.5" y="-2.5" width="3" height="5" fill="#ff8c42" class="lp-fall" style="animation-duration:3.04s;animation-delay:-2.99s"/></g><g transform="translate(48.9 10)"><rect x="-1.5" y="-2.5" width="3" height="5" fill="#ff8c42" class="lp-fall" style="animation-duration:2.60s;animation-delay:-1.25s"/></g><g transform="translate(102.3 10)"><rect x="-1.5" y="-2.5" width="3" height="5" fill="#b388ff" class="lp-fall" style="animation-duration:4.08s;animation-delay:-2.62s"/></g><g transform="translate(149.9 10)"><rect x="-1.5" y="-2.5" width="3" height="5" fill="#5ec8ff" class="lp-fall" style="animation-duration:3.68s;animation-delay:-3.16s"/></g><g transform="translate(92.7 10)"><rect x="-1.5" y="-2.5" width="3" height="5" fill="#ffd23f" class="lp-fall" style="animation-duration:2.98s;animation-delay:-3.81s"/></g><g transform="translate(33.8 10)"><rect x="-1.5" y="-2.5" width="3" height="5" fill="#ff8c42" class="lp-fall" style="animation-duration:3.93s;animation-delay:-2.64s"/></g><g transform="translate(185.2 10)"><rect x="-1.5" y="-2.5" width="3" height="5" fill="#ffd23f" class="lp-fall" style="animation-duration:3.09s;animation-delay:-0.41s"/></g><g class="lp-px"><g transform="translate(80.5 10)"><g class="lp-drift" style="animation-duration:7.70s;animation-delay:-5.30s"><rect x="-1" y="-3" width="4" height="2" fill="#f4a261"/><rect x="-3" y="-1" width="6" height="2" fill="#f4a261"/><rect x="-3" y="1" width="4" height="2" fill="#f4a261"/></g></g><g transform="translate(52.2 10)"><g class="lp-drift" style="animation-duration:10.73s;animation-delay:-8.45s"><rect x="-1" y="-3" width="4" height="2" fill="#f4a261"/><rect x="-3" y="-1" width="6" height="2" fill="#f4a261"/><rect x="-3" y="1" width="4" height="2" fill="#f4a261"/></g></g><g transform="translate(191 10)"><g class="lp-drift" style="animation-duration:7.62s;animation-delay:-4.85s"><rect x="-1" y="-3" width="4" height="2" fill="#f4a261"/><rect x="-3" y="-1" width="6" height="2" fill="#f4a261"/><rect x="-3" y="1" width="4" height="2" fill="#f4a261"/></g></g><g transform="translate(149.9 10)"><g class="lp-drift" style="animation-duration:9.33s;animation-delay:-5.89s"><rect x="-1" y="-3" width="4" height="2" fill="#e76f51"/><rect x="-3" y="-1" width="6" height="2" fill="#e76f51"/><rect x="-3" y="1" width="4" height="2" fill="#e76f51"/></g></g><g transform="translate(172.6 10)"><g class="lp-drift" style="animation-duration:7.99s;animation-delay:-8.57s"><rect x="-1" y="-3" width="4" height="2" fill="#d62828"/><rect x="-3" y="-1" width="6" height="2" fill="#d62828"/><rect x="-3" y="1" width="4" height="2" fill="#d62828"/></g></g><g transform="translate(31.8 10)"><g class="lp-drift" style="animation-duration:10.85s;animation-delay:-7.12s"><rect x="-1" y="-3" width="4" height="2" fill="#e76f51"/><rect x="-3" y="-1" width="6" height="2" fill="#e76f51"/><rect x="-3" y="1" width="4" height="2" fill="#e76f51"/></g></g><g transform="translate(79.9 10)"><g class="lp-drift" style="animation-duration:9.25s;animation-delay:-3.10s"><rect x="-1" y="-3" width="4" height="2" fill="#d62828"/><rect x="-3" y="-1" width="6" height="2" fill="#d62828"/><rect x="-3" y="1" width="4" height="2" fill="#d62828"/></g></g><g transform="translate(169.3 10)"><g class="lp-drift" style="animation-duration:10.55s;animation-delay:-2.18s"><rect x="-1" y="-3" width="4" height="2" fill="#f4a261"/><rect x="-3" y="-1" width="6" height="2" fill="#f4a261"/><rect x="-3" y="1" width="4" height="2" fill="#f4a261"/></g></g><g transform="translate(173.4 10)"><g class="lp-drift" style="animation-duration:10.26s;animation-delay:-3.31s"><rect x="-1" y="-3" width="4" height="2" fill="#e76f51"/><rect x="-3" y="-1" width="6" height="2" fill="#e76f51"/><rect x="-3" y="1" width="4" height="2" fill="#e76f51"/></g></g></g></g><text x="228" y="34" class="lp-name">Ruli the Festive</text><text x="228" y="52" class="lp-sub">Lv.21 · Adult Crab · Molting</text><rect x="228" y="58" width="280" height="3" rx="1.5" class="lp-track"/><rect x="228" y="58" width="138" height="3" rx="1.5" class="lp-xp"/><rect x="228" y="68" width="280" height="46" rx="9" class="lp-bubble"/><path d="M229 83 L219 90 L229 97" class="lp-tail"/><text x="239" y="95" class="lp-say">Confetti everywhere!</text><text x="228" y="134" class="lp-icon">🍖</text><text x="246" y="134" class="lp-label">Fullness</text><rect x="340" y="125" width="11" height="9" rx="1.5" class="lp-good"/><rect x="353" y="125" width="11" height="9" rx="1.5" class="lp-good"/><rect x="366" y="125" width="11" height="9" rx="1.5" class="lp-good"/><rect x="379" y="125" width="11" height="9" rx="1.5" class="lp-good"/><rect x="392" y="125" width="11" height="9" rx="1.5" class="lp-good"/><rect x="405" y="125" width="11" height="9" rx="1.5" class="lp-good"/><rect x="418" y="125" width="11" height="9" rx="1.5" class="lp-good"/><rect x="431" y="125" width="11" height="9" rx="1.5" class="lp-good"/><rect x="444" y="125" width="11" height="9" rx="1.5" class="lp-good"/><rect x="457" y="125" width="11" height="9" rx="1.5" class="lp-good"/><text x="508" y="134" text-anchor="end" class="lp-val">95</text><text x="228" y="151" class="lp-icon">❤️</text><text x="246" y="151" class="lp-label">Health</text><rect x="340" y="142" width="11" height="9" rx="1.5" class="lp-good"/><rect x="353" y="142" width="11" height="9" rx="1.5" class="lp-good"/><rect x="366" y="142" width="11" height="9" rx="1.5" class="lp-good"/><rect x="379" y="142" width="11" height="9" rx="1.5" class="lp-good"/><rect x="392" y="142" width="11" height="9" rx="1.5" class="lp-good"/><rect x="405" y="142" width="11" height="9" rx="1.5" class="lp-good"/><rect x="418" y="142" width="11" height="9" rx="1.5" class="lp-good"/><rect x="431" y="142" width="11" height="9" rx="1.5" class="lp-good"/><rect x="444" y="142" width="11" height="9" rx="1.5" class="lp-good"/><rect x="457" y="142" width="11" height="9" rx="1.5" class="lp-good"/><text x="508" y="151" text-anchor="end" class="lp-val">100</text><text x="228" y="168" class="lp-icon">😊</text><text x="246" y="168" class="lp-label">Joy</text><rect x="340" y="159" width="11" height="9" rx="1.5" class="lp-good"/><rect x="353" y="159" width="11" height="9" rx="1.5" class="lp-good"/><rect x="366" y="159" width="11" height="9" rx="1.5" class="lp-good"/><rect x="379" y="159" width="11" height="9" rx="1.5" class="lp-good"/><rect x="392" y="159" width="11" height="9" rx="1.5" class="lp-good"/><rect x="405" y="159" width="11" height="9" rx="1.5" class="lp-good"/><rect x="418" y="159" width="11" height="9" rx="1.5" class="lp-good"/><rect x="431" y="159" width="11" height="9" rx="1.5" class="lp-good"/><rect x="444" y="159" width="11" height="9" rx="1.5" class="lp-good"/><rect x="457" y="159" width="11" height="9" rx="1.5" class="lp-good"/><text x="508" y="168" text-anchor="end" class="lp-val">100</text><text x="228" y="185" class="lp-icon">⚡</text><text x="246" y="185" class="lp-label">Energy</text><rect x="340" y="176" width="11" height="9" rx="1.5" class="lp-mid"/><rect x="353" y="176" width="11" height="9" rx="1.5" class="lp-mid"/><rect x="366" y="176" width="11" height="9" rx="1.5" class="lp-mid"/><rect x="379" y="176" width="11" height="9" rx="1.5" class="lp-mid"/><rect x="392" y="176" width="11" height="9" rx="1.5" class="lp-seg"/><rect x="405" y="176" width="11" height="9" rx="1.5" class="lp-seg"/><rect x="418" y="176" width="11" height="9" rx="1.5" class="lp-seg"/><rect x="431" y="176" width="11" height="9" rx="1.5" class="lp-seg"/><rect x="444" y="176" width="11" height="9" rx="1.5" class="lp-seg"/><rect x="457" y="176" width="11" height="9" rx="1.5" class="lp-seg"/><text x="508" y="185" text-anchor="end" class="lp-val">39</text><text x="228" y="202" class="lp-icon">🧼</text><text x="246" y="202" class="lp-label">Hygiene</text><rect x="340" y="193" width="11" height="9" rx="1.5" class="lp-good"/><rect x="353" y="193" width="11" height="9" rx="1.5" class="lp-good"/><rect x="366" y="193" width="11" height="9" rx="1.5" class="lp-good"/><rect x="379" y="193" width="11" height="9" rx="1.5" class="lp-good"/><rect x="392" y="193" width="11" height="9" rx="1.5" class="lp-good"/><rect x="405" y="193" width="11" height="9" rx="1.5" class="lp-good"/><rect x="418" y="193" width="11" height="9" rx="1.5" class="lp-good"/><rect x="431" y="193" width="11" height="9" rx="1.5" class="lp-good"/><rect x="444" y="193" width="11" height="9" rx="1.5" class="lp-seg"/><rect x="457" y="193" width="11" height="9" rx="1.5" class="lp-seg"/><text x="508" y="202" text-anchor="end" class="lp-val">80</text><text x="228" y="228" class="lp-trophy lp-new">💯</text><text x="251" y="228" class="lp-trophy lp-new">🚀</text><text x="274" y="228" class="lp-trophy lp-new">⭐</text><text x="228" y="246" class="lp-foot">octo-org/demo · fed yesterday</text><text x="508" y="246" text-anchor="end" class="lp-brand">🐾 legacypet</text></svg>