<svg xmlns="http://www.w3.org/2000/svg" width="520" height="256" viewBox="0 0 520 256" role="img" aria-labelledby="lp1ro22ac-t lp1ro22ac-d"><title id="lp1ro22ac-t">Ruli the Starving 🍖 octo-org/demo</title><desc id="lp1ro22ac-d">Ruli the Starving: Lv.21 (Silver) Adult Mimic, hungry. Fullness 15%, Health 100%, Joy 85%, Energy 0%, Hygiene 50%. “So hungry... even a README tweak would do”</desc><style>svg{--lp-bg:#ffffff;--lp-border:#e3e8ef;--lp-text:#1f2430;--lp-muted:#6b7385;--lp-bubble:#f5f7fb;--lp-bubble-border:#d5dbe7;--lp-track:#e6eaf1;--lp-shadow:rgba(0,0,0,.16);--lp-logo:#0f8a7e;--lp-sky1:#9ad9ff;--lp-sky2:#e4f6ff;--lp-g1:#ecd7a0;--lp-g2:#d5bb78;--lp-water:#1f7fd0;--lp-water2:#e4f7ff;--lp-far:#4f9fc4;--lp-mid:#3f8fb8}.lp-night{display:none}.lp-card{fill:var(--lp-bg);stroke:var(--lp-border)}.lp-sky1{stop-color:var(--lp-sky1)}.lp-sky2{stop-color:var(--lp-sky2)}.lp-ground{fill:var(--lp-g1)}.lp-ground2{fill:var(--lp-g2)}.lp-shadow{fill:var(--lp-shadow)}.lp-px{shape-rendering:crispEdges}.lp-name{font:700 16px ui-monospace,SFMono-Regular,'SF Mono',Menlo,Consolas,'Liberation Mono',monospace;fill:var(--lp-text)}.lp-sub{font:400 11px ui-monospace,SFMono-Regular,'SF Mono',Menlo,Consolas,'Liberation Mono',monospace;fill:var(--lp-muted)}.lp-say{font:400 11.5px ui-monospace,SFMono-Regular,'SF Mono',Menlo,Consolas,'Liberation Mono',monospace;fill:var(--lp-text)}.lp-label{font:400 11px ui-monospace,SFMono-Regular,'SF Mono',Menlo,Consolas,'Liberation Mono',monospace;fill:var(--lp-muted)}.lp-val{font:700 11px ui-monospace,SFMono-Regular,'SF Mono',Menlo,Consolas,'Liberation Mono',monospace;fill:var(--lp-text)}.lp-icon{font:400 11px ui-monospace,SFMono-Regular,'SF Mono',Menlo,Consolas,'Liberation Mono',monospace}.lp-trophy{font:400 14px ui-monospace,SFMono-Regular,'SF Mono',Menlo,Consolas,'Liberation Mono',monospace}.lp-foot{font:400 9.5px ui-monospace,SFMono-Regular,'SF Mono',Menlo,Consolas,'Liberation Mono',monospace;fill:var(--lp-muted)}.lp-brand{font:700 9.5px ui-monospace,SFMono-Regular,'SF Mono',Menlo,Consolas,'Liberation Mono',monospace;fill:var(--lp-muted)}.lp-logo{fill:var(--lp-logo);shape-rendering:crispEdges}.lp-mini-name{font:700 12px ui-monospace,SFMono-Regular,'SF Mono',Menlo,Consolas,'Liberation Mono',monospace;fill:var(--lp-text)}.lp-tag{font:700 11px ui-monospace,SFMono-Regular,'SF Mono',Menlo,Consolas,'Liberation Mono',monospace;fill:var(--lp-text)}.lp-tag-sub{font:400 9.5px ui-monospace,SFMono-Regular,'SF Mono',Menlo,Consolas,'Liberation Mono',monospace;fill:var(--lp-muted)}.lp-mini-sub{font:400 9.5px ui-monospace,SFMono-Regular,'SF Mono',Menlo,Consolas,'Liberation Mono',monospace;fill:var(--lp-muted)}.lp-z{font:700 12px ui-monospace,SFMono-Regular,'SF Mono',Menlo,Consolas,'Liberation Mono',monospace;fill:var(--lp-text)}.lp-bit{font:700 10px ui-monospace,SFMono-Regular,'SF Mono',Menlo,Consolas,'Liberation Mono',monospace;fill:#3fb950}.lp-bubble,.lp-thought{fill:var(--lp-bubble);stroke:var(--lp-bubble-border)}.lp-tail{fill:var(--lp-bubble);stroke:var(--lp-bubble-border);stroke-linejoin:round}.lp-seg,.lp-track{fill:var(--lp-track)}.lp-good{fill:#3fb950}.lp-mid{fill:#e3b341}.lp-low{fill:#f85149}.lp-xp{fill:#a371f7}.lp-ink{fill:var(--lp-text)}.lp-fly{fill:var(--lp-text)}.lp-star{fill:#fff8d6}.lp-snow{fill:#ffffff}.lp-raindrop{fill:#5ec8ff}.lp-firefly{fill:#fff59d}.lp-string{fill:#5a1e1e}.lp-far{fill:var(--lp-far)}.lp-mid{fill:var(--lp-mid)}.lp-water{fill:var(--lp-water)}.lp-water2{fill:var(--lp-water2)}.lp-ripple-line{stroke:var(--lp-water2)}.lp-sea{fill:var(--lp-water);opacity:.38}.lp-bubble-c{fill:none;stroke:#e4f7ff;stroke-width:1;opacity:.85}.lp-bounce{animation:lp-bounce 2s ease-in-out infinite}.lp-hop{animation:lp-hop 1s ease-in-out infinite}.lp-breathe{animation:lp-breathe 4s ease-in-out infinite}.lp-sway{animation:lp-sway 3s ease-in-out infinite}.lp-shiver{animation:lp-shiver .35s linear infinite}.lp-wobble{animation:lp-wobble 3s ease-in-out infinite}.lp-growl{animation:lp-growl 3s linear infinite}.lp-blink-open{animation:lp-blink-open 4s infinite}.lp-blink-closed{opacity:0;animation:lp-blink-closed 4s infinite}.lp-rise{animation:lp-rise 3s ease-out infinite both}.lp-zz{animation:lp-zz 3s ease-out infinite both}.lp-fall{animation:lp-fall 3s linear infinite}.lp-drift{animation:lp-drift 9s linear infinite}.lp-drip{animation:lp-drip 1.6s ease-in infinite both}.lp-orbit{animation:lp-orbit 2.4s linear infinite}.lp-twinkle{animation:lp-twinkle 2s ease-in-out infinite both}.lp-burst{animation:lp-burst 2.4s ease-out infinite both}.lp-float{animation:lp-float 3s ease-in-out infinite}.lp-swing{animation:lp-swing 3s ease-in-out infinite}.lp-cloud{animation:lp-cloud 14s ease-in-out infinite alternate}.lp-alert{animation:lp-alert 1.2s steps(2) infinite}.lp-flap{animation:lp-flap .5s steps(1) infinite}.lp-fly{animation:lp-fly 16s linear infinite}.lp-flutter{animation:lp-flutter 6s ease-in-out infinite}.lp-sway-soft{animation:lp-sway-soft 5s ease-in-out infinite}.lp-kelp{animation:lp-kelp 4s ease-in-out infinite}.lp-spin{animation:lp-orbit 6s linear infinite}.lp-mist{animation:lp-mist 9s ease-in-out infinite}.lp-shoot{animation:lp-shoot 8s linear infinite}.lp-aurora{animation:lp-aurora 6s ease-in-out infinite}.lp-rainbow{animation:lp-rainbow 5s ease-in-out infinite}.lp-wave{animation:lp-wave 3s ease-in-out infinite}.lp-tide{animation:lp-tide 4s ease-in-out infinite}.lp-ripple{animation:lp-ripple 3s ease-out infinite both}.lp-bubbling{animation:lp-bubble 5s ease-in infinite both}.lp-swim{animation:lp-swim 14s linear infinite}.lp-roll{animation:lp-roll 9s linear infinite}.lp-ray{animation:lp-ray 5s ease-in-out infinite}.lp-flow{animation:lp-flow 1s linear infinite both}.lp-glow{animation:lp-glow 2s ease-in-out infinite}.lp-haze{animation:lp-haze 2.2s ease-in-out infinite}.lp-flag{animation:lp-flag 1.8s ease-in-out infinite}.lp-bulb{animation:lp-bulb 1.2s steps(1) infinite}.lp-twinkle-soft{animation:lp-twinkle-soft 2.5s ease-in-out infinite}.lp-new{animation:lp-float 1.6s ease-in-out infinite}.lp-lvup{font:700 11px ui-monospace,SFMono-Regular,'SF Mono',Menlo,Consolas,'Liberation Mono',monospace;stroke:#3d2c00;stroke-width:2.5px;paint-order:stroke;stroke-linejoin:round}.lp-aura{opacity:.8;animation:lp-aura 1.1s ease-in-out infinite}.lp-pal-fly{animation:lp-pal-fly 3.4s ease-in-out infinite}.lp-pal-hop{animation:lp-pal-hop 1.6s ease-in-out infinite}.lp-quest{font:700 11px ui-monospace,SFMono-Regular,'SF Mono',Menlo,Consolas,'Liberation Mono',monospace;fill:var(--lp-muted)}.lp-more{font:700 10px ui-monospace,SFMono-Regular,'SF Mono',Menlo,Consolas,'Liberation Mono',monospace;fill:var(--lp-muted)}@keyframes lp-pal-fly{0%,100%{transform:translate(0,0)}25%{transform:translate(2px,-4px)}50%{transform:translate(0,-6px)}75%{transform:translate(-2px,-3px)}}@keyframes lp-pal-hop{0%,55%,100%{transform:translateY(0)}25%{transform:translateY(-5px)}}@keyframes lp-aura{0%,100%{opacity:.45}50%{opacity:.95}}@keyframes lp-bounce{0%,100%{transform:translateY(0)}50%{transform:translateY(-5px)}}@keyframes lp-hop{0%,100%{transform:translateY(0)}35%{transform:translateY(-14px)}55%{transform:translateY(0)}65%{transform:translateY(-3px)}}@keyframes lp-breathe{0%,100%{transform:scale(1,1)}50%{transform:scale(1.04,.96)}}@keyframes lp-sway{0%,100%{transform:rotate(-5deg)}50%{transform:rotate(5deg)}}@keyframes lp-shiver{0%,100%{transform:translateX(0)}25%{transform:translateX(-1.5px)}75%{transform:translateX(1.5px)}}@keyframes lp-wobble{0%,60%,100%{transform:rotate(0)}68%{transform:rotate(-9deg)}78%{transform:rotate(8deg)}88%{transform:rotate(-4deg)}}@keyframes lp-growl{0%,78%,100%{transform:translateX(0)}82%{transform:translateX(-2px)}86%{transform:translateX(2px)}90%{transform:translateX(-2px)}94%{transform:translateX(1px)}}@keyframes lp-blink-open{0%,93%,100%{opacity:1}94%,98%{opacity:0}}@keyframes lp-blink-closed{0%,93%,100%{opacity:0}94%,98%{opacity:1}}@keyframes lp-rise{0%{transform:translateY(0);opacity:0}20%{opacity:1}100%{transform:translateY(-34px);opacity:0}}@keyframes lp-zz{0%{transform:translate(0,0);opacity:0}20%{opacity:1}100%{transform:translate(10px,-26px);opacity:0}}@keyframes lp-fall{0%{transform:translateY(-20px) rotate(0)}100%{transform:translateY(260px) rotate(540deg)}}@keyframes lp-drift{0%{transform:translate(0,-20px) rotate(0)}50%{transform:translate(14px,110px) rotate(160deg)}100%{transform:translate(-8px,260px) rotate(340deg)}}@keyframes lp-drip{0%{transform:translateY(0);opacity:0}15%{opacity:1}100%{transform:translateY(16px);opacity:0}}@keyframes lp-orbit{to{transform:rotate(360deg)}}@keyframes lp-twinkle{0%,100%{opacity:.15}50%{opacity:1}}@keyframes lp-burst{0%{transform:scale(.1);opacity:0}10%{opacity:1}70%{opacity:.9}100%{transform:scale(1.3);opacity:0}}@keyframes lp-float{0%,100%{transform:translateY(0)}50%{transform:translateY(-3px)}}@keyframes lp-swing{0%,100%{transform:rotate(-6deg)}50%{transform:rotate(6deg)}}@keyframes lp-cloud{from{transform:translateX(-6px)}to{transform:translateX(10px)}}@keyframes lp-alert{0%{opacity:1}50%{opacity:.35}}@keyframes lp-flap{0%{opacity:1}50%{opacity:0}}@keyframes lp-fly{from{transform:translate(-40px,0)}50%{transform:translate(130px,-8px)}to{transform:translate(300px,4px)}}@keyframes lp-flutter{0%,100%{transform:translate(0,0)}25%{transform:translate(14px,-9px)}50%{transform:translate(24px,1px)}75%{transform:translate(9px,7px)}}@keyframes lp-sway-soft{0%,100%{transform:rotate(-2deg)}50%{transform:rotate(2deg)}}@keyframes lp-kelp{0%,100%{transform:skewX(-9deg)}50%{transform:skewX(9deg)}}@keyframes lp-mist{0%,100%{transform:translateX(-14px)}50%{transform:translateX(14px)}}@keyframes lp-shoot{0%,86%{transform:translate(0,0);opacity:0}88%{opacity:1}100%{transform:translate(-70px,36px);opacity:0}}@keyframes lp-aurora{0%,100%{opacity:.1;transform:translateY(0)}50%{opacity:.5;transform:translateY(3px)}}@keyframes lp-rainbow{0%,100%{opacity:.25}50%{opacity:.6}}@keyframes lp-wave{0%,100%{transform:translateX(0)}50%{transform:translateX(-7px)}}@keyframes lp-tide{0%,100%{transform:translateY(0);opacity:.2}50%{transform:translateY(4px);opacity:.9}}@keyframes lp-ripple{0%{transform:scale(.2);opacity:.9}100%{transform:scale(1.5);opacity:0}}@keyframes lp-bubble{0%{transform:translate(0,0);opacity:0}10%{opacity:.9}50%{transform:translate(4px,-80px)}100%{transform:translate(-3px,-170px);opacity:0}}@keyframes lp-swim{from{transform:translateX(0)}50%{transform:translate(-160px,-6px)}to{transform:translateX(-340px)}}@keyframes lp-roll{0%{transform:translate(0,0)}20%{transform:translate(60px,-6px)}25%{transform:translate(75px,0)}55%{transform:translate(165px,-8px)}60%{transform:translate(180px,0)}100%{transform:translate(300px,0)}}@keyframes lp-ray{0%,100%{opacity:.04}50%{opacity:.2}}@keyframes lp-flow{0%{transform:translateY(-4px);opacity:0}25%{opacity:1}100%{transform:translateY(24px);opacity:0}}@keyframes lp-glow{0%,100%{opacity:.55}50%{opacity:1}}@keyframes lp-haze{0%,100%{transform:scale(1,1);opacity:.15}50%{transform:scale(1,2.5);opacity:.4}}@keyframes lp-flag{0%,100%{transform:rotate(-8deg)}50%{transform:rotate(8deg)}}@keyframes lp-bulb{0%{opacity:1}50%{opacity:.25}}@keyframes lp-twinkle-soft{0%,100%{opacity:.75}50%{opacity:1}}@media (prefers-reduced-motion:reduce){*{animation-play-state:paused!important}}</style><defs><linearGradient id="lp1ro22ac-sky" x1="0" y1="0" x2="0" y2="1"><stop offset="0" class="lp-sky1"/><stop offset="1" class="lp-sky2"/></linearGradient><clipPath id="lp1ro22ac-clip"><rect x="10" y="10" width="200" height="236" rx="10"/></clipPath></defs><rect x="0.5" y="0.5" width="519" height="255" rx="14" class="lp-card"/><g clip-path="url(#lp1ro22ac-clip)"><rect x="10" y="10" width="200" height="236" fill="url(#lp1ro22ac-sky)"/><rect x="10" y="10" width="200" height="236" class="lp-sea"/><path d="M165.4 10h11.6l-82.6 236h-20.9Z" fill="#ffffff" class="lp-ray lp-day" style="animation-duration:4.55s;animation-delay:-5.24s"/><path d="M155.4 10h14.9l-82.6 236h-26.9Z" fill="#ffffff" class="lp-ray lp-day" style="animation-duration:6.53s;animation-delay:-1.43s"/><path d="M90.4 10h17.1l-82.6 236h-30.8Z" fill="#ffffff" class="lp-ray lp-day" style="animation-duration:6.86s;animation-delay:-0.07s"/><g transform="translate(0 0)"><g class="lp-wave" style="animation-duration:3.00s;animation-delay:-0.00s"><rect x="-2" y="13" width="6" height="2" fill="#ffffff" opacity=".5"/><rect x="10" y="13" width="6" height="2" fill="#ffffff" opacity=".5"/><rect x="22" y="13" width="6" height="2" fill="#ffffff" opacity=".5"/><rect x="34" y="13" width="6" height="2" fill="#ffffff" opacity=".5"/><rect x="46" y="13" width="6" height="2" fill="#ffffff" opacity=".5"/><rect x="58" y="13" width="6" height="2" fill="#ffffff" opacity=".5"/><rect x="70" y="13" width="6" height="2" fill="#ffffff" opacity=".5"/><rect x="82" y="13" width="6" height="2" fill="#ffffff" opacity=".5"/><rect x="94" y="13" width="6" height="2" fill="#ffffff" opacity=".5"/><rect x="106" y="13" width="6" height="2" fill="#ffffff" opacity=".5"/><rect x="118" y="13" width="6" height="2" fill="#ffffff" opacity=".5"/><rect x="130" y="13" width="6" height="2" fill="#ffffff" opacity=".5"/><rect x="142" y="13" width="6" height="2" fill="#ffffff" opacity=".5"/><rect x="154" y="13" width="6" height="2" fill="#ffffff" opacity=".5"/><rect x="166" y="13" width="6" height="2" fill="#ffffff" opacity=".5"/><rect x="178" y="13" width="6" height="2" fill="#ffffff" opacity=".5"/><rect x="190" y="13" width="6" height="2" fill="#ffffff" opacity=".5"/><rect x="202" y="13" width="6" height="2" fill="#ffffff" opacity=".5"/><rect x="214" y="13" width="6" height="2" fill="#ffffff" opacity=".5"/></g></g><circle cx="134.9" cy="43.5" r="1.2" fill="#7df9ff" class="lp-night lp-twinkle" style="animation-duration:2.13s;animation-delay:-1.91s"/><circle cx="18" cy="21.1" r="1.2" fill="#7df9ff" class="lp-night lp-twinkle" style="animation-duration:2.31s;animation-delay:-1.54s"/><circle cx="102" cy="119.5" r="1.2" fill="#7df9ff" class="lp-night lp-twinkle" style="animation-duration:2.60s;animation-delay:-1.12s"/><circle cx="190.8" cy="172.4" r="1.2" fill="#7df9ff" class="lp-night lp-twinkle" style="animation-duration:1.84s;animation-delay:-0.81s"/><circle cx="49.4" cy="47.6" r="1.2" fill="#7df9ff" class="lp-night lp-twinkle" style="animation-duration:2.42s;animation-delay:-0.54s"/><circle cx="81.9" cy="25.6" r="1.2" fill="#7df9ff" class="lp-night lp-twinkle" style="animation-duration:2.22s;animation-delay:-0.43s"/><circle cx="139.9" cy="25.9" r="1.2" fill="#7df9ff" class="lp-night lp-twinkle" style="animation-duration:2.49s;animation-delay:-1.74s"/><circle cx="73.3" cy="53.5" r="1.2" fill="#7df9ff" class="lp-night lp-twinkle" style="animation-duration:1.93s;animation-delay:-1.53s"/><circle cx="176.4" cy="182.1" r="1.2" fill="#7df9ff" class="lp-night lp-twinkle" style="animation-duration:2.11s;animation-delay:-2.24s"/><g class="lp-px"><path d="M10 206V176H16V168H22V176H28V188H34V190H40V190H46V198H52V200H58V188H64V176H70V178H76V180H82V174H88V174H94V190H100V198H106V194H112V192H118V196H124V190H130V176H136V172H142V178H148V180H154V178H160V188H166V200H172V198H178V188H184V186H190V188H196V178H202V168H208V174H210V206Z" class="lp-far"/></g><g class="lp-px"><rect x="10" y="206" width="200" height="40" class="lp-ground"/><rect x="10" y="206" width="200" height="2" class="lp-ground2"/><rect x="34.7" y="223.8" width="3" height="2" class="lp-ground2"/><rect x="100.6" y="234.3" width="3" height="2" class="lp-ground2"/><rect x="170.4" y="232.4" width="3" height="2" class="lp-ground2"/><rect x="146.3" y="224.9" width="3" height="2" class="lp-ground2"/><rect x="133.6" y="235.8" width="3" height="2" class="lp-ground2"/></g><g class="lp-px"><g transform="translate(18 209)"><g class="lp-kelp lp-prop" style="animation-duration:3.44s;animation-delay:-1.16s"><rect x="-3" y="-3.9000000000000004" width="3" height="4.2" fill="#46c072"/><rect x="0" y="-7.800000000000001" width="3" height="4.2" fill="#2f9e5a"/><rect x="-3" y="-11.700000000000001" width="3" height="4.2" fill="#2f9e5a"/><rect x="0" y="-15.600000000000001" width="3" height="4.2" fill="#46c072"/><rect x="-3" y="-19.5" width="3" height="4.2" fill="#2f9e5a"/><rect x="0" y="-23.400000000000002" width="3" height="4.2" fill="#2f9e5a"/><rect x="-3" y="-27.3" width="3" height="4.2" fill="#46c072"/><rect x="0" y="-31.200000000000003" width="3" height="4.2" fill="#2f9e5a"/><rect x="-3" y="-35.1" width="3" height="4.2" fill="#2f9e5a"/><rect x="0" y="-39" width="3" height="4.2" fill="#46c072"/><rect x="-3" y="-42.9" width="3" height="4.2" fill="#2f9e5a"/></g></g><g transform="translate(198 209)"><g class="lp-kelp lp-prop" style="animation-duration:3.15s;animation-delay:-3.39s"><rect x="-3" y="-3.9000000000000004" width="3" height="4.2" fill="#46c072"/><rect x="0" y="-7.800000000000001" width="3" height="4.2" fill="#2f9e5a"/><rect x="-3" y="-11.700000000000001" width="3" height="4.2" fill="#2f9e5a"/><rect x="0" y="-15.600000000000001" width="3" height="4.2" fill="#46c072"/><rect x="-3" y="-19.5" width="3" height="4.2" fill="#2f9e5a"/><rect x="0" y="-23.400000000000002" width="3" height="4.2" fill="#2f9e5a"/><rect x="-3" y="-27.3" width="3" height="4.2" fill="#46c072"/><rect x="0" y="-31.200000000000003" width="3" height="4.2" fill="#2f9e5a"/><rect x="-3" y="-35.1" width="3" height="4.2" fill="#2f9e5a"/><rect x="0" y="-39" width="3" height="4.2" fill="#46c072"/><rect x="-3" y="-42.9" width="3" height="4.2" fill="#2f9e5a"/><rect x="0" y="-46.800000000000004" width="3" height="4.2" fill="#2f9e5a"/><rect x="-3" y="-50.7" width="3" height="4.2" fill="#46c072"/><rect x="0" y="-54.6" width="3" height="4.2" fill="#2f9e5a"/></g></g><g transform="translate(178 209)"><g class="lp-prop"><g transform="translate(-10.5 -21) scale(3)"><path fill="#c77dff" d="M0 0h1v2h-1zm2 0h1v2h-1zm3 0h1v1h-1zm-1 1h2v1h-2zm-4 1h3v1h-3zm4 0h1v1h-1zm-3 1h4v1h-4zm5 0h1v1h-1zm-4 1h5v1h-5zm1 1h2v1h-2zm-1 1h4v1h-4z"/></g></g></g></g><g class="lp-px"><g transform="translate(160 202) scale(3)"><path fill="#1b3a5c" d="M0 2h12v1h-12zm1 1h1v1h-1zm9 0h1v1h-1zm-8 1h8v1h-8z"/><path fill="#5ec8ff" d="M2 3h8v1h-8z"/></g></g><ellipse cx="94" cy="213" rx="43" ry="4" class="lp-shadow"/><g transform="translate(94 214)"><g class="lp-growl" style="animation-duration:3.00s"><g transform="translate(-94 -214)" class="lp-px"><g transform="translate(38 109) scale(3.5)"><path fill="#2b1508" d="M4 2h24v1h-24zm-1 1h2v1h-2zm25 0h1v1h-1zm-26 1h3v1h-3zm27 0h1v1h-1zm-28 1h2v1h-2zm29 0h1v1h-1zm-30 1h3v1h-3zm31 0h1v22h-1zm-31 1h1v21h-1zm15 13h2v1h-2zm-1 1h1v2h-1zm3 0h1v2h-1zm-2 2h2v1h-2zm-14 5h1v1h-1zm29 0h1v1h-1zm-28 1h28v1h-28z"/><path fill="#d3a16d" d="M5 3h1v2h-1zm3 1h4v2h-4zm-5 1h3v1h-3zm0 1h1v1h-1zm-2 1h3v1h-3z"/><path fill="#ffeb9f" d="M6 3h1v1h-1zm0 1h2v2h-2zm18 0h2v1h-2zm0 1h1v1h-1zm-18 1h1v1h-1zm-2 2h1v1h-1z"/><path fill="#ffd23f" d="M7 3h1v1h-1zm17 0h2v1h-2zm1 2h1v1h-1zm-18 1h1v1h-1zm17 0h2v2h-2zm-18 1h2v1h-2zm-1 1h9v1h-9zm13 0h10v2h-10zm-14 1h10v1h-10zm2 5h2v11h-2zm18 0h2v11h-2zm-18 11h1v1h-1z"/><path fill="#c98a52" d="M8 3h4v1h-4z"/><path fill="#a3622f" d="M12 3h2v1h-2zm6 0h6v1h-6zm8 0h2v5h-2zm-18 3h6v2h-6zm10 0h6v2h-6zm-17 8h5v10h-5zm25 0h2v11h-2zm-22 10h2v1h-2zm1 1h1v1h-1z"/><path fill="#fffaf0" d="M14 3h2v1h-2zm-10 7h4v1h-4zm6 0h4v2h-4zm8 0h4v2h-4zm6 0h4v1h-4zm-19 1h3v1h-3zm19 0h3v1h-3zm-18 1h2v2h-2zm18 0h2v2h-2z"/><path fill="#4fe0d2" d="M16 3h2v1h-2zm-2 3h4v2h-4z"/><path fill="#ad7949" d="M12 4h2v2h-2zm6 0h6v2h-6zm-14 2h2v2h-2z"/><path fill="#ffffff" d="M14 4h2v2h-2z"/><path fill="#83f1dc" d="M16 4h2v2h-2z"/><path fill="#91481c" d="M28 4h1v2h-1zm0 10h1v10h-1zm-2 11h2v1h-2z"/><path fill="#672c0e" d="M29 5h1v1h-1zm0 1h2v1h-2zm0 1h1v1h-1zm-1 1h2v1h-2zm0 1h1v1h-1zm0 15h1v3h-1zm-27 2h1v2h-1zm2 0h3v1h-3z"/><path fill="#7a4420" d="M28 6h1v2h-1zm-27 2h1v1h-1zm0 1h3v1h-3zm0 15h3v1h-3zm0 1h4v1h-4zm1 1h1v1h-1z"/><path fill="#501000" d="M30 7h1v2h-1zm-1 2h2v1h-2zm0 15h2v3h-2zm-27 3h4v2h-4zm26 0h3v1h-3zm0 1h2v1h-2z"/><path fill="#87583a" d="M2 8h2v1h-2z"/><path fill="#c98f12" d="M14 8h4v4h-4z"/><path fill="#3d0f1e" d="M1 10h3v1h-3zm7 0h2v4h-2zm14 0h2v4h-2zm-21 1h4v1h-4zm26 0h1v1h-1zm-26 1h5v2h-5zm25 0h2v2h-2z"/><path fill="#2d0116" d="M28 10h1v4h-1z"/><path fill="#16000b" d="M29 10h2v4h-2z"/><path fill="#ff5470" d="M10 12h12v2h-12z"/><path fill="#f0d3a0" d="M8 14h16v6h-16zm0 6h7v1h-7zm9 0h7v1h-7zm-9 1h6v2h-6zm10 0h6v2h-6zm-10 2h7v1h-7zm9 0h7v1h-7zm-9 1h16v1h-16z"/><path fill="#7a2a06" d="M29 14h2v10h-2z"/><path fill="#79262b" d="M15 21h2v1h-2z"/><path fill="#ff5d73" d="M15 22h2v1h-2z"/><path fill="#f2b300" d="M7 25h1v1h-1zm17 0h2v1h-2zm-18 1h22v1h-22z"/><path fill="#deb887" d="M8 25h16v1h-16z"/><path fill="#db9400" d="M6 27h22v2h-22z"/></g><g class="lp-blink-open" style="animation-duration:3.84s"><g transform="translate(38 109) scale(3.5)"><path fill="#2b1508" d="M9 14h4v1h-4zm10 0h4v1h-4zm-11 1h1v2h-1zm3 0h3v2h-3zm7 0h1v2h-1zm3 0h3v2h-3zm-13 2h6v1h-6zm10 0h6v1h-6zm-10 1h4v1h-4zm5 0h1v1h-1zm5 0h4v1h-4zm5 0h1v1h-1zm-14 1h4v1h-4zm10 0h4v1h-4z"/><path fill="#ffffff" d="M9 15h2v2h-2zm10 0h2v2h-2zm-7 3h1v1h-1zm10 0h1v1h-1z"/></g></g><g class="lp-blink-closed" style="animation-duration:3.84s"><g transform="translate(38 109) scale(3.5)"><path fill="#2b1508" d="M8 18h4v1h-4zm12 0h4v1h-4zm-11 1h2v1h-2zm12 0h2v1h-2z"/></g></g></g></g></g><g class="lp-float" style="animation-duration:2.6s"><circle cx="127.6" cy="118" r="2" class="lp-thought"/><circle cx="138.8" cy="110" r="3" class="lp-thought"/><rect x="137.2" y="91" width="30" height="22" rx="10" class="lp-thought"/><g class="lp-px"><g transform="translate(146.2 97) scale(2)"><path fill="#c8642c" d="M1 0h3v1h-3zm-1 1h5v2h-5zm1 2h3v1h-3z"/><path fill="#fff3e0" d="M4 3h1v1h-1zm0 1h2v1h-2z"/></g></g></g><g class="lp-px"><g transform="translate(183.7 203.9)"><g class="lp-bubbling" style="animation-duration:5.03s;animation-delay:-0.71s"><circle r="2.8" class="lp-bubble-c"/></g></g><g transform="translate(177.1 200.2)"><g class="lp-bubbling" style="animation-duration:5.30s;animation-delay:-6.62s"><circle r="2" class="lp-bubble-c"/></g></g><g transform="translate(34 199.8)"><g class="lp-bubbling" style="animation-duration:6.88s;animation-delay:-0.25s"><circle r="3.3" class="lp-bubble-c"/></g></g><g transform="translate(54.8 200.3)"><g class="lp-bubbling" style="animation-duration:6.90s;animation-delay:-1.53s"><circle r="2.8" class="lp-bubble-c"/></g></g><g transform="translate(124.8 201.8)"><g class="lp-bubbling" style="animation-duration:6.74s;animation-delay:-0.56s"><circle r="2" class="lp-bubble-c"/></g></g><g transform="translate(185.3 201.9)"><g class="lp-bubbling" style="animation-duration:5.47s;animation-delay:-3.73s"><circle r="1.6" class="lp-bubble-c"/></g></g><g transform="translate(42.9 203.9)"><g class="lp-bubbling" style="animation-duration:5.20s;animation-delay:-4.42s"><circle r="1.8" class="lp-bubble-c"/></g></g><g transform="translate(71.4 196.5)"><g class="lp-bubbling" style="animation-duration:6.16s;animation-delay:-0.01s"><circle r="2.4" class="lp-bubble-c"/></g></g><g transform="translate(135.4 203)"><g class="lp-bubbling" style="animation-duration:4.26s;animation-delay:-2.21s"><circle r="2.8" class="lp-bubble-c"/></g></g><g transform="translate(274.1 95.4)"><g class="lp-swim" style="animation-duration:15.50s;animation-delay:-5.27s"><g transform="translate(0 0) scale(1.5)"><path fill="#ffb703" d="M2 0h3v1h-3zm-1 1h5v1h-5zm6 0h1v1h-1zm-7 1h1v1h-1zm2 0h6v1h-6zm-1 1h5v1h-5zm6 0h1v1h-1zm-5 1h3v1h-3z"/><path fill="#1b1b2f" d="M1 2h1v1h-1z"/></g></g></g><g transform="translate(296 129.7)"><g class="lp-swim" style="animation-duration:11.69s;animation-delay:-2.62s"><g transform="translate(0 0) scale(1.5)"><path fill="#ffb703" d="M2 0h3v1h-3zm-1 1h5v1h-5zm6 0h1v1h-1zm-7 1h1v1h-1zm2 0h6v1h-6zm-1 1h5v1h-5zm6 0h1v1h-1zm-5 1h3v1h-3z"/><path fill="#1b1b2f" d="M1 2h1v1h-1z"/></g></g></g></g></g><text x="228" y="34" class="lp-name">Ruli the Starving</text><text x="228" y="52" class="lp-sub">🥈 Lv.21 · Adult Mimic · Treasure Chest</text><rect x="228" y="58" width="280" height="3" rx="1.5" class="lp-track"/><rect x="228" y="58" width="138" height="3" rx="1.5" class="lp-xp" style="fill:#a8b2c1"/><rect x="228" y="68" width="280" height="46" rx="9" class="lp-bubble"/><path d="M229 83 L219 90 L229 97" class="lp-tail"/><text x="239" y="87" class="lp-say">So hungry... even a README tweak</text><text x="239" y="104" class="lp-say">would do</text><text x="228" y="134" class="lp-icon">🍖</text><text x="246" y="134" class="lp-label">Fullness</text><rect x="340" y="125" width="11" height="9" rx="1.5" class="lp-low"/><rect x="353" y="125" width="11" height="9" rx="1.5" class="lp-low"/><rect x="366" y="125" width="11" height="9" rx="1.5" class="lp-seg"/><rect x="379" y="125" width="11" height="9" rx="1.5" class="lp-seg"/><rect x="392" y="125" width="11" height="9" rx="1.5" class="lp-seg"/><rect x="405" y="125" width="11" height="9" rx="1.5" class="lp-seg"/><rect x="418" y="125" width="11" height="9" rx="1.5" class="lp-seg"/><rect x="431" y="125" width="11" height="9" rx="1.5" class="lp-seg"/><rect x="444" y="125" width="11" height="9" rx="1.5" class="lp-seg"/><rect x="457" y="125" width="11" height="9" rx="1.5" class="lp-seg"/><text x="508" y="134" text-anchor="end" class="lp-val lp-alert">15</text><text x="228" y="151" class="lp-icon">❤️</text><text x="246" y="151" class="lp-label">Health</text><rect x="340" y="142" width="11" height="9" rx="1.5" class="lp-good"/><rect x="353" y="142" width="11" height="9" rx="1.5" class="lp-good"/><rect x="366" y="142" width="11" height="9" rx="1.5" class="lp-good"/><rect x="379" y="142" width="11" height="9" rx="1.5" class="lp-good"/><rect x="392" y="142" width="11" height="9" rx="1.5" class="lp-good"/><rect x="405" y="142" width="11" height="9" rx="1.5" class="lp-good"/><rect x="418" y="142" width="11" height="9" rx="1.5" class="lp-good"/><rect x="431" y="142" width="11" height="9" rx="1.5" class="lp-good"/><rect x="444" y="142" width="11" height="9" rx="1.5" class="lp-good"/><rect x="457" y="142" width="11" height="9" rx="1.5" class="lp-good"/><text x="508" y="151" text-anchor="end" class="lp-val">100</text><text x="228" y="168" class="lp-icon">😊</text><text x="246" y="168" class="lp-label">Joy</text><rect x="340" y="159" width="11" height="9" rx="1.5" class="lp-good"/><rect x="353" y="159" width="11" height="9" rx="1.5" class="lp-good"/><rect x="366" y="159" width="11" height="9" rx="1.5" class="lp-good"/><rect x="379" y="159" width="11" height="9" rx="1.5" class="lp-good"/><rect x="392" y="159" width="11" height="9" rx="1.5" class="lp-good"/><rect x="405" y="159" width="11" height="9" rx="1.5" class="lp-good"/><rect x="418" y="159" width="11" height="9" rx="1.5" class="lp-good"/><rect x="431" y="159" width="11" height="9" rx="1.5" class="lp-good"/><rect x="444" y="159" width="11" height="9" rx="1.5" class="lp-good"/><rect x="457" y="159" width="11" height="9" rx="1.5" class="lp-seg"/><text x="508" y="168" text-anchor="end" class="lp-val">85</text><text x="228" y="185" class="lp-icon">⚡</text><text x="246" y="185" class="lp-label">Energy</text><rect x="340" y="176" width="11" height="9" rx="1.5" class="lp-seg"/><rect x="353" y="176" width="11" height="9" rx="1.5" class="lp-seg"/><rect x="366" y="176" width="11" height="9" rx="1.5" class="lp-seg"/><rect x="379" y="176" width="11" height="9" rx="1.5" class="lp-seg"/><rect x="392" y="176" width="11" height="9" rx="1.5" class="lp-seg"/><rect x="405" y="176" width="11" height="9" rx="1.5" class="lp-seg"/><rect x="418" y="176" width="11" height="9" rx="1.5" class="lp-seg"/><rect x="431" y="176" width="11" height="9" rx="1.5" class="lp-seg"/><rect x="444" y="176" width="11" height="9" rx="1.5" class="lp-seg"/><rect x="457" y="176" width="11" height="9" rx="1.5" class="lp-seg"/><text x="508" y="185" text-anchor="end" class="lp-val lp-alert">0</text><text x="228" y="202" class="lp-icon">🧼</text><text x="246" y="202" class="lp-label">Hygiene</text><rect x="340" y="193" width="11" height="9" rx="1.5" class="lp-mid"/><rect x="353" y="193" width="11" height="9" rx="1.5" class="lp-mid"/><rect x="366" y="193" width="11" height="9" rx="1.5" class="lp-mid"/><rect x="379" y="193" width="11" height="9" rx="1.5" class="lp-mid"/><rect x="392" y="193" width="11" height="9" rx="1.5" class="lp-mid"/><rect x="405" y="193" width="11" height="9" rx="1.5" class="lp-seg"/><rect x="418" y="193" width="11" height="9" rx="1.5" class="lp-seg"/><rect x="431" y="193" width="11" height="9" rx="1.5" class="lp-seg"/><rect x="444" y="193" width="11" height="9" rx="1.5" class="lp-seg"/><rect x="457" y="193" width="11" height="9" rx="1.5" class="lp-seg"/><text x="508" y="202" text-anchor="end" class="lp-val">50</text><text x="228" y="228" class="lp-trophy lp-new">💯</text><text x="508" y="228" text-anchor="end" class="lp-quest">📜 0/3 · ⭐ 0</text><text x="228" y="246" class="lp-foot">octo-org/demo · last fed 40d ago</text><path transform="translate(441 237)" d="M6 0h3v1h-3zM4 1h6v1h-6zM3 2h7v1h-7zM3 3h2v1h-2zM7 3h1v1h-1zM9 3h1v1h-1zM2 4h1v1h-1zM3 5h6v1h-6zM2 6h8v1h-8zM1 7h2v1h-2zM4 7h4v1h-4zM9 7h2v1h-2zM1 8h2v1h-2zM4 8h4v1h-4zM9 8h2v1h-2zM1 9h4v1h-4zM7 9h4v1h-4zM2 10h8v1h-8zM3 11h6v1h-6z" class="lp-logo"/><text x="508" y="246" text-anchor="end" textLength="51" class="lp-brand">legacypet</text></svg>