<svg xmlns="http://www.w3.org/2000/svg" width="520" height="256" viewBox="0 0 520 256" role="img" aria-labelledby="lp1j66v0q-t lp1j66v0q-d"><title id="lp1j66v0q-t">Ruli the Dreaming 💤 octo-org/demo</title><desc id="lp1j66v0q-d">Ruli the Dreaming: Lv.21 (Silver) Adult Monk Panda, hibernating. Fullness 0%, Health 100%, Joy 75%, Energy 0%, Hygiene 70%. “Archived and at peace. Thanks for everything 💤”</desc><style>svg{--lp-bg:#ffffff;--lp-border:#e3e8ef;--lp-text:#1f2430;--lp-muted:#6b7385;--lp-bubble:#f5f7fb;--lp-bubble-border:#d5dbe7;--lp-track:#e6eaf1;--lp-shadow:rgba(0,0,0,.16);--lp-logo:#0f8a7e;--lp-sky1:#2c3e70;--lp-sky2:#7f97cf;--lp-g1:#eef4ff;--lp-g2:#cfdcf5;--lp-water:#8fd3ff;--lp-water2:#ffffff;--lp-far:#5fae6a;--lp-mid:#3f8f52}.lp-night{display:none}.lp-prop{filter:brightness(.6) saturate(.85)}.lp-card{fill:var(--lp-bg);stroke:var(--lp-border)}.lp-sky1{stop-color:var(--lp-sky1)}.lp-sky2{stop-color:var(--lp-sky2)}.lp-ground{fill:var(--lp-g1)}.lp-ground2{fill:var(--lp-g2)}.lp-shadow{fill:var(--lp-shadow)}.lp-px{shape-rendering:crispEdges}.lp-name{font:700 16px ui-monospace,SFMono-Regular,'SF Mono',Menlo,Consolas,'Liberation Mono',monospace;fill:var(--lp-text)}.lp-sub{font:400 11px ui-monospace,SFMono-Regular,'SF Mono',Menlo,Consolas,'Liberation Mono',monospace;fill:var(--lp-muted)}.lp-say{font:400 11.5px ui-monospace,SFMono-Regular,'SF Mono',Menlo,Consolas,'Liberation Mono',monospace;fill:var(--lp-text)}.lp-label{font:400 11px ui-monospace,SFMono-Regular,'SF Mono',Menlo,Consolas,'Liberation Mono',monospace;fill:var(--lp-muted)}.lp-val{font:700 11px ui-monospace,SFMono-Regular,'SF Mono',Menlo,Consolas,'Liberation Mono',monospace;fill:var(--lp-text)}.lp-icon{font:400 11px ui-monospace,SFMono-Regular,'SF Mono',Menlo,Consolas,'Liberation Mono',monospace}.lp-trophy{font:400 14px ui-monospace,SFMono-Regular,'SF Mono',Menlo,Consolas,'Liberation Mono',monospace}.lp-foot{font:400 9.5px ui-monospace,SFMono-Regular,'SF Mono',Menlo,Consolas,'Liberation Mono',monospace;fill:var(--lp-muted)}.lp-brand{font:700 9.5px ui-monospace,SFMono-Regular,'SF Mono',Menlo,Consolas,'Liberation Mono',monospace;fill:var(--lp-muted)}.lp-logo{fill:var(--lp-logo);shape-rendering:crispEdges}.lp-mini-name{font:700 12px ui-monospace,SFMono-Regular,'SF Mono',Menlo,Consolas,'Liberation Mono',monospace;fill:var(--lp-text)}.lp-tag{font:700 11px ui-monospace,SFMono-Regular,'SF Mono',Menlo,Consolas,'Liberation Mono',monospace;fill:var(--lp-text)}.lp-tag-sub{font:400 9.5px ui-monospace,SFMono-Regular,'SF Mono',Menlo,Consolas,'Liberation Mono',monospace;fill:var(--lp-muted)}.lp-mini-sub{font:400 9.5px ui-monospace,SFMono-Regular,'SF Mono',Menlo,Consolas,'Liberation Mono',monospace;fill:var(--lp-muted)}.lp-z{font:700 12px ui-monospace,SFMono-Regular,'SF Mono',Menlo,Consolas,'Liberation Mono',monospace;fill:var(--lp-text)}.lp-bit{font:700 10px ui-monospace,SFMono-Regular,'SF Mono',Menlo,Consolas,'Liberation Mono',monospace;fill:#3fb950}.lp-bubble,.lp-thought{fill:var(--lp-bubble);stroke:var(--lp-bubble-border)}.lp-tail{fill:var(--lp-bubble);stroke:var(--lp-bubble-border);stroke-linejoin:round}.lp-seg,.lp-track{fill:var(--lp-track)}.lp-good{fill:#3fb950}.lp-mid{fill:#e3b341}.lp-low{fill:#f85149}.lp-xp{fill:#a371f7}.lp-ink{fill:var(--lp-text)}.lp-fly{fill:var(--lp-text)}.lp-star{fill:#fff8d6}.lp-snow{fill:#ffffff}.lp-raindrop{fill:#5ec8ff}.lp-firefly{fill:#fff59d}.lp-string{fill:#5a1e1e}.lp-far{fill:var(--lp-far)}.lp-mid{fill:var(--lp-mid)}.lp-water{fill:var(--lp-water)}.lp-water2{fill:var(--lp-water2)}.lp-ripple-line{stroke:var(--lp-water2)}.lp-sea{fill:var(--lp-water);opacity:.38}.lp-bubble-c{fill:none;stroke:#e4f7ff;stroke-width:1;opacity:.85}.lp-bounce{animation:lp-bounce 2s ease-in-out infinite}.lp-hop{animation:lp-hop 1s ease-in-out infinite}.lp-breathe{animation:lp-breathe 4s ease-in-out infinite}.lp-sway{animation:lp-sway 3s ease-in-out infinite}.lp-shiver{animation:lp-shiver .35s linear infinite}.lp-wobble{animation:lp-wobble 3s ease-in-out infinite}.lp-growl{animation:lp-growl 3s linear infinite}.lp-blink-open{animation:lp-blink-open 4s infinite}.lp-blink-closed{opacity:0;animation:lp-blink-closed 4s infinite}.lp-rise{animation:lp-rise 3s ease-out infinite both}.lp-zz{animation:lp-zz 3s ease-out infinite both}.lp-fall{animation:lp-fall 3s linear infinite}.lp-drift{animation:lp-drift 9s linear infinite}.lp-drip{animation:lp-drip 1.6s ease-in infinite both}.lp-orbit{animation:lp-orbit 2.4s linear infinite}.lp-twinkle{animation:lp-twinkle 2s ease-in-out infinite both}.lp-burst{animation:lp-burst 2.4s ease-out infinite both}.lp-float{animation:lp-float 3s ease-in-out infinite}.lp-swing{animation:lp-swing 3s ease-in-out infinite}.lp-cloud{animation:lp-cloud 14s ease-in-out infinite alternate}.lp-alert{animation:lp-alert 1.2s steps(2) infinite}.lp-flap{animation:lp-flap .5s steps(1) infinite}.lp-fly{animation:lp-fly 16s linear infinite}.lp-flutter{animation:lp-flutter 6s ease-in-out infinite}.lp-sway-soft{animation:lp-sway-soft 5s ease-in-out infinite}.lp-kelp{animation:lp-kelp 4s ease-in-out infinite}.lp-spin{animation:lp-orbit 6s linear infinite}.lp-mist{animation:lp-mist 9s ease-in-out infinite}.lp-shoot{animation:lp-shoot 8s linear infinite}.lp-aurora{animation:lp-aurora 6s ease-in-out infinite}.lp-rainbow{animation:lp-rainbow 5s ease-in-out infinite}.lp-wave{animation:lp-wave 3s ease-in-out infinite}.lp-tide{animation:lp-tide 4s ease-in-out infinite}.lp-ripple{animation:lp-ripple 3s ease-out infinite both}.lp-bubbling{animation:lp-bubble 5s ease-in infinite both}.lp-swim{animation:lp-swim 14s linear infinite}.lp-roll{animation:lp-roll 9s linear infinite}.lp-ray{animation:lp-ray 5s ease-in-out infinite}.lp-flow{animation:lp-flow 1s linear infinite both}.lp-glow{animation:lp-glow 2s ease-in-out infinite}.lp-haze{animation:lp-haze 2.2s ease-in-out infinite}.lp-flag{animation:lp-flag 1.8s ease-in-out infinite}.lp-bulb{animation:lp-bulb 1.2s steps(1) infinite}.lp-twinkle-soft{animation:lp-twinkle-soft 2.5s ease-in-out infinite}.lp-new{animation:lp-float 1.6s ease-in-out infinite}.lp-lvup{font:700 11px ui-monospace,SFMono-Regular,'SF Mono',Menlo,Consolas,'Liberation Mono',monospace;stroke:#3d2c00;stroke-width:2.5px;paint-order:stroke;stroke-linejoin:round}.lp-aura{opacity:.8;animation:lp-aura 1.1s ease-in-out infinite}.lp-pal-fly{animation:lp-pal-fly 3.4s ease-in-out infinite}.lp-pal-hop{animation:lp-pal-hop 1.6s ease-in-out infinite}.lp-quest{font:700 11px ui-monospace,SFMono-Regular,'SF Mono',Menlo,Consolas,'Liberation Mono',monospace;fill:var(--lp-muted)}.lp-more{font:700 10px ui-monospace,SFMono-Regular,'SF Mono',Menlo,Consolas,'Liberation Mono',monospace;fill:var(--lp-muted)}@keyframes lp-pal-fly{0%,100%{transform:translate(0,0)}25%{transform:translate(2px,-4px)}50%{transform:translate(0,-6px)}75%{transform:translate(-2px,-3px)}}@keyframes lp-pal-hop{0%,55%,100%{transform:translateY(0)}25%{transform:translateY(-5px)}}@keyframes lp-aura{0%,100%{opacity:.45}50%{opacity:.95}}@keyframes lp-bounce{0%,100%{transform:translateY(0)}50%{transform:translateY(-5px)}}@keyframes lp-hop{0%,100%{transform:translateY(0)}35%{transform:translateY(-14px)}55%{transform:translateY(0)}65%{transform:translateY(-3px)}}@keyframes lp-breathe{0%,100%{transform:scale(1,1)}50%{transform:scale(1.04,.96)}}@keyframes lp-sway{0%,100%{transform:rotate(-5deg)}50%{transform:rotate(5deg)}}@keyframes lp-shiver{0%,100%{transform:translateX(0)}25%{transform:translateX(-1.5px)}75%{transform:translateX(1.5px)}}@keyframes lp-wobble{0%,60%,100%{transform:rotate(0)}68%{transform:rotate(-9deg)}78%{transform:rotate(8deg)}88%{transform:rotate(-4deg)}}@keyframes lp-growl{0%,78%,100%{transform:translateX(0)}82%{transform:translateX(-2px)}86%{transform:translateX(2px)}90%{transform:translateX(-2px)}94%{transform:translateX(1px)}}@keyframes lp-blink-open{0%,93%,100%{opacity:1}94%,98%{opacity:0}}@keyframes lp-blink-closed{0%,93%,100%{opacity:0}94%,98%{opacity:1}}@keyframes lp-rise{0%{transform:translateY(0);opacity:0}20%{opacity:1}100%{transform:translateY(-34px);opacity:0}}@keyframes lp-zz{0%{transform:translate(0,0);opacity:0}20%{opacity:1}100%{transform:translate(10px,-26px);opacity:0}}@keyframes lp-fall{0%{transform:translateY(-20px) rotate(0)}100%{transform:translateY(260px) rotate(540deg)}}@keyframes lp-drift{0%{transform:translate(0,-20px) rotate(0)}50%{transform:translate(14px,110px) rotate(160deg)}100%{transform:translate(-8px,260px) rotate(340deg)}}@keyframes lp-drip{0%{transform:translateY(0);opacity:0}15%{opacity:1}100%{transform:translateY(16px);opacity:0}}@keyframes lp-orbit{to{transform:rotate(360deg)}}@keyframes lp-twinkle{0%,100%{opacity:.15}50%{opacity:1}}@keyframes lp-burst{0%{transform:scale(.1);opacity:0}10%{opacity:1}70%{opacity:.9}100%{transform:scale(1.3);opacity:0}}@keyframes lp-float{0%,100%{transform:translateY(0)}50%{transform:translateY(-3px)}}@keyframes lp-swing{0%,100%{transform:rotate(-6deg)}50%{transform:rotate(6deg)}}@keyframes lp-cloud{from{transform:translateX(-6px)}to{transform:translateX(10px)}}@keyframes lp-alert{0%{opacity:1}50%{opacity:.35}}@keyframes lp-flap{0%{opacity:1}50%{opacity:0}}@keyframes lp-fly{from{transform:translate(-40px,0)}50%{transform:translate(130px,-8px)}to{transform:translate(300px,4px)}}@keyframes lp-flutter{0%,100%{transform:translate(0,0)}25%{transform:translate(14px,-9px)}50%{transform:translate(24px,1px)}75%{transform:translate(9px,7px)}}@keyframes lp-sway-soft{0%,100%{transform:rotate(-2deg)}50%{transform:rotate(2deg)}}@keyframes lp-kelp{0%,100%{transform:skewX(-9deg)}50%{transform:skewX(9deg)}}@keyframes lp-mist{0%,100%{transform:translateX(-14px)}50%{transform:translateX(14px)}}@keyframes lp-shoot{0%,86%{transform:translate(0,0);opacity:0}88%{opacity:1}100%{transform:translate(-70px,36px);opacity:0}}@keyframes lp-aurora{0%,100%{opacity:.1;transform:translateY(0)}50%{opacity:.5;transform:translateY(3px)}}@keyframes lp-rainbow{0%,100%{opacity:.25}50%{opacity:.6}}@keyframes lp-wave{0%,100%{transform:translateX(0)}50%{transform:translateX(-7px)}}@keyframes lp-tide{0%,100%{transform:translateY(0);opacity:.2}50%{transform:translateY(4px);opacity:.9}}@keyframes lp-ripple{0%{transform:scale(.2);opacity:.9}100%{transform:scale(1.5);opacity:0}}@keyframes lp-bubble{0%{transform:translate(0,0);opacity:0}10%{opacity:.9}50%{transform:translate(4px,-80px)}100%{transform:translate(-3px,-170px);opacity:0}}@keyframes lp-swim{from{transform:translateX(0)}50%{transform:translate(-160px,-6px)}to{transform:translateX(-340px)}}@keyframes lp-roll{0%{transform:translate(0,0)}20%{transform:translate(60px,-6px)}25%{transform:translate(75px,0)}55%{transform:translate(165px,-8px)}60%{transform:translate(180px,0)}100%{transform:translate(300px,0)}}@keyframes lp-ray{0%,100%{opacity:.04}50%{opacity:.2}}@keyframes lp-flow{0%{transform:translateY(-4px);opacity:0}25%{opacity:1}100%{transform:translateY(24px);opacity:0}}@keyframes lp-glow{0%,100%{opacity:.55}50%{opacity:1}}@keyframes lp-haze{0%,100%{transform:scale(1,1);opacity:.15}50%{transform:scale(1,2.5);opacity:.4}}@keyframes lp-flag{0%,100%{transform:rotate(-8deg)}50%{transform:rotate(8deg)}}@keyframes lp-bulb{0%{opacity:1}50%{opacity:.25}}@keyframes lp-twinkle-soft{0%,100%{opacity:.75}50%{opacity:1}}@media (prefers-reduced-motion:reduce){*{animation-play-state:paused!important}}</style><defs><linearGradient id="lp1j66v0q-sky" x1="0" y1="0" x2="0" y2="1"><stop offset="0" class="lp-sky1"/><stop offset="1" class="lp-sky2"/></linearGradient><clipPath id="lp1j66v0q-clip"><rect x="10" y="10" width="200" height="236" rx="10"/></clipPath></defs><rect x="0.5" y="0.5" width="519" height="255" rx="14" class="lp-card"/><g clip-path="url(#lp1j66v0q-clip)"><rect x="10" y="10" width="200" height="236" fill="url(#lp1j66v0q-sky)"/><g class="lp-px"><g transform="translate(178 24) scale(3)"><path fill="#fff3b0" d="M2 0h3v1h-3zm-1 1h2v1h-2zm-1 1h2v2h-2zm1 2h2v1h-2zm1 1h3v1h-3z"/></g><rect x="135.7" y="28.7" width="2" height="2" class="lp-star lp-twinkle" style="animation-duration:1.89s;animation-delay:-2.62s"/><rect x="128" y="54.2" width="2" height="2" class="lp-star lp-twinkle" style="animation-duration:2.95s;animation-delay:-0.71s"/><rect x="77.9" y="71" width="2" height="2" class="lp-star lp-twinkle" style="animation-duration:3.12s;animation-delay:-0.04s"/><rect x="113" y="30" width="2" height="2" class="lp-star lp-twinkle" style="animation-duration:2.13s;animation-delay:-1.91s"/><rect x="19.2" y="17.7" width="2" height="2" class="lp-star lp-twinkle" style="animation-duration:2.31s;animation-delay:-1.54s"/><rect x="86.5" y="71.9" width="2" height="2" class="lp-star lp-twinkle" style="animation-duration:2.60s;animation-delay:-1.12s"/><rect x="157.8" y="101.1" width="2" height="2" class="lp-star lp-twinkle" style="animation-duration:1.84s;animation-delay:-0.81s"/></g><g class=""><rect x="10" y="46.6" width="3" height="35" fill="#b388ff" class="lp-aurora" style="animation-duration:3.53s;animation-delay:-3.09s"/><rect x="14" y="47.2" width="3" height="31.2" fill="#b388ff" class="lp-aurora" style="animation-duration:3.54s;animation-delay:-2.12s"/><rect x="18" y="47.6" width="3" height="27.4" fill="#b388ff" class="lp-aurora" style="animation-duration:3.13s;animation-delay:-2.34s"/><rect x="22" y="47.8" width="3" height="23.6" fill="#b388ff" class="lp-aurora" style="animation-duration:3.43s;animation-delay:-3.93s"/><rect x="26" y="47.6" width="3" height="20" fill="#b388ff" class="lp-aurora" style="animation-duration:3.14s;animation-delay:-3.34s"/><rect x="30" y="47.1" width="3" height="16.9" fill="#b388ff" class="lp-aurora" style="animation-duration:4.74s;animation-delay:-1.85s"/><rect x="34" y="46.4" width="3" height="14.4" fill="#b388ff" class="lp-aurora" style="animation-duration:3.63s;animation-delay:-1.22s"/><rect x="38" y="45.4" width="3" height="12.7" fill="#b388ff" class="lp-aurora" style="animation-duration:4.53s;animation-delay:-5.07s"/><rect x="42" y="44.2" width="3" height="11.9" fill="#b388ff" class="lp-aurora" style="animation-duration:5.91s;animation-delay:-1.93s"/><rect x="46" y="42.7" width="3" height="11.9" fill="#b388ff" class="lp-aurora" style="animation-duration:5.24s;animation-delay:-1.09s"/><rect x="50" y="41.1" width="3" height="12.9" fill="#b388ff" class="lp-aurora" style="animation-duration:5.91s;animation-delay:-0.61s"/><rect x="54" y="39.3" width="3" height="14.7" fill="#b388ff" class="lp-aurora" style="animation-duration:3.94s;animation-delay:-2.76s"/><rect x="58" y="37.4" width="3" height="17.3" fill="#5effc4" class="lp-aurora" style="animation-duration:5.20s;animation-delay:-5.03s"/><rect x="62" y="35.4" width="3" height="20.5" fill="#5effc4" class="lp-aurora" style="animation-duration:4.96s;animation-delay:-4.25s"/><rect x="66" y="33.4" width="3" height="24.1" fill="#5effc4" class="lp-aurora" style="animation-duration:4.07s;animation-delay:-3.83s"/><rect x="70" y="31.4" width="3" height="27.9" fill="#5effc4" class="lp-aurora" style="animation-duration:5.37s;animation-delay:-2.46s"/><rect x="74" y="29.4" width="3" height="31.8" fill="#5effc4" class="lp-aurora" style="animation-duration:3.87s;animation-delay:-1.74s"/><rect x="78" y="27.5" width="3" height="35.4" fill="#5effc4" class="lp-aurora" style="animation-duration:5.86s;animation-delay:-0.62s"/><rect x="82" y="25.8" width="3" height="38.7" fill="#5effc4" class="lp-aurora" style="animation-duration:5.54s;animation-delay:-4.58s"/><rect x="86" y="24.2" width="3" height="41.4" fill="#5effc4" class="lp-aurora" style="animation-duration:4.98s;animation-delay:-5.35s"/><rect x="90" y="22.7" width="3" height="43.4" fill="#5effc4" class="lp-aurora" style="animation-duration:3.63s;animation-delay:-2.06s"/><rect x="94" y="21.6" width="3" height="44.6" fill="#5effc4" class="lp-aurora" style="animation-duration:3.31s;animation-delay:-1.49s"/><rect x="98" y="20.6" width="3" height="44.8" fill="#5effc4" class="lp-aurora" style="animation-duration:5.57s;animation-delay:-3.46s"/><rect x="102" y="20" width="3" height="44.2" fill="#5effc4" class="lp-aurora" style="animation-duration:4.30s;animation-delay:-5.67s"/><rect x="106" y="19.6" width="3" height="42.6" fill="#5effc4" class="lp-aurora" style="animation-duration:5.75s;animation-delay:-0.57s"/><rect x="110" y="19.4" width="3" height="40.3" fill="#5effc4" class="lp-aurora" style="animation-duration:4.85s;animation-delay:-5.75s"/><rect x="114" y="19.6" width="3" height="37.4" fill="#5effc4" class="lp-aurora" style="animation-duration:3.11s;animation-delay:-4.00s"/><rect x="118" y="20.1" width="3" height="33.9" fill="#5effc4" class="lp-aurora" style="animation-duration:3.62s;animation-delay:-3.44s"/><rect x="122" y="20.8" width="3" height="30.1" fill="#5effc4" class="lp-aurora" style="animation-duration:5.90s;animation-delay:-1.32s"/><rect x="126" y="21.8" width="3" height="26.2" fill="#5effc4" class="lp-aurora" style="animation-duration:3.73s;animation-delay:-3.47s"/><rect x="130" y="23.1" width="3" height="22.5" fill="#5effc4" class="lp-aurora" style="animation-duration:4.25s;animation-delay:-5.49s"/><rect x="134" y="24.5" width="3" height="19" fill="#5effc4" class="lp-aurora" style="animation-duration:3.24s;animation-delay:-0.27s"/><rect x="138" y="26.1" width="3" height="16.1" fill="#5effc4" class="lp-aurora" style="animation-duration:5.70s;animation-delay:-2.43s"/><rect x="142" y="27.9" width="3" height="13.8" fill="#5effc4" class="lp-aurora" style="animation-duration:4.47s;animation-delay:-3.20s"/><rect x="146" y="29.8" width="3" height="12.4" fill="#5effc4" class="lp-aurora" style="animation-duration:3.43s;animation-delay:-0.86s"/><rect x="150" y="31.8" width="3" height="11.8" fill="#5effc4" class="lp-aurora" style="animation-duration:3.63s;animation-delay:-2.40s"/><rect x="154" y="33.8" width="3" height="12.1" fill="#5effc4" class="lp-aurora" style="animation-duration:4.89s;animation-delay:-2.61s"/><rect x="158" y="35.9" width="3" height="13.4" fill="#5effc4" class="lp-aurora" style="animation-duration:3.88s;animation-delay:-5.72s"/><rect x="162" y="37.8" width="3" height="15.4" fill="#5effc4" class="lp-aurora" style="animation-duration:5.16s;animation-delay:-0.01s"/><rect x="166" y="39.7" width="3" height="18.2" fill="#b388ff" class="lp-aurora" style="animation-duration:4.95s;animation-delay:-3.81s"/><rect x="170" y="41.5" width="3" height="21.5" fill="#b388ff" class="lp-aurora" style="animation-duration:3.89s;animation-delay:-0.53s"/><rect x="174" y="43.1" width="3" height="25.2" fill="#b388ff" class="lp-aurora" style="animation-duration:3.95s;animation-delay:-0.47s"/><rect x="178" y="44.5" width="3" height="29.1" fill="#b388ff" class="lp-aurora" style="animation-duration:4.48s;animation-delay:-2.24s"/><rect x="182" y="45.6" width="3" height="32.9" fill="#b388ff" class="lp-aurora" style="animation-duration:5.70s;animation-delay:-1.98s"/><rect x="186" y="46.6" width="3" height="36.5" fill="#b388ff" class="lp-aurora" style="animation-duration:3.54s;animation-delay:-4.15s"/><rect x="190" y="47.3" width="3" height="39.6" fill="#b388ff" class="lp-aurora" style="animation-duration:5.57s;animation-delay:-0.82s"/><rect x="194" y="47.6" width="3" height="42.1" fill="#b388ff" class="lp-aurora" style="animation-duration:3.49s;animation-delay:-0.89s"/><rect x="198" y="47.8" width="3" height="43.8" fill="#b388ff" class="lp-aurora" style="animation-duration:4.06s;animation-delay:-2.72s"/><rect x="202" y="47.6" width="3" height="44.7" fill="#b388ff" class="lp-aurora" style="animation-duration:3.52s;animation-delay:-2.89s"/><rect x="206" y="47.1" width="3" height="44.7" fill="#b388ff" class="lp-aurora" style="animation-duration:4.10s;animation-delay:-2.68s"/></g><g class=""><g transform="translate(183.3 58)"><g class="lp-shoot" style="animation-duration:6.66s;animation-delay:-2.94s"><rect x="0" y="0" width="14" height="1.5" fill="#fff8d6" transform="rotate(-27)"/><rect x="-1" y="-1" width="3" height="3" fill="#ffffff"/></g></g></g><g class="lp-px"><path d="M10 206V146H14V156H18V154H22V148H26V164H30V190H34V192H38V178H42V176H46V180H50V166H54V142H58V138H62V156H66V166H70V162H74V172H78V194H82V196H86V174H90V162H94V164H98V158H102V140H106V140H110V162H114V180H118V176H122V178H126V192H130V192H134V166H138V148H142V152H146V156H150V146H154V148H158V172H162V192H166V186H170V176H174V182H178V182H182V158H186V138H190V146H194V160H198V160H202V160H206V178H210V206Z" class="lp-far"/><path d="M138.8 206V121.6H144.8V108.6H171.2V117.6H178.4V206Z" class="lp-mid"/><rect x="152" y="108.6" width="12" height="97.4" class="lp-water"/><rect x="150" y="107.6" width="16" height="2" class="lp-water2"/><g transform="translate(161.5 128.7)"><g class="lp-flow" style="animation-duration:1.09s;animation-delay:-0.70s"><rect width="1.5" height="8" class="lp-water2"/></g></g><g transform="translate(159.6 174.7)"><g class="lp-flow" style="animation-duration:0.92s;animation-delay:-1.01s"><rect width="1.5" height="8" class="lp-water2"/></g></g><g transform="translate(160.6 121.9)"><g class="lp-flow" style="animation-duration:1.28s;animation-delay:-0.84s"><rect width="1.5" height="8" class="lp-water2"/></g></g><g transform="translate(154 171.9)"><g class="lp-flow" style="animation-duration:1.08s;animation-delay:-0.37s"><rect width="1.5" height="8" class="lp-water2"/></g></g><g transform="translate(156.3 133.9)"><g class="lp-flow" style="animation-duration:1.24s;animation-delay:-0.26s"><rect width="1.5" height="8" class="lp-water2"/></g></g><g transform="translate(160.5 121)"><g class="lp-flow" style="animation-duration:1.21s;animation-delay:-0.39s"><rect width="1.5" height="8" class="lp-water2"/></g></g><g transform="translate(158 204)"><g class="lp-glow" style="animation-duration:1.40s;animation-delay:-0.00s"><ellipse rx="14.399999999999999" ry="4.199999999999999" fill="#ffffff" opacity=".6"/></g></g><path d="M10 206V202H14V190H18V182H22V186H26V182H30V188H34V200H38V196H42V196H46V194H50V182H54V182H58V188H62V186H66V198H70V202H74V192H78V190H82V186H86V178H90V188H94V194H98V194H102V202H106V196H110V184H114V186H118V182H122V182H126V196H130V198H134V196H138V198H142V186H146V180H150V186H154V184H158V192H162V202H166V196H170V192H174V190H178V180H182V182H186V192H190V190H194V200H198V200H202V188H206V188H210V206Z" class="lp-mid"/></g><g class="lp-px"><rect x="10" y="206" width="200" height="40" class="lp-ground"/><rect x="10" y="206" width="200" height="2" class="lp-ground2"/><rect x="15" y="203" width="2" height="3" class="lp-ground2"/><rect x="18" y="201" width="2" height="5" class="lp-ground2"/><rect x="31" y="203" width="2" height="3" class="lp-ground2"/><rect x="34" y="201" width="2" height="5" class="lp-ground2"/><rect x="52" y="203" width="2" height="3" class="lp-ground2"/><rect x="55" y="201" width="2" height="5" class="lp-ground2"/><rect x="71" y="203" width="2" height="3" class="lp-ground2"/><rect x="74" y="201" width="2" height="5" class="lp-ground2"/><rect x="93" y="203" width="2" height="3" class="lp-ground2"/><rect x="96" y="201" width="2" height="5" class="lp-ground2"/><rect x="115" y="203" width="2" height="3" class="lp-ground2"/><rect x="118" y="201" width="2" height="5" class="lp-ground2"/><rect x="129" y="203" width="2" height="3" class="lp-ground2"/><rect x="132" y="201" width="2" height="5" class="lp-ground2"/><rect x="144" y="203" width="2" height="3" class="lp-ground2"/><rect x="147" y="201" width="2" height="5" class="lp-ground2"/><rect x="157" y="203" width="2" height="3" class="lp-ground2"/><rect x="160" y="201" width="2" height="5" class="lp-ground2"/><rect x="170" y="203" width="2" height="3" class="lp-ground2"/><rect x="173" y="201" width="2" height="5" class="lp-ground2"/><rect x="192" y="203" width="2" height="3" class="lp-ground2"/><rect x="195" y="201" width="2" height="5" class="lp-ground2"/><rect x="110.7" y="232.2" width="3" height="2" class="lp-ground2"/><rect x="104.4" y="219.6" width="3" height="2" class="lp-ground2"/><rect x="188.5" y="227.7" width="3" height="2" class="lp-ground2"/><rect x="52.9" y="240.1" width="3" height="2" class="lp-ground2"/><rect x="176" y="231.7" width="3" height="2" class="lp-ground2"/></g><g class="lp-px"><g transform="translate(10 209)"><g class="lp-sway-soft lp-prop" style="animation-duration:4.26s;animation-delay:-0.44s"><rect x="0" y="-9" width="9" height="3" fill="#4cbf5e"/><rect x="0" y="-6" width="3" height="6" fill="#2f8f46"/><rect x="3.6" y="-13.8" width="9" height="3" fill="#2f8f46"/><rect x="3.6" y="-10.8" width="3" height="6" fill="#2f8f46"/><rect x="7.2" y="-18.6" width="9" height="3" fill="#4cbf5e"/><rect x="7.2" y="-15.6" width="3" height="6" fill="#2f8f46"/><rect x="10.8" y="-23.4" width="9" height="3" fill="#2f8f46"/><rect x="10.8" y="-20.4" width="3" height="6" fill="#2f8f46"/><rect x="14.4" y="-28.2" width="9" height="3" fill="#4cbf5e"/><rect x="14.4" y="-25.2" width="3" height="6" fill="#2f8f46"/><rect x="18" y="-33" width="9" height="3" fill="#2f8f46"/><rect x="18" y="-30" width="3" height="6" fill="#2f8f46"/><rect x="21.6" y="-37.8" width="9" height="3" fill="#4cbf5e"/><rect x="21.6" y="-34.8" width="3" height="6" fill="#2f8f46"/></g></g><g transform="translate(210 209)"><g class="lp-sway-soft lp-prop" style="animation-duration:4.84s;animation-delay:-3.78s"><rect x="-9" y="-9" width="9" height="3" fill="#4cbf5e"/><rect x="0" y="-6" width="3" height="6" fill="#2f8f46"/><rect x="-12.6" y="-13.8" width="9" height="3" fill="#2f8f46"/><rect x="-3.6" y="-10.8" width="3" height="6" fill="#2f8f46"/><rect x="-16.2" y="-18.6" width="9" height="3" fill="#4cbf5e"/><rect x="-7.2" y="-15.6" width="3" height="6" fill="#2f8f46"/><rect x="-19.8" y="-23.4" width="9" height="3" fill="#2f8f46"/><rect x="-10.8" y="-20.4" width="3" height="6" fill="#2f8f46"/><rect x="-23.4" y="-28.2" width="9" height="3" fill="#4cbf5e"/><rect x="-14.4" y="-25.2" width="3" height="6" fill="#2f8f46"/><rect x="-27" y="-33" width="9" height="3" fill="#2f8f46"/><rect x="-18" y="-30" width="3" height="6" fill="#2f8f46"/><rect x="-30.6" y="-37.8" width="9" height="3" fill="#4cbf5e"/><rect x="-21.6" y="-34.8" width="3" height="6" fill="#2f8f46"/></g></g></g><ellipse cx="94" cy="213" rx="43" ry="4" class="lp-shadow"/><g transform="translate(94 214)"><g class="lp-breathe" style="animation-duration:5.00s"><g transform="translate(-94 -214)" class="lp-px"><g transform="translate(38 109) scale(3.5)"><path fill="#1d1b24" d="M4 0h4v1h-4zm20 0h4v1h-4zm-21 1h1v1h-1zm5 0h1v1h-1zm15 0h1v1h-1zm5 0h1v1h-1zm-26 1h1v2h-1zm7 0h1v1h-1zm13 0h1v1h-1zm7 0h1v2h-1zm-20 1h2v1h-2zm12 0h2v1h-2zm-19 1h3v2h-3zm6 0h16v1h-16zm20 0h2v1h-2zm-20 1h2v1h-2zm14 0h2v1h-2zm5 0h3v1h-3zm-24 1h2v3h-2zm23 0h3v1h-3zm0 1h2v1h-2zm-23 2h1v1h-1zm-1 1h1v2h-1zm26 0h2v4h-2zm-27 2h2v2h-2zm-1 2h3v2h-3zm29 0h1v1h-1zm2 0h1v1h-1zm-2 1h3v1h-3zm-29 1h1v2h-1zm31 0h1v2h-1zm-31 2h3v2h-3zm29 0h3v2h-3zm-28 2h2v2h-2zm28 0h2v2h-2zm-15 1h4v1h-4zm-12 1h1v3h-1zm27 0h1v3h-1zm-27 3h3v1h-3zm25 0h3v1h-3zm-24 1h2v1h-2zm24 0h2v1h-2zm-23 1h3v1h-3zm21 0h3v1h-3zm-20 1h2v1h-2zm20 0h2v1h-2zm-19 1h20v1h-20z"/><path fill="#484754" d="M4 1h2v2h-2zm20 0h1v1h-1zm0 1h2v1h-2zm0 4h1v1h-1zm-17 1h1v1h-1z"/><path fill="#34333f" d="M6 1h2v1h-2zm19 0h3v1h-3zm-22 1h1v1h-1zm3 0h1v2h-1zm20 0h1v2h-1zm-21 3h3v2h-3zm0 2h2v1h-2zm19 0h2v1h-2zm-21 15h5v1h-5zm21 0h1v1h-1zm-18 1h3v1h-3zm17 0h1v1h-1zm-16 1h3v1h-3zm15 0h1v1h-1zm-13 1h1v1h-1z"/><path fill="#252436" d="M7 2h2v1h-2zm16 0h1v1h-1zm4 0h2v1h-2zm-24 1h3v1h-3zm20 0h3v1h-3zm-18 1h2v1h-2zm19 0h2v1h-2zm0 1h1v1h-1zm1 17h2v1h-2zm-22 1h3v1h-3zm21 0h2v1h-2zm-18 1h1v1h-1zm17 0h2v1h-2zm-17 1h3v1h-3zm16 0h2v1h-2zm-14 1h2v1h-2zm14 0h1v1h-1z"/><path fill="#16142b" d="M7 3h2v1h-2zm20 0h2v1h-2zm-20 1h1v1h-1zm19 0h2v1h-2zm-1 1h2v1h-2zm0 1h1v1h-1zm2 16h2v1h-2zm-1 1h3v1h-3zm-23 1h3v1h-3zm22 0h4v1h-4zm-20 1h1v1h-1zm19 0h3v1h-3zm-19 1h3v1h-3zm18 0h4v1h-4zm-16 1h3v2h-3zm15 0h3v2h-3z"/><path fill="#f06153" d="M30 4h1v2h-1zm-1 2h2v1h-2zm-1 1h2v1h-2zm-21 1h4v1h-4zm-2 1h2v1h-2z"/><path fill="#e63946" d="M31 4h1v1h-1zm-26 4h2v1h-2zm6 0h15v1h-15zm-4 1h19v1h-19zm23 1h2v1h-2zm0 1h1v1h-1z"/><path fill="#ffffff" d="M10 5h1v1h-1zm-1 1h11v1h-11zm14 0h1v2h-1zm-15 1h12v1h-12zm-4 2h1v1h-1zm0 1h4v1h-4zm2 1h2v1h-2zm-5 5h2v1h-2zm0 1h1v1h-1z"/><path fill="#f8f4f3" d="M11 5h11v1h-11zm-3 1h1v1h-1zm12 0h3v2h-3zm-17 4h1v1h-1zm5 0h19v1h-19zm-5 1h3v1h-3zm5 0h17v1h-17zm-5 1h22v1h-22zm0 1h23v1h-23zm0 1h3v3h-3zm5 0h16v4h-16zm18 1h1v2h-1zm-22 2h2v2h-2zm6 1h12v2h-12zm-7 1h3v1h-3zm0 1h23v1h-23zm0 1h11v1h-11zm15 0h8v1h-8zm-10 1h16v1h-16zm1 1h14v1h-14zm1 1h12v1h-12zm0 1h1v1h-1z"/><path fill="#cc0046" d="M31 5h1v1h-1z"/><path fill="#a00046" d="M31 6h1v1h-1zm-1 1h2v1h-2zm1 4h1v1h-1z"/><path fill="#a8202c" d="M26 8h1v2h-1zm4 4h1v1h-1z"/><path fill="#b34345" d="M27 8h3v1h-3z"/><path fill="#620027" d="M30 8h1v1h-1zm-3 1h4v1h-4zm4 3h1v1h-1zm-1 1h2v1h-2zm0 1h1v1h-1z"/><path fill="#bebfd3" d="M27 10h1v1h-1zm-1 1h2v1h-2zm1 1h1v2h-1zm1 5h3v1h-3zm-1 1h2v4h-2zm-15 9h8v2h-8z"/><path fill="#dbdbe7" d="M25 11h1v1h-1zm0 1h2v1h-2zm1 1h1v1h-1zm0 1h3v1h-3zm1 1h2v1h-2zm0 1h4v1h-4zm-25 1h2v1h-2zm24 0h2v1h-2zm-23 1h1v1h-1zm23 0h1v4h-1zm-15 7h11v1h-11zm1 1h8v1h-8z"/><path fill="#62616f" d="M6 14h2v4h-2zm18 0h2v4h-2zm-18 4h4v2h-4zm16 0h4v2h-4z"/><path fill="#bdbdcd" d="M10 26h2v1h-2zm10 0h2v1h-2z"/><path fill="#a1a2b9" d="M10 27h2v2h-2zm10 0h2v2h-2z"/></g><g transform="translate(38 109) scale(3.5)"><path fill="#1d1b24" d="M8 16h4v1h-4zm12 0h4v1h-4zm-11 1h2v1h-2zm12 0h2v1h-2z"/></g><g transform="translate(38 109) scale(3.5)"><path fill="#1b2a4a" d="M18 -4h4v1h-4zm-1 1h1v1h-1zm3 0h1v1h-1zm-4 1h1v1h-1zm5 0h1v3h-1zm-6 1h2v1h-2zm-3 1h5v1h-5zm-1 1h1v1h-1zm10 0h2v1h-2zm-11 1h1v2h-1zm11 0h3v1h-3zm2 1h1v1h-1z"/><path fill="#d1dbee" d="M22 -4h2v2h-2zm-10 8h9v1h-9zm10 0h2v1h-2z"/><path fill="#79a6ff" d="M18 -3h1v2h-1zm-6 4h6v1h-6zm0 1h5v1h-5z"/><path fill="#6b8cff" d="M19 -3h1v1h-1zm-2 1h1v1h-1zm2 0h2v1h-2zm-2 1h3v1h-3zm0 1h2v1h-2zm1 1h1v1h-1zm-7 1h1v1h-1zm6 0h4v1h-4zm-6 1h12v1h-12z"/><path fill="#eef3ff" d="M21 -3h1v1h-1zm-10 7h1v1h-1zm10 0h1v1h-1z"/><path fill="#614ace" d="M20 -1h1v3h-1z"/><path fill="#676de9" d="M19 0h1v2h-1z"/><path fill="#fcfdff" d="M8 4h3v1h-3zm0 1h1v1h-1z"/><path fill="#b2bfda" d="M9 5h15v1h-15z"/></g></g></g></g><g transform="translate(127.6 107)"><text class="lp-z lp-zz" style="font-size:10px;animation-duration:3.6s;animation-delay:-0.00s;fill:#ffffff">z</text></g><g transform="translate(132.6 103)"><text class="lp-z lp-zz" style="font-size:13px;animation-duration:3.6s;animation-delay:-1.20s;fill:#ffffff">Z</text></g><g transform="translate(137.6 99)"><text class="lp-z lp-zz" style="font-size:16px;animation-duration:3.6s;animation-delay:-2.40s;fill:#ffffff">Z</text></g><g class="lp-px"><g transform="translate(200.9 195.6)"><g class="lp-mist" style="animation-duration:9.31s;animation-delay:-1.37s"><ellipse cx="0" cy="0" rx="41" ry="6.6" fill="#ffffff" opacity="0.22"/></g></g><g transform="translate(11.3 201.7)"><g class="lp-mist" style="animation-duration:7.55s;animation-delay:-3.10s"><ellipse cx="0" cy="0" rx="42.8" ry="6.8" fill="#ffffff" opacity="0.22"/></g></g><g transform="translate(22 8)"><g class="lp-sway-soft lp-prop" style="animation-duration:4.37s;animation-delay:-0.73s"><rect x="0" y="0" width="2.1" height="4.2" fill="#2d6b3a"/><rect x="0" y="4.199999999999999" width="2.1" height="4.2" fill="#2d6b3a"/><rect x="2.0999999999999996" y="4.199999999999999" width="4.5" height="3" fill="#4cbf5e"/><rect x="0" y="8.399999999999999" width="2.1" height="4.2" fill="#2d6b3a"/><rect x="0" y="12.6" width="2.1" height="4.2" fill="#2d6b3a"/><rect x="0" y="16.799999999999997" width="2.1" height="4.2" fill="#2d6b3a"/><rect x="-4.5" y="16.799999999999997" width="4.5" height="3" fill="#4cbf5e"/><rect x="0" y="21" width="2.1" height="4.2" fill="#2d6b3a"/><rect x="0" y="25.2" width="2.1" height="4.2" fill="#2d6b3a"/><rect x="0" y="29.4" width="2.1" height="4.2" fill="#2d6b3a"/><rect x="2.0999999999999996" y="29.4" width="4.5" height="3" fill="#4cbf5e"/><rect x="0" y="33.599999999999994" width="2.1" height="4.2" fill="#2d6b3a"/><rect x="0" y="37.8" width="2.1" height="4.2" fill="#2d6b3a"/><rect x="0" y="42" width="2.1" height="4.2" fill="#2d6b3a"/><rect x="-4.5" y="42" width="4.5" height="3" fill="#4cbf5e"/><rect x="0" y="46.199999999999996" width="2.1" height="4.2" fill="#2d6b3a"/><rect x="0" y="50.4" width="2.1" height="4.2" fill="#2d6b3a"/></g></g><g transform="translate(196 8)"><g class="lp-sway-soft lp-prop" style="animation-duration:4.64s;animation-delay:-2.80s"><rect x="0" y="0" width="2.1" height="4.2" fill="#2d6b3a"/><rect x="0" y="4.199999999999999" width="2.1" height="4.2" fill="#2d6b3a"/><rect x="2.0999999999999996" y="4.199999999999999" width="4.5" height="3" fill="#4cbf5e"/><rect x="0" y="8.399999999999999" width="2.1" height="4.2" fill="#2d6b3a"/><rect x="0" y="12.6" width="2.1" height="4.2" fill="#2d6b3a"/><rect x="0" y="16.799999999999997" width="2.1" height="4.2" fill="#2d6b3a"/><rect x="-4.5" y="16.799999999999997" width="4.5" height="3" fill="#4cbf5e"/><rect x="0" y="21" width="2.1" height="4.2" fill="#2d6b3a"/><rect x="0" y="25.2" width="2.1" height="4.2" fill="#2d6b3a"/><rect x="0" y="29.4" width="2.1" height="4.2" fill="#2d6b3a"/><rect x="2.0999999999999996" y="29.4" width="4.5" height="3" fill="#4cbf5e"/></g></g></g><g class="lp-px"><g transform="translate(189.4 10)"><g class="lp-drift" style="animation-duration:6.34s;animation-delay:-4.76s"><rect x="-1.5" y="-1.5" width="3" height="3" class="lp-snow"/></g></g><g transform="translate(10.8 10)"><g class="lp-drift" style="animation-duration:9.44s;animation-delay:-6.81s"><rect x="-1.5" y="-1.5" width="3" height="3" class="lp-snow"/></g></g><g transform="translate(66.3 10)"><g class="lp-drift" style="animation-duration:6.82s;animation-delay:-6.06s"><rect x="-1.5" y="-1.5" width="3" height="3" class="lp-snow"/></g></g><g transform="translate(166.1 10)"><g class="lp-drift" style="animation-duration:7.97s;animation-delay:-9.67s"><rect x="-1.5" y="-1.5" width="3" height="3" class="lp-snow"/></g></g><g transform="translate(123.6 10)"><g class="lp-drift" style="animation-duration:7.72s;animation-delay:-9.99s"><rect x="-1.5" y="-1.5" width="3" height="3" class="lp-snow"/></g></g><g transform="translate(176.4 10)"><g class="lp-drift" style="animation-duration:7.05s;animation-delay:-3.30s"><rect x="-1.5" y="-1.5" width="3" height="3" class="lp-snow"/></g></g><g transform="translate(193.9 10)"><g class="lp-drift" style="animation-duration:8.68s;animation-delay:-7.83s"><rect x="-1.5" y="-1.5" width="3" height="3" class="lp-snow"/></g></g><g transform="translate(163 10)"><g class="lp-drift" style="animation-duration:6.73s;animation-delay:-4.18s"><rect x="-1.5" y="-1.5" width="3" height="3" class="lp-snow"/></g></g><g transform="translate(120.8 10)"><g class="lp-drift" style="animation-duration:7.42s;animation-delay:-8.10s"><rect x="-1.5" y="-1.5" width="3" height="3" class="lp-snow"/></g></g><g transform="translate(98.6 10)"><g class="lp-drift" style="animation-duration:9.45s;animation-delay:-1.51s"><rect x="-1.5" y="-1.5" width="3" height="3" class="lp-snow"/></g></g><g transform="translate(123.3 10)"><g class="lp-drift" style="animation-duration:9.87s;animation-delay:-6.98s"><rect x="-1.5" y="-1.5" width="3" height="3" class="lp-snow"/></g></g><g transform="translate(48.1 10)"><g class="lp-drift" style="animation-duration:8.45s;animation-delay:-2.42s"><rect x="-1.5" y="-1.5" width="3" height="3" class="lp-snow"/></g></g><g transform="translate(28.7 10)"><g class="lp-drift" style="animation-duration:6.09s;animation-delay:-3.69s"><rect x="-1.5" y="-1.5" width="3" height="3" class="lp-snow"/></g></g></g></g><text x="228" y="34" class="lp-name">Ruli the Dreaming</text><text x="228" y="52" class="lp-sub">🥈 Lv.21 · Adult Monk Panda</text><rect x="228" y="58" width="280" height="3" rx="1.5" class="lp-track"/><rect x="228" y="58" width="138" height="3" rx="1.5" class="lp-xp" style="fill:#a8b2c1"/><rect x="228" y="68" width="280" height="46" rx="9" class="lp-bubble"/><path d="M229 83 L219 90 L229 97" class="lp-tail"/><text x="239" y="87" class="lp-say">Archived and at peace. Thanks for</text><text x="239" y="104" class="lp-say">everything 💤</text><text x="228" y="134" class="lp-icon">🍖</text><text x="246" y="134" class="lp-label">Fullness</text><rect x="340" y="125" width="11" height="9" rx="1.5" class="lp-seg"/><rect x="353" y="125" width="11" height="9" rx="1.5" class="lp-seg"/><rect x="366" y="125" width="11" height="9" rx="1.5" class="lp-seg"/><rect x="379" y="125" width="11" height="9" rx="1.5" class="lp-seg"/><rect x="392" y="125" width="11" height="9" rx="1.5" class="lp-seg"/><rect x="405" y="125" width="11" height="9" rx="1.5" class="lp-seg"/><rect x="418" y="125" width="11" height="9" rx="1.5" class="lp-seg"/><rect x="431" y="125" width="11" height="9" rx="1.5" class="lp-seg"/><rect x="444" y="125" width="11" height="9" rx="1.5" class="lp-seg"/><rect x="457" y="125" width="11" height="9" rx="1.5" class="lp-seg"/><text x="508" y="134" text-anchor="end" class="lp-val lp-alert">0</text><text x="228" y="151" class="lp-icon">❤️</text><text x="246" y="151" class="lp-label">Health</text><rect x="340" y="142" width="11" height="9" rx="1.5" class="lp-good"/><rect x="353" y="142" width="11" height="9" rx="1.5" class="lp-good"/><rect x="366" y="142" width="11" height="9" rx="1.5" class="lp-good"/><rect x="379" y="142" width="11" height="9" rx="1.5" class="lp-good"/><rect x="392" y="142" width="11" height="9" rx="1.5" class="lp-good"/><rect x="405" y="142" width="11" height="9" rx="1.5" class="lp-good"/><rect x="418" y="142" width="11" height="9" rx="1.5" class="lp-good"/><rect x="431" y="142" width="11" height="9" rx="1.5" class="lp-good"/><rect x="444" y="142" width="11" height="9" rx="1.5" class="lp-good"/><rect x="457" y="142" width="11" height="9" rx="1.5" class="lp-good"/><text x="508" y="151" text-anchor="end" class="lp-val">100</text><text x="228" y="168" class="lp-icon">😊</text><text x="246" y="168" class="lp-label">Joy</text><rect x="340" y="159" width="11" height="9" rx="1.5" class="lp-good"/><rect x="353" y="159" width="11" height="9" rx="1.5" class="lp-good"/><rect x="366" y="159" width="11" height="9" rx="1.5" class="lp-good"/><rect x="379" y="159" width="11" height="9" rx="1.5" class="lp-good"/><rect x="392" y="159" width="11" height="9" rx="1.5" class="lp-good"/><rect x="405" y="159" width="11" height="9" rx="1.5" class="lp-good"/><rect x="418" y="159" width="11" height="9" rx="1.5" class="lp-good"/><rect x="431" y="159" width="11" height="9" rx="1.5" class="lp-good"/><rect x="444" y="159" width="11" height="9" rx="1.5" class="lp-seg"/><rect x="457" y="159" width="11" height="9" rx="1.5" class="lp-seg"/><text x="508" y="168" text-anchor="end" class="lp-val">75</text><text x="228" y="185" class="lp-icon">⚡</text><text x="246" y="185" class="lp-label">Energy</text><rect x="340" y="176" width="11" height="9" rx="1.5" class="lp-seg"/><rect x="353" y="176" width="11" height="9" rx="1.5" class="lp-seg"/><rect x="366" y="176" width="11" height="9" rx="1.5" class="lp-seg"/><rect x="379" y="176" width="11" height="9" rx="1.5" class="lp-seg"/><rect x="392" y="176" width="11" height="9" rx="1.5" class="lp-seg"/><rect x="405" y="176" width="11" height="9" rx="1.5" class="lp-seg"/><rect x="418" y="176" width="11" height="9" rx="1.5" class="lp-seg"/><rect x="431" y="176" width="11" height="9" rx="1.5" class="lp-seg"/><rect x="444" y="176" width="11" height="9" rx="1.5" class="lp-seg"/><rect x="457" y="176" width="11" height="9" rx="1.5" class="lp-seg"/><text x="508" y="185" text-anchor="end" class="lp-val lp-alert">0</text><text x="228" y="202" class="lp-icon">🧼</text><text x="246" y="202" class="lp-label">Hygiene</text><rect x="340" y="193" width="11" height="9" rx="1.5" class="lp-good"/><rect x="353" y="193" width="11" height="9" rx="1.5" class="lp-good"/><rect x="366" y="193" width="11" height="9" rx="1.5" class="lp-good"/><rect x="379" y="193" width="11" height="9" rx="1.5" class="lp-good"/><rect x="392" y="193" width="11" height="9" rx="1.5" class="lp-good"/><rect x="405" y="193" width="11" height="9" rx="1.5" class="lp-good"/><rect x="418" y="193" width="11" height="9" rx="1.5" class="lp-good"/><rect x="431" y="193" width="11" height="9" rx="1.5" class="lp-seg"/><rect x="444" y="193" width="11" height="9" rx="1.5" class="lp-seg"/><rect x="457" y="193" width="11" height="9" rx="1.5" class="lp-seg"/><text x="508" y="202" text-anchor="end" class="lp-val">70</text><text x="228" y="228" class="lp-trophy lp-new">💯</text><text x="228" y="246" class="lp-foot">octo-org/demo · last fed 200d ago</text><path transform="translate(441 237)" d="M6 0h3v1h-3zM4 1h6v1h-6zM3 2h7v1h-7zM3 3h2v1h-2zM7 3h1v1h-1zM9 3h1v1h-1zM2 4h1v1h-1zM3 5h6v1h-6zM2 6h8v1h-8zM1 7h2v1h-2zM4 7h4v1h-4zM9 7h2v1h-2zM1 8h2v1h-2zM4 8h4v1h-4zM9 8h2v1h-2zM1 9h4v1h-4zM7 9h4v1h-4zM2 10h8v1h-8zM3 11h6v1h-6z" class="lp-logo"/><text x="508" y="246" text-anchor="end" textLength="51" class="lp-brand">legacypet</text></svg>