<svg xmlns="http://www.w3.org/2000/svg" width="160" height="192" viewBox="0 0 160 192" role="img" aria-labelledby="lp1d7go5s-t lp1d7go5s-d"><title id="lp1d7go5s-t">Ruli the Feverish 🤒 octo-org/demo</title><desc id="lp1d7go5s-d">Ruli the Feverish: Lv.21 (Silver) Adult Mecha, sick. Fullness 95%, Health 26%, Joy 85%, Energy 57%, Hygiene 70%. “CI is red. Could someone check &quot;test (ubuntu-latest)&quot;?”</desc><style>svg{--lp-bg:#ffffff;--lp-border:#e3e8ef;--lp-text:#1f2430;--lp-muted:#6b7385;--lp-bubble:#f5f7fb;--lp-bubble-border:#d5dbe7;--lp-track:#e6eaf1;--lp-shadow:rgba(0,0,0,.16);--lp-logo:#0f8a7e;--lp-sky1:#cfe3bf;--lp-sky2:#f1f7e8;--lp-g1:#f3d79a;--lp-g2:#e0bd74;--lp-water:#5fb8e8;--lp-water2:#e4f7ff;--lp-far:#e2a072;--lp-mid:#f0c987}.lp-night{display:none}.lp-card{fill:var(--lp-bg);stroke:var(--lp-border)}.lp-sky1{stop-color:var(--lp-sky1)}.lp-sky2{stop-color:var(--lp-sky2)}.lp-ground{fill:var(--lp-g1)}.lp-ground2{fill:var(--lp-g2)}.lp-shadow{fill:var(--lp-shadow)}.lp-px{shape-rendering:crispEdges}.lp-name{font:700 16px ui-monospace,SFMono-Regular,'SF Mono',Menlo,Consolas,'Liberation Mono',monospace;fill:var(--lp-text)}.lp-sub{font:400 11px ui-monospace,SFMono-Regular,'SF Mono',Menlo,Consolas,'Liberation Mono',monospace;fill:var(--lp-muted)}.lp-say{font:400 11.5px ui-monospace,SFMono-Regular,'SF Mono',Menlo,Consolas,'Liberation Mono',monospace;fill:var(--lp-text)}.lp-label{font:400 11px ui-monospace,SFMono-Regular,'SF Mono',Menlo,Consolas,'Liberation Mono',monospace;fill:var(--lp-muted)}.lp-val{font:700 11px ui-monospace,SFMono-Regular,'SF Mono',Menlo,Consolas,'Liberation Mono',monospace;fill:var(--lp-text)}.lp-icon{font:400 11px ui-monospace,SFMono-Regular,'SF Mono',Menlo,Consolas,'Liberation Mono',monospace}.lp-trophy{font:400 14px ui-monospace,SFMono-Regular,'SF Mono',Menlo,Consolas,'Liberation Mono',monospace}.lp-foot{font:400 9.5px ui-monospace,SFMono-Regular,'SF Mono',Menlo,Consolas,'Liberation Mono',monospace;fill:var(--lp-muted)}.lp-brand{font:700 9.5px ui-monospace,SFMono-Regular,'SF Mono',Menlo,Consolas,'Liberation Mono',monospace;fill:var(--lp-muted)}.lp-logo{fill:var(--lp-logo);shape-rendering:crispEdges}.lp-mini-name{font:700 12px ui-monospace,SFMono-Regular,'SF Mono',Menlo,Consolas,'Liberation Mono',monospace;fill:var(--lp-text)}.lp-tag{font:700 11px ui-monospace,SFMono-Regular,'SF Mono',Menlo,Consolas,'Liberation Mono',monospace;fill:var(--lp-text)}.lp-tag-sub{font:400 9.5px ui-monospace,SFMono-Regular,'SF Mono',Menlo,Consolas,'Liberation Mono',monospace;fill:var(--lp-muted)}.lp-mini-sub{font:400 9.5px ui-monospace,SFMono-Regular,'SF Mono',Menlo,Consolas,'Liberation Mono',monospace;fill:var(--lp-muted)}.lp-z{font:700 12px ui-monospace,SFMono-Regular,'SF Mono',Menlo,Consolas,'Liberation Mono',monospace;fill:var(--lp-text)}.lp-bit{font:700 10px ui-monospace,SFMono-Regular,'SF Mono',Menlo,Consolas,'Liberation Mono',monospace;fill:#3fb950}.lp-bubble,.lp-thought{fill:var(--lp-bubble);stroke:var(--lp-bubble-border)}.lp-tail{fill:var(--lp-bubble);stroke:var(--lp-bubble-border);stroke-linejoin:round}.lp-seg,.lp-track{fill:var(--lp-track)}.lp-good{fill:#3fb950}.lp-mid{fill:#e3b341}.lp-low{fill:#f85149}.lp-xp{fill:#a371f7}.lp-ink{fill:var(--lp-text)}.lp-fly{fill:var(--lp-text)}.lp-star{fill:#fff8d6}.lp-snow{fill:#ffffff}.lp-raindrop{fill:#5ec8ff}.lp-firefly{fill:#fff59d}.lp-string{fill:#5a1e1e}.lp-far{fill:var(--lp-far)}.lp-mid{fill:var(--lp-mid)}.lp-water{fill:var(--lp-water)}.lp-water2{fill:var(--lp-water2)}.lp-ripple-line{stroke:var(--lp-water2)}.lp-sea{fill:var(--lp-water);opacity:.38}.lp-bubble-c{fill:none;stroke:#e4f7ff;stroke-width:1;opacity:.85}.lp-bounce{animation:lp-bounce 2s ease-in-out infinite}.lp-hop{animation:lp-hop 1s ease-in-out infinite}.lp-breathe{animation:lp-breathe 4s ease-in-out infinite}.lp-sway{animation:lp-sway 3s ease-in-out infinite}.lp-shiver{animation:lp-shiver .35s linear infinite}.lp-wobble{animation:lp-wobble 3s ease-in-out infinite}.lp-growl{animation:lp-growl 3s linear infinite}.lp-blink-open{animation:lp-blink-open 4s infinite}.lp-blink-closed{opacity:0;animation:lp-blink-closed 4s infinite}.lp-rise{animation:lp-rise 3s ease-out infinite both}.lp-zz{animation:lp-zz 3s ease-out infinite both}.lp-fall{animation:lp-fall 3s linear infinite}.lp-drift{animation:lp-drift 9s linear infinite}.lp-drip{animation:lp-drip 1.6s ease-in infinite both}.lp-orbit{animation:lp-orbit 2.4s linear infinite}.lp-twinkle{animation:lp-twinkle 2s ease-in-out infinite both}.lp-burst{animation:lp-burst 2.4s ease-out infinite both}.lp-float{animation:lp-float 3s ease-in-out infinite}.lp-swing{animation:lp-swing 3s ease-in-out infinite}.lp-cloud{animation:lp-cloud 14s ease-in-out infinite alternate}.lp-alert{animation:lp-alert 1.2s steps(2) infinite}.lp-flap{animation:lp-flap .5s steps(1) infinite}.lp-fly{animation:lp-fly 16s linear infinite}.lp-flutter{animation:lp-flutter 6s ease-in-out infinite}.lp-sway-soft{animation:lp-sway-soft 5s ease-in-out infinite}.lp-kelp{animation:lp-kelp 4s ease-in-out infinite}.lp-spin{animation:lp-orbit 6s linear infinite}.lp-mist{animation:lp-mist 9s ease-in-out infinite}.lp-shoot{animation:lp-shoot 8s linear infinite}.lp-aurora{animation:lp-aurora 6s ease-in-out infinite}.lp-rainbow{animation:lp-rainbow 5s ease-in-out infinite}.lp-wave{animation:lp-wave 3s ease-in-out infinite}.lp-tide{animation:lp-tide 4s ease-in-out infinite}.lp-ripple{animation:lp-ripple 3s ease-out infinite both}.lp-bubbling{animation:lp-bubble 5s ease-in infinite both}.lp-swim{animation:lp-swim 14s linear infinite}.lp-roll{animation:lp-roll 9s linear infinite}.lp-ray{animation:lp-ray 5s ease-in-out infinite}.lp-flow{animation:lp-flow 1s linear infinite both}.lp-glow{animation:lp-glow 2s ease-in-out infinite}.lp-haze{animation:lp-haze 2.2s ease-in-out infinite}.lp-flag{animation:lp-flag 1.8s ease-in-out infinite}.lp-bulb{animation:lp-bulb 1.2s steps(1) infinite}.lp-twinkle-soft{animation:lp-twinkle-soft 2.5s ease-in-out infinite}.lp-new{animation:lp-float 1.6s ease-in-out infinite}.lp-lvup{font:700 11px ui-monospace,SFMono-Regular,'SF Mono',Menlo,Consolas,'Liberation Mono',monospace;stroke:#3d2c00;stroke-width:2.5px;paint-order:stroke;stroke-linejoin:round}.lp-aura{opacity:.8;animation:lp-aura 1.1s ease-in-out infinite}.lp-pal-fly{animation:lp-pal-fly 3.4s ease-in-out infinite}.lp-pal-hop{animation:lp-pal-hop 1.6s ease-in-out infinite}.lp-quest{font:700 11px ui-monospace,SFMono-Regular,'SF Mono',Menlo,Consolas,'Liberation Mono',monospace;fill:var(--lp-muted)}.lp-more{font:700 10px ui-monospace,SFMono-Regular,'SF Mono',Menlo,Consolas,'Liberation Mono',monospace;fill:var(--lp-muted)}@keyframes lp-pal-fly{0%,100%{transform:translate(0,0)}25%{transform:translate(2px,-4px)}50%{transform:translate(0,-6px)}75%{transform:translate(-2px,-3px)}}@keyframes lp-pal-hop{0%,55%,100%{transform:translateY(0)}25%{transform:translateY(-5px)}}@keyframes lp-aura{0%,100%{opacity:.45}50%{opacity:.95}}@keyframes lp-bounce{0%,100%{transform:translateY(0)}50%{transform:translateY(-5px)}}@keyframes lp-hop{0%,100%{transform:translateY(0)}35%{transform:translateY(-14px)}55%{transform:translateY(0)}65%{transform:translateY(-3px)}}@keyframes lp-breathe{0%,100%{transform:scale(1,1)}50%{transform:scale(1.04,.96)}}@keyframes lp-sway{0%,100%{transform:rotate(-5deg)}50%{transform:rotate(5deg)}}@keyframes lp-shiver{0%,100%{transform:translateX(0)}25%{transform:translateX(-1.5px)}75%{transform:translateX(1.5px)}}@keyframes lp-wobble{0%,60%,100%{transform:rotate(0)}68%{transform:rotate(-9deg)}78%{transform:rotate(8deg)}88%{transform:rotate(-4deg)}}@keyframes lp-growl{0%,78%,100%{transform:translateX(0)}82%{transform:translateX(-2px)}86%{transform:translateX(2px)}90%{transform:translateX(-2px)}94%{transform:translateX(1px)}}@keyframes lp-blink-open{0%,93%,100%{opacity:1}94%,98%{opacity:0}}@keyframes lp-blink-closed{0%,93%,100%{opacity:0}94%,98%{opacity:1}}@keyframes lp-rise{0%{transform:translateY(0);opacity:0}20%{opacity:1}100%{transform:translateY(-34px);opacity:0}}@keyframes lp-zz{0%{transform:translate(0,0);opacity:0}20%{opacity:1}100%{transform:translate(10px,-26px);opacity:0}}@keyframes lp-fall{0%{transform:translateY(-20px) rotate(0)}100%{transform:translateY(260px) rotate(540deg)}}@keyframes lp-drift{0%{transform:translate(0,-20px) rotate(0)}50%{transform:translate(14px,110px) rotate(160deg)}100%{transform:translate(-8px,260px) rotate(340deg)}}@keyframes lp-drip{0%{transform:translateY(0);opacity:0}15%{opacity:1}100%{transform:translateY(16px);opacity:0}}@keyframes lp-orbit{to{transform:rotate(360deg)}}@keyframes lp-twinkle{0%,100%{opacity:.15}50%{opacity:1}}@keyframes lp-burst{0%{transform:scale(.1);opacity:0}10%{opacity:1}70%{opacity:.9}100%{transform:scale(1.3);opacity:0}}@keyframes lp-float{0%,100%{transform:translateY(0)}50%{transform:translateY(-3px)}}@keyframes lp-swing{0%,100%{transform:rotate(-6deg)}50%{transform:rotate(6deg)}}@keyframes lp-cloud{from{transform:translateX(-6px)}to{transform:translateX(10px)}}@keyframes lp-alert{0%{opacity:1}50%{opacity:.35}}@keyframes lp-flap{0%{opacity:1}50%{opacity:0}}@keyframes lp-fly{from{transform:translate(-40px,0)}50%{transform:translate(130px,-8px)}to{transform:translate(300px,4px)}}@keyframes lp-flutter{0%,100%{transform:translate(0,0)}25%{transform:translate(14px,-9px)}50%{transform:translate(24px,1px)}75%{transform:translate(9px,7px)}}@keyframes lp-sway-soft{0%,100%{transform:rotate(-2deg)}50%{transform:rotate(2deg)}}@keyframes lp-kelp{0%,100%{transform:skewX(-9deg)}50%{transform:skewX(9deg)}}@keyframes lp-mist{0%,100%{transform:translateX(-14px)}50%{transform:translateX(14px)}}@keyframes lp-shoot{0%,86%{transform:translate(0,0);opacity:0}88%{opacity:1}100%{transform:translate(-70px,36px);opacity:0}}@keyframes lp-aurora{0%,100%{opacity:.1;transform:translateY(0)}50%{opacity:.5;transform:translateY(3px)}}@keyframes lp-rainbow{0%,100%{opacity:.25}50%{opacity:.6}}@keyframes lp-wave{0%,100%{transform:translateX(0)}50%{transform:translateX(-7px)}}@keyframes lp-tide{0%,100%{transform:translateY(0);opacity:.2}50%{transform:translateY(4px);opacity:.9}}@keyframes lp-ripple{0%{transform:scale(.2);opacity:.9}100%{transform:scale(1.5);opacity:0}}@keyframes lp-bubble{0%{transform:translate(0,0);opacity:0}10%{opacity:.9}50%{transform:translate(4px,-80px)}100%{transform:translate(-3px,-170px);opacity:0}}@keyframes lp-swim{from{transform:translateX(0)}50%{transform:translate(-160px,-6px)}to{transform:translateX(-340px)}}@keyframes lp-roll{0%{transform:translate(0,0)}20%{transform:translate(60px,-6px)}25%{transform:translate(75px,0)}55%{transform:translate(165px,-8px)}60%{transform:translate(180px,0)}100%{transform:translate(300px,0)}}@keyframes lp-ray{0%,100%{opacity:.04}50%{opacity:.2}}@keyframes lp-flow{0%{transform:translateY(-4px);opacity:0}25%{opacity:1}100%{transform:translateY(24px);opacity:0}}@keyframes lp-glow{0%,100%{opacity:.55}50%{opacity:1}}@keyframes lp-haze{0%,100%{transform:scale(1,1);opacity:.15}50%{transform:scale(1,2.5);opacity:.4}}@keyframes lp-flag{0%,100%{transform:rotate(-8deg)}50%{transform:rotate(8deg)}}@keyframes lp-bulb{0%{opacity:1}50%{opacity:.25}}@keyframes lp-twinkle-soft{0%,100%{opacity:.75}50%{opacity:1}}@media (prefers-reduced-motion:reduce){*{animation-play-state:paused!important}}</style><defs><linearGradient id="lp1d7go5s-sky" x1="0" y1="0" x2="0" y2="1"><stop offset="0" class="lp-sky1"/><stop offset="1" class="lp-sky2"/></linearGradient><clipPath id="lp1d7go5s-clip"><rect x="6" y="6" width="148" height="148" rx="12"/></clipPath></defs><rect x="0.5" y="0.5" width="159" height="191" rx="16" class="lp-card"/><g clip-path="url(#lp1d7go5s-clip)"><rect x="6" y="6" width="148" height="148" fill="url(#lp1d7go5s-sky)"/><g class="lp-day lp-px"><g transform="translate(17.8 17.8)"><g class="lp-cloud" style="animation-duration:11.27s"><g transform="translate(0 0) scale(2)"><path fill="#ffffffd9" d="M3 0h3v1h-3zm-2 1h7v1h-7zm-1 1h9v1h-9zm1 1h7v1h-7z"/></g></g></g><g transform="translate(87.4 35.6)"><g class="lp-cloud" style="animation-duration:13.26s"><g transform="translate(0 0) scale(2)"><path fill="#ffffffd9" d="M3 0h3v1h-3zm-2 1h7v1h-7zm-1 1h9v1h-9zm1 1h7v1h-7z"/></g></g></g></g><g class="lp-night lp-px"><g transform="translate(132 16) scale(2)"><path fill="#fff3b0" d="M2 0h3v1h-3zm-1 1h2v1h-2zm-1 1h2v2h-2zm1 2h2v1h-2zm1 1h3v1h-3z"/></g><rect x="50.8" y="18.2" width="2" height="2" class="lp-star lp-twinkle" style="animation-duration:3.17s;animation-delay:-2.28s"/><rect x="100.1" y="27.9" width="2" height="2" class="lp-star lp-twinkle" style="animation-duration:1.82s;animation-delay:-0.02s"/><rect x="102.7" y="16.7" width="2" height="2" class="lp-star lp-twinkle" style="animation-duration:3.07s;animation-delay:-2.60s"/><rect x="72.3" y="60.1" width="2" height="2" class="lp-star lp-twinkle" style="animation-duration:2.17s;animation-delay:-0.67s"/><rect x="35.4" y="67.7" width="2" height="2" class="lp-star lp-twinkle" style="animation-duration:1.98s;animation-delay:-1.43s"/><rect x="41.7" y="13.1" width="2" height="2" class="lp-star lp-twinkle" style="animation-duration:1.90s;animation-delay:-2.84s"/><rect x="72.4" y="55.8" width="2" height="2" class="lp-star lp-twinkle" style="animation-duration:2.28s;animation-delay:-1.62s"/></g><g class="lp-day"><g transform="translate(130 14)"><g transform="translate(0 0) scale(2)"><path fill="#ffd23f" d="M2 0h4v1h-4zm-1 1h6v1h-6zm-1 1h8v4h-8zm1 4h6v1h-6zm1 1h4v1h-4z"/></g></g></g><g class="lp-night"><g transform="translate(91 28.5)"><g class="lp-shoot" style="animation-duration:8.70s;animation-delay:-6.46s"><rect x="0" y="0" width="14" height="1.5" fill="#fff8d6" transform="rotate(-27)"/><rect x="-1" y="-1" width="3" height="3" fill="#ffffff"/></g></g></g><g class="lp-px"><path d="M13.4 126V99.4H17.4V93.4H53.8V99.4H57.8V126Z" class="lp-far"/><path d="M94.8 126V109.8H98.8V103.8H123.4V109.8H127.4V126Z" class="lp-far"/><path d="M6 126V124H10V124H14V124H18V122H22V122H26V122H30V122H34V122H38V122H42V122H46V122H50V122H54V122H58V122H62V120H66V120H70V118H74V118H78V116H82V116H86V116H90V116H94V116H98V116H102V118H106V118H110V118H114V120H118V120H122V120H126V120H130V120H134V120H138V120H142V120H146V120H150V120H154V126Z" class="lp-mid"/><g transform="translate(6 118.6)"><g class="lp-haze lp-day" style="animation-duration:2.20s;animation-delay:-0.00s"><rect width="148" height="2" fill="#ffffff" opacity=".35"/></g></g></g><g class="lp-px"><rect x="6" y="126" width="148" height="28" class="lp-ground"/><rect x="6" y="126" width="148" height="2" class="lp-ground2"/><rect x="54.6" y="139.3" width="3" height="2" class="lp-ground2"/><rect x="49.7" y="146.9" width="3" height="2" class="lp-ground2"/><rect x="28.2" y="140.3" width="3" height="2" class="lp-ground2"/></g><g class="lp-px"><g transform="translate(11.9 128)"><g class="lp-prop"><g transform="translate(-5 -14) scale(2)"><path fill="#3f9a4a" d="M2 0h1v3h-1zm-2 1h1v2h-1zm4 1h1v2h-1zm-4 1h3v1h-3zm2 1h3v1h-3zm0 1h1v2h-1z"/></g></g></g><g transform="translate(142.2 128)"><g class="lp-prop"><g transform="translate(-5 -14) scale(2)"><path fill="#3f9a4a" d="M2 0h1v3h-1zm-2 1h1v2h-1zm4 1h1v2h-1zm-4 1h3v1h-3zm2 1h3v1h-3zm0 1h1v2h-1z"/></g></g></g><rect x="23.9" y="143.1" width="3" height="2" fill="#c99a5b" class="lp-prop"/><rect x="121.1" y="141.9" width="5" height="2" fill="#c99a5b" class="lp-prop"/><rect x="112.3" y="139.5" width="4" height="2" fill="#c99a5b" class="lp-prop"/></g><g class="lp-px"><g transform="translate(118 124) scale(2)"><path fill="#c47a3a" d="M3 0h1v1h-1zm2 0h1v1h-1zm2 0h2v1h-2zm-6 1h1v1h-1zm2 0h2v1h-2zm3 0h1v1h-1zm2 0h1v1h-1zm2 0h1v1h-1z"/><path fill="#e8a35e" d="M4 0h1v1h-1zm2 0h1v1h-1zm-4 1h1v1h-1zm3 0h1v1h-1zm2 0h1v1h-1zm2 0h1v1h-1z"/><path fill="#1b3a5c" d="M0 2h12v1h-12zm1 1h1v1h-1zm9 0h1v1h-1zm-8 1h8v1h-8z"/><path fill="#5ec8ff" d="M2 3h8v1h-8z"/></g></g><ellipse cx="68" cy="131" rx="30" ry="3" class="lp-shadow"/><g transform="translate(68 132)"><g class="lp-shiver" style="animation-duration:0.35s"><g transform="translate(-68 -132)" class="lp-px"><g transform="translate(28 57) scale(2.5)"><path fill="#ffe996" d="M4 2h2v2h-2zm20 0h1v1h-1zm-1 1h2v1h-2zm-18 1h1v1h-1zm17 0h3v1h-3zm-1 1h3v1h-3zm-1 1h3v1h-3zm-7 1h1v1h-1zm6 0h3v1h-3zm-8 1h3v1h-3zm8 0h2v1h-2zm-9 1h4v1h-4z"/><path fill="#f2d54c" d="M6 2h2v1h-2zm19 0h3v1h-3zm-19 1h3v1h-3zm19 0h1v1h-1zm-19 1h4v1h-4zm2 1h3v1h-3zm3 1h1v1h-1zm0 1h2v1h-2zm7 0h1v2h-1zm6 1h1v1h-1zm-6 1h3v1h-3z"/><path fill="#d19700" d="M26 3h2v1h-2zm-1 1h2v1h-2zm-1 1h2v1h-2zm-1 1h2v1h-2zm-15 1h2v1h-2zm14 0h3v1h-3zm-1 1h1v2h-1z"/><path fill="#e7b600" d="M6 5h2v1h-2zm1 1h4v1h-4zm0 1h1v2h-1zm3 0h1v2h-1z"/><path fill="#fb805c" d="M14 6h1v1h-1zm0 1h2v2h-2zm0 2h1v1h-1z"/><path fill="#f26049" d="M15 6h3v1h-3zm1 1h2v2h-2zm-1 2h3v1h-3zm-7 15h15v1h-15zm1 1h2v1h-2z"/><path fill="#1b2238" d="M6 8h1v1h-1zm2 0h2v2h-2zm14 0h2v2h-2zm3 0h1v1h-1zm-20 1h2v1h-2zm20 0h2v1h-2zm-21 1h3v1h-3zm21 0h3v1h-3zm-22 1h2v1h-2zm24 0h2v1h-2zm-25 1h3v1h-3zm25 0h3v1h-3zm-25 1h1v1h-1zm27 0h1v1h-1zm-27 1h2v8h-2zm26 0h2v8h-2zm-14 7h1v1h-1zm3 0h1v1h-1zm-15 1h1v3h-1zm11 0h1v1h-1zm2 0h2v1h-2zm3 0h1v1h-1zm11 0h1v3h-1zm-27 3h3v1h-3zm25 0h3v1h-3zm-24 1h2v1h-2zm24 0h2v1h-2zm-23 1h3v1h-3zm21 0h3v1h-3zm-20 1h2v1h-2zm20 0h2v1h-2zm-19 1h20v1h-20z"/><path fill="#699ce9" d="M7 9h1v1h-1zm0 1h5v1h-5zm-2 1h7v1h-7zm3 1h3v1h-3z"/><path fill="#5b85e2" d="M24 9h1v1h-1zm-12 1h13v1h-13zm0 1h14v1h-14zm-7 1h1v1h-1zm6 0h15v1h-15zm-8 1h3v1h-3zm5 0h18v1h-18zm-4 1h2v8h-2zm-1 8h3v2h-3zm4 2h1v1h-1z"/><path fill="#5568cd" d="M26 11h1v2h-1zm0 2h3v1h-3zm0 1h1v1h-1zm0 6h1v2h-1zm0 2h2v1h-2zm0 1h1v1h-1zm-20 1h1v1h-1zm18 0h1v1h-1zm-17 1h1v1h-1zm1 1h15v1h-15z"/><path fill="#afcfef" d="M6 12h2v2h-2z"/><path fill="#95a39c" d="M0 14h1v7h-1zm30 0h1v7h-1z"/><path fill="#81889c" d="M1 14h1v7h-1zm30 0h1v7h-1zm-31 7h2v1h-2zm30 0h2v1h-2z"/><path fill="#e5efe2" d="M6 14h20v1h-20zm0 1h19v5h-19zm0 5h2v1h-2zm6 0h8v1h-8zm12 0h1v1h-1zm-18 1h3v1h-3zm5 0h3v1h-3zm4 0h2v1h-2zm3 0h3v1h-3zm5 0h2v1h-2zm-17 1h7v1h-7zm8 0h1v1h-1zm3 0h1v1h-1zm2 0h6v1h-6zm-13 1h18v1h-18z"/><path fill="#4e48b4" d="M27 14h1v1h-1zm-1 1h2v5h-2zm1 5h1v2h-1zm1 2h1v1h-1zm-1 1h2v1h-2zm-2 1h1v1h-1zm-1 1h1v1h-1zm-1 1h1v1h-1zm-15 1h16v2h-16z"/><path fill="#cad2e9" d="M25 15h1v8h-1zm-1 8h2v1h-2z"/><path fill="#f6837f" d="M8 20h4v1h-4zm12 0h4v1h-4zm-11 1h2v1h-2zm12 0h2v1h-2z"/><path fill="#383584" d="M3 24h3v1h-3zm23 0h3v1h-3zm-21 1h1v1h-1zm20 0h2v1h-2zm-20 1h3v1h-3zm19 0h3v1h-3zm-17 1h1v2h-1zm17 0h1v2h-1z"/><path fill="#dc3d43" d="M23 24h1v1h-1zm-15 1h1v1h-1zm3 0h13v1h-13z"/><path fill="#43529d" d="M6 25h1v1h-1z"/></g><g transform="translate(28 57) scale(2.5)"><path fill="#1b2238" d="M8 15h2v1h-2zm14 0h2v1h-2zm-12 1h2v1h-2zm10 0h2v1h-2zm-8 1h2v1h-2zm6 0h2v1h-2zm-8 1h2v1h-2zm10 0h2v1h-2zm-12 1h2v1h-2zm14 0h2v1h-2z"/></g><g transform="translate(28 57) scale(2.5)"><path fill="#2b4a6b" d="M12 8h8v1h-8zm-1 1h1v1h-1zm9 0h1v1h-1zm-10 1h1v3h-1zm11 0h1v3h-1zm-11 3h2v1h-2zm10 0h2v1h-2z"/><path fill="#d6f5ff" d="M12 9h6v2h-6z"/><path fill="#a8e6ff" d="M18 9h2v1h-2zm-7 1h1v1h-1zm7 0h3v1h-3zm-7 1h9v1h-9z"/><path fill="#7aafd6" d="M20 11h1v1h-1zm-2 1h3v1h-3zm-6 1h8v1h-8z"/><path fill="#91ccec" d="M11 12h7v1h-7z"/></g></g></g></g><g transform="translate(101.6 67.6)"><g class="lp-drip lp-px" style="animation-duration:1.8s;animation-delay:-0.00s"><g transform="translate(-3 0) scale(2)"><path fill="#7fd3ff" d="M1 0h1v1h-1zm-1 1h3v2h-3zm1 2h1v1h-1z"/></g></g></g><g transform="translate(31.2 67.6)"><g class="lp-drip lp-px" style="animation-duration:1.8s;animation-delay:-0.90s"><g transform="translate(-3 0) scale(2)"><path fill="#7fd3ff" d="M1 0h1v1h-1zm-1 1h3v2h-3zm1 2h1v1h-1z"/></g></g></g><g class="lp-px"><g transform="translate(-35.5 125.5)"><g class="lp-roll lp-prop" style="animation-duration:9.34s;animation-delay:-9.79s"><g transform="translate(0 0)"><g class="lp-spin" style="animation-duration:1.2s"><g transform="translate(-4.5 -4.5) scale(1.5)"><path fill="#a6773f" d="M1 0h4v1h-4zm-1 1h1v1h-1zm2 0h1v1h-1zm3 0h1v1h-1zm-5 1h2v1h-2zm3 0h3v1h-3zm-3 1h1v2h-1zm2 0h2v1h-2zm3 0h1v2h-1zm-2 1h1v1h-1zm-2 1h4v1h-4z"/></g></g></g></g></g></g><g class="lp-px"><g transform="translate(28 6)"><g class="lp-drift" style="animation-duration:10.30s;animation-delay:-9.87s"><g transform="translate(-1.5 -1.5) scale(1)"><path fill="#e9c46a" d="M1 0h2v1h-2zm-1 1h3v1h-3zm0 1h2v1h-2z"/></g></g></g><g transform="translate(26.9 6)"><g class="lp-drift" style="animation-duration:7.67s;animation-delay:-7.84s"><g transform="translate(-1.5 -1.5) scale(1)"><path fill="#f4a261" d="M1 0h2v1h-2zm-1 1h3v1h-3zm0 1h2v1h-2z"/></g></g></g><g transform="translate(29.3 6)"><g class="lp-drift" style="animation-duration:8.90s;animation-delay:-10.65s"><g transform="translate(-1.5 -1.5) scale(1)"><path fill="#e9c46a" d="M1 0h2v1h-2zm-1 1h3v1h-3zm0 1h2v1h-2z"/></g></g></g><g transform="translate(15.6 6)"><g class="lp-drift" style="animation-duration:8.53s;animation-delay:-5.68s"><g transform="translate(-1.5 -1.5) scale(1)"><path fill="#d62828" d="M1 0h2v1h-2zm-1 1h3v1h-3zm0 1h2v1h-2z"/></g></g></g><g transform="translate(106.9 6)"><g class="lp-drift" style="animation-duration:7.77s;animation-delay:-9.81s"><g transform="translate(-1.5 -1.5) scale(1)"><path fill="#d62828" d="M1 0h2v1h-2zm-1 1h3v1h-3zm0 1h2v1h-2z"/></g></g></g><g transform="translate(100.9 6)"><g class="lp-drift" style="animation-duration:9.10s;animation-delay:-7.81s"><g transform="translate(-1.5 -1.5) scale(1)"><path fill="#e76f51" d="M1 0h2v1h-2zm-1 1h3v1h-3zm0 1h2v1h-2z"/></g></g></g></g></g><text x="80" y="171" text-anchor="middle" class="lp-mini-name">Ruli</text><text x="80" y="185" text-anchor="middle" class="lp-mini-sub">Lv.21 · 🤒 sick</text></svg>