<svg xmlns="http://www.w3.org/2000/svg" width="160" height="192" viewBox="0 0 160 192" role="img" aria-labelledby="lp4v043u-t lp4v043u-d"><title id="lp4v043u-t">Ruli the Cheerful 😊 octo-org/demo</title><desc id="lp4v043u-d">Ruli the Cheerful: Lv.21 (Silver) Adult Ninja Fox, happy. Fullness 91%, Health 100%, Joy 85%, Energy 39%, Hygiene 60%. “#17 is lonely. 9 days and no reply 👀”</desc><style>svg{--lp-bg:#ffffff;--lp-border:#e3e8ef;--lp-text:#1f2430;--lp-muted:#6b7385;--lp-bubble:#f5f7fb;--lp-bubble-border:#d5dbe7;--lp-track:#e6eaf1;--lp-shadow:rgba(0,0,0,.16);--lp-logo:#0f8a7e;--lp-sky1:#9ad9ff;--lp-sky2:#e4f6ff;--lp-g1:#79c267;--lp-g2:#5aa851;--lp-water:#8fd3ff;--lp-water2:#ffffff;--lp-far:#5fae6a;--lp-mid:#3f8f52}.lp-night{display:none}.lp-card{fill:var(--lp-bg);stroke:var(--lp-border)}.lp-sky1{stop-color:var(--lp-sky1)}.lp-sky2{stop-color:var(--lp-sky2)}.lp-ground{fill:var(--lp-g1)}.lp-ground2{fill:var(--lp-g2)}.lp-shadow{fill:var(--lp-shadow)}.lp-px{shape-rendering:crispEdges}.lp-name{font:700 16px ui-monospace,SFMono-Regular,'SF Mono',Menlo,Consolas,'Liberation Mono',monospace;fill:var(--lp-text)}.lp-sub{font:400 11px ui-monospace,SFMono-Regular,'SF Mono',Menlo,Consolas,'Liberation Mono',monospace;fill:var(--lp-muted)}.lp-say{font:400 11.5px ui-monospace,SFMono-Regular,'SF Mono',Menlo,Consolas,'Liberation Mono',monospace;fill:var(--lp-text)}.lp-label{font:400 11px ui-monospace,SFMono-Regular,'SF Mono',Menlo,Consolas,'Liberation Mono',monospace;fill:var(--lp-muted)}.lp-val{font:700 11px ui-monospace,SFMono-Regular,'SF Mono',Menlo,Consolas,'Liberation Mono',monospace;fill:var(--lp-text)}.lp-icon{font:400 11px ui-monospace,SFMono-Regular,'SF Mono',Menlo,Consolas,'Liberation Mono',monospace}.lp-trophy{font:400 14px ui-monospace,SFMono-Regular,'SF Mono',Menlo,Consolas,'Liberation Mono',monospace}.lp-foot{font:400 9.5px ui-monospace,SFMono-Regular,'SF Mono',Menlo,Consolas,'Liberation Mono',monospace;fill:var(--lp-muted)}.lp-brand{font:700 9.5px ui-monospace,SFMono-Regular,'SF Mono',Menlo,Consolas,'Liberation Mono',monospace;fill:var(--lp-muted)}.lp-logo{fill:var(--lp-logo);shape-rendering:crispEdges}.lp-mini-name{font:700 12px ui-monospace,SFMono-Regular,'SF Mono',Menlo,Consolas,'Liberation Mono',monospace;fill:var(--lp-text)}.lp-tag{font:700 11px ui-monospace,SFMono-Regular,'SF Mono',Menlo,Consolas,'Liberation Mono',monospace;fill:var(--lp-text)}.lp-tag-sub{font:400 9.5px ui-monospace,SFMono-Regular,'SF Mono',Menlo,Consolas,'Liberation Mono',monospace;fill:var(--lp-muted)}.lp-mini-sub{font:400 9.5px ui-monospace,SFMono-Regular,'SF Mono',Menlo,Consolas,'Liberation Mono',monospace;fill:var(--lp-muted)}.lp-z{font:700 12px ui-monospace,SFMono-Regular,'SF Mono',Menlo,Consolas,'Liberation Mono',monospace;fill:var(--lp-text)}.lp-bit{font:700 10px ui-monospace,SFMono-Regular,'SF Mono',Menlo,Consolas,'Liberation Mono',monospace;fill:#3fb950}.lp-bubble,.lp-thought{fill:var(--lp-bubble);stroke:var(--lp-bubble-border)}.lp-tail{fill:var(--lp-bubble);stroke:var(--lp-bubble-border);stroke-linejoin:round}.lp-seg,.lp-track{fill:var(--lp-track)}.lp-good{fill:#3fb950}.lp-mid{fill:#e3b341}.lp-low{fill:#f85149}.lp-xp{fill:#a371f7}.lp-ink{fill:var(--lp-text)}.lp-fly{fill:var(--lp-text)}.lp-star{fill:#fff8d6}.lp-snow{fill:#ffffff}.lp-raindrop{fill:#5ec8ff}.lp-firefly{fill:#fff59d}.lp-string{fill:#5a1e1e}.lp-far{fill:var(--lp-far)}.lp-mid{fill:var(--lp-mid)}.lp-water{fill:var(--lp-water)}.lp-water2{fill:var(--lp-water2)}.lp-ripple-line{stroke:var(--lp-water2)}.lp-sea{fill:var(--lp-water);opacity:.38}.lp-bubble-c{fill:none;stroke:#e4f7ff;stroke-width:1;opacity:.85}.lp-bounce{animation:lp-bounce 2s ease-in-out infinite}.lp-hop{animation:lp-hop 1s ease-in-out infinite}.lp-breathe{animation:lp-breathe 4s ease-in-out infinite}.lp-sway{animation:lp-sway 3s ease-in-out infinite}.lp-shiver{animation:lp-shiver .35s linear infinite}.lp-wobble{animation:lp-wobble 3s ease-in-out infinite}.lp-growl{animation:lp-growl 3s linear infinite}.lp-blink-open{animation:lp-blink-open 4s infinite}.lp-blink-closed{opacity:0;animation:lp-blink-closed 4s infinite}.lp-rise{animation:lp-rise 3s ease-out infinite both}.lp-zz{animation:lp-zz 3s ease-out infinite both}.lp-fall{animation:lp-fall 3s linear infinite}.lp-drift{animation:lp-drift 9s linear infinite}.lp-drip{animation:lp-drip 1.6s ease-in infinite both}.lp-orbit{animation:lp-orbit 2.4s linear infinite}.lp-twinkle{animation:lp-twinkle 2s ease-in-out infinite both}.lp-burst{animation:lp-burst 2.4s ease-out infinite both}.lp-float{animation:lp-float 3s ease-in-out infinite}.lp-swing{animation:lp-swing 3s ease-in-out infinite}.lp-cloud{animation:lp-cloud 14s ease-in-out infinite alternate}.lp-alert{animation:lp-alert 1.2s steps(2) infinite}.lp-flap{animation:lp-flap .5s steps(1) infinite}.lp-fly{animation:lp-fly 16s linear infinite}.lp-flutter{animation:lp-flutter 6s ease-in-out infinite}.lp-sway-soft{animation:lp-sway-soft 5s ease-in-out infinite}.lp-kelp{animation:lp-kelp 4s ease-in-out infinite}.lp-spin{animation:lp-orbit 6s linear infinite}.lp-mist{animation:lp-mist 9s ease-in-out infinite}.lp-shoot{animation:lp-shoot 8s linear infinite}.lp-aurora{animation:lp-aurora 6s ease-in-out infinite}.lp-rainbow{animation:lp-rainbow 5s ease-in-out infinite}.lp-wave{animation:lp-wave 3s ease-in-out infinite}.lp-tide{animation:lp-tide 4s ease-in-out infinite}.lp-ripple{animation:lp-ripple 3s ease-out infinite both}.lp-bubbling{animation:lp-bubble 5s ease-in infinite both}.lp-swim{animation:lp-swim 14s linear infinite}.lp-roll{animation:lp-roll 9s linear infinite}.lp-ray{animation:lp-ray 5s ease-in-out infinite}.lp-flow{animation:lp-flow 1s linear infinite both}.lp-glow{animation:lp-glow 2s ease-in-out infinite}.lp-haze{animation:lp-haze 2.2s ease-in-out infinite}.lp-flag{animation:lp-flag 1.8s ease-in-out infinite}.lp-bulb{animation:lp-bulb 1.2s steps(1) infinite}.lp-twinkle-soft{animation:lp-twinkle-soft 2.5s ease-in-out infinite}.lp-new{animation:lp-float 1.6s ease-in-out infinite}.lp-lvup{font:700 11px ui-monospace,SFMono-Regular,'SF Mono',Menlo,Consolas,'Liberation Mono',monospace;stroke:#3d2c00;stroke-width:2.5px;paint-order:stroke;stroke-linejoin:round}.lp-aura{opacity:.8;animation:lp-aura 1.1s ease-in-out infinite}.lp-pal-fly{animation:lp-pal-fly 3.4s ease-in-out infinite}.lp-pal-hop{animation:lp-pal-hop 1.6s ease-in-out infinite}.lp-quest{font:700 11px ui-monospace,SFMono-Regular,'SF Mono',Menlo,Consolas,'Liberation Mono',monospace;fill:var(--lp-muted)}.lp-more{font:700 10px ui-monospace,SFMono-Regular,'SF Mono',Menlo,Consolas,'Liberation Mono',monospace;fill:var(--lp-muted)}@keyframes lp-pal-fly{0%,100%{transform:translate(0,0)}25%{transform:translate(2px,-4px)}50%{transform:translate(0,-6px)}75%{transform:translate(-2px,-3px)}}@keyframes lp-pal-hop{0%,55%,100%{transform:translateY(0)}25%{transform:translateY(-5px)}}@keyframes lp-aura{0%,100%{opacity:.45}50%{opacity:.95}}@keyframes lp-bounce{0%,100%{transform:translateY(0)}50%{transform:translateY(-5px)}}@keyframes lp-hop{0%,100%{transform:translateY(0)}35%{transform:translateY(-14px)}55%{transform:translateY(0)}65%{transform:translateY(-3px)}}@keyframes lp-breathe{0%,100%{transform:scale(1,1)}50%{transform:scale(1.04,.96)}}@keyframes lp-sway{0%,100%{transform:rotate(-5deg)}50%{transform:rotate(5deg)}}@keyframes lp-shiver{0%,100%{transform:translateX(0)}25%{transform:translateX(-1.5px)}75%{transform:translateX(1.5px)}}@keyframes lp-wobble{0%,60%,100%{transform:rotate(0)}68%{transform:rotate(-9deg)}78%{transform:rotate(8deg)}88%{transform:rotate(-4deg)}}@keyframes lp-growl{0%,78%,100%{transform:translateX(0)}82%{transform:translateX(-2px)}86%{transform:translateX(2px)}90%{transform:translateX(-2px)}94%{transform:translateX(1px)}}@keyframes lp-blink-open{0%,93%,100%{opacity:1}94%,98%{opacity:0}}@keyframes lp-blink-closed{0%,93%,100%{opacity:0}94%,98%{opacity:1}}@keyframes lp-rise{0%{transform:translateY(0);opacity:0}20%{opacity:1}100%{transform:translateY(-34px);opacity:0}}@keyframes lp-zz{0%{transform:translate(0,0);opacity:0}20%{opacity:1}100%{transform:translate(10px,-26px);opacity:0}}@keyframes lp-fall{0%{transform:translateY(-20px) rotate(0)}100%{transform:translateY(260px) rotate(540deg)}}@keyframes lp-drift{0%{transform:translate(0,-20px) rotate(0)}50%{transform:translate(14px,110px) rotate(160deg)}100%{transform:translate(-8px,260px) rotate(340deg)}}@keyframes lp-drip{0%{transform:translateY(0);opacity:0}15%{opacity:1}100%{transform:translateY(16px);opacity:0}}@keyframes lp-orbit{to{transform:rotate(360deg)}}@keyframes lp-twinkle{0%,100%{opacity:.15}50%{opacity:1}}@keyframes lp-burst{0%{transform:scale(.1);opacity:0}10%{opacity:1}70%{opacity:.9}100%{transform:scale(1.3);opacity:0}}@keyframes lp-float{0%,100%{transform:translateY(0)}50%{transform:translateY(-3px)}}@keyframes lp-swing{0%,100%{transform:rotate(-6deg)}50%{transform:rotate(6deg)}}@keyframes lp-cloud{from{transform:translateX(-6px)}to{transform:translateX(10px)}}@keyframes lp-alert{0%{opacity:1}50%{opacity:.35}}@keyframes lp-flap{0%{opacity:1}50%{opacity:0}}@keyframes lp-fly{from{transform:translate(-40px,0)}50%{transform:translate(130px,-8px)}to{transform:translate(300px,4px)}}@keyframes lp-flutter{0%,100%{transform:translate(0,0)}25%{transform:translate(14px,-9px)}50%{transform:translate(24px,1px)}75%{transform:translate(9px,7px)}}@keyframes lp-sway-soft{0%,100%{transform:rotate(-2deg)}50%{transform:rotate(2deg)}}@keyframes lp-kelp{0%,100%{transform:skewX(-9deg)}50%{transform:skewX(9deg)}}@keyframes lp-mist{0%,100%{transform:translateX(-14px)}50%{transform:translateX(14px)}}@keyframes lp-shoot{0%,86%{transform:translate(0,0);opacity:0}88%{opacity:1}100%{transform:translate(-70px,36px);opacity:0}}@keyframes lp-aurora{0%,100%{opacity:.1;transform:translateY(0)}50%{opacity:.5;transform:translateY(3px)}}@keyframes lp-rainbow{0%,100%{opacity:.25}50%{opacity:.6}}@keyframes lp-wave{0%,100%{transform:translateX(0)}50%{transform:translateX(-7px)}}@keyframes lp-tide{0%,100%{transform:translateY(0);opacity:.2}50%{transform:translateY(4px);opacity:.9}}@keyframes lp-ripple{0%{transform:scale(.2);opacity:.9}100%{transform:scale(1.5);opacity:0}}@keyframes lp-bubble{0%{transform:translate(0,0);opacity:0}10%{opacity:.9}50%{transform:translate(4px,-80px)}100%{transform:translate(-3px,-170px);opacity:0}}@keyframes lp-swim{from{transform:translateX(0)}50%{transform:translate(-160px,-6px)}to{transform:translateX(-340px)}}@keyframes lp-roll{0%{transform:translate(0,0)}20%{transform:translate(60px,-6px)}25%{transform:translate(75px,0)}55%{transform:translate(165px,-8px)}60%{transform:translate(180px,0)}100%{transform:translate(300px,0)}}@keyframes lp-ray{0%,100%{opacity:.04}50%{opacity:.2}}@keyframes lp-flow{0%{transform:translateY(-4px);opacity:0}25%{opacity:1}100%{transform:translateY(24px);opacity:0}}@keyframes lp-glow{0%,100%{opacity:.55}50%{opacity:1}}@keyframes lp-haze{0%,100%{transform:scale(1,1);opacity:.15}50%{transform:scale(1,2.5);opacity:.4}}@keyframes lp-flag{0%,100%{transform:rotate(-8deg)}50%{transform:rotate(8deg)}}@keyframes lp-bulb{0%{opacity:1}50%{opacity:.25}}@keyframes lp-twinkle-soft{0%,100%{opacity:.75}50%{opacity:1}}@media (prefers-reduced-motion:reduce){*{animation-play-state:paused!important}}</style><defs><linearGradient id="lp4v043u-sky" x1="0" y1="0" x2="0" y2="1"><stop offset="0" class="lp-sky1"/><stop offset="1" class="lp-sky2"/></linearGradient><clipPath id="lp4v043u-clip"><rect x="6" y="6" width="148" height="148" rx="12"/></clipPath></defs><rect x="0.5" y="0.5" width="159" height="191" rx="16" class="lp-card"/><g clip-path="url(#lp4v043u-clip)"><rect x="6" y="6" width="148" height="148" fill="url(#lp4v043u-sky)"/><g class="lp-day lp-px"><g transform="translate(17.8 17.8)"><g class="lp-cloud" style="animation-duration:11.27s"><g transform="translate(0 0) scale(2)"><path fill="#ffffffd9" d="M3 0h3v1h-3zm-2 1h7v1h-7zm-1 1h9v1h-9zm1 1h7v1h-7z"/></g></g></g><g transform="translate(87.4 35.6)"><g class="lp-cloud" style="animation-duration:13.26s"><g transform="translate(0 0) scale(2)"><path fill="#ffffffd9" d="M3 0h3v1h-3zm-2 1h7v1h-7zm-1 1h9v1h-9zm1 1h7v1h-7z"/></g></g></g></g><g class="lp-night lp-px"><g transform="translate(132 16) scale(2)"><path fill="#fff3b0" d="M2 0h3v1h-3zm-1 1h2v1h-2zm-1 1h2v2h-2zm1 2h2v1h-2zm1 1h3v1h-3z"/></g><rect x="50.8" y="18.2" width="2" height="2" class="lp-star lp-twinkle" style="animation-duration:3.17s;animation-delay:-2.28s"/><rect x="100.1" y="27.9" width="2" height="2" class="lp-star lp-twinkle" style="animation-duration:1.82s;animation-delay:-0.02s"/><rect x="102.7" y="16.7" width="2" height="2" class="lp-star lp-twinkle" style="animation-duration:3.07s;animation-delay:-2.60s"/><rect x="72.3" y="60.1" width="2" height="2" class="lp-star lp-twinkle" style="animation-duration:2.17s;animation-delay:-0.67s"/><rect x="35.4" y="67.7" width="2" height="2" class="lp-star lp-twinkle" style="animation-duration:1.98s;animation-delay:-1.43s"/><rect x="41.7" y="13.1" width="2" height="2" class="lp-star lp-twinkle" style="animation-duration:1.90s;animation-delay:-2.84s"/><rect x="72.4" y="55.8" width="2" height="2" class="lp-star lp-twinkle" style="animation-duration:2.28s;animation-delay:-1.62s"/></g><g class="lp-night"><g transform="translate(91 28.5)"><g class="lp-shoot" style="animation-duration:8.70s;animation-delay:-6.46s"><rect x="0" y="0" width="14" height="1.5" fill="#fff8d6" transform="rotate(-27)"/><rect x="-1" y="-1" width="3" height="3" fill="#ffffff"/></g></g></g><g class="lp-day lp-px"><g transform="translate(-44.8 31.3)"><g class="lp-fly" style="animation-duration:15.54s;animation-delay:-5.71s"><g class="lp-flap" style="animation-duration:0.54s;animation-delay:-0.00s"><g transform="translate(-2.5 0) scale(1)"><path fill="#2d3b2f" d="M0 0h1v1h-1zm4 0h1v1h-1zm-3 1h1v1h-1zm2 0h1v1h-1zm-1 1h1v1h-1z"/></g></g><g class="lp-flap" style="animation-duration:0.54s;animation-delay:-0.27s"><g transform="translate(-2.5 0) scale(1)"><path fill="#2d3b2f" d="M2 0h1v1h-1zm-1 1h1v1h-1zm2 0h1v1h-1zm-3 1h1v1h-1zm4 0h1v1h-1z"/></g></g></g></g><g transform="translate(-35.5 31.5)"><g class="lp-fly" style="animation-duration:14.54s;animation-delay:-12.95s"><g class="lp-flap" style="animation-duration:0.57s;animation-delay:-0.00s"><g transform="translate(-2.5 0) scale(1)"><path fill="#2d3b2f" d="M0 0h1v1h-1zm4 0h1v1h-1zm-3 1h1v1h-1zm2 0h1v1h-1zm-1 1h1v1h-1z"/></g></g><g class="lp-flap" style="animation-duration:0.57s;animation-delay:-0.28s"><g transform="translate(-2.5 0) scale(1)"><path fill="#2d3b2f" d="M2 0h1v1h-1zm-1 1h1v1h-1zm2 0h1v1h-1zm-3 1h1v1h-1zm4 0h1v1h-1z"/></g></g></g></g></g><g class="lp-px"><path d="M6 126V104H9V92H12V84H15V84H18V92H21V100H24V100H27V98H30V102H33V112H36V120H39V120H42V110H45V102H48V98H51V100H54V98H57V90H60V84H63V84H66V94H69V106H72V110H75V108H78V106H81V112H84V118H87V118H90V106H93V94H96V90H99V92H102V96H105V92H108V88H111V90H114V100H117V112H120V118H123V114H126V108H129V108H132V112H135V110H138V102H141V88H144V84H147V88H150V96H153V98H154V126Z" class="lp-far"/><path d="M102.7 126V76.8H106.7V63.8H124.3V72.8H129.1V126Z" class="lp-mid"/><rect x="111.5" y="63.8" width="8" height="62.2" class="lp-water"/><rect x="109.5" y="62.8" width="12" height="2" class="lp-water2"/><g transform="translate(115.3 104.9)"><g class="lp-flow" style="animation-duration:1.18s;animation-delay:-0.51s"><rect width="1.5" height="5" class="lp-water2"/></g></g><g transform="translate(115.5 75.4)"><g class="lp-flow" style="animation-duration:1.02s;animation-delay:-1.16s"><rect width="1.5" height="5" class="lp-water2"/></g></g><g transform="translate(115.8 99.1)"><g class="lp-flow" style="animation-duration:1.25s;animation-delay:-0.20s"><rect width="1.5" height="5" class="lp-water2"/></g></g><g transform="translate(114.6 73.3)"><g class="lp-flow" style="animation-duration:1.16s;animation-delay:-0.19s"><rect width="1.5" height="5" class="lp-water2"/></g></g><g transform="translate(115.7 85.4)"><g class="lp-flow" style="animation-duration:1.28s;animation-delay:-0.22s"><rect width="1.5" height="5" class="lp-water2"/></g></g><g transform="translate(116.9 81.8)"><g class="lp-flow" style="animation-duration:1.06s;animation-delay:-0.09s"><rect width="1.5" height="5" class="lp-water2"/></g></g><g transform="translate(115.5 124)"><g class="lp-glow" style="animation-duration:1.40s;animation-delay:-0.00s"><ellipse rx="9.6" ry="2.8" fill="#ffffff" opacity=".6"/></g></g><path d="M6 126V118H9V120H12V120H15V114H18V108H21V110H24V114H27V114H30V116H33V120H36V124H39V120H42V116H45V116H48V116H51V110H54V108H57V114H60V118H63V118H66V120H69V124H72V122H75V114H78V112H81V114H84V112H87V110H90V114H93V120H96V122H99V120H102V120H105V120H108V116H111V110H114V110H117V114H120V114H123V114H126V120H129V124H132V120H135V116H138V118H141V116H144V110H147V108H150V114H153V118H154V126Z" class="lp-mid"/></g><g class="lp-px"><rect x="6" y="126" width="148" height="28" class="lp-ground"/><rect x="6" y="126" width="148" height="2" class="lp-ground2"/><rect x="11" y="123" width="2" height="3" class="lp-ground2"/><rect x="14" y="121" width="2" height="5" class="lp-ground2"/><rect x="32" y="123" width="2" height="3" class="lp-ground2"/><rect x="35" y="121" width="2" height="5" class="lp-ground2"/><rect x="51" y="123" width="2" height="3" class="lp-ground2"/><rect x="54" y="121" width="2" height="5" class="lp-ground2"/><rect x="64" y="123" width="2" height="3" class="lp-ground2"/><rect x="67" y="121" width="2" height="5" class="lp-ground2"/><rect x="81" y="123" width="2" height="3" class="lp-ground2"/><rect x="84" y="121" width="2" height="5" class="lp-ground2"/><rect x="100" y="123" width="2" height="3" class="lp-ground2"/><rect x="103" y="121" width="2" height="5" class="lp-ground2"/><rect x="119" y="123" width="2" height="3" class="lp-ground2"/><rect x="122" y="121" width="2" height="5" class="lp-ground2"/><rect x="138" y="123" width="2" height="3" class="lp-ground2"/><rect x="141" y="121" width="2" height="5" class="lp-ground2"/><rect x="89.6" y="143.3" width="3" height="2" class="lp-ground2"/><rect x="97.3" y="145.1" width="3" height="2" class="lp-ground2"/><rect x="38" y="148.7" width="3" height="2" class="lp-ground2"/></g><g class="lp-px"><g transform="translate(6 128)"><g class="lp-sway-soft lp-prop" style="animation-duration:4.99s;animation-delay:-1.44s"><rect x="0" y="-6" width="6" height="2" fill="#4cbf5e"/><rect x="0" y="-4" width="2" height="4" fill="#2f8f46"/><rect x="2.4" y="-9.2" width="6" height="2" fill="#2f8f46"/><rect x="2.4" y="-7.2" width="2" height="4" fill="#2f8f46"/><rect x="4.8" y="-12.4" width="6" height="2" fill="#4cbf5e"/><rect x="4.8" y="-10.4" width="2" height="4" fill="#2f8f46"/><rect x="7.2" y="-15.6" width="6" height="2" fill="#2f8f46"/><rect x="7.2" y="-13.6" width="2" height="4" fill="#2f8f46"/><rect x="9.6" y="-18.8" width="6" height="2" fill="#4cbf5e"/><rect x="9.6" y="-16.8" width="2" height="4" fill="#2f8f46"/><rect x="12" y="-22" width="6" height="2" fill="#2f8f46"/><rect x="12" y="-20" width="2" height="4" fill="#2f8f46"/><rect x="14.4" y="-25.2" width="6" height="2" fill="#4cbf5e"/><rect x="14.4" y="-23.2" width="2" height="4" fill="#2f8f46"/></g></g><g transform="translate(154 128)"><g class="lp-sway-soft lp-prop" style="animation-duration:3.56s;animation-delay:-3.47s"><rect x="-6" y="-6" width="6" height="2" fill="#4cbf5e"/><rect x="0" y="-4" width="2" height="4" fill="#2f8f46"/><rect x="-8.4" y="-9.2" width="6" height="2" fill="#2f8f46"/><rect x="-2.4" y="-7.2" width="2" height="4" fill="#2f8f46"/><rect x="-10.8" y="-12.4" width="6" height="2" fill="#4cbf5e"/><rect x="-4.8" y="-10.4" width="2" height="4" fill="#2f8f46"/><rect x="-13.2" y="-15.6" width="6" height="2" fill="#2f8f46"/><rect x="-7.2" y="-13.6" width="2" height="4" fill="#2f8f46"/><rect x="-15.6" y="-18.8" width="6" height="2" fill="#4cbf5e"/><rect x="-9.6" y="-16.8" width="2" height="4" fill="#2f8f46"/><rect x="-18" y="-22" width="6" height="2" fill="#2f8f46"/><rect x="-12" y="-20" width="2" height="4" fill="#2f8f46"/><rect x="-20.4" y="-25.2" width="6" height="2" fill="#4cbf5e"/><rect x="-14.4" y="-23.2" width="2" height="4" fill="#2f8f46"/></g></g></g><g class="lp-px"><g transform="translate(118 124) scale(2)"><path fill="#c47a3a" d="M3 0h1v1h-1zm2 0h1v1h-1zm2 0h2v1h-2zm-6 1h1v1h-1zm2 0h2v1h-2zm3 0h1v1h-1zm2 0h1v1h-1zm2 0h1v1h-1z"/><path fill="#e8a35e" d="M4 0h1v1h-1zm2 0h1v1h-1zm-4 1h1v1h-1zm3 0h1v1h-1zm2 0h1v1h-1zm2 0h1v1h-1z"/><path fill="#1b3a5c" d="M0 2h12v1h-12zm1 1h1v1h-1zm9 0h1v1h-1zm-8 1h8v1h-8z"/><path fill="#5ec8ff" d="M2 3h8v1h-8z"/></g></g><ellipse cx="68" cy="131" rx="30" ry="3" class="lp-shadow"/><g transform="translate(68 132)"><style>@keyframes lp-mv-clone{0%,82%,100%{transform:translate(0,0) rotate(0) scale(1,1) skewX(0)}85%{transform:translate(-14px,0) rotate(0) scale(1,1) skewX(0)}88%{transform:translate(14px,0) rotate(0) scale(1,1) skewX(0)}91%{transform:translate(0,0) rotate(0) scale(1,1) skewX(0)}}.lp-mv-clone{animation:lp-mv-clone 7s ease-in-out infinite}@keyframes lp-fx-clones{0%,82%,95%,100%{opacity:0}85%,91%{opacity:.45}}.lp-fx-clones{opacity:0;animation:lp-fx-clones 7s linear infinite}</style><g class="lp-fx-clones" style="animation-duration:7.00s;animation-delay:0.62s"><use href="#lpgaonm2" x="-48"/><use href="#lpgaonm2" x="48"/></g><g class="lp-mv-clone" style="animation-duration:7.00s;animation-delay:0.62s"><g class="lp-bounce" style="animation-duration:2.00s"><g id="lpgaonm2" transform="translate(-68 -132)" class="lp-px"><g transform="translate(28 57) scale(2.5)"><path fill="#3a1a08" d="M2 2h4v1h-4zm24 0h4v1h-4zm-24 1h2v1h-2zm4 0h1v1h-1zm19 0h1v1h-1zm3 0h2v1h-2zm-26 1h1v4h-1zm5 0h1v1h-1zm17 0h1v1h-1zm5 0h1v4h-1zm-22 1h2v1h-2zm16 0h2v1h-2zm-16 1h3v1h-3zm15 0h3v1h-3zm-12 1h1v1h-1zm11 0h1v1h-1zm-20 1h2v1h-2zm10 0h10v1h-10zm18 0h2v1h-2zm-28 1h1v1h-1zm29 0h1v1h-1zm-30 1h1v12h-1zm31 0h1v12h-1zm-30 12h1v1h-1zm12 0h1v1h-1zm5 0h1v1h-1zm12 0h1v1h-1zm-28 1h3v1h-3zm12 0h4v1h-4zm13 0h3v1h-3zm-24 1h2v1h-2zm24 0h2v1h-2zm-23 1h3v1h-3zm21 0h3v1h-3zm-20 1h2v1h-2zm20 0h2v1h-2zm-19 1h6v1h-6zm14 0h6v1h-6zm-12 1h4v1h-4zm12 0h4v1h-4zm-10 1h12v1h-12z"/><path fill="#ffbec6" d="M4 3h1v3h-1zm22 0h1v3h-1zm-3 4h2v1h-2z"/><path fill="#ff9eb5" d="M5 3h1v1h-1zm22 0h1v1h-1zm-24 1h1v2h-1zm2 0h2v2h-2zm20 0h1v3h-1zm2 0h2v1h-2zm0 1h1v1h-1zm-21 1h1v1h-1zm1 1h2v1h-2z"/><path fill="#c7699a" d="M28 5h1v1h-1z"/><path fill="#ff8c42" d="M3 6h3v1h-3zm0 1h4v1h-4zm6 0h1v1h-1zm-6 1h2v1h-2zm3 0h5v2h-5zm20 0h1v1h-1zm-1 1h3v1h-3zm-24 5h3v2h-3zm7 0h20v2h-20zm-7 2h27v2h-27zm0 2h3v1h-3zm7 0h16v1h-16zm-7 1h4v1h-4zm6 0h18v1h-18zm-5 1h1v1h-1zm6 0h16v1h-16zm2 1h12v1h-12z"/><path fill="#ffac6f" d="M26 6h1v1h-1zm-4 1h1v1h-1zm3 0h2v1h-2zm-20 1h1v1h-1zm16 0h5v1h-5zm-18 1h3v1h-3zm18 0h4v1h-4z"/><path fill="#ed6c33" d="M27 6h1v3h-1zm1 3h1v1h-1zm0 5h1v5h-1zm-1 5h2v1h-2zm-26 1h1v2h-1zm2 0h1v1h-1zm25 0h1v1h-1z"/><path fill="#d54726" d="M28 6h1v3h-1zm1 8h2v7h-2zm-27 7h2v1h-2zm26 0h3v1h-3zm-26 1h1v1h-1zm27 0h1v1h-1z"/><path fill="#385079" d="M2 9h1v1h-1zm18 0h1v1h-1zm-18 1h3v1h-3zm18 0h3v1h-3zm0 1h2v1h-2z"/><path fill="#1f3a68" d="M11 9h1v1h-1zm-10 1h1v1h-1zm4 0h7v1h-7zm18 0h6v1h-6zm-22 1h11v3h-11zm21 0h7v1h-7zm-2 1h8v2h-8z"/><path fill="#c9d3e0" d="M12 9h8v1h-8zm0 3h2v2h-2zm6 0h2v2h-2z"/><path fill="#162355" d="M29 9h1v1h-1zm0 1h2v1h-2zm0 1h1v1h-1zm-1 1h2v1h-2zm0 1h1v1h-1z"/><path fill="#dce7f4" d="M12 10h8v2h-8z"/><path fill="#0d083e" d="M30 11h1v2h-1zm-1 2h2v1h-2z"/><path fill="#7d8aa0" d="M14 12h4v2h-4z"/><path fill="#ffc48f" d="M4 14h4v2h-4z"/><path fill="#ff8e81" d="M4 18h4v1h-4zm20 0h4v1h-4zm-19 1h2v1h-2zm20 0h2v1h-2z"/><path fill="#f1d7ca" d="M4 20h2v1h-2zm21 0h3v1h-3zm-20 1h2v1h-2zm19 0h2v1h-2zm-18 1h1v1h-1zm17 0h2v1h-2zm-17 1h3v1h-3zm15 0h3v1h-3zm-13 1h5v1h-5zm10 0h5v1h-5zm-6 1h2v1h-2zm4 0h3v1h-3zm-3 1h5v1h-5z"/><path fill="#fff4e6" d="M6 20h2v1h-2zm18 0h1v1h-1zm-17 1h3v1h-3zm15 0h2v1h-2zm-15 1h6v1h-6zm7 0h4v1h-4zm5 0h4v1h-4zm-10 1h5v1h-5zm9 0h3v1h-3zm-5 1h5v1h-5zm1 1h2v1h-2z"/><path fill="#dcb9a8" d="M4 21h1v1h-1zm22 0h2v1h-2zm-23 1h3v1h-3zm22 0h4v1h-4zm-20 1h1v1h-1zm19 0h3v1h-3zm-19 1h3v1h-3zm18 0h4v1h-4zm-16 1h5v1h-5zm12 0h6v1h-6zm-12 1h6v1h-6zm11 0h7v1h-7zm-6 1h8v2h-8z"/></g><g class="lp-blink-open" style="animation-duration:3.29s"><g transform="translate(28 57) scale(2.5)"><path fill="#3a1a08" d="M9 16h2v1h-2zm12 0h2v1h-2zm-13 1h1v1h-1zm2 0h2v1h-2zm10 0h1v1h-1zm2 0h2v1h-2zm-14 1h4v1h-4zm12 0h4v1h-4zm-12 1h1v1h-1zm3 0h1v1h-1zm9 0h1v1h-1zm3 0h1v1h-1zm-14 1h2v1h-2zm12 0h2v1h-2z"/><path fill="#ffffff" d="M9 17h1v1h-1zm12 0h1v1h-1z"/><path fill="#6e5346" d="M9 19h2v1h-2zm12 0h2v1h-2z"/></g></g><g class="lp-blink-closed" style="animation-duration:3.29s"><g transform="translate(28 57) scale(2.5)"><path fill="#3a1a08" d="M8 18h4v1h-4zm12 0h4v1h-4zm-11 1h2v1h-2zm12 0h2v1h-2z"/></g></g></g></g></g></g><g transform="translate(104.8 62)"><g class="lp-rise lp-px" style="animation-duration:3.60s;animation-delay:-0.00s"><g transform="translate(-4 -5) scale(1)"><path class="lp-ink" d="M2 0h2v1h-2zm0 1h1v2h-1zm-2 2h3v1h-3zm0 1h2v1h-2z"/></g></g></g><g transform="translate(26.4 57.8)"><g class="lp-rise lp-px" style="animation-duration:3.60s;animation-delay:-1.60s"><g transform="translate(-4 -5) scale(1)"><path class="lp-ink" d="M2 0h2v1h-2zm0 1h1v2h-1zm-2 2h3v1h-3zm0 1h2v1h-2z"/></g></g></g><g class="lp-px"><g transform="translate(121 118.7)"><g class="lp-mist" style="animation-duration:7.76s;animation-delay:-11.60s"><ellipse cx="0" cy="0" rx="37" ry="5.9" fill="#ffffff" opacity="0.22"/></g></g><g transform="translate(112.2 116.9)"><g class="lp-mist" style="animation-duration:8.14s;animation-delay:-3.03s"><ellipse cx="0" cy="0" rx="33.9" ry="5.4" fill="#ffffff" opacity="0.22"/></g></g><g transform="translate(14.9 4)"><g class="lp-sway-soft lp-prop" style="animation-duration:4.34s;animation-delay:-4.16s"><rect x="0" y="0" width="1.4" height="2.8" fill="#2d6b3a"/><rect x="0" y="2.8" width="1.4" height="2.8" fill="#2d6b3a"/><rect x="1.4" y="2.8" width="3" height="2" fill="#4cbf5e"/><rect x="0" y="5.6" width="1.4" height="2.8" fill="#2d6b3a"/><rect x="0" y="8.399999999999999" width="1.4" height="2.8" fill="#2d6b3a"/><rect x="0" y="11.2" width="1.4" height="2.8" fill="#2d6b3a"/><rect x="-3" y="11.2" width="3" height="2" fill="#4cbf5e"/><rect x="0" y="14" width="1.4" height="2.8" fill="#2d6b3a"/><rect x="0" y="16.799999999999997" width="1.4" height="2.8" fill="#2d6b3a"/><rect x="0" y="19.599999999999998" width="1.4" height="2.8" fill="#2d6b3a"/><rect x="1.4" y="19.599999999999998" width="3" height="2" fill="#4cbf5e"/><rect x="0" y="22.4" width="1.4" height="2.8" fill="#2d6b3a"/><rect x="0" y="25.2" width="1.4" height="2.8" fill="#2d6b3a"/></g></g><g transform="translate(143.6 4)"><g class="lp-sway-soft lp-prop" style="animation-duration:5.88s;animation-delay:-2.42s"><rect x="0" y="0" width="1.4" height="2.8" fill="#2d6b3a"/><rect x="0" y="2.8" width="1.4" height="2.8" fill="#2d6b3a"/><rect x="1.4" y="2.8" width="3" height="2" fill="#4cbf5e"/><rect x="0" y="5.6" width="1.4" height="2.8" fill="#2d6b3a"/><rect x="0" y="8.399999999999999" width="1.4" height="2.8" fill="#2d6b3a"/><rect x="0" y="11.2" width="1.4" height="2.8" fill="#2d6b3a"/><rect x="-3" y="11.2" width="3" height="2" fill="#4cbf5e"/><rect x="0" y="14" width="1.4" height="2.8" fill="#2d6b3a"/><rect x="0" y="16.799999999999997" width="1.4" height="2.8" fill="#2d6b3a"/><rect x="0" y="19.599999999999998" width="1.4" height="2.8" fill="#2d6b3a"/><rect x="1.4" y="19.599999999999998" width="3" height="2" fill="#4cbf5e"/><rect x="0" y="22.4" width="1.4" height="2.8" fill="#2d6b3a"/><rect x="0" y="25.2" width="1.4" height="2.8" fill="#2d6b3a"/></g></g><rect x="34.6" y="75.8" width="2" height="2" class="lp-firefly lp-twinkle lp-night" style="animation-duration:2.06s;animation-delay:-1.02s"/><rect x="40.8" y="113.5" width="2" height="2" class="lp-firefly lp-twinkle lp-night" style="animation-duration:1.35s;animation-delay:-0.65s"/><rect x="113.9" y="120.1" width="2" height="2" class="lp-firefly lp-twinkle lp-night" style="animation-duration:2.08s;animation-delay:-1.04s"/><rect x="100.6" y="108.7" width="2" height="2" class="lp-firefly lp-twinkle lp-night" style="animation-duration:1.61s;animation-delay:-0.56s"/><rect x="127.4" y="88.3" width="2" height="2" class="lp-firefly lp-twinkle lp-night" style="animation-duration:1.40s;animation-delay:-1.50s"/><rect x="55.6" y="85.3" width="2" height="2" class="lp-firefly lp-twinkle lp-night" style="animation-duration:1.29s;animation-delay:-1.09s"/></g><g class="lp-px"><g transform="translate(132.6 6)"><g class="lp-drift" style="animation-duration:8.24s;animation-delay:-4.14s"><g transform="translate(-1.5 -1.5) scale(1)"><path fill="#f4a261" d="M1 0h2v1h-2zm-1 1h3v1h-3zm0 1h2v1h-2z"/></g></g></g><g transform="translate(40.6 6)"><g class="lp-drift" style="animation-duration:9.99s;animation-delay:-0.01s"><g transform="translate(-1.5 -1.5) scale(1)"><path fill="#e76f51" d="M1 0h2v1h-2zm-1 1h3v1h-3zm0 1h2v1h-2z"/></g></g></g><g transform="translate(22.1 6)"><g class="lp-drift" style="animation-duration:7.59s;animation-delay:-10.36s"><g transform="translate(-1.5 -1.5) scale(1)"><path fill="#d62828" d="M1 0h2v1h-2zm-1 1h3v1h-3zm0 1h2v1h-2z"/></g></g></g><g transform="translate(97 6)"><g class="lp-drift" style="animation-duration:8.01s;animation-delay:-4.89s"><g transform="translate(-1.5 -1.5) scale(1)"><path fill="#d62828" d="M1 0h2v1h-2zm-1 1h3v1h-3zm0 1h2v1h-2z"/></g></g></g><g transform="translate(39.9 6)"><g class="lp-drift" style="animation-duration:9.52s;animation-delay:-8.28s"><g transform="translate(-1.5 -1.5) scale(1)"><path fill="#e9c46a" d="M1 0h2v1h-2zm-1 1h3v1h-3zm0 1h2v1h-2z"/></g></g></g><g transform="translate(53.3 6)"><g class="lp-drift" style="animation-duration:10.25s;animation-delay:-6.32s"><g transform="translate(-1.5 -1.5) scale(1)"><path fill="#e9c46a" d="M1 0h2v1h-2zm-1 1h3v1h-3zm0 1h2v1h-2z"/></g></g></g></g></g><text x="80" y="171" text-anchor="middle" class="lp-mini-name">Ruli</text><text x="80" y="185" text-anchor="middle" class="lp-mini-sub">Lv.21 · 😊 happy</text></svg>