<svg xmlns="http://www.w3.org/2000/svg" width="160" height="192" viewBox="0 0 160 192" role="img" aria-labelledby="lp4v043u-t lp4v043u-d"><title id="lp4v043u-t">Ruli the Cheerful 😊 octo-org/demo</title><desc id="lp4v043u-d">Ruli the Cheerful: Lv.21 (Silver) Adult Ice Penguin, happy. Fullness 91%, Health 100%, Joy 85%, Energy 44%, Hygiene 60%. “#17 is lonely. 9 days and no reply 👀”</desc><style>svg{--lp-bg:#ffffff;--lp-border:#e3e8ef;--lp-text:#1f2430;--lp-muted:#6b7385;--lp-bubble:#f5f7fb;--lp-bubble-border:#d5dbe7;--lp-track:#e6eaf1;--lp-shadow:rgba(0,0,0,.16);--lp-logo:#0f8a7e;--lp-sky1:#9ad9ff;--lp-sky2:#e4f6ff;--lp-g1:#f3dc96;--lp-g2:#e3c472;--lp-water:#3fa7e0;--lp-water2:#e4f7ff;--lp-far:#7fbf8f;--lp-mid:#86c49a}.lp-night{display:none}.lp-card{fill:var(--lp-bg);stroke:var(--lp-border)}.lp-sky1{stop-color:var(--lp-sky1)}.lp-sky2{stop-color:var(--lp-sky2)}.lp-ground{fill:var(--lp-g1)}.lp-ground2{fill:var(--lp-g2)}.lp-shadow{fill:var(--lp-shadow)}.lp-px{shape-rendering:crispEdges}.lp-name{font:700 16px ui-monospace,SFMono-Regular,'SF Mono',Menlo,Consolas,'Liberation Mono',monospace;fill:var(--lp-text)}.lp-sub{font:400 11px ui-monospace,SFMono-Regular,'SF Mono',Menlo,Consolas,'Liberation Mono',monospace;fill:var(--lp-muted)}.lp-say{font:400 11.5px ui-monospace,SFMono-Regular,'SF Mono',Menlo,Consolas,'Liberation Mono',monospace;fill:var(--lp-text)}.lp-label{font:400 11px ui-monospace,SFMono-Regular,'SF Mono',Menlo,Consolas,'Liberation Mono',monospace;fill:var(--lp-muted)}.lp-val{font:700 11px ui-monospace,SFMono-Regular,'SF Mono',Menlo,Consolas,'Liberation Mono',monospace;fill:var(--lp-text)}.lp-icon{font:400 11px ui-monospace,SFMono-Regular,'SF Mono',Menlo,Consolas,'Liberation Mono',monospace}.lp-trophy{font:400 14px ui-monospace,SFMono-Regular,'SF Mono',Menlo,Consolas,'Liberation Mono',monospace}.lp-foot{font:400 9.5px ui-monospace,SFMono-Regular,'SF Mono',Menlo,Consolas,'Liberation Mono',monospace;fill:var(--lp-muted)}.lp-brand{font:700 9.5px ui-monospace,SFMono-Regular,'SF Mono',Menlo,Consolas,'Liberation Mono',monospace;fill:var(--lp-muted)}.lp-logo{fill:var(--lp-logo);shape-rendering:crispEdges}.lp-mini-name{font:700 12px ui-monospace,SFMono-Regular,'SF Mono',Menlo,Consolas,'Liberation Mono',monospace;fill:var(--lp-text)}.lp-tag{font:700 11px ui-monospace,SFMono-Regular,'SF Mono',Menlo,Consolas,'Liberation Mono',monospace;fill:var(--lp-text)}.lp-tag-sub{font:400 9.5px ui-monospace,SFMono-Regular,'SF Mono',Menlo,Consolas,'Liberation Mono',monospace;fill:var(--lp-muted)}.lp-mini-sub{font:400 9.5px ui-monospace,SFMono-Regular,'SF Mono',Menlo,Consolas,'Liberation Mono',monospace;fill:var(--lp-muted)}.lp-z{font:700 12px ui-monospace,SFMono-Regular,'SF Mono',Menlo,Consolas,'Liberation Mono',monospace;fill:var(--lp-text)}.lp-bit{font:700 10px ui-monospace,SFMono-Regular,'SF Mono',Menlo,Consolas,'Liberation Mono',monospace;fill:#3fb950}.lp-bubble,.lp-thought{fill:var(--lp-bubble);stroke:var(--lp-bubble-border)}.lp-tail{fill:var(--lp-bubble);stroke:var(--lp-bubble-border);stroke-linejoin:round}.lp-seg,.lp-track{fill:var(--lp-track)}.lp-good{fill:#3fb950}.lp-mid{fill:#e3b341}.lp-low{fill:#f85149}.lp-xp{fill:#a371f7}.lp-ink{fill:var(--lp-text)}.lp-fly{fill:var(--lp-text)}.lp-star{fill:#fff8d6}.lp-snow{fill:#ffffff}.lp-raindrop{fill:#5ec8ff}.lp-firefly{fill:#fff59d}.lp-string{fill:#5a1e1e}.lp-far{fill:var(--lp-far)}.lp-mid{fill:var(--lp-mid)}.lp-water{fill:var(--lp-water)}.lp-water2{fill:var(--lp-water2)}.lp-ripple-line{stroke:var(--lp-water2)}.lp-sea{fill:var(--lp-water);opacity:.38}.lp-bubble-c{fill:none;stroke:#e4f7ff;stroke-width:1;opacity:.85}.lp-bounce{animation:lp-bounce 2s ease-in-out infinite}.lp-hop{animation:lp-hop 1s ease-in-out infinite}.lp-breathe{animation:lp-breathe 4s ease-in-out infinite}.lp-sway{animation:lp-sway 3s ease-in-out infinite}.lp-shiver{animation:lp-shiver .35s linear infinite}.lp-wobble{animation:lp-wobble 3s ease-in-out infinite}.lp-growl{animation:lp-growl 3s linear infinite}.lp-blink-open{animation:lp-blink-open 4s infinite}.lp-blink-closed{opacity:0;animation:lp-blink-closed 4s infinite}.lp-rise{animation:lp-rise 3s ease-out infinite both}.lp-zz{animation:lp-zz 3s ease-out infinite both}.lp-fall{animation:lp-fall 3s linear infinite}.lp-drift{animation:lp-drift 9s linear infinite}.lp-drip{animation:lp-drip 1.6s ease-in infinite both}.lp-orbit{animation:lp-orbit 2.4s linear infinite}.lp-twinkle{animation:lp-twinkle 2s ease-in-out infinite both}.lp-burst{animation:lp-burst 2.4s ease-out infinite both}.lp-float{animation:lp-float 3s ease-in-out infinite}.lp-swing{animation:lp-swing 3s ease-in-out infinite}.lp-cloud{animation:lp-cloud 14s ease-in-out infinite alternate}.lp-alert{animation:lp-alert 1.2s steps(2) infinite}.lp-flap{animation:lp-flap .5s steps(1) infinite}.lp-fly{animation:lp-fly 16s linear infinite}.lp-flutter{animation:lp-flutter 6s ease-in-out infinite}.lp-sway-soft{animation:lp-sway-soft 5s ease-in-out infinite}.lp-kelp{animation:lp-kelp 4s ease-in-out infinite}.lp-spin{animation:lp-orbit 6s linear infinite}.lp-mist{animation:lp-mist 9s ease-in-out infinite}.lp-shoot{animation:lp-shoot 8s linear infinite}.lp-aurora{animation:lp-aurora 6s ease-in-out infinite}.lp-rainbow{animation:lp-rainbow 5s ease-in-out infinite}.lp-wave{animation:lp-wave 3s ease-in-out infinite}.lp-tide{animation:lp-tide 4s ease-in-out infinite}.lp-ripple{animation:lp-ripple 3s ease-out infinite both}.lp-bubbling{animation:lp-bubble 5s ease-in infinite both}.lp-swim{animation:lp-swim 14s linear infinite}.lp-roll{animation:lp-roll 9s linear infinite}.lp-ray{animation:lp-ray 5s ease-in-out infinite}.lp-flow{animation:lp-flow 1s linear infinite both}.lp-glow{animation:lp-glow 2s ease-in-out infinite}.lp-haze{animation:lp-haze 2.2s ease-in-out infinite}.lp-flag{animation:lp-flag 1.8s ease-in-out infinite}.lp-bulb{animation:lp-bulb 1.2s steps(1) infinite}.lp-twinkle-soft{animation:lp-twinkle-soft 2.5s ease-in-out infinite}.lp-new{animation:lp-float 1.6s ease-in-out infinite}.lp-lvup{font:700 11px ui-monospace,SFMono-Regular,'SF Mono',Menlo,Consolas,'Liberation Mono',monospace;stroke:#3d2c00;stroke-width:2.5px;paint-order:stroke;stroke-linejoin:round}.lp-aura{opacity:.8;animation:lp-aura 1.1s ease-in-out infinite}.lp-pal-fly{animation:lp-pal-fly 3.4s ease-in-out infinite}.lp-pal-hop{animation:lp-pal-hop 1.6s ease-in-out infinite}.lp-quest{font:700 11px ui-monospace,SFMono-Regular,'SF Mono',Menlo,Consolas,'Liberation Mono',monospace;fill:var(--lp-muted)}.lp-more{font:700 10px ui-monospace,SFMono-Regular,'SF Mono',Menlo,Consolas,'Liberation Mono',monospace;fill:var(--lp-muted)}@keyframes lp-pal-fly{0%,100%{transform:translate(0,0)}25%{transform:translate(2px,-4px)}50%{transform:translate(0,-6px)}75%{transform:translate(-2px,-3px)}}@keyframes lp-pal-hop{0%,55%,100%{transform:translateY(0)}25%{transform:translateY(-5px)}}@keyframes lp-aura{0%,100%{opacity:.45}50%{opacity:.95}}@keyframes lp-bounce{0%,100%{transform:translateY(0)}50%{transform:translateY(-5px)}}@keyframes lp-hop{0%,100%{transform:translateY(0)}35%{transform:translateY(-14px)}55%{transform:translateY(0)}65%{transform:translateY(-3px)}}@keyframes lp-breathe{0%,100%{transform:scale(1,1)}50%{transform:scale(1.04,.96)}}@keyframes lp-sway{0%,100%{transform:rotate(-5deg)}50%{transform:rotate(5deg)}}@keyframes lp-shiver{0%,100%{transform:translateX(0)}25%{transform:translateX(-1.5px)}75%{transform:translateX(1.5px)}}@keyframes lp-wobble{0%,60%,100%{transform:rotate(0)}68%{transform:rotate(-9deg)}78%{transform:rotate(8deg)}88%{transform:rotate(-4deg)}}@keyframes lp-growl{0%,78%,100%{transform:translateX(0)}82%{transform:translateX(-2px)}86%{transform:translateX(2px)}90%{transform:translateX(-2px)}94%{transform:translateX(1px)}}@keyframes lp-blink-open{0%,93%,100%{opacity:1}94%,98%{opacity:0}}@keyframes lp-blink-closed{0%,93%,100%{opacity:0}94%,98%{opacity:1}}@keyframes lp-rise{0%{transform:translateY(0);opacity:0}20%{opacity:1}100%{transform:translateY(-34px);opacity:0}}@keyframes lp-zz{0%{transform:translate(0,0);opacity:0}20%{opacity:1}100%{transform:translate(10px,-26px);opacity:0}}@keyframes lp-fall{0%{transform:translateY(-20px) rotate(0)}100%{transform:translateY(260px) rotate(540deg)}}@keyframes lp-drift{0%{transform:translate(0,-20px) rotate(0)}50%{transform:translate(14px,110px) rotate(160deg)}100%{transform:translate(-8px,260px) rotate(340deg)}}@keyframes lp-drip{0%{transform:translateY(0);opacity:0}15%{opacity:1}100%{transform:translateY(16px);opacity:0}}@keyframes lp-orbit{to{transform:rotate(360deg)}}@keyframes lp-twinkle{0%,100%{opacity:.15}50%{opacity:1}}@keyframes lp-burst{0%{transform:scale(.1);opacity:0}10%{opacity:1}70%{opacity:.9}100%{transform:scale(1.3);opacity:0}}@keyframes lp-float{0%,100%{transform:translateY(0)}50%{transform:translateY(-3px)}}@keyframes lp-swing{0%,100%{transform:rotate(-6deg)}50%{transform:rotate(6deg)}}@keyframes lp-cloud{from{transform:translateX(-6px)}to{transform:translateX(10px)}}@keyframes lp-alert{0%{opacity:1}50%{opacity:.35}}@keyframes lp-flap{0%{opacity:1}50%{opacity:0}}@keyframes lp-fly{from{transform:translate(-40px,0)}50%{transform:translate(130px,-8px)}to{transform:translate(300px,4px)}}@keyframes lp-flutter{0%,100%{transform:translate(0,0)}25%{transform:translate(14px,-9px)}50%{transform:translate(24px,1px)}75%{transform:translate(9px,7px)}}@keyframes lp-sway-soft{0%,100%{transform:rotate(-2deg)}50%{transform:rotate(2deg)}}@keyframes lp-kelp{0%,100%{transform:skewX(-9deg)}50%{transform:skewX(9deg)}}@keyframes lp-mist{0%,100%{transform:translateX(-14px)}50%{transform:translateX(14px)}}@keyframes lp-shoot{0%,86%{transform:translate(0,0);opacity:0}88%{opacity:1}100%{transform:translate(-70px,36px);opacity:0}}@keyframes lp-aurora{0%,100%{opacity:.1;transform:translateY(0)}50%{opacity:.5;transform:translateY(3px)}}@keyframes lp-rainbow{0%,100%{opacity:.25}50%{opacity:.6}}@keyframes lp-wave{0%,100%{transform:translateX(0)}50%{transform:translateX(-7px)}}@keyframes lp-tide{0%,100%{transform:translateY(0);opacity:.2}50%{transform:translateY(4px);opacity:.9}}@keyframes lp-ripple{0%{transform:scale(.2);opacity:.9}100%{transform:scale(1.5);opacity:0}}@keyframes lp-bubble{0%{transform:translate(0,0);opacity:0}10%{opacity:.9}50%{transform:translate(4px,-80px)}100%{transform:translate(-3px,-170px);opacity:0}}@keyframes lp-swim{from{transform:translateX(0)}50%{transform:translate(-160px,-6px)}to{transform:translateX(-340px)}}@keyframes lp-roll{0%{transform:translate(0,0)}20%{transform:translate(60px,-6px)}25%{transform:translate(75px,0)}55%{transform:translate(165px,-8px)}60%{transform:translate(180px,0)}100%{transform:translate(300px,0)}}@keyframes lp-ray{0%,100%{opacity:.04}50%{opacity:.2}}@keyframes lp-flow{0%{transform:translateY(-4px);opacity:0}25%{opacity:1}100%{transform:translateY(24px);opacity:0}}@keyframes lp-glow{0%,100%{opacity:.55}50%{opacity:1}}@keyframes lp-haze{0%,100%{transform:scale(1,1);opacity:.15}50%{transform:scale(1,2.5);opacity:.4}}@keyframes lp-flag{0%,100%{transform:rotate(-8deg)}50%{transform:rotate(8deg)}}@keyframes lp-bulb{0%{opacity:1}50%{opacity:.25}}@keyframes lp-twinkle-soft{0%,100%{opacity:.75}50%{opacity:1}}@media (prefers-reduced-motion:reduce){*{animation-play-state:paused!important}}</style><defs><linearGradient id="lp4v043u-sky" x1="0" y1="0" x2="0" y2="1"><stop offset="0" class="lp-sky1"/><stop offset="1" class="lp-sky2"/></linearGradient><clipPath id="lp4v043u-clip"><rect x="6" y="6" width="148" height="148" rx="12"/></clipPath></defs><rect x="0.5" y="0.5" width="159" height="191" rx="16" class="lp-card"/><g clip-path="url(#lp4v043u-clip)"><rect x="6" y="6" width="148" height="148" fill="url(#lp4v043u-sky)"/><g class="lp-day lp-px"><g transform="translate(17.8 17.8)"><g class="lp-cloud" style="animation-duration:11.27s"><g transform="translate(0 0) scale(2)"><path fill="#ffffffd9" d="M3 0h3v1h-3zm-2 1h7v1h-7zm-1 1h9v1h-9zm1 1h7v1h-7z"/></g></g></g><g transform="translate(87.4 35.6)"><g class="lp-cloud" style="animation-duration:13.26s"><g transform="translate(0 0) scale(2)"><path fill="#ffffffd9" d="M3 0h3v1h-3zm-2 1h7v1h-7zm-1 1h9v1h-9zm1 1h7v1h-7z"/></g></g></g></g><g class="lp-night lp-px"><g transform="translate(132 16) scale(2)"><path fill="#fff3b0" d="M2 0h3v1h-3zm-1 1h2v1h-2zm-1 1h2v2h-2zm1 2h2v1h-2zm1 1h3v1h-3z"/></g><rect x="50.8" y="18.2" width="2" height="2" class="lp-star lp-twinkle" style="animation-duration:3.17s;animation-delay:-2.28s"/><rect x="100.1" y="27.9" width="2" height="2" class="lp-star lp-twinkle" style="animation-duration:1.82s;animation-delay:-0.02s"/><rect x="102.7" y="16.7" width="2" height="2" class="lp-star lp-twinkle" style="animation-duration:3.07s;animation-delay:-2.60s"/><rect x="72.3" y="60.1" width="2" height="2" class="lp-star lp-twinkle" style="animation-duration:2.17s;animation-delay:-0.67s"/><rect x="35.4" y="67.7" width="2" height="2" class="lp-star lp-twinkle" style="animation-duration:1.98s;animation-delay:-1.43s"/><rect x="41.7" y="13.1" width="2" height="2" class="lp-star lp-twinkle" style="animation-duration:1.90s;animation-delay:-2.84s"/><rect x="72.4" y="55.8" width="2" height="2" class="lp-star lp-twinkle" style="animation-duration:2.28s;animation-delay:-1.62s"/></g><g class="lp-night"><g transform="translate(91 28.5)"><g class="lp-shoot" style="animation-duration:8.70s;animation-delay:-6.46s"><rect x="0" y="0" width="14" height="1.5" fill="#fff8d6" transform="rotate(-27)"/><rect x="-1" y="-1" width="3" height="3" fill="#ffffff"/></g></g></g><g class="lp-day lp-px"><g transform="translate(-44.8 31.3)"><g class="lp-fly" style="animation-duration:15.54s;animation-delay:-5.71s"><g class="lp-flap" style="animation-duration:0.54s;animation-delay:-0.00s"><g transform="translate(-2.5 0) scale(1)"><path fill="#ffffff" d="M0 0h1v1h-1zm4 0h1v1h-1zm-3 1h1v1h-1zm2 0h1v1h-1zm-1 1h1v1h-1z"/></g></g><g class="lp-flap" style="animation-duration:0.54s;animation-delay:-0.27s"><g transform="translate(-2.5 0) scale(1)"><path fill="#ffffff" d="M2 0h1v1h-1zm-1 1h1v1h-1zm2 0h1v1h-1zm-3 1h1v1h-1zm4 0h1v1h-1z"/></g></g></g></g><g transform="translate(-35.5 31.5)"><g class="lp-fly" style="animation-duration:14.54s;animation-delay:-12.95s"><g class="lp-flap" style="animation-duration:0.57s;animation-delay:-0.00s"><g transform="translate(-2.5 0) scale(1)"><path fill="#ffffff" d="M0 0h1v1h-1zm4 0h1v1h-1zm-3 1h1v1h-1zm2 0h1v1h-1zm-1 1h1v1h-1z"/></g></g><g class="lp-flap" style="animation-duration:0.57s;animation-delay:-0.28s"><g transform="translate(-2.5 0) scale(1)"><path fill="#ffffff" d="M2 0h1v1h-1zm-1 1h1v1h-1zm2 0h1v1h-1zm-3 1h1v1h-1zm4 0h1v1h-1z"/></g></g></g></g></g><g class="lp-px"><path opacity=".8" d="M6 101V98H10V94H14V94H18V96H22V96H26V100H30V100H34V96H38V96H42V96H46V94H50V96H54V98H58V98H62V100H66V98H70V94H74V96H78V94H82V96H86V100H90V98H94V98H98V98H102V96H106V94H110V96H114V96H118V98H122V100H126V98H130V98H134V96H138V94H142V96H146V98H150V98H154V101Z" class="lp-mid"/><rect x="6" y="101" width="148" height="27" class="lp-water"/><g transform="translate(0 104)"><g class="lp-wave" style="animation-duration:2.40s;animation-delay:-0.00s"><rect x="-4" y="0" width="5" height="1.5" class="lp-water2"/><rect x="10" y="0" width="5" height="1.5" class="lp-water2"/><rect x="24" y="0" width="5" height="1.5" class="lp-water2"/><rect x="38" y="0" width="5" height="1.5" class="lp-water2"/><rect x="52" y="0" width="5" height="1.5" class="lp-water2"/><rect x="66" y="0" width="5" height="1.5" class="lp-water2"/><rect x="80" y="0" width="5" height="1.5" class="lp-water2"/><rect x="94" y="0" width="5" height="1.5" class="lp-water2"/><rect x="108" y="0" width="5" height="1.5" class="lp-water2"/><rect x="122" y="0" width="5" height="1.5" class="lp-water2"/><rect x="136" y="0" width="5" height="1.5" class="lp-water2"/><rect x="150" y="0" width="5" height="1.5" class="lp-water2"/></g></g><g transform="translate(0 111.8)"><g class="lp-wave" style="animation-duration:3.00s;animation-delay:-1.00s"><rect x="2" y="0" width="5" height="1.5" class="lp-water2"/><rect x="16" y="0" width="5" height="1.5" class="lp-water2"/><rect x="30" y="0" width="5" height="1.5" class="lp-water2"/><rect x="44" y="0" width="5" height="1.5" class="lp-water2"/><rect x="58" y="0" width="5" height="1.5" class="lp-water2"/><rect x="72" y="0" width="5" height="1.5" class="lp-water2"/><rect x="86" y="0" width="5" height="1.5" class="lp-water2"/><rect x="100" y="0" width="5" height="1.5" class="lp-water2"/><rect x="114" y="0" width="5" height="1.5" class="lp-water2"/><rect x="128" y="0" width="5" height="1.5" class="lp-water2"/><rect x="142" y="0" width="5" height="1.5" class="lp-water2"/><rect x="156" y="0" width="5" height="1.5" class="lp-water2"/></g></g><g transform="translate(0 119.6)"><g class="lp-wave" style="animation-duration:3.60s;animation-delay:-2.00s"><rect x="8" y="0" width="5" height="1.5" class="lp-water2"/><rect x="22" y="0" width="5" height="1.5" class="lp-water2"/><rect x="36" y="0" width="5" height="1.5" class="lp-water2"/><rect x="50" y="0" width="5" height="1.5" class="lp-water2"/><rect x="64" y="0" width="5" height="1.5" class="lp-water2"/><rect x="78" y="0" width="5" height="1.5" class="lp-water2"/><rect x="92" y="0" width="5" height="1.5" class="lp-water2"/><rect x="106" y="0" width="5" height="1.5" class="lp-water2"/><rect x="120" y="0" width="5" height="1.5" class="lp-water2"/><rect x="134" y="0" width="5" height="1.5" class="lp-water2"/><rect x="148" y="0" width="5" height="1.5" class="lp-water2"/><rect x="162" y="0" width="5" height="1.5" class="lp-water2"/></g></g><rect x="87.9" y="123.4" width="2" height="2" fill="#ffffff" class="lp-twinkle" style="animation-duration:2.11s;animation-delay:-0.78s"/><rect x="91" y="107.6" width="2" height="2" fill="#ffffff" class="lp-twinkle" style="animation-duration:1.74s;animation-delay:-1.78s"/><rect x="101.7" y="120.3" width="2" height="2" fill="#ffffff" class="lp-twinkle" style="animation-duration:2.28s;animation-delay:-0.31s"/><rect x="66.2" y="106.5" width="2" height="2" fill="#ffffff" class="lp-twinkle" style="animation-duration:2.05s;animation-delay:-0.30s"/><rect x="98.1" y="113" width="2" height="2" fill="#ffffff" class="lp-twinkle" style="animation-duration:2.36s;animation-delay:-0.33s"/><g transform="translate(6 126)"><g class="lp-tide" style="animation-duration:4.00s;animation-delay:-0.00s"><rect x="0" y="-1" width="148" height="3" fill="#ffffff" opacity=".7"/></g></g></g><g class="lp-px"><rect x="6" y="126" width="148" height="28" class="lp-ground"/><rect x="6" y="126" width="148" height="2" class="lp-ground2"/><rect x="128.9" y="141" width="3" height="2" class="lp-ground2"/><rect x="80.2" y="136.9" width="3" height="2" class="lp-ground2"/><rect x="115.8" y="138.5" width="3" height="2" class="lp-ground2"/></g><g class="lp-px"><g transform="translate(136.2 130)"><g class="lp-sway-soft lp-prop" style="animation-duration:4.50s;animation-delay:-0.00s"><g transform="translate(-14 -28) scale(2)"><path fill="#3fa34d" d="M2 0h2v1h-2zm7 0h2v1h-2zm-8 1h4v1h-4zm7 0h4v1h-4zm-8 1h2v1h-2zm4 0h2v1h-2zm3 0h2v1h-2zm4 0h3v1h-3zm-11 1h1v1h-1zm3 0h1v1h-1zm2 0h1v1h-1zm2 0h4v1h-4zm6 0h1v1h-1zm-11 1h1v1h-1zm6 0h1v1h-1zm3 0h1v1h-1zm-10 1h1v1h-1zm11 0h1v1h-1z"/><path fill="#2d7a3a" d="M6 2h1v1h-1zm3 0h1v1h-1zm-5 1h1v1h-1z"/><path fill="#6b3f1d" d="M6 3h1v1h-1zm-1 1h1v1h-1zm2 0h1v1h-1z"/><path fill="#a0703f" d="M6 4h1v3h-1zm0 3h2v1h-2zm1 1h1v2h-1zm0 2h2v1h-2zm1 1h1v2h-1zm-1 2h3v1h-3z"/></g></g></g><g transform="translate(9 130)"><g class="lp-prop"><g transform="translate(0 -12) scale(1.5)"><path fill="#e3b866" d="M0 0h1v1h-1zm2 0h1v1h-1zm2 0h1v1h-1zm-4 1h5v1h-5zm6 0h1v2h-1zm-6 1h1v1h-1zm2 0h3v1h-3zm-2 1h7v1h-7zm0 1h2v1h-2zm3 0h4v1h-4zm-3 1h7v1h-7z"/><path fill="#a07a3a" d="M1 2h1v1h-1zm1 2h1v1h-1z"/></g></g></g><g transform="translate(126.3 143.9)"><g class="lp-prop"><g transform="translate(0 0) scale(1)"><path fill="#ffd9e6" d="M1 0h2v1h-2zm-1 1h1v1h-1zm2 0h2v1h-2zm-2 1h4v1h-4z"/><path fill="#ff9ab8" d="M1 1h1v1h-1z"/></g></g></g><g transform="translate(37.9 142.5)"><g class="lp-prop"><g transform="translate(0 0) scale(1)"><path fill="#ff8c69" d="M2 0h1v1h-1zm-2 1h5v1h-5zm1 1h3v1h-3zm-1 1h1v1h-1zm4 0h1v1h-1z"/></g></g></g></g><g class="lp-px"><g transform="translate(118 124) scale(2)"><path fill="#c47a3a" d="M3 0h1v1h-1zm2 0h1v1h-1zm2 0h2v1h-2zm-6 1h1v1h-1zm2 0h2v1h-2zm3 0h1v1h-1zm2 0h1v1h-1zm2 0h1v1h-1z"/><path fill="#e8a35e" d="M4 0h1v1h-1zm2 0h1v1h-1zm-4 1h1v1h-1zm3 0h1v1h-1zm2 0h1v1h-1zm2 0h1v1h-1z"/><path fill="#1b3a5c" d="M0 2h12v1h-12zm1 1h1v1h-1zm9 0h1v1h-1zm-8 1h8v1h-8z"/><path fill="#5ec8ff" d="M2 3h8v1h-8z"/></g></g><ellipse cx="68" cy="131" rx="30" ry="3" class="lp-shadow"/><g transform="translate(68 132)"><style>@keyframes lp-mv-slide{0%,76%,100%{transform:translate(0,0) rotate(0) scale(1,1) skewX(0)}80%{transform:translate(0,2px) rotate(-35deg) scale(1.08,.86) skewX(0)}87%{transform:translate(-16px,2px) rotate(-35deg) scale(1.08,.86) skewX(0)}90%{transform:translate(-16px,-6px) rotate(0) scale(1,1) skewX(0)}96%{transform:translate(0,0) rotate(0) scale(1,1) skewX(0)}}.lp-mv-slide{animation:lp-mv-slide 7s ease-in-out infinite}</style><g class="lp-mv-slide" style="animation-duration:7.00s;animation-delay:0.62s"><g class="lp-bounce" style="animation-duration:2.00s"><g transform="translate(-68 -132)" class="lp-px"><g transform="translate(28 57) scale(2.5)"><path fill="#0f1828" d="M10 2h12v1h-12zm-2 1h2v1h-2zm12 0h4v1h-4zm-14 1h3v1h-3zm14 0h6v1h-6zm-15 1h2v1h-2zm20 0h2v1h-2zm-21 1h3v1h-3zm21 0h3v1h-3zm-22 1h2v1h-2zm24 0h2v1h-2zm-25 1h3v1h-3zm25 0h3v1h-3zm-25 1h1v11h-1zm27 0h1v11h-1zm-28 11h2v2h-2zm28 0h2v2h-2zm-29 2h6v2h-6zm26 0h6v2h-6zm-26 2h1v4h-1zm4 0h2v5h-2zm22 0h2v5h-2zm5 0h1v4h-1zm-30 4h1v1h-1zm29 0h1v1h-1zm-28 1h6v1h-6zm12 0h4v1h-4zm10 0h6v1h-6z"/><path fill="#7093be" d="M10 3h1v1h-1zm-1 1h5v2h-5zm-2 1h1v2h-1zm-2 2h2v1h-2zm0 1h1v1h-1zm-2 1h2v1h-2zm-2 15h2v1h-2zm27 0h2v1h-2z"/><path fill="#5f7fb3" d="M11 3h3v1h-3zm19 21h1v1h-1zm-29 1h2v1h-2zm27 0h3v1h-3z"/><path fill="#34507f" d="M14 3h5v1h-5zm4 1h1v1h-1zm-1 1h7v1h-7zm-6 1h10v1h-10zm12 0h1v1h-1zm-13 1h16v1h-16zm2 1h8v1h-8zm11 0h3v1h-3zm-9 1h4v1h-4zm10 0h5v1h-5zm-21 1h1v1h-1zm22 0h2v1h-2zm-22 1h3v6h-3zm23 0h1v1h-1zm-23 6h4v1h-4zm22 0h1v1h-1zm-19 1h2v2h-2zm18 0h2v1h-2zm-18 6h2v3h-2z"/><path fill="#28396b" d="M19 3h1v2h-1zm5 2h1v2h-1zm2 2h1v2h-1zm1 3h1v2h-1zm-1 2h1v6h-1zm-2 7h2v1h-2zm-18 8h2v1h-2z"/><path fill="#48618b" d="M14 4h4v1h-4zm-6 1h1v1h-1zm6 0h3v1h-3zm-6 1h3v1h-3zm13 0h2v1h-2zm-14 1h3v1h-3zm-1 1h3v1h-3zm-1 1h3v1h-3zm-1 1h3v1h-3z"/><path fill="#f7f9fc" d="M9 8h3v1h-3zm11 0h3v1h-3zm-12 1h6v1h-6zm10 0h6v1h-6zm-11 1h18v1h-18zm-1 1h20v3h-20zm0 3h6v2h-6zm14 0h6v2h-6zm-10 2h4v1h-4zm8 0h4v1h-4zm-9 1h5v1h-5zm9 0h5v1h-5zm-10 1h16v2h-16zm0 6h12v1h-12zm0 1h7v1h-7zm8 0h4v1h-4zm-8 1h3v1h-3z"/><path fill="#1d1f54" d="M28 10h1v2h-1zm-1 2h2v6h-2zm-3 12h2v4h-2zm-18 4h1v1h-1zm19 0h1v1h-1z"/><path fill="#ffa53d" d="M12 14h8v2h-8z"/><path fill="#fcb9cb" d="M6 16h4v1h-4zm16 0h4v1h-4zm-15 1h2v1h-2zm16 0h2v1h-2z"/><path fill="#e07a12" d="M14 16h4v2h-4z"/><path fill="#233a60" d="M3 18h3v2h-3zm-2 8h2v1h-2zm27 0h2v3h-2z"/><path fill="#1c2952" d="M26 18h1v2h-1zm-23 8h1v1h-1zm-2 1h2v1h-2z"/><path fill="#141642" d="M27 18h2v2h-2zm3 8h1v2h-1zm-27 1h1v1h-1zm-1 1h2v1h-2z"/><path fill="#d0124c" d="M3 20h5v1h-5zm20 0h2v1h-2zm0 1h1v1h-1zm-3 5h2v2h-2z"/><path fill="#e8434f" d="M8 20h15v1h-15zm-1 1h16v1h-16zm13 3h2v2h-2z"/><path fill="#a6004b" d="M25 20h4v1h-4zm-22 1h4v1h-4zm21 0h5v1h-5z"/><path fill="#b02a3a" d="M6 22h17v2h-17zm16 2h1v2h-1z"/><path fill="#950036" d="M23 22h1v4h-1zm-1 4h2v1h-2zm0 1h1v1h-1z"/><path fill="#6c0031" d="M24 22h2v2h-2zm-1 5h1v1h-1z"/><path fill="#51669f" d="M3 24h1v2h-1z"/><path fill="#dae0eb" d="M15 25h1v1h-1zm-4 1h9v1h-9zm-3 1h5v1h-5zm10 0h2v1h-2z"/><path fill="#bac5d8" d="M13 27h5v1h-5zm2 1h2v1h-2z"/><path fill="#d86400" d="M7 28h8v1h-8zm10 0h8v1h-8zm-9 1h6v1h-6zm10 0h6v1h-6z"/></g><g class="lp-blink-open" style="animation-duration:3.29s"><g transform="translate(28 57) scale(2.5)"><path fill="#0f1828" d="M9 10h2v1h-2zm12 0h2v1h-2zm-13 1h1v1h-1zm2 0h2v1h-2zm10 0h1v1h-1zm2 0h2v1h-2zm-14 1h4v1h-4zm12 0h4v1h-4zm-12 1h1v1h-1zm3 0h1v1h-1zm9 0h1v1h-1zm3 0h1v1h-1zm-14 1h2v1h-2zm12 0h2v1h-2z"/><path fill="#ffffff" d="M9 11h1v1h-1zm12 0h1v1h-1z"/><path fill="#48505e" d="M9 13h2v1h-2zm12 0h2v1h-2z"/></g></g><g class="lp-blink-closed" style="animation-duration:3.29s"><g transform="translate(28 57) scale(2.5)"><path fill="#0f1828" d="M8 12h4v1h-4zm12 0h4v1h-4zm-11 1h2v1h-2zm12 0h2v1h-2z"/></g></g></g></g></g></g><g transform="translate(104.8 62)"><g class="lp-rise lp-px" style="animation-duration:3.60s;animation-delay:-0.00s"><g transform="translate(-4 -5) scale(1)"><path class="lp-ink" d="M2 0h2v1h-2zm0 1h1v2h-1zm-2 2h3v1h-3zm0 1h2v1h-2z"/></g></g></g><g transform="translate(26.4 57.8)"><g class="lp-rise lp-px" style="animation-duration:3.60s;animation-delay:-1.60s"><g transform="translate(-4 -5) scale(1)"><path class="lp-ink" d="M2 0h2v1h-2zm0 1h1v2h-1zm-2 2h3v1h-3zm0 1h2v1h-2z"/></g></g></g><g class="lp-px"><g transform="translate(101.3 6)"><g class="lp-drift" style="animation-duration:9.71s;animation-delay:-7.53s"><g transform="translate(-1.5 -1.5) scale(1)"><path fill="#e9c46a" d="M1 0h2v1h-2zm-1 1h3v1h-3zm0 1h2v1h-2z"/></g></g></g><g transform="translate(103.9 6)"><g class="lp-drift" style="animation-duration:9.25s;animation-delay:-7.11s"><g transform="translate(-1.5 -1.5) scale(1)"><path fill="#e9c46a" d="M1 0h2v1h-2zm-1 1h3v1h-3zm0 1h2v1h-2z"/></g></g></g><g transform="translate(56.4 6)"><g class="lp-drift" style="animation-duration:10.92s;animation-delay:-10.96s"><g transform="translate(-1.5 -1.5) scale(1)"><path fill="#e76f51" d="M1 0h2v1h-2zm-1 1h3v1h-3zm0 1h2v1h-2z"/></g></g></g><g transform="translate(114.7 6)"><g class="lp-drift" style="animation-duration:10.47s;animation-delay:-8.40s"><g transform="translate(-1.5 -1.5) scale(1)"><path fill="#e76f51" d="M1 0h2v1h-2zm-1 1h3v1h-3zm0 1h2v1h-2z"/></g></g></g><g transform="translate(92 6)"><g class="lp-drift" style="animation-duration:7.60s;animation-delay:-10.64s"><g transform="translate(-1.5 -1.5) scale(1)"><path fill="#e9c46a" d="M1 0h2v1h-2zm-1 1h3v1h-3zm0 1h2v1h-2z"/></g></g></g><g transform="translate(41.4 6)"><g class="lp-drift" style="animation-duration:9.84s;animation-delay:-2.51s"><g transform="translate(-1.5 -1.5) scale(1)"><path fill="#e9c46a" d="M1 0h2v1h-2zm-1 1h3v1h-3zm0 1h2v1h-2z"/></g></g></g></g></g><text x="80" y="171" text-anchor="middle" class="lp-mini-name">Ruli</text><text x="80" y="185" text-anchor="middle" class="lp-mini-sub">Lv.21 · 😊 happy</text></svg>