<svg xmlns="http://www.w3.org/2000/svg" width="160" height="192" viewBox="0 0 160 192" role="img" aria-labelledby="lp1ixzeh4-t lp1ixzeh4-d"><title id="lp1ixzeh4-t">Ruli the Undead 🧟 octo-org/demo</title><desc id="lp1ixzeh4-d">Ruli the Undead: Lv.21 Adult Cat, undead. Fullness 0%, Health 70%, Joy 92%, Energy 0%, Hygiene 30%. “Halloween is MY day. A commit would still be nice 🎃”</desc><style>svg{--lp-bg:#ffffff;--lp-border:#e3e8ef;--lp-text:#1f2430;--lp-muted:#6b7385;--lp-bubble:#f5f7fb;--lp-bubble-border:#d5dbe7;--lp-track:#e6eaf1;--lp-shadow:rgba(0,0,0,.16);--lp-sky1:#8c84a8;--lp-sky2:#cdc6dd;--lp-g1:#7c6a58;--lp-g2:#5f5043}.lp-night{display:none}.lp-card{fill:var(--lp-bg);stroke:var(--lp-border)}.lp-sky1{stop-color:var(--lp-sky1)}.lp-sky2{stop-color:var(--lp-sky2)}.lp-ground{fill:var(--lp-g1)}.lp-ground2{fill:var(--lp-g2)}.lp-shadow{fill:var(--lp-shadow)}.lp-px{shape-rendering:crispEdges}.lp-name{font:700 16px ui-monospace,SFMono-Regular,'SF Mono',Menlo,Consolas,'Liberation Mono',monospace;fill:var(--lp-text)}.lp-sub{font:400 11px ui-monospace,SFMono-Regular,'SF Mono',Menlo,Consolas,'Liberation Mono',monospace;fill:var(--lp-muted)}.lp-say{font:400 11.5px ui-monospace,SFMono-Regular,'SF Mono',Menlo,Consolas,'Liberation Mono',monospace;fill:var(--lp-text)}.lp-label{font:400 11px ui-monospace,SFMono-Regular,'SF Mono',Menlo,Consolas,'Liberation Mono',monospace;fill:var(--lp-muted)}.lp-val{font:700 11px ui-monospace,SFMono-Regular,'SF Mono',Menlo,Consolas,'Liberation Mono',monospace;fill:var(--lp-text)}.lp-icon{font:400 11px ui-monospace,SFMono-Regular,'SF Mono',Menlo,Consolas,'Liberation Mono',monospace}.lp-trophy{font:400 14px ui-monospace,SFMono-Regular,'SF Mono',Menlo,Consolas,'Liberation Mono',monospace}.lp-foot{font:400 9.5px ui-monospace,SFMono-Regular,'SF Mono',Menlo,Consolas,'Liberation Mono',monospace;fill:var(--lp-muted)}.lp-brand{font:700 9.5px ui-monospace,SFMono-Regular,'SF Mono',Menlo,Consolas,'Liberation Mono',monospace;fill:var(--lp-muted)}.lp-mini-name{font:700 12px ui-monospace,SFMono-Regular,'SF Mono',Menlo,Consolas,'Liberation Mono',monospace;fill:var(--lp-text)}.lp-tag{font:700 11px ui-monospace,SFMono-Regular,'SF Mono',Menlo,Consolas,'Liberation Mono',monospace;fill:var(--lp-text)}.lp-tag-sub{font:400 9.5px ui-monospace,SFMono-Regular,'SF Mono',Menlo,Consolas,'Liberation Mono',monospace;fill:var(--lp-muted)}.lp-mini-sub{font:400 9.5px ui-monospace,SFMono-Regular,'SF Mono',Menlo,Consolas,'Liberation Mono',monospace;fill:var(--lp-muted)}.lp-z{font:700 12px ui-monospace,SFMono-Regular,'SF Mono',Menlo,Consolas,'Liberation Mono',monospace;fill:var(--lp-text)}.lp-bit{font:700 10px ui-monospace,SFMono-Regular,'SF Mono',Menlo,Consolas,'Liberation Mono',monospace;fill:#3fb950}.lp-bubble,.lp-thought{fill:var(--lp-bubble);stroke:var(--lp-bubble-border)}.lp-tail{fill:var(--lp-bubble);stroke:var(--lp-bubble-border);stroke-linejoin:round}.lp-seg,.lp-track{fill:var(--lp-track)}.lp-good{fill:#3fb950}.lp-mid{fill:#e3b341}.lp-low{fill:#f85149}.lp-xp{fill:#a371f7}.lp-ink{fill:var(--lp-text)}.lp-fly{fill:var(--lp-text)}.lp-star{fill:#fff8d6}.lp-snow{fill:#ffffff}.lp-raindrop{fill:#5ec8ff}.lp-firefly{fill:#fff59d}.lp-string{fill:#5a1e1e}.lp-bounce{animation:lp-bounce 2s ease-in-out infinite}.lp-hop{animation:lp-hop 1s ease-in-out infinite}.lp-breathe{animation:lp-breathe 4s ease-in-out infinite}.lp-sway{animation:lp-sway 3s ease-in-out infinite}.lp-shiver{animation:lp-shiver .35s linear infinite}.lp-wobble{animation:lp-wobble 3s ease-in-out infinite}.lp-growl{animation:lp-growl 3s linear infinite}.lp-blink-open{animation:lp-blink-open 4s infinite}.lp-blink-closed{opacity:0;animation:lp-blink-closed 4s infinite}.lp-rise{animation:lp-rise 3s ease-out infinite both}.lp-zz{animation:lp-zz 3s ease-out infinite both}.lp-fall{animation:lp-fall 3s linear infinite}.lp-drift{animation:lp-drift 9s linear infinite}.lp-drip{animation:lp-drip 1.6s ease-in infinite both}.lp-orbit{animation:lp-orbit 2.4s linear infinite}.lp-twinkle{animation:lp-twinkle 2s ease-in-out infinite both}.lp-burst{animation:lp-burst 2.4s ease-out infinite both}.lp-float{animation:lp-float 3s ease-in-out infinite}.lp-swing{animation:lp-swing 3s ease-in-out infinite}.lp-cloud{animation:lp-cloud 14s ease-in-out infinite alternate}.lp-alert{animation:lp-alert 1.2s steps(2) infinite}.lp-new{animation:lp-float 1.6s ease-in-out infinite}@keyframes lp-bounce{0%,100%{transform:translateY(0)}50%{transform:translateY(-5px)}}@keyframes lp-hop{0%,100%{transform:translateY(0)}35%{transform:translateY(-14px)}55%{transform:translateY(0)}65%{transform:translateY(-3px)}}@keyframes lp-breathe{0%,100%{transform:scale(1,1)}50%{transform:scale(1.04,.96)}}@keyframes lp-sway{0%,100%{transform:rotate(-5deg)}50%{transform:rotate(5deg)}}@keyframes lp-shiver{0%,100%{transform:translateX(0)}25%{transform:translateX(-1.5px)}75%{transform:translateX(1.5px)}}@keyframes lp-wobble{0%,60%,100%{transform:rotate(0)}68%{transform:rotate(-9deg)}78%{transform:rotate(8deg)}88%{transform:rotate(-4deg)}}@keyframes lp-growl{0%,78%,100%{transform:translateX(0)}82%{transform:translateX(-2px)}86%{transform:translateX(2px)}90%{transform:translateX(-2px)}94%{transform:translateX(1px)}}@keyframes lp-blink-open{0%,93%,100%{opacity:1}94%,98%{opacity:0}}@keyframes lp-blink-closed{0%,93%,100%{opacity:0}94%,98%{opacity:1}}@keyframes lp-rise{0%{transform:translateY(0);opacity:0}20%{opacity:1}100%{transform:translateY(-34px);opacity:0}}@keyframes lp-zz{0%{transform:translate(0,0);opacity:0}20%{opacity:1}100%{transform:translate(10px,-26px);opacity:0}}@keyframes lp-fall{0%{transform:translateY(-20px) rotate(0)}100%{transform:translateY(260px) rotate(540deg)}}@keyframes lp-drift{0%{transform:translate(0,-20px) rotate(0)}50%{transform:translate(14px,110px) rotate(160deg)}100%{transform:translate(-8px,260px) rotate(340deg)}}@keyframes lp-drip{0%{transform:translateY(0);opacity:0}15%{opacity:1}100%{transform:translateY(16px);opacity:0}}@keyframes lp-orbit{to{transform:rotate(360deg)}}@keyframes lp-twinkle{0%,100%{opacity:.15}50%{opacity:1}}@keyframes lp-burst{0%{transform:scale(.1);opacity:0}10%{opacity:1}70%{opacity:.9}100%{transform:scale(1.3);opacity:0}}@keyframes lp-float{0%,100%{transform:translateY(0)}50%{transform:translateY(-3px)}}@keyframes lp-swing{0%,100%{transform:rotate(-6deg)}50%{transform:rotate(6deg)}}@keyframes lp-cloud{from{transform:translateX(-6px)}to{transform:translateX(10px)}}@keyframes lp-alert{0%{opacity:1}50%{opacity:.35}}@media (prefers-reduced-motion:reduce){*{animation:none!important}}</style><defs><linearGradient id="lp1ixzeh4-sky" x1="0" y1="0" x2="0" y2="1"><stop offset="0" class="lp-sky1"/><stop offset="1" class="lp-sky2"/></linearGradient><clipPath id="lp1ixzeh4-clip"><rect x="6" y="6" width="148" height="148" rx="12"/></clipPath></defs><rect x="0.5" y="0.5" width="159" height="191" rx="16" class="lp-card"/><g clip-path="url(#lp1ixzeh4-clip)"><rect x="6" y="6" width="148" height="148" fill="url(#lp1ixzeh4-sky)"/><g class="lp-day lp-px"><g transform="translate(17.8 17.8)"><g class="lp-cloud" style="animation-duration:11.27s"><rect x="6" y="0" width="6" height="2" fill="#ffffffd9"/><rect x="2" y="2" width="14" height="2" fill="#ffffffd9"/><rect x="0" y="4" width="18" height="2" fill="#ffffffd9"/><rect x="2" y="6" width="14" height="2" fill="#ffffffd9"/></g></g><g transform="translate(87.4 35.6)"><g class="lp-cloud" style="animation-duration:13.26s"><rect x="6" y="0" width="6" height="2" fill="#ffffffd9"/><rect x="2" y="2" width="14" height="2" fill="#ffffffd9"/><rect x="0" y="4" width="18" height="2" fill="#ffffffd9"/><rect x="2" y="6" width="14" height="2" fill="#ffffffd9"/></g></g></g><g class="lp-night lp-px"><rect x="136" y="16" width="6" height="2" fill="#fff3b0"/><rect x="134" y="18" width="4" height="2" fill="#fff3b0"/><rect x="132" y="20" width="4" height="2" fill="#fff3b0"/><rect x="132" y="22" width="4" height="2" fill="#fff3b0"/><rect x="134" y="24" width="4" height="2" fill="#fff3b0"/><rect x="136" y="26" width="6" height="2" fill="#fff3b0"/><rect x="50.8" y="18.2" width="2" height="2" class="lp-star lp-twinkle" style="animation-duration:3.17s;animation-delay:-2.28s"/><rect x="100.1" y="27.9" width="2" height="2" class="lp-star lp-twinkle" style="animation-duration:1.82s;animation-delay:-0.02s"/><rect x="102.7" y="16.7" width="2" height="2" class="lp-star lp-twinkle" style="animation-duration:3.07s;animation-delay:-2.60s"/><rect x="72.3" y="60.1" width="2" height="2" class="lp-star lp-twinkle" style="animation-duration:2.17s;animation-delay:-0.67s"/><rect x="35.4" y="67.7" width="2" height="2" class="lp-star lp-twinkle" style="animation-duration:1.98s;animation-delay:-1.43s"/><rect x="41.7" y="13.1" width="2" height="2" class="lp-star lp-twinkle" style="animation-duration:1.90s;animation-delay:-2.84s"/><rect x="72.4" y="55.8" width="2" height="2" class="lp-star lp-twinkle" style="animation-duration:2.28s;animation-delay:-1.62s"/></g><g class="lp-px"><rect x="6" y="126" width="148" height="28" class="lp-ground"/><rect x="6" y="126" width="148" height="2" class="lp-ground2"/><rect x="11" y="123" width="2" height="3" class="lp-ground2"/><rect x="14" y="121" width="2" height="5" class="lp-ground2"/><rect x="26" y="123" width="2" height="3" class="lp-ground2"/><rect x="29" y="121" width="2" height="5" class="lp-ground2"/><rect x="43" y="123" width="2" height="3" class="lp-ground2"/><rect x="46" y="121" width="2" height="5" class="lp-ground2"/><rect x="64" y="123" width="2" height="3" class="lp-ground2"/><rect x="67" y="121" width="2" height="5" class="lp-ground2"/><rect x="83" y="123" width="2" height="3" class="lp-ground2"/><rect x="86" y="121" width="2" height="5" class="lp-ground2"/><rect x="102" y="123" width="2" height="3" class="lp-ground2"/><rect x="105" y="121" width="2" height="5" class="lp-ground2"/><rect x="123" y="123" width="2" height="3" class="lp-ground2"/><rect x="126" y="121" width="2" height="5" class="lp-ground2"/><rect x="138" y="123" width="2" height="3" class="lp-ground2"/><rect x="141" y="121" width="2" height="5" class="lp-ground2"/><rect x="49.7" y="146.9" width="3" height="2" class="lp-ground2"/><rect x="28.2" y="140.3" width="3" height="2" class="lp-ground2"/><rect x="23.9" y="144.4" width="3" height="2" class="lp-ground2"/></g><g class="lp-px"><rect x="28" y="112" width="8" height="2" fill="#4a4f5c"/><rect x="26" y="114" width="2" height="2" fill="#4a4f5c"/><rect x="28" y="114" width="8" height="2" fill="#9aa0ae"/><rect x="36" y="114" width="2" height="2" fill="#4a4f5c"/><rect x="24" y="116" width="2" height="2" fill="#4a4f5c"/><rect x="26" y="116" width="12" height="2" fill="#9aa0ae"/><rect x="38" y="116" width="2" height="2" fill="#4a4f5c"/><rect x="24" y="118" width="2" height="2" fill="#4a4f5c"/><rect x="26" y="118" width="2" height="2" fill="#9aa0ae"/><rect x="28" y="118" width="8" height="2" fill="#4a4f5c"/><rect x="36" y="118" width="2" height="2" fill="#9aa0ae"/><rect x="38" y="118" width="2" height="2" fill="#4a4f5c"/><rect x="24" y="120" width="2" height="2" fill="#4a4f5c"/><rect x="26" y="120" width="12" height="2" fill="#9aa0ae"/><rect x="38" y="120" width="2" height="2" fill="#4a4f5c"/><rect x="24" y="122" width="2" height="2" fill="#4a4f5c"/><rect x="26" y="122" width="2" height="2" fill="#9aa0ae"/><rect x="28" y="122" width="4" height="2" fill="#4a4f5c"/><rect x="32" y="122" width="6" height="2" fill="#9aa0ae"/><rect x="38" y="122" width="2" height="2" fill="#4a4f5c"/><rect x="24" y="124" width="2" height="2" fill="#4a4f5c"/><rect x="26" y="124" width="12" height="2" fill="#9aa0ae"/><rect x="38" y="124" width="2" height="2" fill="#4a4f5c"/><rect x="24" y="126" width="2" height="2" fill="#4a4f5c"/><rect x="26" y="126" width="12" height="2" fill="#9aa0ae"/><rect x="38" y="126" width="2" height="2" fill="#4a4f5c"/><rect x="24" y="128" width="16" height="2" fill="#4a4f5c"/><rect x="15" y="118" width="2" height="2" fill="#3c8a4b"/><rect x="11" y="120" width="10" height="2" fill="#7a2e00"/><rect x="9" y="122" width="2" height="2" fill="#7a2e00"/><rect x="11" y="122" width="10" height="2" fill="#ff8c1a"/><rect x="21" y="122" width="2" height="2" fill="#7a2e00"/><rect x="9" y="124" width="2" height="2" fill="#7a2e00"/><rect x="11" y="124" width="2" height="2" fill="#ff8c1a"/><rect x="13" y="124" width="2" height="2" fill="#ffe066"/><rect x="15" y="124" width="2" height="2" fill="#ff8c1a"/><rect x="17" y="124" width="2" height="2" fill="#ffe066"/><rect x="19" y="124" width="2" height="2" fill="#ff8c1a"/><rect x="21" y="124" width="2" height="2" fill="#7a2e00"/><rect x="9" y="126" width="2" height="2" fill="#7a2e00"/><rect x="11" y="126" width="10" height="2" fill="#ff8c1a"/><rect x="21" y="126" width="2" height="2" fill="#7a2e00"/><rect x="9" y="128" width="2" height="2" fill="#7a2e00"/><rect x="11" y="128" width="2" height="2" fill="#ff8c1a"/><rect x="13" y="128" width="6" height="2" fill="#ffe066"/><rect x="19" y="128" width="2" height="2" fill="#ff8c1a"/><rect x="21" y="128" width="2" height="2" fill="#7a2e00"/><rect x="11" y="130" width="10" height="2" fill="#7a2e00"/></g><g class="lp-px"><rect x="118" y="128" width="24" height="2" fill="#1b3a5c"/><rect x="120" y="130" width="2" height="2" fill="#1b3a5c"/><rect x="122" y="130" width="16" height="2" fill="#5ec8ff"/><rect x="138" y="130" width="2" height="2" fill="#1b3a5c"/><rect x="122" y="132" width="16" height="2" fill="#1b3a5c"/></g><ellipse cx="68" cy="131" rx="30" ry="3" class="lp-shadow"/><g transform="translate(68 132)"><g class="lp-sway" style="animation-duration:3.20s"><g transform="translate(-68 -132)" class="lp-px"><rect x="33" y="62" width="10" height="5" fill="#5c5d48"/><rect x="93" y="62" width="10" height="5" fill="#5c5d48"/><rect x="33" y="67" width="5" height="5" fill="#5c5d48"/><rect x="38" y="67" width="5" height="5" fill="#b6a279"/><rect x="43" y="67" width="5" height="5" fill="#5c5d48"/><rect x="88" y="67" width="5" height="5" fill="#5c5d48"/><rect x="93" y="67" width="5" height="5" fill="#b6a279"/><rect x="98" y="67" width="5" height="5" fill="#5c5d48"/><rect x="33" y="72" width="5" height="5" fill="#5c5d48"/><rect x="38" y="72" width="5" height="5" fill="#c4aaa3"/><rect x="43" y="72" width="5" height="5" fill="#b6a279"/><rect x="48" y="72" width="5" height="5" fill="#5c5d48"/><rect x="83" y="72" width="5" height="5" fill="#5c5d48"/><rect x="88" y="72" width="5" height="5" fill="#b6a279"/><rect x="93" y="72" width="5" height="5" fill="#c4aaa3"/><rect x="98" y="72" width="5" height="5" fill="#5c5d48"/><rect x="33" y="77" width="5" height="5" fill="#5c5d48"/><rect x="38" y="77" width="15" height="5" fill="#b6a279"/><rect x="53" y="77" width="30" height="5" fill="#5c5d48"/><rect x="83" y="77" width="15" height="5" fill="#b6a279"/><rect x="98" y="77" width="5" height="5" fill="#5c5d48"/><rect x="33" y="82" width="5" height="5" fill="#5c5d48"/><rect x="38" y="82" width="20" height="5" fill="#b6a279"/><rect x="58" y="82" width="5" height="5" fill="#a69061"/><rect x="63" y="82" width="10" height="5" fill="#b6a279"/><rect x="73" y="82" width="5" height="5" fill="#a69061"/><rect x="78" y="82" width="20" height="5" fill="#b6a279"/><rect x="98" y="82" width="5" height="5" fill="#5c5d48"/><rect x="28" y="87" width="5" height="5" fill="#5c5d48"/><rect x="33" y="87" width="25" height="5" fill="#b6a279"/><rect x="58" y="87" width="5" height="5" fill="#a69061"/><rect x="63" y="87" width="10" height="5" fill="#b6a279"/><rect x="73" y="87" width="5" height="5" fill="#a69061"/><rect x="78" y="87" width="25" height="5" fill="#b6a279"/><rect x="103" y="87" width="5" height="5" fill="#5c5d48"/><rect x="28" y="92" width="5" height="5" fill="#5c5d48"/><rect x="33" y="92" width="70" height="5" fill="#b6a279"/><rect x="103" y="92" width="5" height="5" fill="#5c5d48"/><rect x="28" y="97" width="5" height="5" fill="#5c5d48"/><rect x="33" y="97" width="70" height="5" fill="#b6a279"/><rect x="103" y="97" width="5" height="5" fill="#5c5d48"/><rect x="28" y="102" width="5" height="5" fill="#5c5d48"/><rect x="33" y="102" width="70" height="5" fill="#b6a279"/><rect x="103" y="102" width="5" height="5" fill="#5c5d48"/><rect x="28" y="107" width="5" height="5" fill="#5c5d48"/><rect x="33" y="107" width="30" height="5" fill="#b6a279"/><rect x="63" y="107" width="5" height="5" fill="#5c5d48"/><rect x="68" y="107" width="5" height="5" fill="#b6a279"/><rect x="73" y="107" width="5" height="5" fill="#5c5d48"/><rect x="78" y="107" width="25" height="5" fill="#b6a279"/><rect x="103" y="107" width="5" height="5" fill="#5c5d48"/><rect x="33" y="112" width="5" height="5" fill="#5c5d48"/><rect x="38" y="112" width="20" height="5" fill="#b6a279"/><rect x="58" y="112" width="20" height="5" fill="#5c5d48"/><rect x="78" y="112" width="20" height="5" fill="#b6a279"/><rect x="98" y="112" width="5" height="5" fill="#5c5d48"/><rect x="38" y="117" width="5" height="5" fill="#5c5d48"/><rect x="43" y="117" width="10" height="5" fill="#b6a279"/><rect x="53" y="117" width="10" height="5" fill="#cacfbb"/><rect x="63" y="117" width="5" height="5" fill="#5c5d48"/><rect x="68" y="117" width="5" height="5" fill="#cacfbb"/><rect x="73" y="117" width="5" height="5" fill="#5c5d48"/><rect x="78" y="117" width="5" height="5" fill="#cacfbb"/><rect x="83" y="117" width="10" height="5" fill="#b6a279"/><rect x="93" y="117" width="5" height="5" fill="#5c5d48"/><rect x="38" y="122" width="5" height="5" fill="#5c5d48"/><rect x="43" y="122" width="5" height="5" fill="#b6a279"/><rect x="48" y="122" width="40" height="5" fill="#cacfbb"/><rect x="88" y="122" width="5" height="5" fill="#b6a279"/><rect x="93" y="122" width="5" height="5" fill="#5c5d48"/><rect x="38" y="127" width="60" height="5" fill="#5c5d48"/><rect x="48" y="97" width="10" height="5" fill="#e9f5c9"/><rect x="48" y="102" width="5" height="5" fill="#e9f5c9"/><rect x="53" y="102" width="5" height="5" fill="#5c5d48"/><rect x="78" y="102" width="10" height="5" fill="#5c5d48"/><rect x="68" y="57" width="10" height="5" fill="#1a1023"/><rect x="63" y="62" width="5" height="5" fill="#1a1023"/><rect x="68" y="62" width="10" height="5" fill="#3d2a5c"/><rect x="78" y="62" width="5" height="5" fill="#1a1023"/><rect x="58" y="67" width="5" height="5" fill="#1a1023"/><rect x="63" y="67" width="15" height="5" fill="#3d2a5c"/><rect x="78" y="67" width="5" height="5" fill="#1a1023"/><rect x="53" y="72" width="5" height="5" fill="#1a1023"/><rect x="58" y="72" width="25" height="5" fill="#b388ff"/><rect x="83" y="72" width="5" height="5" fill="#1a1023"/><rect x="43" y="77" width="50" height="5" fill="#1a1023"/></g></g></g><g transform="translate(68 67.6) scale(1 .42)"><g class="lp-orbit" style="animation-duration:1.80s;animation-direction:normal"><rect x="14" y="-3" width="3" height="4" class="lp-fly"/></g></g><g transform="translate(68 67.6) scale(1 .42)"><g class="lp-orbit" style="animation-duration:2.50s;animation-direction:reverse"><rect x="18" y="-3" width="3" height="4" class="lp-fly"/></g></g><g transform="translate(68 67.6) scale(1 .42)"><g class="lp-orbit" style="animation-duration:3.20s;animation-direction:normal"><rect x="22" y="-3" width="3" height="4" class="lp-fly"/></g></g></g><text x="80" y="171" text-anchor="middle" class="lp-mini-name">Ruli</text><text x="80" y="185" text-anchor="middle" class="lp-mini-sub">Lv.21 · 🧟 undead</text></svg>