<svg xmlns="http://www.w3.org/2000/svg" width="160" height="192" viewBox="0 0 160 192" role="img" aria-labelledby="lpjd1chs-t lpjd1chs-d"><title id="lpjd1chs-t">Ruli the Radiant 🤩 octo-org/demo</title><desc id="lpjd1chs-d">Ruli the Radiant: Lv.21 (Silver) Adult Cat, ecstatic. Fullness 99%, Health 100%, Joy 100%, Energy 97%, Hygiene 100%. “@octocat fed me a treat (#42) 🍪”</desc><style>svg{--lp-bg:#ffffff;--lp-border:#e3e8ef;--lp-text:#1f2430;--lp-muted:#6b7385;--lp-bubble:#f5f7fb;--lp-bubble-border:#d5dbe7;--lp-track:#e6eaf1;--lp-shadow:rgba(0,0,0,.16);--lp-sky1:#9ad9ff;--lp-sky2:#e4f6ff;--lp-g1:#79c267;--lp-g2:#5aa851;--lp-water:#5fb8e8;--lp-water2:#e4f7ff;--lp-far:#9fcf8c;--lp-mid:#8cc97c}.lp-night{display:none}.lp-card{fill:var(--lp-bg);stroke:var(--lp-border)}.lp-sky1{stop-color:var(--lp-sky1)}.lp-sky2{stop-color:var(--lp-sky2)}.lp-ground{fill:var(--lp-g1)}.lp-ground2{fill:var(--lp-g2)}.lp-shadow{fill:var(--lp-shadow)}.lp-px{shape-rendering:crispEdges}.lp-name{font:700 16px ui-monospace,SFMono-Regular,'SF Mono',Menlo,Consolas,'Liberation Mono',monospace;fill:var(--lp-text)}.lp-sub{font:400 11px ui-monospace,SFMono-Regular,'SF Mono',Menlo,Consolas,'Liberation Mono',monospace;fill:var(--lp-muted)}.lp-say{font:400 11.5px ui-monospace,SFMono-Regular,'SF Mono',Menlo,Consolas,'Liberation Mono',monospace;fill:var(--lp-text)}.lp-label{font:400 11px ui-monospace,SFMono-Regular,'SF Mono',Menlo,Consolas,'Liberation Mono',monospace;fill:var(--lp-muted)}.lp-val{font:700 11px ui-monospace,SFMono-Regular,'SF Mono',Menlo,Consolas,'Liberation Mono',monospace;fill:var(--lp-text)}.lp-icon{font:400 11px ui-monospace,SFMono-Regular,'SF Mono',Menlo,Consolas,'Liberation Mono',monospace}.lp-trophy{font:400 14px ui-monospace,SFMono-Regular,'SF Mono',Menlo,Consolas,'Liberation Mono',monospace}.lp-foot{font:400 9.5px ui-monospace,SFMono-Regular,'SF Mono',Menlo,Consolas,'Liberation Mono',monospace;fill:var(--lp-muted)}.lp-brand{font:700 9.5px ui-monospace,SFMono-Regular,'SF Mono',Menlo,Consolas,'Liberation Mono',monospace;fill:var(--lp-muted)}.lp-mini-name{font:700 12px ui-monospace,SFMono-Regular,'SF Mono',Menlo,Consolas,'Liberation Mono',monospace;fill:var(--lp-text)}.lp-tag{font:700 11px ui-monospace,SFMono-Regular,'SF Mono',Menlo,Consolas,'Liberation Mono',monospace;fill:var(--lp-text)}.lp-tag-sub{font:400 9.5px ui-monospace,SFMono-Regular,'SF Mono',Menlo,Consolas,'Liberation Mono',monospace;fill:var(--lp-muted)}.lp-mini-sub{font:400 9.5px ui-monospace,SFMono-Regular,'SF Mono',Menlo,Consolas,'Liberation Mono',monospace;fill:var(--lp-muted)}.lp-z{font:700 12px ui-monospace,SFMono-Regular,'SF Mono',Menlo,Consolas,'Liberation Mono',monospace;fill:var(--lp-text)}.lp-bit{font:700 10px ui-monospace,SFMono-Regular,'SF Mono',Menlo,Consolas,'Liberation Mono',monospace;fill:#3fb950}.lp-bubble,.lp-thought{fill:var(--lp-bubble);stroke:var(--lp-bubble-border)}.lp-tail{fill:var(--lp-bubble);stroke:var(--lp-bubble-border);stroke-linejoin:round}.lp-seg,.lp-track{fill:var(--lp-track)}.lp-good{fill:#3fb950}.lp-mid{fill:#e3b341}.lp-low{fill:#f85149}.lp-xp{fill:#a371f7}.lp-ink{fill:var(--lp-text)}.lp-fly{fill:var(--lp-text)}.lp-star{fill:#fff8d6}.lp-snow{fill:#ffffff}.lp-raindrop{fill:#5ec8ff}.lp-firefly{fill:#fff59d}.lp-string{fill:#5a1e1e}.lp-far{fill:var(--lp-far)}.lp-mid{fill:var(--lp-mid)}.lp-water{fill:var(--lp-water)}.lp-water2{fill:var(--lp-water2)}.lp-ripple-line{stroke:var(--lp-water2)}.lp-sea{fill:var(--lp-water);opacity:.38}.lp-bubble-c{fill:none;stroke:#e4f7ff;stroke-width:1;opacity:.85}.lp-bounce{animation:lp-bounce 2s ease-in-out infinite}.lp-hop{animation:lp-hop 1s ease-in-out infinite}.lp-breathe{animation:lp-breathe 4s ease-in-out infinite}.lp-sway{animation:lp-sway 3s ease-in-out infinite}.lp-shiver{animation:lp-shiver .35s linear infinite}.lp-wobble{animation:lp-wobble 3s ease-in-out infinite}.lp-growl{animation:lp-growl 3s linear infinite}.lp-blink-open{animation:lp-blink-open 4s infinite}.lp-blink-closed{opacity:0;animation:lp-blink-closed 4s infinite}.lp-rise{animation:lp-rise 3s ease-out infinite both}.lp-zz{animation:lp-zz 3s ease-out infinite both}.lp-fall{animation:lp-fall 3s linear infinite}.lp-drift{animation:lp-drift 9s linear infinite}.lp-drip{animation:lp-drip 1.6s ease-in infinite both}.lp-orbit{animation:lp-orbit 2.4s linear infinite}.lp-twinkle{animation:lp-twinkle 2s ease-in-out infinite both}.lp-burst{animation:lp-burst 2.4s ease-out infinite both}.lp-float{animation:lp-float 3s ease-in-out infinite}.lp-swing{animation:lp-swing 3s ease-in-out infinite}.lp-cloud{animation:lp-cloud 14s ease-in-out infinite alternate}.lp-alert{animation:lp-alert 1.2s steps(2) infinite}.lp-flap{animation:lp-flap .5s steps(1) infinite}.lp-fly{animation:lp-fly 16s linear infinite}.lp-flutter{animation:lp-flutter 6s ease-in-out infinite}.lp-sway-soft{animation:lp-sway-soft 5s ease-in-out infinite}.lp-kelp{animation:lp-kelp 4s ease-in-out infinite}.lp-spin{animation:lp-orbit 6s linear infinite}.lp-mist{animation:lp-mist 9s ease-in-out infinite}.lp-shoot{animation:lp-shoot 8s linear infinite}.lp-aurora{animation:lp-aurora 6s ease-in-out infinite}.lp-rainbow{animation:lp-rainbow 5s ease-in-out infinite}.lp-wave{animation:lp-wave 3s ease-in-out infinite}.lp-tide{animation:lp-tide 4s ease-in-out infinite}.lp-ripple{animation:lp-ripple 3s ease-out infinite both}.lp-bubbling{animation:lp-bubble 5s ease-in infinite both}.lp-swim{animation:lp-swim 14s linear infinite}.lp-roll{animation:lp-roll 9s linear infinite}.lp-ray{animation:lp-ray 5s ease-in-out infinite}.lp-flow{animation:lp-flow 1s linear infinite both}.lp-glow{animation:lp-glow 2s ease-in-out infinite}.lp-haze{animation:lp-haze 2.2s ease-in-out infinite}.lp-flag{animation:lp-flag 1.8s ease-in-out infinite}.lp-bulb{animation:lp-bulb 1.2s steps(1) infinite}.lp-twinkle-soft{animation:lp-twinkle-soft 2.5s ease-in-out infinite}.lp-new{animation:lp-float 1.6s ease-in-out infinite}.lp-lvup{font:700 11px ui-monospace,SFMono-Regular,'SF Mono',Menlo,Consolas,'Liberation Mono',monospace;stroke:#3d2c00;stroke-width:2.5px;paint-order:stroke;stroke-linejoin:round}.lp-aura{opacity:.8;animation:lp-aura 1.1s ease-in-out infinite}@keyframes lp-aura{0%,100%{opacity:.45}50%{opacity:.95}}@keyframes lp-bounce{0%,100%{transform:translateY(0)}50%{transform:translateY(-5px)}}@keyframes lp-hop{0%,100%{transform:translateY(0)}35%{transform:translateY(-14px)}55%{transform:translateY(0)}65%{transform:translateY(-3px)}}@keyframes lp-breathe{0%,100%{transform:scale(1,1)}50%{transform:scale(1.04,.96)}}@keyframes lp-sway{0%,100%{transform:rotate(-5deg)}50%{transform:rotate(5deg)}}@keyframes lp-shiver{0%,100%{transform:translateX(0)}25%{transform:translateX(-1.5px)}75%{transform:translateX(1.5px)}}@keyframes lp-wobble{0%,60%,100%{transform:rotate(0)}68%{transform:rotate(-9deg)}78%{transform:rotate(8deg)}88%{transform:rotate(-4deg)}}@keyframes lp-growl{0%,78%,100%{transform:translateX(0)}82%{transform:translateX(-2px)}86%{transform:translateX(2px)}90%{transform:translateX(-2px)}94%{transform:translateX(1px)}}@keyframes lp-blink-open{0%,93%,100%{opacity:1}94%,98%{opacity:0}}@keyframes lp-blink-closed{0%,93%,100%{opacity:0}94%,98%{opacity:1}}@keyframes lp-rise{0%{transform:translateY(0);opacity:0}20%{opacity:1}100%{transform:translateY(-34px);opacity:0}}@keyframes lp-zz{0%{transform:translate(0,0);opacity:0}20%{opacity:1}100%{transform:translate(10px,-26px);opacity:0}}@keyframes lp-fall{0%{transform:translateY(-20px) rotate(0)}100%{transform:translateY(260px) rotate(540deg)}}@keyframes lp-drift{0%{transform:translate(0,-20px) rotate(0)}50%{transform:translate(14px,110px) rotate(160deg)}100%{transform:translate(-8px,260px) rotate(340deg)}}@keyframes lp-drip{0%{transform:translateY(0);opacity:0}15%{opacity:1}100%{transform:translateY(16px);opacity:0}}@keyframes lp-orbit{to{transform:rotate(360deg)}}@keyframes lp-twinkle{0%,100%{opacity:.15}50%{opacity:1}}@keyframes lp-burst{0%{transform:scale(.1);opacity:0}10%{opacity:1}70%{opacity:.9}100%{transform:scale(1.3);opacity:0}}@keyframes lp-float{0%,100%{transform:translateY(0)}50%{transform:translateY(-3px)}}@keyframes lp-swing{0%,100%{transform:rotate(-6deg)}50%{transform:rotate(6deg)}}@keyframes lp-cloud{from{transform:translateX(-6px)}to{transform:translateX(10px)}}@keyframes lp-alert{0%{opacity:1}50%{opacity:.35}}@keyframes lp-flap{0%{opacity:1}50%{opacity:0}}@keyframes lp-fly{from{transform:translate(-40px,0)}50%{transform:translate(130px,-8px)}to{transform:translate(300px,4px)}}@keyframes lp-flutter{0%,100%{transform:translate(0,0)}25%{transform:translate(14px,-9px)}50%{transform:translate(24px,1px)}75%{transform:translate(9px,7px)}}@keyframes lp-sway-soft{0%,100%{transform:rotate(-2deg)}50%{transform:rotate(2deg)}}@keyframes lp-kelp{0%,100%{transform:skewX(-9deg)}50%{transform:skewX(9deg)}}@keyframes lp-mist{0%,100%{transform:translateX(-14px)}50%{transform:translateX(14px)}}@keyframes lp-shoot{0%,86%{transform:translate(0,0);opacity:0}88%{opacity:1}100%{transform:translate(-70px,36px);opacity:0}}@keyframes lp-aurora{0%,100%{opacity:.1;transform:translateY(0)}50%{opacity:.5;transform:translateY(3px)}}@keyframes lp-rainbow{0%,100%{opacity:.25}50%{opacity:.6}}@keyframes lp-wave{0%,100%{transform:translateX(0)}50%{transform:translateX(-7px)}}@keyframes lp-tide{0%,100%{transform:translateY(0);opacity:.2}50%{transform:translateY(4px);opacity:.9}}@keyframes lp-ripple{0%{transform:scale(.2);opacity:.9}100%{transform:scale(1.5);opacity:0}}@keyframes lp-bubble{0%{transform:translate(0,0);opacity:0}10%{opacity:.9}50%{transform:translate(4px,-80px)}100%{transform:translate(-3px,-170px);opacity:0}}@keyframes lp-swim{from{transform:translateX(0)}50%{transform:translate(-160px,-6px)}to{transform:translateX(-340px)}}@keyframes lp-roll{0%{transform:translate(0,0)}20%{transform:translate(60px,-6px)}25%{transform:translate(75px,0)}55%{transform:translate(165px,-8px)}60%{transform:translate(180px,0)}100%{transform:translate(300px,0)}}@keyframes lp-ray{0%,100%{opacity:.04}50%{opacity:.2}}@keyframes lp-flow{0%{transform:translateY(-4px);opacity:0}25%{opacity:1}100%{transform:translateY(24px);opacity:0}}@keyframes lp-glow{0%,100%{opacity:.55}50%{opacity:1}}@keyframes lp-haze{0%,100%{transform:scale(1,1);opacity:.15}50%{transform:scale(1,2.5);opacity:.4}}@keyframes lp-flag{0%,100%{transform:rotate(-8deg)}50%{transform:rotate(8deg)}}@keyframes lp-bulb{0%{opacity:1}50%{opacity:.25}}@keyframes lp-twinkle-soft{0%,100%{opacity:.75}50%{opacity:1}}@media (prefers-reduced-motion:reduce){*{animation:none!important}}</style><defs><linearGradient id="lpjd1chs-sky" x1="0" y1="0" x2="0" y2="1"><stop offset="0" class="lp-sky1"/><stop offset="1" class="lp-sky2"/></linearGradient><clipPath id="lpjd1chs-clip"><rect x="6" y="6" width="148" height="148" rx="12"/></clipPath></defs><rect x="0.5" y="0.5" width="159" height="191" rx="16" class="lp-card"/><g clip-path="url(#lpjd1chs-clip)"><rect x="6" y="6" width="148" height="148" fill="url(#lpjd1chs-sky)"/><g class="lp-day lp-px"><g transform="translate(17.8 17.8)"><g class="lp-cloud" style="animation-duration:10.23s"><rect x="6" y="0" width="6" height="2" fill="#ffffffd9"/><rect x="2" y="2" width="14" height="2" fill="#ffffffd9"/><rect x="0" y="4" width="18" height="2" fill="#ffffffd9"/><rect x="2" y="6" width="14" height="2" fill="#ffffffd9"/></g></g><g transform="translate(87.4 35.6)"><g class="lp-cloud" style="animation-duration:14.96s"><rect x="6" y="0" width="6" height="2" fill="#ffffffd9"/><rect x="2" y="2" width="14" height="2" fill="#ffffffd9"/><rect x="0" y="4" width="18" height="2" fill="#ffffffd9"/><rect x="2" y="6" width="14" height="2" fill="#ffffffd9"/></g></g></g><g class="lp-night lp-px"><rect x="136" y="16" width="6" height="2" fill="#fff3b0"/><rect x="134" y="18" width="4" height="2" fill="#fff3b0"/><rect x="132" y="20" width="4" height="2" fill="#fff3b0"/><rect x="132" y="22" width="4" height="2" fill="#fff3b0"/><rect x="134" y="24" width="4" height="2" fill="#fff3b0"/><rect x="136" y="26" width="6" height="2" fill="#fff3b0"/><rect x="35.4" y="67.7" width="2" height="2" class="lp-star lp-twinkle" style="animation-duration:1.98s;animation-delay:-1.43s"/><rect x="41.7" y="13.1" width="2" height="2" class="lp-star lp-twinkle" style="animation-duration:1.90s;animation-delay:-2.84s"/><rect x="72.4" y="55.8" width="2" height="2" class="lp-star lp-twinkle" style="animation-duration:2.28s;animation-delay:-1.62s"/><rect x="33.7" y="42.5" width="2" height="2" class="lp-star lp-twinkle" style="animation-duration:2.16s;animation-delay:-1.53s"/><rect x="103.7" y="52.3" width="2" height="2" class="lp-star lp-twinkle" style="animation-duration:2.73s;animation-delay:-2.71s"/><rect x="44.9" y="26.4" width="2" height="2" class="lp-star lp-twinkle" style="animation-duration:2.06s;animation-delay:-2.50s"/><rect x="24.5" y="30.4" width="2" height="2" class="lp-star lp-twinkle" style="animation-duration:1.74s;animation-delay:-1.94s"/></g><g class="lp-rainbow lp-day"><path d="M31.2 126A56.2 56.2 0 0 1 143.6 126" fill="none" stroke="#ff5f5f" stroke-width="3.4"/><path d="M34.4 126A53 53 0 0 1 140.4 126" fill="none" stroke="#ffa94d" stroke-width="3.4"/><path d="M37.6 126A49.8 49.8 0 0 1 137.2 126" fill="none" stroke="#ffe066" stroke-width="3.4"/><path d="M40.8 126A46.6 46.6 0 0 1 134 126" fill="none" stroke="#7ee081" stroke-width="3.4"/><path d="M44 126A43.4 43.4 0 0 1 130.8 126" fill="none" stroke="#5ec8ff" stroke-width="3.4"/><path d="M47.2 126A40.2 40.2 0 0 1 127.6 126" fill="none" stroke="#b388ff" stroke-width="3.4"/></g><g class="lp-night"><g transform="translate(107 42.1)"><g class="lp-shoot" style="animation-duration:8.28s;animation-delay:-3.51s"><rect x="0" y="0" width="14" height="1.5" fill="#fff8d6" transform="rotate(-27)"/><rect x="-1" y="-1" width="3" height="3" fill="#ffffff"/></g></g></g><g class="lp-day lp-px"><g transform="translate(-36.6 35.3)"><g class="lp-fly" style="animation-duration:19.34s;animation-delay:-13.30s"><g class="lp-flap" style="animation-duration:0.52s;animation-delay:-0.00s"><rect x="-2.5" y="0" width="1" height="1" fill="#3a4a5c"/><rect x="1.5" y="0" width="1" height="1" fill="#3a4a5c"/><rect x="-1.5" y="1" width="1" height="1" fill="#3a4a5c"/><rect x="0.5" y="1" width="1" height="1" fill="#3a4a5c"/><rect x="-0.5" y="2" width="1" height="1" fill="#3a4a5c"/></g><g class="lp-flap" style="animation-duration:0.52s;animation-delay:-0.26s"><rect x="-0.5" y="0" width="1" height="1" fill="#3a4a5c"/><rect x="-1.5" y="1" width="1" height="1" fill="#3a4a5c"/><rect x="0.5" y="1" width="1" height="1" fill="#3a4a5c"/><rect x="-2.5" y="2" width="1" height="1" fill="#3a4a5c"/><rect x="1.5" y="2" width="1" height="1" fill="#3a4a5c"/></g></g></g><g transform="translate(-44.8 25.9)"><g class="lp-fly" style="animation-duration:16.45s;animation-delay:-3.33s"><g class="lp-flap" style="animation-duration:0.56s;animation-delay:-0.00s"><rect x="-2.5" y="0" width="1" height="1" fill="#3a4a5c"/><rect x="1.5" y="0" width="1" height="1" fill="#3a4a5c"/><rect x="-1.5" y="1" width="1" height="1" fill="#3a4a5c"/><rect x="0.5" y="1" width="1" height="1" fill="#3a4a5c"/><rect x="-0.5" y="2" width="1" height="1" fill="#3a4a5c"/></g><g class="lp-flap" style="animation-duration:0.56s;animation-delay:-0.28s"><rect x="-0.5" y="0" width="1" height="1" fill="#3a4a5c"/><rect x="-1.5" y="1" width="1" height="1" fill="#3a4a5c"/><rect x="0.5" y="1" width="1" height="1" fill="#3a4a5c"/><rect x="-2.5" y="2" width="1" height="1" fill="#3a4a5c"/><rect x="1.5" y="2" width="1" height="1" fill="#3a4a5c"/></g></g></g></g><g class="lp-px"><path d="M6 126V122H10V122H14V122H18V122H22V124H26V122H30V120H34V118H38V116H42V116H46V116H50V116H54V118H58V118H62V118H66V118H70V118H74V118H78V118H82V120H86V124H90V124H94V124H98V124H102V122H106V120H110V120H114V120H118V120H122V120H126V120H130V118H134V116H138V114H142V114H146V116H150V118H154V126Z" class="lp-far"/><g class="lp-prop"><rect x="19.9" y="96" width="4" height="2" fill="#c8553d"/><rect x="17.9" y="98" width="8" height="2" fill="#c8553d"/><rect x="15.9" y="100" width="12" height="2" fill="#c8553d"/><rect x="13.9" y="102" width="16" height="2" fill="#c8553d"/><rect x="11.9" y="104" width="20" height="2" fill="#c8553d"/><rect x="13.9" y="106" width="16" height="20" fill="#f2e3c6"/><rect x="21.9" y="114" width="4" height="12" fill="#8a5a3b"/></g><rect x="15.9" y="110" width="4" height="4" class="lp-day" fill="#9ad9ff"/><g class="lp-night"><rect x="14.9" y="109" width="6" height="6" fill="#ffd166" opacity=".35" class="lp-glow"/><rect x="15.9" y="110" width="4" height="4" fill="#ffe08a"/></g></g><g class="lp-px"><rect x="6" y="126" width="148" height="28" class="lp-ground"/><rect x="6" y="126" width="148" height="2" class="lp-ground2"/><rect x="11" y="123" width="2" height="3" class="lp-ground2"/><rect x="14" y="121" width="2" height="5" class="lp-ground2"/><rect x="30" y="123" width="2" height="3" class="lp-ground2"/><rect x="33" y="121" width="2" height="5" class="lp-ground2"/><rect x="47" y="123" width="2" height="3" class="lp-ground2"/><rect x="50" y="121" width="2" height="5" class="lp-ground2"/><rect x="69" y="123" width="2" height="3" class="lp-ground2"/><rect x="72" y="121" width="2" height="5" class="lp-ground2"/><rect x="82" y="123" width="2" height="3" class="lp-ground2"/><rect x="85" y="121" width="2" height="5" class="lp-ground2"/><rect x="103" y="123" width="2" height="3" class="lp-ground2"/><rect x="106" y="121" width="2" height="5" class="lp-ground2"/><rect x="119" y="123" width="2" height="3" class="lp-ground2"/><rect x="122" y="121" width="2" height="5" class="lp-ground2"/><rect x="136" y="123" width="2" height="3" class="lp-ground2"/><rect x="139" y="121" width="2" height="5" class="lp-ground2"/><rect x="115.8" y="138.5" width="3" height="2" class="lp-ground2"/><rect x="129.7" y="145.4" width="3" height="2" class="lp-ground2"/><rect x="31.1" y="142.8" width="3" height="2" class="lp-ground2"/></g><g class="lp-px"><g class="lp-prop"><rect x="6" y="118" width="148" height="2" fill="#efe6d8"/><rect x="6" y="123" width="148" height="2" fill="#efe6d8"/><rect x="7" y="116" width="4" height="12" fill="#fbf7f0"/><rect x="8" y="114" width="2" height="2" fill="#fbf7f0"/><rect x="13" y="116" width="4" height="12" fill="#fbf7f0"/><rect x="14" y="114" width="2" height="2" fill="#fbf7f0"/><rect x="19" y="116" width="4" height="12" fill="#fbf7f0"/><rect x="20" y="114" width="2" height="2" fill="#fbf7f0"/><rect x="25" y="116" width="4" height="12" fill="#fbf7f0"/><rect x="26" y="114" width="2" height="2" fill="#fbf7f0"/><rect x="31" y="116" width="4" height="12" fill="#fbf7f0"/><rect x="32" y="114" width="2" height="2" fill="#fbf7f0"/><rect x="37" y="116" width="4" height="12" fill="#fbf7f0"/><rect x="38" y="114" width="2" height="2" fill="#fbf7f0"/><rect x="43" y="116" width="4" height="12" fill="#fbf7f0"/><rect x="44" y="114" width="2" height="2" fill="#fbf7f0"/><rect x="49" y="116" width="4" height="12" fill="#fbf7f0"/><rect x="50" y="114" width="2" height="2" fill="#fbf7f0"/><rect x="55" y="116" width="4" height="12" fill="#fbf7f0"/><rect x="56" y="114" width="2" height="2" fill="#fbf7f0"/><rect x="61" y="116" width="4" height="12" fill="#fbf7f0"/><rect x="62" y="114" width="2" height="2" fill="#fbf7f0"/><rect x="67" y="116" width="4" height="12" fill="#fbf7f0"/><rect x="68" y="114" width="2" height="2" fill="#fbf7f0"/><rect x="73" y="116" width="4" height="12" fill="#fbf7f0"/><rect x="74" y="114" width="2" height="2" fill="#fbf7f0"/><rect x="79" y="116" width="4" height="12" fill="#fbf7f0"/><rect x="80" y="114" width="2" height="2" fill="#fbf7f0"/><rect x="85" y="116" width="4" height="12" fill="#fbf7f0"/><rect x="86" y="114" width="2" height="2" fill="#fbf7f0"/><rect x="91" y="116" width="4" height="12" fill="#fbf7f0"/><rect x="92" y="114" width="2" height="2" fill="#fbf7f0"/><rect x="97" y="116" width="4" height="12" fill="#fbf7f0"/><rect x="98" y="114" width="2" height="2" fill="#fbf7f0"/><rect x="103" y="116" width="4" height="12" fill="#fbf7f0"/><rect x="104" y="114" width="2" height="2" fill="#fbf7f0"/><rect x="109" y="116" width="4" height="12" fill="#fbf7f0"/><rect x="110" y="114" width="2" height="2" fill="#fbf7f0"/><rect x="115" y="116" width="4" height="12" fill="#fbf7f0"/><rect x="116" y="114" width="2" height="2" fill="#fbf7f0"/><rect x="121" y="116" width="4" height="12" fill="#fbf7f0"/><rect x="122" y="114" width="2" height="2" fill="#fbf7f0"/><rect x="127" y="116" width="4" height="12" fill="#fbf7f0"/><rect x="128" y="114" width="2" height="2" fill="#fbf7f0"/><rect x="133" y="116" width="4" height="12" fill="#fbf7f0"/><rect x="134" y="114" width="2" height="2" fill="#fbf7f0"/><rect x="139" y="116" width="4" height="12" fill="#fbf7f0"/><rect x="140" y="114" width="2" height="2" fill="#fbf7f0"/><rect x="145" y="116" width="4" height="12" fill="#fbf7f0"/><rect x="146" y="114" width="2" height="2" fill="#fbf7f0"/><rect x="151" y="116" width="4" height="12" fill="#fbf7f0"/><rect x="152" y="114" width="2" height="2" fill="#fbf7f0"/></g><g transform="translate(127.4 127.4)"><g class="lp-sway-soft lp-prop" style="animation-duration:4.36s;animation-delay:-2.74s"><rect x="-3" y="-16" width="6" height="2" fill="#ffd23f"/><rect x="-5" y="-14" width="4" height="2" fill="#ffd23f"/><rect x="-1" y="-14" width="2" height="2" fill="#7a4b2a"/><rect x="1" y="-14" width="4" height="2" fill="#ffd23f"/><rect x="-3" y="-12" width="6" height="2" fill="#ffd23f"/><rect x="-1" y="-10" width="2" height="2" fill="#3c8a4b"/><rect x="-3" y="-8" width="4" height="2" fill="#3c8a4b"/><rect x="-1" y="-6" width="2" height="2" fill="#3c8a4b"/><rect x="-1" y="-4" width="4" height="2" fill="#3c8a4b"/><rect x="-1" y="-2" width="2" height="2" fill="#3c8a4b"/></g></g><g transform="translate(143.6 127.4)"><g class="lp-sway-soft lp-prop" style="animation-duration:4.18s;animation-delay:-2.25s"><rect x="-3" y="-16" width="6" height="2" fill="#ffd23f"/><rect x="-5" y="-14" width="4" height="2" fill="#ffd23f"/><rect x="-1" y="-14" width="2" height="2" fill="#7a4b2a"/><rect x="1" y="-14" width="4" height="2" fill="#ffd23f"/><rect x="-3" y="-12" width="6" height="2" fill="#ffd23f"/><rect x="-1" y="-10" width="2" height="2" fill="#3c8a4b"/><rect x="-3" y="-8" width="4" height="2" fill="#3c8a4b"/><rect x="-1" y="-6" width="2" height="2" fill="#3c8a4b"/><rect x="-1" y="-4" width="4" height="2" fill="#3c8a4b"/><rect x="-1" y="-2" width="2" height="2" fill="#3c8a4b"/></g></g></g><g class="lp-px"><rect x="124" y="124" width="2" height="2" fill="#c47a3a"/><rect x="126" y="124" width="2" height="2" fill="#e8a35e"/><rect x="128" y="124" width="2" height="2" fill="#c47a3a"/><rect x="130" y="124" width="2" height="2" fill="#e8a35e"/><rect x="132" y="124" width="4" height="2" fill="#c47a3a"/><rect x="120" y="126" width="2" height="2" fill="#c47a3a"/><rect x="122" y="126" width="2" height="2" fill="#e8a35e"/><rect x="124" y="126" width="4" height="2" fill="#c47a3a"/><rect x="128" y="126" width="2" height="2" fill="#e8a35e"/><rect x="130" y="126" width="2" height="2" fill="#c47a3a"/><rect x="132" y="126" width="2" height="2" fill="#e8a35e"/><rect x="134" y="126" width="2" height="2" fill="#c47a3a"/><rect x="136" y="126" width="2" height="2" fill="#e8a35e"/><rect x="138" y="126" width="2" height="2" fill="#c47a3a"/><rect x="118" y="128" width="24" height="2" fill="#1b3a5c"/><rect x="120" y="130" width="2" height="2" fill="#1b3a5c"/><rect x="122" y="130" width="16" height="2" fill="#5ec8ff"/><rect x="138" y="130" width="2" height="2" fill="#1b3a5c"/><rect x="122" y="132" width="16" height="2" fill="#1b3a5c"/></g><ellipse cx="68" cy="131" rx="30" ry="3" class="lp-shadow"/><g transform="translate(68 132)"><style>@keyframes lp-mv-stretch{0%,76%,100%{transform:translate(0,0) rotate(0) scale(1,1) skewX(0)}82%,92%{transform:translate(0,0) rotate(0) scale(1.16,.86) skewX(0)}}.lp-mv-stretch{animation:lp-mv-stretch 7s ease-in-out infinite}</style><g class="lp-mv-stretch" style="animation-duration:7.00s;animation-delay:0.62s"><g class="lp-hop" style="animation-duration:1.20s"><g transform="translate(-68 -132)" class="lp-px"><rect x="33" y="62" width="10" height="5" fill="#163b37"/><rect x="93" y="62" width="10" height="5" fill="#163b37"/><rect x="33" y="67" width="5" height="5" fill="#163b37"/><rect x="38" y="67" width="5" height="5" fill="#59f4f0"/><rect x="43" y="67" width="5" height="5" fill="#163b37"/><rect x="88" y="67" width="5" height="5" fill="#163b37"/><rect x="93" y="67" width="5" height="5" fill="#59f4f0"/><rect x="98" y="67" width="5" height="5" fill="#163b37"/><rect x="33" y="72" width="5" height="5" fill="#163b37"/><rect x="38" y="72" width="5" height="5" fill="#9effb7"/><rect x="43" y="72" width="5" height="5" fill="#59f4f0"/><rect x="48" y="72" width="5" height="5" fill="#163b37"/><rect x="83" y="72" width="5" height="5" fill="#163b37"/><rect x="88" y="72" width="5" height="5" fill="#59f4f0"/><rect x="93" y="72" width="5" height="5" fill="#9effb7"/><rect x="98" y="72" width="5" height="5" fill="#163b37"/><rect x="33" y="77" width="5" height="5" fill="#163b37"/><rect x="38" y="77" width="15" height="5" fill="#59f4f0"/><rect x="53" y="77" width="30" height="5" fill="#163b37"/><rect x="83" y="77" width="15" height="5" fill="#59f4f0"/><rect x="98" y="77" width="5" height="5" fill="#163b37"/><rect x="33" y="82" width="5" height="5" fill="#163b37"/><rect x="38" y="82" width="20" height="5" fill="#59f4f0"/><rect x="58" y="82" width="5" height="5" fill="#2bd9d9"/><rect x="63" y="82" width="10" height="5" fill="#59f4f0"/><rect x="73" y="82" width="5" height="5" fill="#2bd9d9"/><rect x="78" y="82" width="20" height="5" fill="#59f4f0"/><rect x="98" y="82" width="5" height="5" fill="#163b37"/><rect x="28" y="87" width="5" height="5" fill="#163b37"/><rect x="33" y="87" width="25" height="5" fill="#59f4f0"/><rect x="58" y="87" width="5" height="5" fill="#2bd9d9"/><rect x="63" y="87" width="10" height="5" fill="#59f4f0"/><rect x="73" y="87" width="5" height="5" fill="#2bd9d9"/><rect x="78" y="87" width="25" height="5" fill="#59f4f0"/><rect x="103" y="87" width="5" height="5" fill="#163b37"/><rect x="28" y="92" width="5" height="5" fill="#163b37"/><rect x="33" y="92" width="15" height="5" fill="#59f4f0"/><rect x="48" y="92" width="10" height="5" fill="#4c6ef5"/><rect x="58" y="92" width="20" height="5" fill="#59f4f0"/><rect x="78" y="92" width="10" height="5" fill="#4c6ef5"/><rect x="88" y="92" width="15" height="5" fill="#59f4f0"/><rect x="103" y="92" width="5" height="5" fill="#163b37"/><rect x="28" y="97" width="5" height="5" fill="#163b37"/><rect x="33" y="97" width="10" height="5" fill="#59f4f0"/><rect x="43" y="97" width="5" height="5" fill="#4c6ef5"/><rect x="48" y="97" width="10" height="5" fill="#59f4f0"/><rect x="58" y="97" width="20" height="5" fill="#4c6ef5"/><rect x="78" y="97" width="10" height="5" fill="#59f4f0"/><rect x="88" y="97" width="5" height="5" fill="#4c6ef5"/><rect x="93" y="97" width="10" height="5" fill="#59f4f0"/><rect x="103" y="97" width="5" height="5" fill="#163b37"/><rect x="28" y="102" width="5" height="5" fill="#163b37"/><rect x="33" y="102" width="10" height="5" fill="#59f4f0"/><rect x="43" y="102" width="5" height="5" fill="#4c6ef5"/><rect x="48" y="102" width="10" height="5" fill="#59f4f0"/><rect x="58" y="102" width="5" height="5" fill="#4c6ef5"/><rect x="63" y="102" width="10" height="5" fill="#59f4f0"/><rect x="73" y="102" width="5" height="5" fill="#4c6ef5"/><rect x="78" y="102" width="10" height="5" fill="#59f4f0"/><rect x="88" y="102" width="5" height="5" fill="#4c6ef5"/><rect x="93" y="102" width="10" height="5" fill="#59f4f0"/><rect x="103" y="102" width="5" height="5" fill="#163b37"/><rect x="28" y="107" width="5" height="5" fill="#163b37"/><rect x="33" y="107" width="5" height="5" fill="#59f4f0"/><rect x="38" y="107" width="10" height="5" fill="#ff8fab99"/><rect x="48" y="107" width="10" height="5" fill="#4c6ef5"/><rect x="58" y="107" width="20" height="5" fill="#163b37"/><rect x="78" y="107" width="10" height="5" fill="#4c6ef5"/><rect x="88" y="107" width="10" height="5" fill="#ff8fab99"/><rect x="98" y="107" width="5" height="5" fill="#59f4f0"/><rect x="103" y="107" width="5" height="5" fill="#163b37"/><rect x="33" y="112" width="5" height="5" fill="#163b37"/><rect x="38" y="112" width="20" height="5" fill="#59f4f0"/><rect x="58" y="112" width="5" height="5" fill="#163b37"/><rect x="63" y="112" width="10" height="5" fill="#ff5d73"/><rect x="73" y="112" width="5" height="5" fill="#163b37"/><rect x="78" y="112" width="20" height="5" fill="#59f4f0"/><rect x="98" y="112" width="5" height="5" fill="#163b37"/><rect x="38" y="117" width="5" height="5" fill="#163b37"/><rect x="43" y="117" width="10" height="5" fill="#59f4f0"/><rect x="53" y="117" width="10" height="5" fill="#e6fdff"/><rect x="63" y="117" width="10" height="5" fill="#163b37"/><rect x="73" y="117" width="10" height="5" fill="#e6fdff"/><rect x="83" y="117" width="10" height="5" fill="#59f4f0"/><rect x="93" y="117" width="5" height="5" fill="#163b37"/><rect x="38" y="122" width="5" height="5" fill="#163b37"/><rect x="43" y="122" width="5" height="5" fill="#59f4f0"/><rect x="48" y="122" width="40" height="5" fill="#e6fdff"/><rect x="88" y="122" width="5" height="5" fill="#59f4f0"/><rect x="93" y="122" width="5" height="5" fill="#163b37"/><rect x="38" y="127" width="60" height="5" fill="#163b37"/><rect x="53" y="97" width="5" height="5" fill="#163b37"/><rect x="78" y="97" width="5" height="5" fill="#163b37"/><rect x="48" y="102" width="5" height="5" fill="#163b37"/><rect x="58" y="102" width="5" height="5" fill="#163b37"/><rect x="73" y="102" width="5" height="5" fill="#163b37"/><rect x="83" y="102" width="5" height="5" fill="#163b37"/><rect x="48" y="62" width="5" height="5" fill="#ffd23f"/><rect x="63" y="62" width="10" height="5" fill="#ffd23f"/><rect x="83" y="62" width="5" height="5" fill="#ffd23f"/><rect x="48" y="67" width="10" height="5" fill="#ffd23f"/><rect x="63" y="67" width="10" height="5" fill="#ffd23f"/><rect x="78" y="67" width="10" height="5" fill="#ffd23f"/><rect x="48" y="72" width="15" height="5" fill="#ffd23f"/><rect x="63" y="72" width="10" height="5" fill="#ff4d6d"/><rect x="73" y="72" width="15" height="5" fill="#ffd23f"/><rect x="48" y="77" width="40" height="5" fill="#c99a06"/></g></g></g></g><g transform="translate(28 66.2)"><g class="lp-rise lp-px" style="animation-duration:3.30s;animation-delay:0.00s"><rect x="-5" y="-4" width="4" height="2" fill="#ff5d8f"/><rect x="1" y="-4" width="4" height="2" fill="#ff5d8f"/><rect x="-5" y="-2" width="10" height="2" fill="#ff5d8f"/><rect x="-3" y="0" width="6" height="2" fill="#ff5d8f"/><rect x="-1" y="2" width="2" height="2" fill="#ff5d8f"/></g></g><g transform="translate(103.2 59.2)"><g class="lp-rise lp-px" style="animation-duration:3.30s;animation-delay:1.10s"><rect x="-5" y="-4" width="4" height="2" fill="#ff5d8f"/><rect x="1" y="-4" width="4" height="2" fill="#ff5d8f"/><rect x="-5" y="-2" width="10" height="2" fill="#ff5d8f"/><rect x="-3" y="0" width="6" height="2" fill="#ff5d8f"/><rect x="-1" y="2" width="2" height="2" fill="#ff5d8f"/></g></g><g transform="translate(68 52.2)"><g class="lp-rise lp-px" style="animation-duration:3.30s;animation-delay:2.20s"><rect x="-5" y="-4" width="4" height="2" fill="#ff5d8f"/><rect x="1" y="-4" width="4" height="2" fill="#ff5d8f"/><rect x="-5" y="-2" width="10" height="2" fill="#ff5d8f"/><rect x="-3" y="0" width="6" height="2" fill="#ff5d8f"/><rect x="-1" y="2" width="2" height="2" fill="#ff5d8f"/></g></g><g transform="translate(56.2 62.9)"><g class="lp-twinkle lp-px" style="animation-duration:2.58s;animation-delay:-1.52s"><rect x="-0.5" y="-1.5" width="1" height="1" fill="#ffe066"/><rect x="-1.5" y="-0.5" width="3" height="1" fill="#ffe066"/><rect x="-0.5" y="0.5" width="1" height="1" fill="#ffe066"/></g></g><g transform="translate(104.1 73.5)"><g class="lp-twinkle lp-px" style="animation-duration:1.57s;animation-delay:-0.02s"><rect x="-0.5" y="-1.5" width="1" height="1" fill="#ffffff"/><rect x="-1.5" y="-0.5" width="3" height="1" fill="#ffffff"/><rect x="-0.5" y="0.5" width="1" height="1" fill="#ffffff"/></g></g><g transform="translate(106.6 61.1)"><g class="lp-twinkle lp-px" style="animation-duration:2.50s;animation-delay:-1.73s"><rect x="-0.5" y="-1.5" width="1" height="1" fill="#ffe066"/><rect x="-1.5" y="-0.5" width="3" height="1" fill="#ffe066"/><rect x="-0.5" y="0.5" width="1" height="1" fill="#ffe066"/></g></g><g transform="translate(77 109.1)"><g class="lp-twinkle lp-px" style="animation-duration:1.83s;animation-delay:-0.44s"><rect x="-0.5" y="-1.5" width="1" height="1" fill="#ffffff"/><rect x="-1.5" y="-0.5" width="3" height="1" fill="#ffffff"/><rect x="-0.5" y="0.5" width="1" height="1" fill="#ffffff"/></g></g><g class="lp-px"><g class="lp-day"><g transform="translate(101.3 103)"><g class="lp-flutter" style="animation-duration:7.94s;animation-delay:-7.97s"><g class="lp-flap" style="animation-duration:0.30s;animation-delay:-0.00s"><rect x="-2.5" y="0" width="2" height="1" fill="#b388ff"/><rect x="0.5" y="0" width="2" height="1" fill="#b388ff"/><rect x="-2.5" y="1" width="2" height="1" fill="#b388ff"/><rect x="-0.5" y="1" width="1" height="1" fill="#3b2a1a"/><rect x="0.5" y="1" width="2" height="1" fill="#b388ff"/><rect x="-1.5" y="2" width="1" height="1" fill="#b388ff"/><rect x="-0.5" y="2" width="1" height="1" fill="#3b2a1a"/><rect x="0.5" y="2" width="1" height="1" fill="#b388ff"/></g><g class="lp-flap" style="animation-duration:0.30s;animation-delay:-0.15s"><rect x="-1.5" y="0" width="1" height="1" fill="#b388ff"/><rect x="0.5" y="0" width="1" height="1" fill="#b388ff"/><rect x="-1.5" y="1" width="1" height="1" fill="#b388ff"/><rect x="-0.5" y="1" width="1" height="1" fill="#3b2a1a"/><rect x="0.5" y="1" width="1" height="1" fill="#b388ff"/><rect x="-0.5" y="2" width="1" height="1" fill="#3b2a1a"/></g></g></g><g transform="translate(18.1 85.1)"><g class="lp-flutter" style="animation-duration:7.29s;animation-delay:-6.21s"><g class="lp-flap" style="animation-duration:0.30s;animation-delay:-0.00s"><rect x="-2.5" y="0" width="2" height="1" fill="#b388ff"/><rect x="0.5" y="0" width="2" height="1" fill="#b388ff"/><rect x="-2.5" y="1" width="2" height="1" fill="#b388ff"/><rect x="-0.5" y="1" width="1" height="1" fill="#3b2a1a"/><rect x="0.5" y="1" width="2" height="1" fill="#b388ff"/><rect x="-1.5" y="2" width="1" height="1" fill="#b388ff"/><rect x="-0.5" y="2" width="1" height="1" fill="#3b2a1a"/><rect x="0.5" y="2" width="1" height="1" fill="#b388ff"/></g><g class="lp-flap" style="animation-duration:0.30s;animation-delay:-0.15s"><rect x="-1.5" y="0" width="1" height="1" fill="#b388ff"/><rect x="0.5" y="0" width="1" height="1" fill="#b388ff"/><rect x="-1.5" y="1" width="1" height="1" fill="#b388ff"/><rect x="-0.5" y="1" width="1" height="1" fill="#3b2a1a"/><rect x="0.5" y="1" width="1" height="1" fill="#b388ff"/><rect x="-0.5" y="2" width="1" height="1" fill="#3b2a1a"/></g></g></g></g></g><g class="lp-px"><g transform="translate(92 6)"><g class="lp-drift" style="animation-duration:7.60s;animation-delay:-10.64s"><rect x="-0.5" y="-1.5" width="2" height="1" fill="#e9c46a"/><rect x="-1.5" y="-0.5" width="3" height="1" fill="#e9c46a"/><rect x="-1.5" y="0.5" width="2" height="1" fill="#e9c46a"/></g></g><g transform="translate(41.4 6)"><g class="lp-drift" style="animation-duration:9.84s;animation-delay:-2.51s"><rect x="-0.5" y="-1.5" width="2" height="1" fill="#e9c46a"/><rect x="-1.5" y="-0.5" width="3" height="1" fill="#e9c46a"/><rect x="-1.5" y="0.5" width="2" height="1" fill="#e9c46a"/></g></g><g transform="translate(49 6)"><g class="lp-drift" style="animation-duration:7.67s;animation-delay:-9.15s"><rect x="-0.5" y="-1.5" width="2" height="1" fill="#f4a261"/><rect x="-1.5" y="-0.5" width="3" height="1" fill="#f4a261"/><rect x="-1.5" y="0.5" width="2" height="1" fill="#f4a261"/></g></g><g transform="translate(43.8 6)"><g class="lp-drift" style="animation-duration:8.94s;animation-delay:-1.83s"><rect x="-0.5" y="-1.5" width="2" height="1" fill="#d62828"/><rect x="-1.5" y="-0.5" width="3" height="1" fill="#d62828"/><rect x="-1.5" y="0.5" width="2" height="1" fill="#d62828"/></g></g><g transform="translate(123 6)"><g class="lp-drift" style="animation-duration:9.05s;animation-delay:-2.33s"><rect x="-0.5" y="-1.5" width="2" height="1" fill="#e9c46a"/><rect x="-1.5" y="-0.5" width="3" height="1" fill="#e9c46a"/><rect x="-1.5" y="0.5" width="2" height="1" fill="#e9c46a"/></g></g><g transform="translate(137 6)"><g class="lp-drift" style="animation-duration:8.29s;animation-delay:-8.24s"><rect x="-0.5" y="-1.5" width="2" height="1" fill="#e76f51"/><rect x="-1.5" y="-0.5" width="3" height="1" fill="#e76f51"/><rect x="-1.5" y="0.5" width="2" height="1" fill="#e76f51"/></g></g></g></g><text x="80" y="171" text-anchor="middle" class="lp-mini-name">Ruli</text><text x="80" y="185" text-anchor="middle" class="lp-mini-sub">Lv.21 · 🤩 ecstatic</text></svg>