<svg xmlns="http://www.w3.org/2000/svg" width="160" height="192" viewBox="0 0 160 192" role="img" aria-labelledby="lpjd1chs-t lpjd1chs-d"><title id="lpjd1chs-t">Ruli the Radiant 🤩 octo-org/demo</title><desc id="lpjd1chs-d">Ruli the Radiant: Lv.21 Adult Crab, ecstatic. Fullness 99%, Health 100%, Joy 100%, Energy 97%, Hygiene 100%. “@octocat fed me a treat (#42) 🍪”</desc><style>svg{--lp-bg:#ffffff;--lp-border:#e3e8ef;--lp-text:#1f2430;--lp-muted:#6b7385;--lp-bubble:#f5f7fb;--lp-bubble-border:#d5dbe7;--lp-track:#e6eaf1;--lp-shadow:rgba(0,0,0,.16);--lp-sky1:#9ad9ff;--lp-sky2:#e4f6ff;--lp-g1:#79c267;--lp-g2:#5aa851}.lp-night{display:none}.lp-card{fill:var(--lp-bg);stroke:var(--lp-border)}.lp-sky1{stop-color:var(--lp-sky1)}.lp-sky2{stop-color:var(--lp-sky2)}.lp-ground{fill:var(--lp-g1)}.lp-ground2{fill:var(--lp-g2)}.lp-shadow{fill:var(--lp-shadow)}.lp-px{shape-rendering:crispEdges}.lp-name{font:700 16px ui-monospace,SFMono-Regular,'SF Mono',Menlo,Consolas,'Liberation Mono',monospace;fill:var(--lp-text)}.lp-sub{font:400 11px ui-monospace,SFMono-Regular,'SF Mono',Menlo,Consolas,'Liberation Mono',monospace;fill:var(--lp-muted)}.lp-say{font:400 11.5px ui-monospace,SFMono-Regular,'SF Mono',Menlo,Consolas,'Liberation Mono',monospace;fill:var(--lp-text)}.lp-label{font:400 11px ui-monospace,SFMono-Regular,'SF Mono',Menlo,Consolas,'Liberation Mono',monospace;fill:var(--lp-muted)}.lp-val{font:700 11px ui-monospace,SFMono-Regular,'SF Mono',Menlo,Consolas,'Liberation Mono',monospace;fill:var(--lp-text)}.lp-icon{font:400 11px ui-monospace,SFMono-Regular,'SF Mono',Menlo,Consolas,'Liberation Mono',monospace}.lp-trophy{font:400 14px ui-monospace,SFMono-Regular,'SF Mono',Menlo,Consolas,'Liberation Mono',monospace}.lp-foot{font:400 9.5px ui-monospace,SFMono-Regular,'SF Mono',Menlo,Consolas,'Liberation Mono',monospace;fill:var(--lp-muted)}.lp-brand{font:700 9.5px ui-monospace,SFMono-Regular,'SF Mono',Menlo,Consolas,'Liberation Mono',monospace;fill:var(--lp-muted)}.lp-mini-name{font:700 12px ui-monospace,SFMono-Regular,'SF Mono',Menlo,Consolas,'Liberation Mono',monospace;fill:var(--lp-text)}.lp-tag{font:700 11px ui-monospace,SFMono-Regular,'SF Mono',Menlo,Consolas,'Liberation Mono',monospace;fill:var(--lp-text)}.lp-tag-sub{font:400 9.5px ui-monospace,SFMono-Regular,'SF Mono',Menlo,Consolas,'Liberation Mono',monospace;fill:var(--lp-muted)}.lp-mini-sub{font:400 9.5px ui-monospace,SFMono-Regular,'SF Mono',Menlo,Consolas,'Liberation Mono',monospace;fill:var(--lp-muted)}.lp-z{font:700 12px ui-monospace,SFMono-Regular,'SF Mono',Menlo,Consolas,'Liberation Mono',monospace;fill:var(--lp-text)}.lp-bit{font:700 10px ui-monospace,SFMono-Regular,'SF Mono',Menlo,Consolas,'Liberation Mono',monospace;fill:#3fb950}.lp-bubble,.lp-thought{fill:var(--lp-bubble);stroke:var(--lp-bubble-border)}.lp-tail{fill:var(--lp-bubble);stroke:var(--lp-bubble-border);stroke-linejoin:round}.lp-seg,.lp-track{fill:var(--lp-track)}.lp-good{fill:#3fb950}.lp-mid{fill:#e3b341}.lp-low{fill:#f85149}.lp-xp{fill:#a371f7}.lp-ink{fill:var(--lp-text)}.lp-fly{fill:var(--lp-text)}.lp-star{fill:#fff8d6}.lp-snow{fill:#ffffff}.lp-raindrop{fill:#5ec8ff}.lp-firefly{fill:#fff59d}.lp-string{fill:#5a1e1e}.lp-bounce{animation:lp-bounce 2s ease-in-out infinite}.lp-hop{animation:lp-hop 1s ease-in-out infinite}.lp-breathe{animation:lp-breathe 4s ease-in-out infinite}.lp-sway{animation:lp-sway 3s ease-in-out infinite}.lp-shiver{animation:lp-shiver .35s linear infinite}.lp-wobble{animation:lp-wobble 3s ease-in-out infinite}.lp-growl{animation:lp-growl 3s linear infinite}.lp-blink-open{animation:lp-blink-open 4s infinite}.lp-blink-closed{opacity:0;animation:lp-blink-closed 4s infinite}.lp-rise{animation:lp-rise 3s ease-out infinite both}.lp-zz{animation:lp-zz 3s ease-out infinite both}.lp-fall{animation:lp-fall 3s linear infinite}.lp-drift{animation:lp-drift 9s linear infinite}.lp-drip{animation:lp-drip 1.6s ease-in infinite both}.lp-orbit{animation:lp-orbit 2.4s linear infinite}.lp-twinkle{animation:lp-twinkle 2s ease-in-out infinite both}.lp-burst{animation:lp-burst 2.4s ease-out infinite both}.lp-float{animation:lp-float 3s ease-in-out infinite}.lp-swing{animation:lp-swing 3s ease-in-out infinite}.lp-cloud{animation:lp-cloud 14s ease-in-out infinite alternate}.lp-alert{animation:lp-alert 1.2s steps(2) infinite}.lp-new{animation:lp-float 1.6s ease-in-out infinite}@keyframes lp-bounce{0%,100%{transform:translateY(0)}50%{transform:translateY(-5px)}}@keyframes lp-hop{0%,100%{transform:translateY(0)}35%{transform:translateY(-14px)}55%{transform:translateY(0)}65%{transform:translateY(-3px)}}@keyframes lp-breathe{0%,100%{transform:scale(1,1)}50%{transform:scale(1.04,.96)}}@keyframes lp-sway{0%,100%{transform:rotate(-5deg)}50%{transform:rotate(5deg)}}@keyframes lp-shiver{0%,100%{transform:translateX(0)}25%{transform:translateX(-1.5px)}75%{transform:translateX(1.5px)}}@keyframes lp-wobble{0%,60%,100%{transform:rotate(0)}68%{transform:rotate(-9deg)}78%{transform:rotate(8deg)}88%{transform:rotate(-4deg)}}@keyframes lp-growl{0%,78%,100%{transform:translateX(0)}82%{transform:translateX(-2px)}86%{transform:translateX(2px)}90%{transform:translateX(-2px)}94%{transform:translateX(1px)}}@keyframes lp-blink-open{0%,93%,100%{opacity:1}94%,98%{opacity:0}}@keyframes lp-blink-closed{0%,93%,100%{opacity:0}94%,98%{opacity:1}}@keyframes lp-rise{0%{transform:translateY(0);opacity:0}20%{opacity:1}100%{transform:translateY(-34px);opacity:0}}@keyframes lp-zz{0%{transform:translate(0,0);opacity:0}20%{opacity:1}100%{transform:translate(10px,-26px);opacity:0}}@keyframes lp-fall{0%{transform:translateY(-20px) rotate(0)}100%{transform:translateY(260px) rotate(540deg)}}@keyframes lp-drift{0%{transform:translate(0,-20px) rotate(0)}50%{transform:translate(14px,110px) rotate(160deg)}100%{transform:translate(-8px,260px) rotate(340deg)}}@keyframes lp-drip{0%{transform:translateY(0);opacity:0}15%{opacity:1}100%{transform:translateY(16px);opacity:0}}@keyframes lp-orbit{to{transform:rotate(360deg)}}@keyframes lp-twinkle{0%,100%{opacity:.15}50%{opacity:1}}@keyframes lp-burst{0%{transform:scale(.1);opacity:0}10%{opacity:1}70%{opacity:.9}100%{transform:scale(1.3);opacity:0}}@keyframes lp-float{0%,100%{transform:translateY(0)}50%{transform:translateY(-3px)}}@keyframes lp-swing{0%,100%{transform:rotate(-6deg)}50%{transform:rotate(6deg)}}@keyframes lp-cloud{from{transform:translateX(-6px)}to{transform:translateX(10px)}}@keyframes lp-alert{0%{opacity:1}50%{opacity:.35}}@media (prefers-reduced-motion:reduce){*{animation:none!important}}</style><defs><linearGradient id="lpjd1chs-sky" x1="0" y1="0" x2="0" y2="1"><stop offset="0" class="lp-sky1"/><stop offset="1" class="lp-sky2"/></linearGradient><clipPath id="lpjd1chs-clip"><rect x="6" y="6" width="148" height="148" rx="12"/></clipPath></defs><rect x="0.5" y="0.5" width="159" height="191" rx="16" class="lp-card"/><g clip-path="url(#lpjd1chs-clip)"><rect x="6" y="6" width="148" height="148" fill="url(#lpjd1chs-sky)"/><g class="lp-day lp-px"><g transform="translate(17.8 17.8)"><g class="lp-cloud" style="animation-duration:10.23s"><rect x="6" y="0" width="6" height="2" fill="#ffffffd9"/><rect x="2" y="2" width="14" height="2" fill="#ffffffd9"/><rect x="0" y="4" width="18" height="2" fill="#ffffffd9"/><rect x="2" y="6" width="14" height="2" fill="#ffffffd9"/></g></g><g transform="translate(87.4 35.6)"><g class="lp-cloud" style="animation-duration:14.96s"><rect x="6" y="0" width="6" height="2" fill="#ffffffd9"/><rect x="2" y="2" width="14" height="2" fill="#ffffffd9"/><rect x="0" y="4" width="18" height="2" fill="#ffffffd9"/><rect x="2" y="6" width="14" height="2" fill="#ffffffd9"/></g></g></g><g class="lp-night lp-px"><rect x="136" y="16" width="6" height="2" fill="#fff3b0"/><rect x="134" y="18" width="4" height="2" fill="#fff3b0"/><rect x="132" y="20" width="4" height="2" fill="#fff3b0"/><rect x="132" y="22" width="4" height="2" fill="#fff3b0"/><rect x="134" y="24" width="4" height="2" fill="#fff3b0"/><rect x="136" y="26" width="6" height="2" fill="#fff3b0"/><rect x="35.4" y="67.7" width="2" height="2" class="lp-star lp-twinkle" style="animation-duration:1.98s;animation-delay:-1.43s"/><rect x="41.7" y="13.1" width="2" height="2" class="lp-star lp-twinkle" style="animation-duration:1.90s;animation-delay:-2.84s"/><rect x="72.4" y="55.8" width="2" height="2" class="lp-star lp-twinkle" style="animation-duration:2.28s;animation-delay:-1.62s"/><rect x="33.7" y="42.5" width="2" height="2" class="lp-star lp-twinkle" style="animation-duration:2.16s;animation-delay:-1.53s"/><rect x="103.7" y="52.3" width="2" height="2" class="lp-star lp-twinkle" style="animation-duration:2.73s;animation-delay:-2.71s"/><rect x="44.9" y="26.4" width="2" height="2" class="lp-star lp-twinkle" style="animation-duration:2.06s;animation-delay:-2.50s"/><rect x="24.5" y="30.4" width="2" height="2" class="lp-star lp-twinkle" style="animation-duration:1.74s;animation-delay:-1.94s"/></g><g class="lp-px"><rect x="6" y="126" width="148" height="28" class="lp-ground"/><rect x="6" y="126" width="148" height="2" class="lp-ground2"/><rect x="11" y="123" width="2" height="3" class="lp-ground2"/><rect x="14" y="121" width="2" height="5" class="lp-ground2"/><rect x="29" y="123" width="2" height="3" class="lp-ground2"/><rect x="32" y="121" width="2" height="5" class="lp-ground2"/><rect x="51" y="123" width="2" height="3" class="lp-ground2"/><rect x="54" y="121" width="2" height="5" class="lp-ground2"/><rect x="71" y="123" width="2" height="3" class="lp-ground2"/><rect x="74" y="121" width="2" height="5" class="lp-ground2"/><rect x="87" y="123" width="2" height="3" class="lp-ground2"/><rect x="90" y="121" width="2" height="5" class="lp-ground2"/><rect x="105" y="123" width="2" height="3" class="lp-ground2"/><rect x="108" y="121" width="2" height="5" class="lp-ground2"/><rect x="119" y="123" width="2" height="3" class="lp-ground2"/><rect x="122" y="121" width="2" height="5" class="lp-ground2"/><rect x="135" y="123" width="2" height="3" class="lp-ground2"/><rect x="138" y="121" width="2" height="5" class="lp-ground2"/><rect x="99.8" y="146.7" width="3" height="2" class="lp-ground2"/><rect x="130.4" y="138" width="3" height="2" class="lp-ground2"/><rect x="65.8" y="138.2" width="3" height="2" class="lp-ground2"/></g><g class="lp-px"><rect x="124" y="124" width="2" height="2" fill="#c47a3a"/><rect x="126" y="124" width="2" height="2" fill="#e8a35e"/><rect x="128" y="124" width="2" height="2" fill="#c47a3a"/><rect x="130" y="124" width="2" height="2" fill="#e8a35e"/><rect x="132" y="124" width="4" height="2" fill="#c47a3a"/><rect x="120" y="126" width="2" height="2" fill="#c47a3a"/><rect x="122" y="126" width="2" height="2" fill="#e8a35e"/><rect x="124" y="126" width="4" height="2" fill="#c47a3a"/><rect x="128" y="126" width="2" height="2" fill="#e8a35e"/><rect x="130" y="126" width="2" height="2" fill="#c47a3a"/><rect x="132" y="126" width="2" height="2" fill="#e8a35e"/><rect x="134" y="126" width="2" height="2" fill="#c47a3a"/><rect x="136" y="126" width="2" height="2" fill="#e8a35e"/><rect x="138" y="126" width="2" height="2" fill="#c47a3a"/><rect x="118" y="128" width="24" height="2" fill="#1b3a5c"/><rect x="120" y="130" width="2" height="2" fill="#1b3a5c"/><rect x="122" y="130" width="16" height="2" fill="#5ec8ff"/><rect x="138" y="130" width="2" height="2" fill="#1b3a5c"/><rect x="122" y="132" width="16" height="2" fill="#1b3a5c"/></g><ellipse cx="68" cy="131" rx="30" ry="3" class="lp-shadow"/><g transform="translate(68 132)"><g class="lp-hop" style="animation-duration:1.20s"><g transform="translate(-68 -132)" class="lp-px"><rect x="33" y="62" width="15" height="5" fill="#103a25"/><rect x="88" y="62" width="15" height="5" fill="#103a25"/><rect x="28" y="67" width="5" height="5" fill="#103a25"/><rect x="33" y="67" width="5" height="5" fill="#96ffd9"/><rect x="38" y="67" width="10" height="5" fill="#5bffbd"/><rect x="48" y="67" width="5" height="5" fill="#103a25"/><rect x="83" y="67" width="5" height="5" fill="#103a25"/><rect x="88" y="67" width="5" height="5" fill="#96ffd9"/><rect x="93" y="67" width="10" height="5" fill="#5bffbd"/><rect x="103" y="67" width="5" height="5" fill="#103a25"/><rect x="28" y="72" width="5" height="5" fill="#103a25"/><rect x="33" y="72" width="5" height="5" fill="#5bffbd"/><rect x="43" y="72" width="10" height="5" fill="#103a25"/><rect x="83" y="72" width="10" height="5" fill="#103a25"/><rect x="98" y="72" width="5" height="5" fill="#5bffbd"/><rect x="103" y="72" width="5" height="5" fill="#103a25"/><rect x="28" y="77" width="5" height="5" fill="#103a25"/><rect x="33" y="77" width="15" height="5" fill="#5bffbd"/><rect x="48" y="77" width="5" height="5" fill="#103a25"/><rect x="83" y="77" width="5" height="5" fill="#103a25"/><rect x="88" y="77" width="15" height="5" fill="#5bffbd"/><rect x="103" y="77" width="5" height="5" fill="#103a25"/><rect x="33" y="82" width="5" height="5" fill="#103a25"/><rect x="38" y="82" width="5" height="5" fill="#5bffbd"/><rect x="43" y="82" width="5" height="5" fill="#103a25"/><rect x="53" y="82" width="30" height="5" fill="#103a25"/><rect x="88" y="82" width="5" height="5" fill="#103a25"/><rect x="93" y="82" width="5" height="5" fill="#5bffbd"/><rect x="98" y="82" width="5" height="5" fill="#103a25"/><rect x="38" y="87" width="5" height="5" fill="#103a25"/><rect x="43" y="87" width="5" height="5" fill="#5bffbd"/><rect x="48" y="87" width="5" height="5" fill="#103a25"/><rect x="53" y="87" width="30" height="5" fill="#5bffbd"/><rect x="83" y="87" width="5" height="5" fill="#103a25"/><rect x="88" y="87" width="5" height="5" fill="#5bffbd"/><rect x="93" y="87" width="5" height="5" fill="#103a25"/><rect x="43" y="92" width="5" height="5" fill="#103a25"/><rect x="48" y="92" width="10" height="5" fill="#4c6ef5"/><rect x="58" y="92" width="20" height="5" fill="#5bffbd"/><rect x="78" y="92" width="10" height="5" fill="#4c6ef5"/><rect x="88" y="92" width="5" height="5" fill="#103a25"/><rect x="38" y="97" width="5" height="5" fill="#103a25"/><rect x="43" y="97" width="5" height="5" fill="#4c6ef5"/><rect x="48" y="97" width="10" height="5" fill="#5bffbd"/><rect x="58" y="97" width="20" height="5" fill="#4c6ef5"/><rect x="78" y="97" width="10" height="5" fill="#5bffbd"/><rect x="88" y="97" width="5" height="5" fill="#4c6ef5"/><rect x="93" y="97" width="5" height="5" fill="#103a25"/><rect x="33" y="102" width="5" height="5" fill="#103a25"/><rect x="38" y="102" width="5" height="5" fill="#5bffbd"/><rect x="43" y="102" width="5" height="5" fill="#4c6ef5"/><rect x="48" y="102" width="10" height="5" fill="#5bffbd"/><rect x="58" y="102" width="5" height="5" fill="#4c6ef5"/><rect x="63" y="102" width="10" height="5" fill="#5bffbd"/><rect x="73" y="102" width="5" height="5" fill="#4c6ef5"/><rect x="78" y="102" width="10" height="5" fill="#5bffbd"/><rect x="88" y="102" width="5" height="5" fill="#4c6ef5"/><rect x="93" y="102" width="5" height="5" fill="#5bffbd"/><rect x="98" y="102" width="5" height="5" fill="#103a25"/><rect x="33" y="107" width="5" height="5" fill="#103a25"/><rect x="38" y="107" width="10" height="5" fill="#ff8fab99"/><rect x="48" y="107" width="10" height="5" fill="#4c6ef5"/><rect x="58" y="107" width="20" height="5" fill="#103a25"/><rect x="78" y="107" width="10" height="5" fill="#4c6ef5"/><rect x="88" y="107" width="10" height="5" fill="#ff8fab99"/><rect x="98" y="107" width="5" height="5" fill="#103a25"/><rect x="33" y="112" width="5" height="5" fill="#103a25"/><rect x="38" y="112" width="5" height="5" fill="#3dd99a"/><rect x="43" y="112" width="15" height="5" fill="#5bffbd"/><rect x="58" y="112" width="5" height="5" fill="#103a25"/><rect x="63" y="112" width="10" height="5" fill="#ff5d73"/><rect x="73" y="112" width="5" height="5" fill="#103a25"/><rect x="78" y="112" width="15" height="5" fill="#5bffbd"/><rect x="93" y="112" width="5" height="5" fill="#3dd99a"/><rect x="98" y="112" width="5" height="5" fill="#103a25"/><rect x="38" y="117" width="5" height="5" fill="#103a25"/><rect x="43" y="117" width="10" height="5" fill="#3dd99a"/><rect x="53" y="117" width="10" height="5" fill="#5bffbd"/><rect x="63" y="117" width="10" height="5" fill="#103a25"/><rect x="73" y="117" width="10" height="5" fill="#5bffbd"/><rect x="83" y="117" width="10" height="5" fill="#3dd99a"/><rect x="93" y="117" width="5" height="5" fill="#103a25"/><rect x="38" y="122" width="60" height="5" fill="#103a25"/><rect x="33" y="127" width="5" height="5" fill="#103a25"/><rect x="43" y="127" width="5" height="5" fill="#103a25"/><rect x="53" y="127" width="5" height="5" fill="#103a25"/><rect x="78" y="127" width="5" height="5" fill="#103a25"/><rect x="88" y="127" width="5" height="5" fill="#103a25"/><rect x="98" y="127" width="5" height="5" fill="#103a25"/><rect x="53" y="97" width="5" height="5" fill="#103a25"/><rect x="78" y="97" width="5" height="5" fill="#103a25"/><rect x="48" y="102" width="5" height="5" fill="#103a25"/><rect x="58" y="102" width="5" height="5" fill="#103a25"/><rect x="73" y="102" width="5" height="5" fill="#103a25"/><rect x="83" y="102" width="5" height="5" fill="#103a25"/><rect x="48" y="67" width="5" height="5" fill="#ffd23f"/><rect x="63" y="67" width="10" height="5" fill="#ffd23f"/><rect x="83" y="67" width="5" height="5" fill="#ffd23f"/><rect x="48" y="72" width="10" height="5" fill="#ffd23f"/><rect x="63" y="72" width="10" height="5" fill="#ffd23f"/><rect x="78" y="72" width="10" height="5" fill="#ffd23f"/><rect x="48" y="77" width="15" height="5" fill="#ffd23f"/><rect x="63" y="77" width="10" height="5" fill="#ff4d6d"/><rect x="73" y="77" width="15" height="5" fill="#ffd23f"/><rect x="48" y="82" width="40" height="5" fill="#c99a06"/></g></g></g><g transform="translate(28 66.2)"><g class="lp-rise lp-px" style="animation-duration:3.30s;animation-delay:0.00s"><rect x="-5" y="-4" width="4" height="2" fill="#ff5d8f"/><rect x="1" y="-4" width="4" height="2" fill="#ff5d8f"/><rect x="-5" y="-2" width="10" height="2" fill="#ff5d8f"/><rect x="-3" y="0" width="6" height="2" fill="#ff5d8f"/><rect x="-1" y="2" width="2" height="2" fill="#ff5d8f"/></g></g><g transform="translate(103.2 59.2)"><g class="lp-rise lp-px" style="animation-duration:3.30s;animation-delay:1.10s"><rect x="-5" y="-4" width="4" height="2" fill="#ff5d8f"/><rect x="1" y="-4" width="4" height="2" fill="#ff5d8f"/><rect x="-5" y="-2" width="10" height="2" fill="#ff5d8f"/><rect x="-3" y="0" width="6" height="2" fill="#ff5d8f"/><rect x="-1" y="2" width="2" height="2" fill="#ff5d8f"/></g></g><g transform="translate(68 52.2)"><g class="lp-rise lp-px" style="animation-duration:3.30s;animation-delay:2.20s"><rect x="-5" y="-4" width="4" height="2" fill="#ff5d8f"/><rect x="1" y="-4" width="4" height="2" fill="#ff5d8f"/><rect x="-5" y="-2" width="10" height="2" fill="#ff5d8f"/><rect x="-3" y="0" width="6" height="2" fill="#ff5d8f"/><rect x="-1" y="2" width="2" height="2" fill="#ff5d8f"/></g></g><g transform="translate(56.2 62.9)"><g class="lp-twinkle lp-px" style="animation-duration:2.58s;animation-delay:-1.52s"><rect x="-0.5" y="-1.5" width="1" height="1" fill="#ffe066"/><rect x="-1.5" y="-0.5" width="3" height="1" fill="#ffe066"/><rect x="-0.5" y="0.5" width="1" height="1" fill="#ffe066"/></g></g><g transform="translate(104.1 73.5)"><g class="lp-twinkle lp-px" style="animation-duration:1.57s;animation-delay:-0.02s"><rect x="-0.5" y="-1.5" width="1" height="1" fill="#ffffff"/><rect x="-1.5" y="-0.5" width="3" height="1" fill="#ffffff"/><rect x="-0.5" y="0.5" width="1" height="1" fill="#ffffff"/></g></g><g transform="translate(106.6 61.1)"><g class="lp-twinkle lp-px" style="animation-duration:2.50s;animation-delay:-1.73s"><rect x="-0.5" y="-1.5" width="1" height="1" fill="#ffe066"/><rect x="-1.5" y="-0.5" width="3" height="1" fill="#ffe066"/><rect x="-0.5" y="0.5" width="1" height="1" fill="#ffe066"/></g></g><g transform="translate(77 109.1)"><g class="lp-twinkle lp-px" style="animation-duration:1.83s;animation-delay:-0.44s"><rect x="-0.5" y="-1.5" width="1" height="1" fill="#ffffff"/><rect x="-1.5" y="-0.5" width="3" height="1" fill="#ffffff"/><rect x="-0.5" y="0.5" width="1" height="1" fill="#ffffff"/></g></g><g class="lp-px"><g transform="translate(72.4 6)"><g class="lp-drift" style="animation-duration:7.60s;animation-delay:-7.02s"><rect x="-0.5" y="-1.5" width="2" height="1" fill="#e9c46a"/><rect x="-1.5" y="-0.5" width="3" height="1" fill="#e9c46a"/><rect x="-1.5" y="0.5" width="2" height="1" fill="#e9c46a"/></g></g><g transform="translate(59.5 6)"><g class="lp-drift" style="animation-duration:7.66s;animation-delay:-9.74s"><rect x="-0.5" y="-1.5" width="2" height="1" fill="#d62828"/><rect x="-1.5" y="-0.5" width="3" height="1" fill="#d62828"/><rect x="-1.5" y="0.5" width="2" height="1" fill="#d62828"/></g></g><g transform="translate(33 6)"><g class="lp-drift" style="animation-duration:7.27s;animation-delay:-8.65s"><rect x="-0.5" y="-1.5" width="2" height="1" fill="#e9c46a"/><rect x="-1.5" y="-0.5" width="3" height="1" fill="#e9c46a"/><rect x="-1.5" y="0.5" width="2" height="1" fill="#e9c46a"/></g></g><g transform="translate(79.6 6)"><g class="lp-drift" style="animation-duration:9.88s;animation-delay:-1.59s"><rect x="-0.5" y="-1.5" width="2" height="1" fill="#d62828"/><rect x="-1.5" y="-0.5" width="3" height="1" fill="#d62828"/><rect x="-1.5" y="0.5" width="2" height="1" fill="#d62828"/></g></g><g transform="translate(101.3 6)"><g class="lp-drift" style="animation-duration:9.71s;animation-delay:-7.53s"><rect x="-0.5" y="-1.5" width="2" height="1" fill="#e9c46a"/><rect x="-1.5" y="-0.5" width="3" height="1" fill="#e9c46a"/><rect x="-1.5" y="0.5" width="2" height="1" fill="#e9c46a"/></g></g><g transform="translate(103.9 6)"><g class="lp-drift" style="animation-duration:9.25s;animation-delay:-7.11s"><rect x="-0.5" y="-1.5" width="2" height="1" fill="#e9c46a"/><rect x="-1.5" y="-0.5" width="3" height="1" fill="#e9c46a"/><rect x="-1.5" y="0.5" width="2" height="1" fill="#e9c46a"/></g></g></g></g><text x="80" y="171" text-anchor="middle" class="lp-mini-name">Ruli</text><text x="80" y="185" text-anchor="middle" class="lp-mini-sub">Lv.21 · 🤩 ecstatic</text></svg>