<svg xmlns="http://www.w3.org/2000/svg" width="160" height="192" viewBox="0 0 160 192" role="img" aria-labelledby="lpjd1chs-t lpjd1chs-d"><title id="lpjd1chs-t">Ruli the Radiant 🤩 octo-org/demo</title><desc id="lpjd1chs-d">Ruli the Radiant: Lv.21 (Silver) Adult Daruma, ecstatic. Fullness 99%, Health 100%, Joy 100%, Energy 97%, Hygiene 100%. “Quest done: Commit on 3 different days ⭐”</desc><style>svg{--lp-bg:#ffffff;--lp-border:#e3e8ef;--lp-text:#1f2430;--lp-muted:#6b7385;--lp-bubble:#f5f7fb;--lp-bubble-border:#d5dbe7;--lp-track:#e6eaf1;--lp-shadow:rgba(0,0,0,.16);--lp-sky1:#9ad9ff;--lp-sky2:#e4f6ff;--lp-g1:#79c267;--lp-g2:#5aa851;--lp-water:#5fb8e8;--lp-water2:#e4f7ff;--lp-far:#a9d8a0;--lp-mid:#8cc97c}.lp-night{display:none}.lp-card{fill:var(--lp-bg);stroke:var(--lp-border)}.lp-sky1{stop-color:var(--lp-sky1)}.lp-sky2{stop-color:var(--lp-sky2)}.lp-ground{fill:var(--lp-g1)}.lp-ground2{fill:var(--lp-g2)}.lp-shadow{fill:var(--lp-shadow)}.lp-px{shape-rendering:crispEdges}.lp-name{font:700 16px ui-monospace,SFMono-Regular,'SF Mono',Menlo,Consolas,'Liberation Mono',monospace;fill:var(--lp-text)}.lp-sub{font:400 11px ui-monospace,SFMono-Regular,'SF Mono',Menlo,Consolas,'Liberation Mono',monospace;fill:var(--lp-muted)}.lp-say{font:400 11.5px ui-monospace,SFMono-Regular,'SF Mono',Menlo,Consolas,'Liberation Mono',monospace;fill:var(--lp-text)}.lp-label{font:400 11px ui-monospace,SFMono-Regular,'SF Mono',Menlo,Consolas,'Liberation Mono',monospace;fill:var(--lp-muted)}.lp-val{font:700 11px ui-monospace,SFMono-Regular,'SF Mono',Menlo,Consolas,'Liberation Mono',monospace;fill:var(--lp-text)}.lp-icon{font:400 11px ui-monospace,SFMono-Regular,'SF Mono',Menlo,Consolas,'Liberation Mono',monospace}.lp-trophy{font:400 14px ui-monospace,SFMono-Regular,'SF Mono',Menlo,Consolas,'Liberation Mono',monospace}.lp-foot{font:400 9.5px ui-monospace,SFMono-Regular,'SF Mono',Menlo,Consolas,'Liberation Mono',monospace;fill:var(--lp-muted)}.lp-brand{font:700 9.5px ui-monospace,SFMono-Regular,'SF Mono',Menlo,Consolas,'Liberation Mono',monospace;fill:var(--lp-muted)}.lp-mini-name{font:700 12px ui-monospace,SFMono-Regular,'SF Mono',Menlo,Consolas,'Liberation Mono',monospace;fill:var(--lp-text)}.lp-tag{font:700 11px ui-monospace,SFMono-Regular,'SF Mono',Menlo,Consolas,'Liberation Mono',monospace;fill:var(--lp-text)}.lp-tag-sub{font:400 9.5px ui-monospace,SFMono-Regular,'SF Mono',Menlo,Consolas,'Liberation Mono',monospace;fill:var(--lp-muted)}.lp-mini-sub{font:400 9.5px ui-monospace,SFMono-Regular,'SF Mono',Menlo,Consolas,'Liberation Mono',monospace;fill:var(--lp-muted)}.lp-z{font:700 12px ui-monospace,SFMono-Regular,'SF Mono',Menlo,Consolas,'Liberation Mono',monospace;fill:var(--lp-text)}.lp-bit{font:700 10px ui-monospace,SFMono-Regular,'SF Mono',Menlo,Consolas,'Liberation Mono',monospace;fill:#3fb950}.lp-bubble,.lp-thought{fill:var(--lp-bubble);stroke:var(--lp-bubble-border)}.lp-tail{fill:var(--lp-bubble);stroke:var(--lp-bubble-border);stroke-linejoin:round}.lp-seg,.lp-track{fill:var(--lp-track)}.lp-good{fill:#3fb950}.lp-mid{fill:#e3b341}.lp-low{fill:#f85149}.lp-xp{fill:#a371f7}.lp-ink{fill:var(--lp-text)}.lp-fly{fill:var(--lp-text)}.lp-star{fill:#fff8d6}.lp-snow{fill:#ffffff}.lp-raindrop{fill:#5ec8ff}.lp-firefly{fill:#fff59d}.lp-string{fill:#5a1e1e}.lp-far{fill:var(--lp-far)}.lp-mid{fill:var(--lp-mid)}.lp-water{fill:var(--lp-water)}.lp-water2{fill:var(--lp-water2)}.lp-ripple-line{stroke:var(--lp-water2)}.lp-sea{fill:var(--lp-water);opacity:.38}.lp-bubble-c{fill:none;stroke:#e4f7ff;stroke-width:1;opacity:.85}.lp-bounce{animation:lp-bounce 2s ease-in-out infinite}.lp-hop{animation:lp-hop 1s ease-in-out infinite}.lp-breathe{animation:lp-breathe 4s ease-in-out infinite}.lp-sway{animation:lp-sway 3s ease-in-out infinite}.lp-shiver{animation:lp-shiver .35s linear infinite}.lp-wobble{animation:lp-wobble 3s ease-in-out infinite}.lp-growl{animation:lp-growl 3s linear infinite}.lp-blink-open{animation:lp-blink-open 4s infinite}.lp-blink-closed{opacity:0;animation:lp-blink-closed 4s infinite}.lp-rise{animation:lp-rise 3s ease-out infinite both}.lp-zz{animation:lp-zz 3s ease-out infinite both}.lp-fall{animation:lp-fall 3s linear infinite}.lp-drift{animation:lp-drift 9s linear infinite}.lp-drip{animation:lp-drip 1.6s ease-in infinite both}.lp-orbit{animation:lp-orbit 2.4s linear infinite}.lp-twinkle{animation:lp-twinkle 2s ease-in-out infinite both}.lp-burst{animation:lp-burst 2.4s ease-out infinite both}.lp-float{animation:lp-float 3s ease-in-out infinite}.lp-swing{animation:lp-swing 3s ease-in-out infinite}.lp-cloud{animation:lp-cloud 14s ease-in-out infinite alternate}.lp-alert{animation:lp-alert 1.2s steps(2) infinite}.lp-flap{animation:lp-flap .5s steps(1) infinite}.lp-fly{animation:lp-fly 16s linear infinite}.lp-flutter{animation:lp-flutter 6s ease-in-out infinite}.lp-sway-soft{animation:lp-sway-soft 5s ease-in-out infinite}.lp-kelp{animation:lp-kelp 4s ease-in-out infinite}.lp-spin{animation:lp-orbit 6s linear infinite}.lp-mist{animation:lp-mist 9s ease-in-out infinite}.lp-shoot{animation:lp-shoot 8s linear infinite}.lp-aurora{animation:lp-aurora 6s ease-in-out infinite}.lp-rainbow{animation:lp-rainbow 5s ease-in-out infinite}.lp-wave{animation:lp-wave 3s ease-in-out infinite}.lp-tide{animation:lp-tide 4s ease-in-out infinite}.lp-ripple{animation:lp-ripple 3s ease-out infinite both}.lp-bubbling{animation:lp-bubble 5s ease-in infinite both}.lp-swim{animation:lp-swim 14s linear infinite}.lp-roll{animation:lp-roll 9s linear infinite}.lp-ray{animation:lp-ray 5s ease-in-out infinite}.lp-flow{animation:lp-flow 1s linear infinite both}.lp-glow{animation:lp-glow 2s ease-in-out infinite}.lp-haze{animation:lp-haze 2.2s ease-in-out infinite}.lp-flag{animation:lp-flag 1.8s ease-in-out infinite}.lp-bulb{animation:lp-bulb 1.2s steps(1) infinite}.lp-twinkle-soft{animation:lp-twinkle-soft 2.5s ease-in-out infinite}.lp-new{animation:lp-float 1.6s ease-in-out infinite}.lp-lvup{font:700 11px ui-monospace,SFMono-Regular,'SF Mono',Menlo,Consolas,'Liberation Mono',monospace;stroke:#3d2c00;stroke-width:2.5px;paint-order:stroke;stroke-linejoin:round}.lp-aura{opacity:.8;animation:lp-aura 1.1s ease-in-out infinite}.lp-pal-fly{animation:lp-pal-fly 3.4s ease-in-out infinite}.lp-pal-hop{animation:lp-pal-hop 1.6s ease-in-out infinite}.lp-quest{font:700 11px ui-monospace,SFMono-Regular,'SF Mono',Menlo,Consolas,'Liberation Mono',monospace;fill:var(--lp-muted)}.lp-more{font:700 10px ui-monospace,SFMono-Regular,'SF Mono',Menlo,Consolas,'Liberation Mono',monospace;fill:var(--lp-muted)}@keyframes lp-pal-fly{0%,100%{transform:translate(0,0)}25%{transform:translate(2px,-4px)}50%{transform:translate(0,-6px)}75%{transform:translate(-2px,-3px)}}@keyframes lp-pal-hop{0%,55%,100%{transform:translateY(0)}25%{transform:translateY(-5px)}}@keyframes lp-aura{0%,100%{opacity:.45}50%{opacity:.95}}@keyframes lp-bounce{0%,100%{transform:translateY(0)}50%{transform:translateY(-5px)}}@keyframes lp-hop{0%,100%{transform:translateY(0)}35%{transform:translateY(-14px)}55%{transform:translateY(0)}65%{transform:translateY(-3px)}}@keyframes lp-breathe{0%,100%{transform:scale(1,1)}50%{transform:scale(1.04,.96)}}@keyframes lp-sway{0%,100%{transform:rotate(-5deg)}50%{transform:rotate(5deg)}}@keyframes lp-shiver{0%,100%{transform:translateX(0)}25%{transform:translateX(-1.5px)}75%{transform:translateX(1.5px)}}@keyframes lp-wobble{0%,60%,100%{transform:rotate(0)}68%{transform:rotate(-9deg)}78%{transform:rotate(8deg)}88%{transform:rotate(-4deg)}}@keyframes lp-growl{0%,78%,100%{transform:translateX(0)}82%{transform:translateX(-2px)}86%{transform:translateX(2px)}90%{transform:translateX(-2px)}94%{transform:translateX(1px)}}@keyframes lp-blink-open{0%,93%,100%{opacity:1}94%,98%{opacity:0}}@keyframes lp-blink-closed{0%,93%,100%{opacity:0}94%,98%{opacity:1}}@keyframes lp-rise{0%{transform:translateY(0);opacity:0}20%{opacity:1}100%{transform:translateY(-34px);opacity:0}}@keyframes lp-zz{0%{transform:translate(0,0);opacity:0}20%{opacity:1}100%{transform:translate(10px,-26px);opacity:0}}@keyframes lp-fall{0%{transform:translateY(-20px) rotate(0)}100%{transform:translateY(260px) rotate(540deg)}}@keyframes lp-drift{0%{transform:translate(0,-20px) rotate(0)}50%{transform:translate(14px,110px) rotate(160deg)}100%{transform:translate(-8px,260px) rotate(340deg)}}@keyframes lp-drip{0%{transform:translateY(0);opacity:0}15%{opacity:1}100%{transform:translateY(16px);opacity:0}}@keyframes lp-orbit{to{transform:rotate(360deg)}}@keyframes lp-twinkle{0%,100%{opacity:.15}50%{opacity:1}}@keyframes lp-burst{0%{transform:scale(.1);opacity:0}10%{opacity:1}70%{opacity:.9}100%{transform:scale(1.3);opacity:0}}@keyframes lp-float{0%,100%{transform:translateY(0)}50%{transform:translateY(-3px)}}@keyframes lp-swing{0%,100%{transform:rotate(-6deg)}50%{transform:rotate(6deg)}}@keyframes lp-cloud{from{transform:translateX(-6px)}to{transform:translateX(10px)}}@keyframes lp-alert{0%{opacity:1}50%{opacity:.35}}@keyframes lp-flap{0%{opacity:1}50%{opacity:0}}@keyframes lp-fly{from{transform:translate(-40px,0)}50%{transform:translate(130px,-8px)}to{transform:translate(300px,4px)}}@keyframes lp-flutter{0%,100%{transform:translate(0,0)}25%{transform:translate(14px,-9px)}50%{transform:translate(24px,1px)}75%{transform:translate(9px,7px)}}@keyframes lp-sway-soft{0%,100%{transform:rotate(-2deg)}50%{transform:rotate(2deg)}}@keyframes lp-kelp{0%,100%{transform:skewX(-9deg)}50%{transform:skewX(9deg)}}@keyframes lp-mist{0%,100%{transform:translateX(-14px)}50%{transform:translateX(14px)}}@keyframes lp-shoot{0%,86%{transform:translate(0,0);opacity:0}88%{opacity:1}100%{transform:translate(-70px,36px);opacity:0}}@keyframes lp-aurora{0%,100%{opacity:.1;transform:translateY(0)}50%{opacity:.5;transform:translateY(3px)}}@keyframes lp-rainbow{0%,100%{opacity:.25}50%{opacity:.6}}@keyframes lp-wave{0%,100%{transform:translateX(0)}50%{transform:translateX(-7px)}}@keyframes lp-tide{0%,100%{transform:translateY(0);opacity:.2}50%{transform:translateY(4px);opacity:.9}}@keyframes lp-ripple{0%{transform:scale(.2);opacity:.9}100%{transform:scale(1.5);opacity:0}}@keyframes lp-bubble{0%{transform:translate(0,0);opacity:0}10%{opacity:.9}50%{transform:translate(4px,-80px)}100%{transform:translate(-3px,-170px);opacity:0}}@keyframes lp-swim{from{transform:translateX(0)}50%{transform:translate(-160px,-6px)}to{transform:translateX(-340px)}}@keyframes lp-roll{0%{transform:translate(0,0)}20%{transform:translate(60px,-6px)}25%{transform:translate(75px,0)}55%{transform:translate(165px,-8px)}60%{transform:translate(180px,0)}100%{transform:translate(300px,0)}}@keyframes lp-ray{0%,100%{opacity:.04}50%{opacity:.2}}@keyframes lp-flow{0%{transform:translateY(-4px);opacity:0}25%{opacity:1}100%{transform:translateY(24px);opacity:0}}@keyframes lp-glow{0%,100%{opacity:.55}50%{opacity:1}}@keyframes lp-haze{0%,100%{transform:scale(1,1);opacity:.15}50%{transform:scale(1,2.5);opacity:.4}}@keyframes lp-flag{0%,100%{transform:rotate(-8deg)}50%{transform:rotate(8deg)}}@keyframes lp-bulb{0%{opacity:1}50%{opacity:.25}}@keyframes lp-twinkle-soft{0%,100%{opacity:.75}50%{opacity:1}}@media (prefers-reduced-motion:reduce){*{animation:none!important}}</style><defs><linearGradient id="lpjd1chs-sky" x1="0" y1="0" x2="0" y2="1"><stop offset="0" class="lp-sky1"/><stop offset="1" class="lp-sky2"/></linearGradient><clipPath id="lpjd1chs-clip"><rect x="6" y="6" width="148" height="148" rx="12"/></clipPath></defs><rect x="0.5" y="0.5" width="159" height="191" rx="16" class="lp-card"/><g clip-path="url(#lpjd1chs-clip)"><rect x="6" y="6" width="148" height="148" fill="url(#lpjd1chs-sky)"/><g class="lp-day lp-px"><g transform="translate(17.8 17.8)"><g class="lp-cloud" style="animation-duration:10.23s"><rect x="6" y="0" width="6" height="2" fill="#ffffffd9"/><rect x="2" y="2" width="14" height="2" fill="#ffffffd9"/><rect x="0" y="4" width="18" height="2" fill="#ffffffd9"/><rect x="2" y="6" width="14" height="2" fill="#ffffffd9"/></g></g><g transform="translate(87.4 35.6)"><g class="lp-cloud" style="animation-duration:14.96s"><rect x="6" y="0" width="6" height="2" fill="#ffffffd9"/><rect x="2" y="2" width="14" height="2" fill="#ffffffd9"/><rect x="0" y="4" width="18" height="2" fill="#ffffffd9"/><rect x="2" y="6" width="14" height="2" fill="#ffffffd9"/></g></g></g><g class="lp-night lp-px"><rect x="136" y="16" width="6" height="2" fill="#fff3b0"/><rect x="134" y="18" width="4" height="2" fill="#fff3b0"/><rect x="132" y="20" width="4" height="2" fill="#fff3b0"/><rect x="132" y="22" width="4" height="2" fill="#fff3b0"/><rect x="134" y="24" width="4" height="2" fill="#fff3b0"/><rect x="136" y="26" width="6" height="2" fill="#fff3b0"/><rect x="35.4" y="67.7" width="2" height="2" class="lp-star lp-twinkle" style="animation-duration:1.98s;animation-delay:-1.43s"/><rect x="41.7" y="13.1" width="2" height="2" class="lp-star lp-twinkle" style="animation-duration:1.90s;animation-delay:-2.84s"/><rect x="72.4" y="55.8" width="2" height="2" class="lp-star lp-twinkle" style="animation-duration:2.28s;animation-delay:-1.62s"/><rect x="33.7" y="42.5" width="2" height="2" class="lp-star lp-twinkle" style="animation-duration:2.16s;animation-delay:-1.53s"/><rect x="103.7" y="52.3" width="2" height="2" class="lp-star lp-twinkle" style="animation-duration:2.73s;animation-delay:-2.71s"/><rect x="44.9" y="26.4" width="2" height="2" class="lp-star lp-twinkle" style="animation-duration:2.06s;animation-delay:-2.50s"/><rect x="24.5" y="30.4" width="2" height="2" class="lp-star lp-twinkle" style="animation-duration:1.74s;animation-delay:-1.94s"/></g><g class="lp-rainbow lp-day"><path d="M31.2 126A56.2 56.2 0 0 1 143.6 126" fill="none" stroke="#ff5f5f" stroke-width="3.4"/><path d="M34.4 126A53 53 0 0 1 140.4 126" fill="none" stroke="#ffa94d" stroke-width="3.4"/><path d="M37.6 126A49.8 49.8 0 0 1 137.2 126" fill="none" stroke="#ffe066" stroke-width="3.4"/><path d="M40.8 126A46.6 46.6 0 0 1 134 126" fill="none" stroke="#7ee081" stroke-width="3.4"/><path d="M44 126A43.4 43.4 0 0 1 130.8 126" fill="none" stroke="#5ec8ff" stroke-width="3.4"/><path d="M47.2 126A40.2 40.2 0 0 1 127.6 126" fill="none" stroke="#b388ff" stroke-width="3.4"/></g><g class="lp-night"><g transform="translate(107 42.1)"><g class="lp-shoot" style="animation-duration:8.28s;animation-delay:-3.51s"><rect x="0" y="0" width="14" height="1.5" fill="#fff8d6" transform="rotate(-27)"/><rect x="-1" y="-1" width="3" height="3" fill="#ffffff"/></g></g></g><g class="lp-day lp-px"><g transform="translate(-36.6 35.3)"><g class="lp-fly" style="animation-duration:19.34s;animation-delay:-13.30s"><g class="lp-flap" style="animation-duration:0.52s;animation-delay:-0.00s"><rect x="-2.5" y="0" width="1" height="1" fill="#3a4a5c"/><rect x="1.5" y="0" width="1" height="1" fill="#3a4a5c"/><rect x="-1.5" y="1" width="1" height="1" fill="#3a4a5c"/><rect x="0.5" y="1" width="1" height="1" fill="#3a4a5c"/><rect x="-0.5" y="2" width="1" height="1" fill="#3a4a5c"/></g><g class="lp-flap" style="animation-duration:0.52s;animation-delay:-0.26s"><rect x="-0.5" y="0" width="1" height="1" fill="#3a4a5c"/><rect x="-1.5" y="1" width="1" height="1" fill="#3a4a5c"/><rect x="0.5" y="1" width="1" height="1" fill="#3a4a5c"/><rect x="-2.5" y="2" width="1" height="1" fill="#3a4a5c"/><rect x="1.5" y="2" width="1" height="1" fill="#3a4a5c"/></g></g></g><g transform="translate(-44.8 25.9)"><g class="lp-fly" style="animation-duration:16.45s;animation-delay:-3.33s"><g class="lp-flap" style="animation-duration:0.56s;animation-delay:-0.00s"><rect x="-2.5" y="0" width="1" height="1" fill="#3a4a5c"/><rect x="1.5" y="0" width="1" height="1" fill="#3a4a5c"/><rect x="-1.5" y="1" width="1" height="1" fill="#3a4a5c"/><rect x="0.5" y="1" width="1" height="1" fill="#3a4a5c"/><rect x="-0.5" y="2" width="1" height="1" fill="#3a4a5c"/></g><g class="lp-flap" style="animation-duration:0.56s;animation-delay:-0.28s"><rect x="-0.5" y="0" width="1" height="1" fill="#3a4a5c"/><rect x="-1.5" y="1" width="1" height="1" fill="#3a4a5c"/><rect x="0.5" y="1" width="1" height="1" fill="#3a4a5c"/><rect x="-2.5" y="2" width="1" height="1" fill="#3a4a5c"/><rect x="1.5" y="2" width="1" height="1" fill="#3a4a5c"/></g></g></g></g><g class="lp-px"><path d="M6 126V110H10V108H14V108H18V112H22V114H26V114H30V114H34V110H38V106H42V98H46V92H50V88H54V86H58V86H62V88H66V92H70V94H74V96H78V96H82V94H86V92H90V92H94V94H98V98H102V104H106V110H110V116H114V120H118V120H122V118H126V114H130V110H134V106H138V104H142V104H146V106H150V106H154V126Z" class="lp-far"/><g class="lp-prop"><rect x="20.8" y="100.7" width="6" height="1.5" fill="#c8553d"/><rect x="19.3" y="102.2" width="9" height="1.5" fill="#c8553d"/><rect x="20.8" y="103.7" width="6" height="1.5" fill="#efe6d8"/><rect x="20.8" y="105.2" width="1.5" height="1.5" fill="#efe6d8"/><rect x="22.3" y="105.2" width="3" height="1.5" fill="#7a5a3b"/><rect x="25.3" y="105.2" width="1.5" height="1.5" fill="#efe6d8"/><rect x="20.8" y="106.7" width="6" height="1.5" fill="#efe6d8"/><rect x="20.8" y="108.2" width="6" height="1.5" fill="#efe6d8"/><rect x="19.3" y="109.7" width="9" height="1.5" fill="#efe6d8"/><rect x="19.3" y="111.2" width="3" height="1.5" fill="#efe6d8"/><rect x="22.3" y="111.2" width="3" height="1.5" fill="#7a5a3b"/><rect x="25.3" y="111.2" width="3" height="1.5" fill="#efe6d8"/><rect x="19.3" y="112.7" width="3" height="1.5" fill="#efe6d8"/><rect x="22.3" y="112.7" width="3" height="1.5" fill="#7a5a3b"/><rect x="25.3" y="112.7" width="3" height="1.5" fill="#efe6d8"/><g transform="translate(23.8 102.9)"><g class="lp-spin" style="animation-duration:6.28s"><g transform="rotate(45)"><rect x="-0.7" y="-16.5" width="1.5" height="16.5" fill="#7a5a3b"/><rect x="0.8" y="-15" width="3" height="10.5" fill="#f4f1ea"/></g><g transform="rotate(135)"><rect x="-0.7" y="-16.5" width="1.5" height="16.5" fill="#7a5a3b"/><rect x="0.8" y="-15" width="3" height="10.5" fill="#f4f1ea"/></g><g transform="rotate(225)"><rect x="-0.7" y="-16.5" width="1.5" height="16.5" fill="#7a5a3b"/><rect x="0.8" y="-15" width="3" height="10.5" fill="#f4f1ea"/></g><g transform="rotate(315)"><rect x="-0.7" y="-16.5" width="1.5" height="16.5" fill="#7a5a3b"/><rect x="0.8" y="-15" width="3" height="10.5" fill="#f4f1ea"/></g><rect x="-1.5" y="-1.5" width="3" height="3" fill="#5a3a22"/></g></g></g><path d="M6 126V116H10V116H14V116H18V118H22V122H26V124H30V124H34V122H38V118H42V116H46V114H50V116H54V116H58V114H62V112H66V110H70V108H74V110H78V114H82V118H86V120H90V120H94V118H98V118H102V120H106V122H110V122H114V122H118V118H122V114H126V112H130V112H134V112H138V114H142V114H146V112H150V110H154V126Z" class="lp-mid"/></g><g class="lp-px"><rect x="6" y="126" width="148" height="28" class="lp-ground"/><rect x="6" y="126" width="148" height="2" class="lp-ground2"/><rect x="11" y="123" width="2" height="3" class="lp-ground2"/><rect x="14" y="121" width="2" height="5" class="lp-ground2"/><rect x="24" y="123" width="2" height="3" class="lp-ground2"/><rect x="27" y="121" width="2" height="5" class="lp-ground2"/><rect x="45" y="123" width="2" height="3" class="lp-ground2"/><rect x="48" y="121" width="2" height="5" class="lp-ground2"/><rect x="61" y="123" width="2" height="3" class="lp-ground2"/><rect x="64" y="121" width="2" height="5" class="lp-ground2"/><rect x="78" y="123" width="2" height="3" class="lp-ground2"/><rect x="81" y="121" width="2" height="5" class="lp-ground2"/><rect x="90" y="123" width="2" height="3" class="lp-ground2"/><rect x="93" y="121" width="2" height="5" class="lp-ground2"/><rect x="110" y="123" width="2" height="3" class="lp-ground2"/><rect x="113" y="121" width="2" height="5" class="lp-ground2"/><rect x="124" y="123" width="2" height="3" class="lp-ground2"/><rect x="127" y="121" width="2" height="5" class="lp-ground2"/><rect x="145" y="123" width="2" height="3" class="lp-ground2"/><rect x="148" y="121" width="2" height="5" class="lp-ground2"/><rect x="31.1" y="142.8" width="3" height="2" class="lp-ground2"/><rect x="105.7" y="144.8" width="3" height="2" class="lp-ground2"/><rect x="102.4" y="144.9" width="3" height="2" class="lp-ground2"/></g><g class="lp-px"><g transform="translate(134.8 128.7)"><g class="lp-sway-soft lp-prop" style="animation-duration:7.61s;animation-delay:-0.00s"><rect x="-8.1" y="-29.7" width="16.2" height="2.7" fill="#f0a030"/><rect x="-13.5" y="-27" width="10.8" height="2.7" fill="#f0a030"/><rect x="-2.7" y="-27" width="2.7" height="2.7" fill="#d9542b"/><rect x="0" y="-27" width="13.5" height="2.7" fill="#f0a030"/><rect x="-16.2" y="-24.3" width="5.4" height="2.7" fill="#f0a030"/><rect x="-10.8" y="-24.3" width="2.7" height="2.7" fill="#d9542b"/><rect x="-8.1" y="-24.3" width="16.2" height="2.7" fill="#f0a030"/><rect x="8.1" y="-24.3" width="2.7" height="2.7" fill="#d9542b"/><rect x="10.8" y="-24.3" width="5.4" height="2.7" fill="#f0a030"/><rect x="-16.2" y="-21.6" width="18.9" height="2.7" fill="#f0a030"/><rect x="2.7" y="-21.6" width="2.7" height="2.7" fill="#d9542b"/><rect x="5.4" y="-21.6" width="10.8" height="2.7" fill="#f0a030"/><rect x="-16.2" y="-18.9" width="2.7" height="2.7" fill="#f0a030"/><rect x="-13.5" y="-18.9" width="2.7" height="2.7" fill="#d9542b"/><rect x="-10.8" y="-18.9" width="21.6" height="2.7" fill="#f0a030"/><rect x="10.8" y="-18.9" width="2.7" height="2.7" fill="#d9542b"/><rect x="13.5" y="-18.9" width="2.7" height="2.7" fill="#f0a030"/><rect x="-16.2" y="-16.2" width="10.8" height="2.7" fill="#f0a030"/><rect x="-5.4" y="-16.2" width="2.7" height="2.7" fill="#d9542b"/><rect x="-2.7" y="-16.2" width="18.9" height="2.7" fill="#f0a030"/><rect x="-13.5" y="-13.5" width="16.2" height="2.7" fill="#f0a030"/><rect x="2.7" y="-13.5" width="2.7" height="2.7" fill="#d9542b"/><rect x="5.4" y="-13.5" width="8.1" height="2.7" fill="#f0a030"/><rect x="-8.1" y="-10.8" width="16.2" height="2.7" fill="#f0a030"/><rect x="-2.7" y="-8.1" width="5.4" height="2.7" fill="#7a4b2a"/><rect x="-2.7" y="-5.4" width="5.4" height="2.7" fill="#7a4b2a"/><rect x="-5.4" y="-2.7" width="10.8" height="2.7" fill="#7a4b2a"/></g></g></g><g class="lp-px"><rect x="124" y="124" width="2" height="2" fill="#c47a3a"/><rect x="126" y="124" width="2" height="2" fill="#e8a35e"/><rect x="128" y="124" width="2" height="2" fill="#c47a3a"/><rect x="130" y="124" width="2" height="2" fill="#e8a35e"/><rect x="132" y="124" width="4" height="2" fill="#c47a3a"/><rect x="120" y="126" width="2" height="2" fill="#c47a3a"/><rect x="122" y="126" width="2" height="2" fill="#e8a35e"/><rect x="124" y="126" width="4" height="2" fill="#c47a3a"/><rect x="128" y="126" width="2" height="2" fill="#e8a35e"/><rect x="130" y="126" width="2" height="2" fill="#c47a3a"/><rect x="132" y="126" width="2" height="2" fill="#e8a35e"/><rect x="134" y="126" width="2" height="2" fill="#c47a3a"/><rect x="136" y="126" width="2" height="2" fill="#e8a35e"/><rect x="138" y="126" width="2" height="2" fill="#c47a3a"/><rect x="118" y="128" width="24" height="2" fill="#1b3a5c"/><rect x="120" y="130" width="2" height="2" fill="#1b3a5c"/><rect x="122" y="130" width="16" height="2" fill="#5ec8ff"/><rect x="138" y="130" width="2" height="2" fill="#1b3a5c"/><rect x="122" y="132" width="16" height="2" fill="#1b3a5c"/></g><ellipse cx="68" cy="131" rx="30" ry="3" class="lp-shadow"/><g transform="translate(68 132)"><style>@keyframes lp-mv-wobble{0%,78%,100%{transform:translate(0,0) rotate(0) scale(1,1) skewX(0)}82%{transform:translate(0,0) rotate(-28deg) scale(1,1) skewX(0)}86%{transform:translate(0,0) rotate(20deg) scale(1,1) skewX(0)}89%{transform:translate(0,0) rotate(-12deg) scale(1,1) skewX(0)}92%{transform:translate(0,0) rotate(7deg) scale(1,1) skewX(0)}95%{transform:translate(0,0) rotate(-3deg) scale(1,1) skewX(0)}}.lp-mv-wobble{animation:lp-mv-wobble 7s ease-in-out infinite}</style><g class="lp-mv-wobble" style="animation-duration:7.00s;animation-delay:0.62s"><g class="lp-hop" style="animation-duration:1.20s"><g transform="translate(-68 -132)" class="lp-px"><rect x="58" y="62" width="20" height="5" fill="#0d3a1f"/><rect x="48" y="67" width="10" height="5" fill="#0d3a1f"/><rect x="58" y="67" width="10" height="5" fill="#7affcd"/><rect x="68" y="67" width="10" height="5" fill="#3ae289"/><rect x="78" y="67" width="10" height="5" fill="#0d3a1f"/><rect x="43" y="72" width="5" height="5" fill="#0d3a1f"/><rect x="48" y="72" width="5" height="5" fill="#7affcd"/><rect x="53" y="72" width="35" height="5" fill="#3ae289"/><rect x="88" y="72" width="5" height="5" fill="#0d3a1f"/><rect x="38" y="77" width="5" height="5" fill="#0d3a1f"/><rect x="43" y="77" width="5" height="5" fill="#7affcd"/><rect x="48" y="77" width="15" height="5" fill="#2b1416"/><rect x="63" y="77" width="10" height="5" fill="#fbefdc"/><rect x="73" y="77" width="15" height="5" fill="#2b1416"/><rect x="88" y="77" width="5" height="5" fill="#21b05c"/><rect x="93" y="77" width="5" height="5" fill="#0d3a1f"/><rect x="33" y="82" width="5" height="5" fill="#0d3a1f"/><rect x="38" y="82" width="5" height="5" fill="#7affcd"/><rect x="43" y="82" width="5" height="5" fill="#fbefdc"/><rect x="48" y="82" width="10" height="5" fill="#4c6ef5"/><rect x="58" y="82" width="20" height="5" fill="#fbefdc"/><rect x="78" y="82" width="10" height="5" fill="#4c6ef5"/><rect x="88" y="82" width="5" height="5" fill="#fbefdc"/><rect x="93" y="82" width="5" height="5" fill="#21b05c"/><rect x="98" y="82" width="5" height="5" fill="#0d3a1f"/><rect x="28" y="87" width="5" height="5" fill="#0d3a1f"/><rect x="33" y="87" width="5" height="5" fill="#7affcd"/><rect x="38" y="87" width="5" height="5" fill="#3ae289"/><rect x="43" y="87" width="5" height="5" fill="#4c6ef5"/><rect x="48" y="87" width="10" height="5" fill="#fbefdc"/><rect x="58" y="87" width="20" height="5" fill="#4c6ef5"/><rect x="78" y="87" width="10" height="5" fill="#fbefdc"/><rect x="88" y="87" width="5" height="5" fill="#4c6ef5"/><rect x="93" y="87" width="5" height="5" fill="#3ae289"/><rect x="98" y="87" width="5" height="5" fill="#21b05c"/><rect x="103" y="87" width="5" height="5" fill="#0d3a1f"/><rect x="28" y="92" width="5" height="5" fill="#0d3a1f"/><rect x="33" y="92" width="10" height="5" fill="#3ae289"/><rect x="43" y="92" width="5" height="5" fill="#4c6ef5"/><rect x="48" y="92" width="10" height="5" fill="#fbefdc"/><rect x="58" y="92" width="5" height="5" fill="#4c6ef5"/><rect x="63" y="92" width="10" height="5" fill="#fbefdc"/><rect x="73" y="92" width="5" height="5" fill="#4c6ef5"/><rect x="78" y="92" width="10" height="5" fill="#fbefdc"/><rect x="88" y="92" width="5" height="5" fill="#4c6ef5"/><rect x="93" y="92" width="5" height="5" fill="#3ae289"/><rect x="98" y="92" width="5" height="5" fill="#21b05c"/><rect x="103" y="92" width="5" height="5" fill="#0d3a1f"/><rect x="28" y="97" width="5" height="5" fill="#0d3a1f"/><rect x="33" y="97" width="10" height="5" fill="#3ae289"/><rect x="43" y="97" width="5" height="5" fill="#ff8fab99"/><rect x="48" y="97" width="10" height="5" fill="#4c6ef5"/><rect x="58" y="97" width="20" height="5" fill="#fbefdc"/><rect x="78" y="97" width="10" height="5" fill="#4c6ef5"/><rect x="88" y="97" width="5" height="5" fill="#ff8fab99"/><rect x="93" y="97" width="5" height="5" fill="#3ae289"/><rect x="98" y="97" width="5" height="5" fill="#21b05c"/><rect x="103" y="97" width="5" height="5" fill="#0d3a1f"/><rect x="28" y="102" width="5" height="5" fill="#0d3a1f"/><rect x="33" y="102" width="10" height="5" fill="#3ae289"/><rect x="43" y="102" width="15" height="5" fill="#fbefdc"/><rect x="58" y="102" width="20" height="5" fill="#0d3a1f"/><rect x="78" y="102" width="15" height="5" fill="#fbefdc"/><rect x="93" y="102" width="5" height="5" fill="#3ae289"/><rect x="98" y="102" width="5" height="5" fill="#21b05c"/><rect x="103" y="102" width="5" height="5" fill="#0d3a1f"/><rect x="28" y="107" width="5" height="5" fill="#0d3a1f"/><rect x="33" y="107" width="10" height="5" fill="#3ae289"/><rect x="43" y="107" width="15" height="5" fill="#fbefdc"/><rect x="58" y="107" width="5" height="5" fill="#0d3a1f"/><rect x="63" y="107" width="10" height="5" fill="#ff5d73"/><rect x="73" y="107" width="5" height="5" fill="#0d3a1f"/><rect x="78" y="107" width="15" height="5" fill="#fbefdc"/><rect x="93" y="107" width="5" height="5" fill="#3ae289"/><rect x="98" y="107" width="5" height="5" fill="#21b05c"/><rect x="103" y="107" width="5" height="5" fill="#0d3a1f"/><rect x="28" y="112" width="5" height="5" fill="#0d3a1f"/><rect x="33" y="112" width="15" height="5" fill="#3ae289"/><rect x="48" y="112" width="5" height="5" fill="#fbefdc"/><rect x="53" y="112" width="5" height="5" fill="#6e4a44"/><rect x="58" y="112" width="5" height="5" fill="#fbefdc"/><rect x="63" y="112" width="10" height="5" fill="#0d3a1f"/><rect x="73" y="112" width="5" height="5" fill="#fbefdc"/><rect x="78" y="112" width="5" height="5" fill="#6e4a44"/><rect x="83" y="112" width="5" height="5" fill="#fbefdc"/><rect x="88" y="112" width="10" height="5" fill="#3ae289"/><rect x="98" y="112" width="5" height="5" fill="#21b05c"/><rect x="103" y="112" width="5" height="5" fill="#0d3a1f"/><rect x="28" y="117" width="5" height="5" fill="#0d3a1f"/><rect x="33" y="117" width="10" height="5" fill="#3ae289"/><rect x="43" y="117" width="5" height="5" fill="#ffcf3a"/><rect x="48" y="117" width="5" height="5" fill="#3ae289"/><rect x="53" y="117" width="5" height="5" fill="#ecd3b6"/><rect x="58" y="117" width="20" height="5" fill="#6e4a44"/><rect x="78" y="117" width="5" height="5" fill="#ecd3b6"/><rect x="83" y="117" width="5" height="5" fill="#3ae289"/><rect x="88" y="117" width="5" height="5" fill="#ffcf3a"/><rect x="93" y="117" width="5" height="5" fill="#3ae289"/><rect x="98" y="117" width="5" height="5" fill="#21b05c"/><rect x="103" y="117" width="5" height="5" fill="#0d3a1f"/><rect x="33" y="122" width="5" height="5" fill="#0d3a1f"/><rect x="38" y="122" width="5" height="5" fill="#21b05c"/><rect x="43" y="122" width="5" height="5" fill="#3ae289"/><rect x="48" y="122" width="10" height="5" fill="#ffcf3a"/><rect x="58" y="122" width="5" height="5" fill="#3ae289"/><rect x="63" y="122" width="10" height="5" fill="#d9921a"/><rect x="73" y="122" width="5" height="5" fill="#3ae289"/><rect x="78" y="122" width="10" height="5" fill="#ffcf3a"/><rect x="88" y="122" width="5" height="5" fill="#3ae289"/><rect x="93" y="122" width="5" height="5" fill="#21b05c"/><rect x="98" y="122" width="5" height="5" fill="#0d3a1f"/><rect x="38" y="127" width="60" height="5" fill="#0d3a1f"/><rect x="53" y="87" width="5" height="5" fill="#0d3a1f"/><rect x="78" y="87" width="5" height="5" fill="#0d3a1f"/><rect x="48" y="92" width="5" height="5" fill="#0d3a1f"/><rect x="58" y="92" width="5" height="5" fill="#0d3a1f"/><rect x="73" y="92" width="5" height="5" fill="#0d3a1f"/><rect x="83" y="92" width="5" height="5" fill="#0d3a1f"/><rect x="48" y="47" width="5" height="5" fill="#ffd23f"/><rect x="63" y="47" width="10" height="5" fill="#ffd23f"/><rect x="83" y="47" width="5" height="5" fill="#ffd23f"/><rect x="48" y="52" width="10" height="5" fill="#ffd23f"/><rect x="63" y="52" width="10" height="5" fill="#ffd23f"/><rect x="78" y="52" width="10" height="5" fill="#ffd23f"/><rect x="48" y="57" width="15" height="5" fill="#ffd23f"/><rect x="63" y="57" width="10" height="5" fill="#ff4d6d"/><rect x="73" y="57" width="15" height="5" fill="#ffd23f"/><rect x="48" y="62" width="40" height="5" fill="#c99a06"/></g></g></g></g><g transform="translate(28 66.2)"><g class="lp-rise lp-px" style="animation-duration:3.30s;animation-delay:0.00s"><rect x="-5" y="-4" width="4" height="2" fill="#ff5d8f"/><rect x="1" y="-4" width="4" height="2" fill="#ff5d8f"/><rect x="-5" y="-2" width="10" height="2" fill="#ff5d8f"/><rect x="-3" y="0" width="6" height="2" fill="#ff5d8f"/><rect x="-1" y="2" width="2" height="2" fill="#ff5d8f"/></g></g><g transform="translate(103.2 59.2)"><g class="lp-rise lp-px" style="animation-duration:3.30s;animation-delay:1.10s"><rect x="-5" y="-4" width="4" height="2" fill="#ff5d8f"/><rect x="1" y="-4" width="4" height="2" fill="#ff5d8f"/><rect x="-5" y="-2" width="10" height="2" fill="#ff5d8f"/><rect x="-3" y="0" width="6" height="2" fill="#ff5d8f"/><rect x="-1" y="2" width="2" height="2" fill="#ff5d8f"/></g></g><g transform="translate(68 52.2)"><g class="lp-rise lp-px" style="animation-duration:3.30s;animation-delay:2.20s"><rect x="-5" y="-4" width="4" height="2" fill="#ff5d8f"/><rect x="1" y="-4" width="4" height="2" fill="#ff5d8f"/><rect x="-5" y="-2" width="10" height="2" fill="#ff5d8f"/><rect x="-3" y="0" width="6" height="2" fill="#ff5d8f"/><rect x="-1" y="2" width="2" height="2" fill="#ff5d8f"/></g></g><g transform="translate(56.2 62.9)"><g class="lp-twinkle lp-px" style="animation-duration:2.58s;animation-delay:-1.52s"><rect x="-0.5" y="-1.5" width="1" height="1" fill="#ffe066"/><rect x="-1.5" y="-0.5" width="3" height="1" fill="#ffe066"/><rect x="-0.5" y="0.5" width="1" height="1" fill="#ffe066"/></g></g><g transform="translate(104.1 73.5)"><g class="lp-twinkle lp-px" style="animation-duration:1.57s;animation-delay:-0.02s"><rect x="-0.5" y="-1.5" width="1" height="1" fill="#ffffff"/><rect x="-1.5" y="-0.5" width="3" height="1" fill="#ffffff"/><rect x="-0.5" y="0.5" width="1" height="1" fill="#ffffff"/></g></g><g transform="translate(106.6 61.1)"><g class="lp-twinkle lp-px" style="animation-duration:2.50s;animation-delay:-1.73s"><rect x="-0.5" y="-1.5" width="1" height="1" fill="#ffe066"/><rect x="-1.5" y="-0.5" width="3" height="1" fill="#ffe066"/><rect x="-0.5" y="0.5" width="1" height="1" fill="#ffe066"/></g></g><g transform="translate(77 109.1)"><g class="lp-twinkle lp-px" style="animation-duration:1.83s;animation-delay:-0.44s"><rect x="-0.5" y="-1.5" width="1" height="1" fill="#ffffff"/><rect x="-1.5" y="-0.5" width="3" height="1" fill="#ffffff"/><rect x="-0.5" y="0.5" width="1" height="1" fill="#ffffff"/></g></g><g class="lp-px"><g class="lp-day"><g transform="translate(84.2 91)"><g class="lp-flutter" style="animation-duration:7.10s;animation-delay:-1.58s"><g class="lp-flap" style="animation-duration:0.30s;animation-delay:-0.00s"><rect x="-2.5" y="0" width="2" height="1" fill="#b388ff"/><rect x="0.5" y="0" width="2" height="1" fill="#b388ff"/><rect x="-2.5" y="1" width="2" height="1" fill="#b388ff"/><rect x="-0.5" y="1" width="1" height="1" fill="#3b2a1a"/><rect x="0.5" y="1" width="2" height="1" fill="#b388ff"/><rect x="-1.5" y="2" width="1" height="1" fill="#b388ff"/><rect x="-0.5" y="2" width="1" height="1" fill="#3b2a1a"/><rect x="0.5" y="2" width="1" height="1" fill="#b388ff"/></g><g class="lp-flap" style="animation-duration:0.30s;animation-delay:-0.15s"><rect x="-1.5" y="0" width="1" height="1" fill="#b388ff"/><rect x="0.5" y="0" width="1" height="1" fill="#b388ff"/><rect x="-1.5" y="1" width="1" height="1" fill="#b388ff"/><rect x="-0.5" y="1" width="1" height="1" fill="#3b2a1a"/><rect x="0.5" y="1" width="1" height="1" fill="#b388ff"/><rect x="-0.5" y="2" width="1" height="1" fill="#3b2a1a"/></g></g></g><g transform="translate(138.8 98.6)"><g class="lp-flutter" style="animation-duration:5.11s;animation-delay:-6.94s"><g class="lp-flap" style="animation-duration:0.30s;animation-delay:-0.00s"><rect x="-2.5" y="0" width="2" height="1" fill="#ff7eb6"/><rect x="0.5" y="0" width="2" height="1" fill="#ff7eb6"/><rect x="-2.5" y="1" width="2" height="1" fill="#ff7eb6"/><rect x="-0.5" y="1" width="1" height="1" fill="#3b2a1a"/><rect x="0.5" y="1" width="2" height="1" fill="#ff7eb6"/><rect x="-1.5" y="2" width="1" height="1" fill="#ff7eb6"/><rect x="-0.5" y="2" width="1" height="1" fill="#3b2a1a"/><rect x="0.5" y="2" width="1" height="1" fill="#ff7eb6"/></g><g class="lp-flap" style="animation-duration:0.30s;animation-delay:-0.15s"><rect x="-1.5" y="0" width="1" height="1" fill="#ff7eb6"/><rect x="0.5" y="0" width="1" height="1" fill="#ff7eb6"/><rect x="-1.5" y="1" width="1" height="1" fill="#ff7eb6"/><rect x="-0.5" y="1" width="1" height="1" fill="#3b2a1a"/><rect x="0.5" y="1" width="1" height="1" fill="#ff7eb6"/><rect x="-0.5" y="2" width="1" height="1" fill="#3b2a1a"/></g></g></g></g></g><g class="lp-px"><g transform="translate(27.1 6)"><g class="lp-drift" style="animation-duration:10.11s;animation-delay:-5.80s"><rect x="-0.5" y="-1.5" width="2" height="1" fill="#d62828"/><rect x="-1.5" y="-0.5" width="3" height="1" fill="#d62828"/><rect x="-1.5" y="0.5" width="2" height="1" fill="#d62828"/></g></g><g transform="translate(105.5 6)"><g class="lp-drift" style="animation-duration:9.46s;animation-delay:-7.90s"><rect x="-0.5" y="-1.5" width="2" height="1" fill="#d62828"/><rect x="-1.5" y="-0.5" width="3" height="1" fill="#d62828"/><rect x="-1.5" y="0.5" width="2" height="1" fill="#d62828"/></g></g><g transform="translate(29.6 6)"><g class="lp-drift" style="animation-duration:8.01s;animation-delay:-3.51s"><rect x="-0.5" y="-1.5" width="2" height="1" fill="#e76f51"/><rect x="-1.5" y="-0.5" width="3" height="1" fill="#e76f51"/><rect x="-1.5" y="0.5" width="2" height="1" fill="#e76f51"/></g></g><g transform="translate(73.9 6)"><g class="lp-drift" style="animation-duration:8.23s;animation-delay:-10.36s"><rect x="-0.5" y="-1.5" width="2" height="1" fill="#d62828"/><rect x="-1.5" y="-0.5" width="3" height="1" fill="#d62828"/><rect x="-1.5" y="0.5" width="2" height="1" fill="#d62828"/></g></g><g transform="translate(77.6 6)"><g class="lp-drift" style="animation-duration:8.08s;animation-delay:-7.91s"><rect x="-0.5" y="-1.5" width="2" height="1" fill="#e76f51"/><rect x="-1.5" y="-0.5" width="3" height="1" fill="#e76f51"/><rect x="-1.5" y="0.5" width="2" height="1" fill="#e76f51"/></g></g><g transform="translate(51.2 6)"><g class="lp-drift" style="animation-duration:10.34s;animation-delay:-1.38s"><rect x="-0.5" y="-1.5" width="2" height="1" fill="#e76f51"/><rect x="-1.5" y="-0.5" width="3" height="1" fill="#e76f51"/><rect x="-1.5" y="0.5" width="2" height="1" fill="#e76f51"/></g></g></g></g><text x="80" y="171" text-anchor="middle" class="lp-mini-name">Ruli</text><text x="80" y="185" text-anchor="middle" class="lp-mini-sub">Lv.21 · 🤩 ecstatic</text></svg>