<svg xmlns="http://www.w3.org/2000/svg" width="160" height="192" viewBox="0 0 160 192" role="img" aria-labelledby="lp1n1stws-t lp1n1stws-d"><title id="lp1n1stws-t">Ruli the Festive 🥳 octo-org/demo</title><desc id="lp1n1stws-d">Ruli the Festive: Lv.21 (Silver) Adult Cactus, partying. Fullness 99%, Health 100%, Joy 85%, Energy 39%, Hygiene 80%. “Confetti everywhere!”</desc><style>svg{--lp-bg:#ffffff;--lp-border:#e3e8ef;--lp-text:#1f2430;--lp-muted:#6b7385;--lp-bubble:#f5f7fb;--lp-bubble-border:#d5dbe7;--lp-track:#e6eaf1;--lp-shadow:rgba(0,0,0,.16);--lp-sky1:#ffc8e4;--lp-sky2:#fff1c9;--lp-g1:#f3d79a;--lp-g2:#e0bd74;--lp-water:#5fb8e8;--lp-water2:#e4f7ff;--lp-far:#e2a072;--lp-mid:#f0c987}.lp-night{display:none}.lp-card{fill:var(--lp-bg);stroke:var(--lp-border)}.lp-sky1{stop-color:var(--lp-sky1)}.lp-sky2{stop-color:var(--lp-sky2)}.lp-ground{fill:var(--lp-g1)}.lp-ground2{fill:var(--lp-g2)}.lp-shadow{fill:var(--lp-shadow)}.lp-px{shape-rendering:crispEdges}.lp-name{font:700 16px ui-monospace,SFMono-Regular,'SF Mono',Menlo,Consolas,'Liberation Mono',monospace;fill:var(--lp-text)}.lp-sub{font:400 11px ui-monospace,SFMono-Regular,'SF Mono',Menlo,Consolas,'Liberation Mono',monospace;fill:var(--lp-muted)}.lp-say{font:400 11.5px ui-monospace,SFMono-Regular,'SF Mono',Menlo,Consolas,'Liberation Mono',monospace;fill:var(--lp-text)}.lp-label{font:400 11px ui-monospace,SFMono-Regular,'SF Mono',Menlo,Consolas,'Liberation Mono',monospace;fill:var(--lp-muted)}.lp-val{font:700 11px ui-monospace,SFMono-Regular,'SF Mono',Menlo,Consolas,'Liberation Mono',monospace;fill:var(--lp-text)}.lp-icon{font:400 11px ui-monospace,SFMono-Regular,'SF Mono',Menlo,Consolas,'Liberation Mono',monospace}.lp-trophy{font:400 14px ui-monospace,SFMono-Regular,'SF Mono',Menlo,Consolas,'Liberation Mono',monospace}.lp-foot{font:400 9.5px ui-monospace,SFMono-Regular,'SF Mono',Menlo,Consolas,'Liberation Mono',monospace;fill:var(--lp-muted)}.lp-brand{font:700 9.5px ui-monospace,SFMono-Regular,'SF Mono',Menlo,Consolas,'Liberation Mono',monospace;fill:var(--lp-muted)}.lp-mini-name{font:700 12px ui-monospace,SFMono-Regular,'SF Mono',Menlo,Consolas,'Liberation Mono',monospace;fill:var(--lp-text)}.lp-tag{font:700 11px ui-monospace,SFMono-Regular,'SF Mono',Menlo,Consolas,'Liberation Mono',monospace;fill:var(--lp-text)}.lp-tag-sub{font:400 9.5px ui-monospace,SFMono-Regular,'SF Mono',Menlo,Consolas,'Liberation Mono',monospace;fill:var(--lp-muted)}.lp-mini-sub{font:400 9.5px ui-monospace,SFMono-Regular,'SF Mono',Menlo,Consolas,'Liberation Mono',monospace;fill:var(--lp-muted)}.lp-z{font:700 12px ui-monospace,SFMono-Regular,'SF Mono',Menlo,Consolas,'Liberation Mono',monospace;fill:var(--lp-text)}.lp-bit{font:700 10px ui-monospace,SFMono-Regular,'SF Mono',Menlo,Consolas,'Liberation Mono',monospace;fill:#3fb950}.lp-bubble,.lp-thought{fill:var(--lp-bubble);stroke:var(--lp-bubble-border)}.lp-tail{fill:var(--lp-bubble);stroke:var(--lp-bubble-border);stroke-linejoin:round}.lp-seg,.lp-track{fill:var(--lp-track)}.lp-good{fill:#3fb950}.lp-mid{fill:#e3b341}.lp-low{fill:#f85149}.lp-xp{fill:#a371f7}.lp-ink{fill:var(--lp-text)}.lp-fly{fill:var(--lp-text)}.lp-star{fill:#fff8d6}.lp-snow{fill:#ffffff}.lp-raindrop{fill:#5ec8ff}.lp-firefly{fill:#fff59d}.lp-string{fill:#5a1e1e}.lp-far{fill:var(--lp-far)}.lp-mid{fill:var(--lp-mid)}.lp-water{fill:var(--lp-water)}.lp-water2{fill:var(--lp-water2)}.lp-ripple-line{stroke:var(--lp-water2)}.lp-sea{fill:var(--lp-water);opacity:.38}.lp-bubble-c{fill:none;stroke:#e4f7ff;stroke-width:1;opacity:.85}.lp-bounce{animation:lp-bounce 2s ease-in-out infinite}.lp-hop{animation:lp-hop 1s ease-in-out infinite}.lp-breathe{animation:lp-breathe 4s ease-in-out infinite}.lp-sway{animation:lp-sway 3s ease-in-out infinite}.lp-shiver{animation:lp-shiver .35s linear infinite}.lp-wobble{animation:lp-wobble 3s ease-in-out infinite}.lp-growl{animation:lp-growl 3s linear infinite}.lp-blink-open{animation:lp-blink-open 4s infinite}.lp-blink-closed{opacity:0;animation:lp-blink-closed 4s infinite}.lp-rise{animation:lp-rise 3s ease-out infinite both}.lp-zz{animation:lp-zz 3s ease-out infinite both}.lp-fall{animation:lp-fall 3s linear infinite}.lp-drift{animation:lp-drift 9s linear infinite}.lp-drip{animation:lp-drip 1.6s ease-in infinite both}.lp-orbit{animation:lp-orbit 2.4s linear infinite}.lp-twinkle{animation:lp-twinkle 2s ease-in-out infinite both}.lp-burst{animation:lp-burst 2.4s ease-out infinite both}.lp-float{animation:lp-float 3s ease-in-out infinite}.lp-swing{animation:lp-swing 3s ease-in-out infinite}.lp-cloud{animation:lp-cloud 14s ease-in-out infinite alternate}.lp-alert{animation:lp-alert 1.2s steps(2) infinite}.lp-flap{animation:lp-flap .5s steps(1) infinite}.lp-fly{animation:lp-fly 16s linear infinite}.lp-flutter{animation:lp-flutter 6s ease-in-out infinite}.lp-sway-soft{animation:lp-sway-soft 5s ease-in-out infinite}.lp-kelp{animation:lp-kelp 4s ease-in-out infinite}.lp-spin{animation:lp-orbit 6s linear infinite}.lp-mist{animation:lp-mist 9s ease-in-out infinite}.lp-shoot{animation:lp-shoot 8s linear infinite}.lp-aurora{animation:lp-aurora 6s ease-in-out infinite}.lp-rainbow{animation:lp-rainbow 5s ease-in-out infinite}.lp-wave{animation:lp-wave 3s ease-in-out infinite}.lp-tide{animation:lp-tide 4s ease-in-out infinite}.lp-ripple{animation:lp-ripple 3s ease-out infinite both}.lp-bubbling{animation:lp-bubble 5s ease-in infinite both}.lp-swim{animation:lp-swim 14s linear infinite}.lp-roll{animation:lp-roll 9s linear infinite}.lp-ray{animation:lp-ray 5s ease-in-out infinite}.lp-flow{animation:lp-flow 1s linear infinite both}.lp-glow{animation:lp-glow 2s ease-in-out infinite}.lp-haze{animation:lp-haze 2.2s ease-in-out infinite}.lp-flag{animation:lp-flag 1.8s ease-in-out infinite}.lp-bulb{animation:lp-bulb 1.2s steps(1) infinite}.lp-twinkle-soft{animation:lp-twinkle-soft 2.5s ease-in-out infinite}.lp-new{animation:lp-float 1.6s ease-in-out infinite}.lp-lvup{font:700 11px ui-monospace,SFMono-Regular,'SF Mono',Menlo,Consolas,'Liberation Mono',monospace;stroke:#3d2c00;stroke-width:2.5px;paint-order:stroke;stroke-linejoin:round}.lp-aura{opacity:.8;animation:lp-aura 1.1s ease-in-out infinite}.lp-pal-fly{animation:lp-pal-fly 3.4s ease-in-out infinite}.lp-pal-hop{animation:lp-pal-hop 1.6s ease-in-out infinite}.lp-quest{font:700 11px ui-monospace,SFMono-Regular,'SF Mono',Menlo,Consolas,'Liberation Mono',monospace;fill:var(--lp-muted)}.lp-more{font:700 10px ui-monospace,SFMono-Regular,'SF Mono',Menlo,Consolas,'Liberation Mono',monospace;fill:var(--lp-muted)}@keyframes lp-pal-fly{0%,100%{transform:translate(0,0)}25%{transform:translate(2px,-4px)}50%{transform:translate(0,-6px)}75%{transform:translate(-2px,-3px)}}@keyframes lp-pal-hop{0%,55%,100%{transform:translateY(0)}25%{transform:translateY(-5px)}}@keyframes lp-aura{0%,100%{opacity:.45}50%{opacity:.95}}@keyframes lp-bounce{0%,100%{transform:translateY(0)}50%{transform:translateY(-5px)}}@keyframes lp-hop{0%,100%{transform:translateY(0)}35%{transform:translateY(-14px)}55%{transform:translateY(0)}65%{transform:translateY(-3px)}}@keyframes lp-breathe{0%,100%{transform:scale(1,1)}50%{transform:scale(1.04,.96)}}@keyframes lp-sway{0%,100%{transform:rotate(-5deg)}50%{transform:rotate(5deg)}}@keyframes lp-shiver{0%,100%{transform:translateX(0)}25%{transform:translateX(-1.5px)}75%{transform:translateX(1.5px)}}@keyframes lp-wobble{0%,60%,100%{transform:rotate(0)}68%{transform:rotate(-9deg)}78%{transform:rotate(8deg)}88%{transform:rotate(-4deg)}}@keyframes lp-growl{0%,78%,100%{transform:translateX(0)}82%{transform:translateX(-2px)}86%{transform:translateX(2px)}90%{transform:translateX(-2px)}94%{transform:translateX(1px)}}@keyframes lp-blink-open{0%,93%,100%{opacity:1}94%,98%{opacity:0}}@keyframes lp-blink-closed{0%,93%,100%{opacity:0}94%,98%{opacity:1}}@keyframes lp-rise{0%{transform:translateY(0);opacity:0}20%{opacity:1}100%{transform:translateY(-34px);opacity:0}}@keyframes lp-zz{0%{transform:translate(0,0);opacity:0}20%{opacity:1}100%{transform:translate(10px,-26px);opacity:0}}@keyframes lp-fall{0%{transform:translateY(-20px) rotate(0)}100%{transform:translateY(260px) rotate(540deg)}}@keyframes lp-drift{0%{transform:translate(0,-20px) rotate(0)}50%{transform:translate(14px,110px) rotate(160deg)}100%{transform:translate(-8px,260px) rotate(340deg)}}@keyframes lp-drip{0%{transform:translateY(0);opacity:0}15%{opacity:1}100%{transform:translateY(16px);opacity:0}}@keyframes lp-orbit{to{transform:rotate(360deg)}}@keyframes lp-twinkle{0%,100%{opacity:.15}50%{opacity:1}}@keyframes lp-burst{0%{transform:scale(.1);opacity:0}10%{opacity:1}70%{opacity:.9}100%{transform:scale(1.3);opacity:0}}@keyframes lp-float{0%,100%{transform:translateY(0)}50%{transform:translateY(-3px)}}@keyframes lp-swing{0%,100%{transform:rotate(-6deg)}50%{transform:rotate(6deg)}}@keyframes lp-cloud{from{transform:translateX(-6px)}to{transform:translateX(10px)}}@keyframes lp-alert{0%{opacity:1}50%{opacity:.35}}@keyframes lp-flap{0%{opacity:1}50%{opacity:0}}@keyframes lp-fly{from{transform:translate(-40px,0)}50%{transform:translate(130px,-8px)}to{transform:translate(300px,4px)}}@keyframes lp-flutter{0%,100%{transform:translate(0,0)}25%{transform:translate(14px,-9px)}50%{transform:translate(24px,1px)}75%{transform:translate(9px,7px)}}@keyframes lp-sway-soft{0%,100%{transform:rotate(-2deg)}50%{transform:rotate(2deg)}}@keyframes lp-kelp{0%,100%{transform:skewX(-9deg)}50%{transform:skewX(9deg)}}@keyframes lp-mist{0%,100%{transform:translateX(-14px)}50%{transform:translateX(14px)}}@keyframes lp-shoot{0%,86%{transform:translate(0,0);opacity:0}88%{opacity:1}100%{transform:translate(-70px,36px);opacity:0}}@keyframes lp-aurora{0%,100%{opacity:.1;transform:translateY(0)}50%{opacity:.5;transform:translateY(3px)}}@keyframes lp-rainbow{0%,100%{opacity:.25}50%{opacity:.6}}@keyframes lp-wave{0%,100%{transform:translateX(0)}50%{transform:translateX(-7px)}}@keyframes lp-tide{0%,100%{transform:translateY(0);opacity:.2}50%{transform:translateY(4px);opacity:.9}}@keyframes lp-ripple{0%{transform:scale(.2);opacity:.9}100%{transform:scale(1.5);opacity:0}}@keyframes lp-bubble{0%{transform:translate(0,0);opacity:0}10%{opacity:.9}50%{transform:translate(4px,-80px)}100%{transform:translate(-3px,-170px);opacity:0}}@keyframes lp-swim{from{transform:translateX(0)}50%{transform:translate(-160px,-6px)}to{transform:translateX(-340px)}}@keyframes lp-roll{0%{transform:translate(0,0)}20%{transform:translate(60px,-6px)}25%{transform:translate(75px,0)}55%{transform:translate(165px,-8px)}60%{transform:translate(180px,0)}100%{transform:translate(300px,0)}}@keyframes lp-ray{0%,100%{opacity:.04}50%{opacity:.2}}@keyframes lp-flow{0%{transform:translateY(-4px);opacity:0}25%{opacity:1}100%{transform:translateY(24px);opacity:0}}@keyframes lp-glow{0%,100%{opacity:.55}50%{opacity:1}}@keyframes lp-haze{0%,100%{transform:scale(1,1);opacity:.15}50%{transform:scale(1,2.5);opacity:.4}}@keyframes lp-flag{0%,100%{transform:rotate(-8deg)}50%{transform:rotate(8deg)}}@keyframes lp-bulb{0%{opacity:1}50%{opacity:.25}}@keyframes lp-twinkle-soft{0%,100%{opacity:.75}50%{opacity:1}}@media (prefers-reduced-motion:reduce){*{animation:none!important}}</style><defs><linearGradient id="lp1n1stws-sky" x1="0" y1="0" x2="0" y2="1"><stop offset="0" class="lp-sky1"/><stop offset="1" class="lp-sky2"/></linearGradient><clipPath id="lp1n1stws-clip"><rect x="6" y="6" width="148" height="148" rx="12"/></clipPath></defs><rect x="0.5" y="0.5" width="159" height="191" rx="16" class="lp-card"/><g clip-path="url(#lp1n1stws-clip)"><rect x="6" y="6" width="148" height="148" fill="url(#lp1n1stws-sky)"/><g class="lp-day lp-px"><g transform="translate(17.8 17.8)"><g class="lp-cloud" style="animation-duration:14.31s"><rect x="6" y="0" width="6" height="2" fill="#ffffffd9"/><rect x="2" y="2" width="14" height="2" fill="#ffffffd9"/><rect x="0" y="4" width="18" height="2" fill="#ffffffd9"/><rect x="2" y="6" width="14" height="2" fill="#ffffffd9"/></g></g><g transform="translate(87.4 35.6)"><g class="lp-cloud" style="animation-duration:14.27s"><rect x="6" y="0" width="6" height="2" fill="#ffffffd9"/><rect x="2" y="2" width="14" height="2" fill="#ffffffd9"/><rect x="0" y="4" width="18" height="2" fill="#ffffffd9"/><rect x="2" y="6" width="14" height="2" fill="#ffffffd9"/></g></g><rect x="134" y="14" width="8" height="2" fill="#ffd23f"/><rect x="132" y="16" width="12" height="2" fill="#ffd23f"/><rect x="130" y="18" width="16" height="2" fill="#ffd23f"/><rect x="130" y="20" width="16" height="2" fill="#ffd23f"/><rect x="130" y="22" width="16" height="2" fill="#ffd23f"/><rect x="130" y="24" width="16" height="2" fill="#ffd23f"/><rect x="132" y="26" width="12" height="2" fill="#ffd23f"/><rect x="134" y="28" width="8" height="2" fill="#ffd23f"/></g><g class="lp-night lp-px"><rect x="136" y="16" width="6" height="2" fill="#fff3b0"/><rect x="134" y="18" width="4" height="2" fill="#fff3b0"/><rect x="132" y="20" width="4" height="2" fill="#fff3b0"/><rect x="132" y="22" width="4" height="2" fill="#fff3b0"/><rect x="134" y="24" width="4" height="2" fill="#fff3b0"/><rect x="136" y="26" width="6" height="2" fill="#fff3b0"/><rect x="89.5" y="33.9" width="2" height="2" class="lp-star lp-twinkle" style="animation-duration:2.54s;animation-delay:-0.66s"/><rect x="57.5" y="62" width="2" height="2" class="lp-star lp-twinkle" style="animation-duration:2.66s;animation-delay:-2.47s"/><rect x="103.5" y="20.8" width="2" height="2" class="lp-star lp-twinkle" style="animation-duration:2.25s;animation-delay:-0.50s"/><rect x="84.7" y="20.4" width="2" height="2" class="lp-star lp-twinkle" style="animation-duration:2.62s;animation-delay:-1.42s"/><rect x="110.7" y="21.3" width="2" height="2" class="lp-star lp-twinkle" style="animation-duration:3.02s;animation-delay:-1.15s"/><rect x="64.7" y="15.9" width="2" height="2" class="lp-star lp-twinkle" style="animation-duration:2.86s;animation-delay:-0.58s"/><rect x="102.9" y="52.5" width="2" height="2" class="lp-star lp-twinkle" style="animation-duration:1.83s;animation-delay:-1.58s"/><rect x="107.7" y="82.6" width="2" height="2" class="lp-firefly lp-twinkle" style="animation-duration:2.02s;animation-delay:-1.36s"/><rect x="91.6" y="88.3" width="2" height="2" class="lp-firefly lp-twinkle" style="animation-duration:1.98s;animation-delay:-1.40s"/><rect x="40" y="67.8" width="2" height="2" class="lp-firefly lp-twinkle" style="animation-duration:2.40s;animation-delay:-0.72s"/><rect x="19" y="73.3" width="2" height="2" class="lp-firefly lp-twinkle" style="animation-duration:2.12s;animation-delay:-1.55s"/><rect x="83.7" y="108.6" width="2" height="2" class="lp-firefly lp-twinkle" style="animation-duration:2.36s;animation-delay:-1.23s"/></g><g class="lp-rainbow lp-day"><path d="M31.2 126A56.2 56.2 0 0 1 143.6 126" fill="none" stroke="#ff5f5f" stroke-width="3.4"/><path d="M34.4 126A53 53 0 0 1 140.4 126" fill="none" stroke="#ffa94d" stroke-width="3.4"/><path d="M37.6 126A49.8 49.8 0 0 1 137.2 126" fill="none" stroke="#ffe066" stroke-width="3.4"/><path d="M40.8 126A46.6 46.6 0 0 1 134 126" fill="none" stroke="#7ee081" stroke-width="3.4"/><path d="M44 126A43.4 43.4 0 0 1 130.8 126" fill="none" stroke="#5ec8ff" stroke-width="3.4"/><path d="M47.2 126A40.2 40.2 0 0 1 127.6 126" fill="none" stroke="#b388ff" stroke-width="3.4"/></g><g class="lp-night"><g transform="translate(82.1 20.9)"><g class="lp-shoot" style="animation-duration:6.96s;animation-delay:-1.52s"><rect x="0" y="0" width="14" height="1.5" fill="#fff8d6" transform="rotate(-27)"/><rect x="-1" y="-1" width="3" height="3" fill="#ffffff"/></g></g></g><g class="lp-px"><path d="M13.4 126V99.4H17.4V93.4H53.8V99.4H57.8V126Z" class="lp-far"/><path d="M94.8 126V109.8H98.8V103.8H123.4V109.8H127.4V126Z" class="lp-far"/><path d="M6 126V122H10V122H14V122H18V122H22V122H26V122H30V122H34V122H38V122H42V120H46V120H50V118H54V118H58V116H62V116H66V116H70V116H74V116H78V118H82V118H86V118H90V120H94V120H98V120H102V120H106V120H110V120H114V120H118V120H122V120H126V120H130V120H134V122H138V122H142V124H146V124H150V124H154V126Z" class="lp-mid"/><g transform="translate(6 118.6)"><g class="lp-haze lp-day" style="animation-duration:2.20s;animation-delay:-0.00s"><rect width="148" height="2" fill="#ffffff" opacity=".35"/></g></g></g><g class="lp-px"><rect x="6" y="126" width="148" height="28" class="lp-ground"/><rect x="6" y="126" width="148" height="2" class="lp-ground2"/><rect x="136.3" y="142.3" width="3" height="2" class="lp-ground2"/><rect x="33.9" y="139.5" width="3" height="2" class="lp-ground2"/><rect x="107" y="142.7" width="3" height="2" class="lp-ground2"/></g><g class="lp-px"><g transform="translate(11.9 128)"><g class="lp-prop"><rect x="-1" y="-14" width="2" height="2" fill="#3f9a4a"/><rect x="-5" y="-12" width="2" height="2" fill="#3f9a4a"/><rect x="-1" y="-12" width="2" height="2" fill="#3f9a4a"/><rect x="-5" y="-10" width="2" height="2" fill="#3f9a4a"/><rect x="-1" y="-10" width="2" height="2" fill="#3f9a4a"/><rect x="3" y="-10" width="2" height="2" fill="#3f9a4a"/><rect x="-5" y="-8" width="6" height="2" fill="#3f9a4a"/><rect x="3" y="-8" width="2" height="2" fill="#3f9a4a"/><rect x="-1" y="-6" width="6" height="2" fill="#3f9a4a"/><rect x="-1" y="-4" width="2" height="2" fill="#3f9a4a"/><rect x="-1" y="-2" width="2" height="2" fill="#3f9a4a"/></g></g><g transform="translate(142.2 128)"><g class="lp-prop"><rect x="-1" y="-14" width="2" height="2" fill="#3f9a4a"/><rect x="-5" y="-12" width="2" height="2" fill="#3f9a4a"/><rect x="-1" y="-12" width="2" height="2" fill="#3f9a4a"/><rect x="-5" y="-10" width="2" height="2" fill="#3f9a4a"/><rect x="-1" y="-10" width="2" height="2" fill="#3f9a4a"/><rect x="3" y="-10" width="2" height="2" fill="#3f9a4a"/><rect x="-5" y="-8" width="6" height="2" fill="#3f9a4a"/><rect x="3" y="-8" width="2" height="2" fill="#3f9a4a"/><rect x="-1" y="-6" width="6" height="2" fill="#3f9a4a"/><rect x="-1" y="-4" width="2" height="2" fill="#3f9a4a"/><rect x="-1" y="-2" width="2" height="2" fill="#3f9a4a"/></g></g><rect x="40" y="145.7" width="3" height="2" fill="#c99a5b" class="lp-prop"/><rect x="54.7" y="144.5" width="5" height="2" fill="#c99a5b" class="lp-prop"/><rect x="108.5" y="141.3" width="4" height="2" fill="#c99a5b" class="lp-prop"/></g><g class="lp-px"><rect x="124" y="124" width="2" height="2" fill="#4cc9f0"/><rect x="126" y="124" width="2" height="2" fill="#a8e6ff"/><rect x="128" y="124" width="2" height="2" fill="#4cc9f0"/><rect x="130" y="124" width="2" height="2" fill="#a8e6ff"/><rect x="132" y="124" width="4" height="2" fill="#4cc9f0"/><rect x="120" y="126" width="2" height="2" fill="#4cc9f0"/><rect x="122" y="126" width="2" height="2" fill="#a8e6ff"/><rect x="124" y="126" width="4" height="2" fill="#4cc9f0"/><rect x="128" y="126" width="2" height="2" fill="#a8e6ff"/><rect x="130" y="126" width="2" height="2" fill="#4cc9f0"/><rect x="132" y="126" width="2" height="2" fill="#a8e6ff"/><rect x="134" y="126" width="2" height="2" fill="#4cc9f0"/><rect x="136" y="126" width="2" height="2" fill="#a8e6ff"/><rect x="138" y="126" width="2" height="2" fill="#4cc9f0"/><rect x="118" y="128" width="24" height="2" fill="#1b3a5c"/><rect x="120" y="130" width="2" height="2" fill="#1b3a5c"/><rect x="122" y="130" width="16" height="2" fill="#5ec8ff"/><rect x="138" y="130" width="2" height="2" fill="#1b3a5c"/><rect x="122" y="132" width="16" height="2" fill="#1b3a5c"/></g><ellipse cx="68" cy="131" rx="30" ry="3" class="lp-shadow"/><g transform="translate(68 132)"><style>@keyframes lp-mv-sway{0%,70%,100%{transform:translate(0,0) rotate(0) scale(1,1) skewX(0)}78%{transform:translate(0,0) rotate(-6deg) scale(1,1) skewX(0)}86%{transform:translate(0,0) rotate(6deg) scale(1,1) skewX(0)}93%{transform:translate(0,0) rotate(-3deg) scale(1,1) skewX(0)}}.lp-mv-sway{animation:lp-mv-sway 7s ease-in-out infinite}</style><g class="lp-mv-sway" style="animation-duration:9.00s;animation-delay:0.62s"><g class="lp-hop" style="animation-duration:0.90s"><g transform="translate(-68 -132)" class="lp-px"><rect x="48" y="52" width="40" height="5" fill="#1d3b23"/><rect x="43" y="57" width="5" height="5" fill="#1d3b23"/><rect x="48" y="57" width="10" height="5" fill="#58b368"/><rect x="58" y="57" width="5" height="5" fill="#e4f7d2"/><rect x="63" y="57" width="10" height="5" fill="#58b368"/><rect x="73" y="57" width="5" height="5" fill="#e4f7d2"/><rect x="78" y="57" width="10" height="5" fill="#58b368"/><rect x="88" y="57" width="5" height="5" fill="#1d3b23"/><rect x="43" y="62" width="5" height="5" fill="#1d3b23"/><rect x="48" y="62" width="5" height="5" fill="#58b368"/><rect x="53" y="62" width="5" height="5" fill="#9be3a3"/><rect x="58" y="62" width="30" height="5" fill="#58b368"/><rect x="88" y="62" width="5" height="5" fill="#1d3b23"/><rect x="28" y="67" width="20" height="5" fill="#1d3b23"/><rect x="48" y="67" width="40" height="5" fill="#58b368"/><rect x="88" y="67" width="20" height="5" fill="#1d3b23"/><rect x="28" y="72" width="5" height="5" fill="#1d3b23"/><rect x="33" y="72" width="5" height="5" fill="#58b368"/><rect x="38" y="72" width="10" height="5" fill="#1d3b23"/><rect x="48" y="72" width="5" height="5" fill="#58b368"/><rect x="53" y="72" width="5" height="5" fill="#9be3a3"/><rect x="58" y="72" width="30" height="5" fill="#58b368"/><rect x="88" y="72" width="10" height="5" fill="#1d3b23"/><rect x="98" y="72" width="5" height="5" fill="#58b368"/><rect x="103" y="72" width="5" height="5" fill="#1d3b23"/><rect x="28" y="77" width="5" height="5" fill="#1d3b23"/><rect x="33" y="77" width="5" height="5" fill="#58b368"/><rect x="38" y="77" width="10" height="5" fill="#1d3b23"/><rect x="48" y="77" width="40" height="5" fill="#58b368"/><rect x="88" y="77" width="10" height="5" fill="#1d3b23"/><rect x="98" y="77" width="5" height="5" fill="#58b368"/><rect x="103" y="77" width="5" height="5" fill="#1d3b23"/><rect x="28" y="82" width="5" height="5" fill="#1d3b23"/><rect x="33" y="82" width="15" height="5" fill="#58b368"/><rect x="48" y="82" width="10" height="5" fill="#ff8fab99"/><rect x="58" y="82" width="20" height="5" fill="#58b368"/><rect x="78" y="82" width="10" height="5" fill="#ff8fab99"/><rect x="88" y="82" width="15" height="5" fill="#58b368"/><rect x="103" y="82" width="5" height="5" fill="#1d3b23"/><rect x="28" y="87" width="20" height="5" fill="#1d3b23"/><rect x="48" y="87" width="10" height="5" fill="#58b368"/><rect x="58" y="87" width="20" height="5" fill="#1d3b23"/><rect x="78" y="87" width="10" height="5" fill="#58b368"/><rect x="88" y="87" width="20" height="5" fill="#1d3b23"/><rect x="43" y="92" width="5" height="5" fill="#1d3b23"/><rect x="48" y="92" width="5" height="5" fill="#58b368"/><rect x="53" y="92" width="5" height="5" fill="#e4f7d2"/><rect x="58" y="92" width="5" height="5" fill="#1d3b23"/><rect x="63" y="92" width="10" height="5" fill="#ff5d73"/><rect x="73" y="92" width="5" height="5" fill="#1d3b23"/><rect x="78" y="92" width="10" height="5" fill="#58b368"/><rect x="88" y="92" width="5" height="5" fill="#1d3b23"/><rect x="43" y="97" width="5" height="5" fill="#1d3b23"/><rect x="48" y="97" width="15" height="5" fill="#58b368"/><rect x="63" y="97" width="10" height="5" fill="#1d3b23"/><rect x="73" y="97" width="5" height="5" fill="#58b368"/><rect x="78" y="97" width="5" height="5" fill="#e4f7d2"/><rect x="83" y="97" width="5" height="5" fill="#58b368"/><rect x="88" y="97" width="5" height="5" fill="#1d3b23"/><rect x="38" y="102" width="60" height="5" fill="#1d3b23"/><rect x="38" y="107" width="5" height="5" fill="#1d3b23"/><rect x="43" y="107" width="50" height="5" fill="#e8875a"/><rect x="93" y="107" width="5" height="5" fill="#1d3b23"/><rect x="38" y="112" width="60" height="5" fill="#1d3b23"/><rect x="43" y="117" width="5" height="5" fill="#1d3b23"/><rect x="48" y="117" width="40" height="5" fill="#b8553a"/><rect x="88" y="117" width="5" height="5" fill="#1d3b23"/><rect x="43" y="122" width="5" height="5" fill="#1d3b23"/><rect x="48" y="122" width="40" height="5" fill="#b8553a"/><rect x="88" y="122" width="5" height="5" fill="#1d3b23"/><rect x="48" y="127" width="40" height="5" fill="#1d3b23"/><rect x="53" y="67" width="5" height="5" fill="#ffd23f"/><rect x="78" y="67" width="5" height="5" fill="#ffd23f"/><rect x="48" y="72" width="15" height="5" fill="#ffd23f"/><rect x="73" y="72" width="15" height="5" fill="#ffd23f"/><rect x="53" y="77" width="5" height="5" fill="#ffd23f"/><rect x="78" y="77" width="5" height="5" fill="#ffd23f"/><rect x="63" y="27" width="10" height="5" fill="#ffd23f"/><rect x="63" y="32" width="10" height="5" fill="#4a1d5c"/><rect x="58" y="37" width="5" height="5" fill="#4a1d5c"/><rect x="63" y="37" width="10" height="5" fill="#ff5fa2"/><rect x="73" y="37" width="5" height="5" fill="#4a1d5c"/><rect x="58" y="42" width="5" height="5" fill="#4a1d5c"/><rect x="63" y="42" width="10" height="5" fill="#ffd23f"/><rect x="73" y="42" width="5" height="5" fill="#4a1d5c"/><rect x="53" y="47" width="5" height="5" fill="#4a1d5c"/><rect x="58" y="47" width="20" height="5" fill="#ff5fa2"/><rect x="78" y="47" width="5" height="5" fill="#4a1d5c"/><rect x="53" y="52" width="5" height="5" fill="#4a1d5c"/><rect x="58" y="52" width="20" height="5" fill="#ffd23f"/><rect x="78" y="52" width="5" height="5" fill="#4a1d5c"/></g></g></g></g><g transform="translate(63.3 6)"><rect x="-1" y="-1.5" width="2" height="3" fill="#ff5fa2" class="lp-fall" style="animation-duration:4.36s;animation-delay:-3.04s"/></g><g transform="translate(130.9 6)"><rect x="-1" y="-1.5" width="2" height="3" fill="#ffd23f" class="lp-fall" style="animation-duration:2.68s;animation-delay:-0.03s"/></g><g transform="translate(134.4 6)"><rect x="-1" y="-1.5" width="2" height="3" fill="#ff5fa2" class="lp-fall" style="animation-duration:4.24s;animation-delay:-3.46s"/></g><g transform="translate(92.8 6)"><rect x="-1" y="-1.5" width="2" height="3" fill="#ff8c42" class="lp-fall" style="animation-duration:3.12s;animation-delay:-0.89s"/></g><g transform="translate(42.2 6)"><rect x="-1" y="-1.5" width="2" height="3" fill="#ff8c42" class="lp-fall" style="animation-duration:2.88s;animation-delay:-1.91s"/></g><g transform="translate(50.7 6)"><rect x="-1" y="-1.5" width="2" height="3" fill="#ff5fa2" class="lp-fall" style="animation-duration:2.78s;animation-delay:-3.79s"/></g><g transform="translate(92.9 6)"><rect x="-1" y="-1.5" width="2" height="3" fill="#b388ff" class="lp-fall" style="animation-duration:3.24s;animation-delay:-2.16s"/></g><g transform="translate(39.7 6)"><rect x="-1" y="-1.5" width="2" height="3" fill="#7ee081" class="lp-fall" style="animation-duration:3.10s;animation-delay:-2.05s"/></g><g transform="translate(135.8 6)"><rect x="-1" y="-1.5" width="2" height="3" fill="#b388ff" class="lp-fall" style="animation-duration:3.81s;animation-delay:-3.61s"/></g><g transform="translate(55.2 6)"><rect x="-1" y="-1.5" width="2" height="3" fill="#ffd23f" class="lp-fall" style="animation-duration:2.97s;animation-delay:-3.34s"/></g><g transform="translate(27.1 6)"><rect x="-1" y="-1.5" width="2" height="3" fill="#ffd23f" class="lp-fall" style="animation-duration:2.58s;animation-delay:-2.59s"/></g><g transform="translate(15.5 6)"><rect x="-1" y="-1.5" width="2" height="3" fill="#b388ff" class="lp-fall" style="animation-duration:3.53s;animation-delay:-3.88s"/></g><g class="lp-px"><g transform="translate(-63.8 125.5)"><g class="lp-roll lp-prop" style="animation-duration:9.04s;animation-delay:-3.09s"><g transform="translate(0 0)"><g class="lp-spin" style="animation-duration:1.2s"><rect x="-3" y="-4.5" width="6" height="1.5" fill="#a6773f"/><rect x="-4.5" y="-3" width="1.5" height="1.5" fill="#a6773f"/><rect x="-1.5" y="-3" width="1.5" height="1.5" fill="#a6773f"/><rect x="3" y="-3" width="1.5" height="1.5" fill="#a6773f"/><rect x="-4.5" y="-1.5" width="3" height="1.5" fill="#a6773f"/><rect x="0" y="-1.5" width="4.5" height="1.5" fill="#a6773f"/><rect x="-4.5" y="0" width="1.5" height="1.5" fill="#a6773f"/><rect x="-1.5" y="0" width="3" height="1.5" fill="#a6773f"/><rect x="3" y="0" width="1.5" height="1.5" fill="#a6773f"/><rect x="-4.5" y="1.5" width="1.5" height="1.5" fill="#a6773f"/><rect x="0" y="1.5" width="1.5" height="1.5" fill="#a6773f"/><rect x="3" y="1.5" width="1.5" height="1.5" fill="#a6773f"/><rect x="-3" y="3" width="6" height="1.5" fill="#a6773f"/></g></g></g></g><path d="M6 10Q80 26 154 10" fill="none" stroke="#7a5a3a" stroke-width="1"/><g transform="translate(12 11.2)"><g class="lp-flag" style="animation-duration:1.60s;animation-delay:-0.00s"><path d="M-4 0H4L0 7.2Z" fill="#ff5fa2"/></g></g><g transform="translate(24 13.4)"><g class="lp-flag" style="animation-duration:1.90s;animation-delay:-0.20s"><path d="M-4 0H4L0 7.2Z" fill="#ffd23f"/></g></g><g transform="translate(36 15.2)"><g class="lp-flag" style="animation-duration:2.20s;animation-delay:-0.40s"><path d="M-4 0H4L0 7.2Z" fill="#5ec8ff"/></g></g><g transform="translate(48 16.5)"><g class="lp-flag" style="animation-duration:1.60s;animation-delay:-0.60s"><path d="M-4 0H4L0 7.2Z" fill="#7ee081"/></g></g><g transform="translate(60 17.4)"><g class="lp-flag" style="animation-duration:1.90s;animation-delay:-0.80s"><path d="M-4 0H4L0 7.2Z" fill="#b388ff"/></g></g><g transform="translate(72 17.9)"><g class="lp-flag" style="animation-duration:2.20s;animation-delay:-1.00s"><path d="M-4 0H4L0 7.2Z" fill="#ff8c42"/></g></g><g transform="translate(84 18)"><g class="lp-flag" style="animation-duration:1.60s;animation-delay:-1.20s"><path d="M-4 0H4L0 7.2Z" fill="#ff5fa2"/></g></g><g transform="translate(96 17.6)"><g class="lp-flag" style="animation-duration:1.90s;animation-delay:-1.40s"><path d="M-4 0H4L0 7.2Z" fill="#ffd23f"/></g></g><g transform="translate(108 16.9)"><g class="lp-flag" style="animation-duration:2.20s;animation-delay:-1.60s"><path d="M-4 0H4L0 7.2Z" fill="#5ec8ff"/></g></g><g transform="translate(120 15.7)"><g class="lp-flag" style="animation-duration:1.60s;animation-delay:-1.80s"><path d="M-4 0H4L0 7.2Z" fill="#7ee081"/></g></g><g transform="translate(132 14)"><g class="lp-flag" style="animation-duration:1.90s;animation-delay:-2.00s"><path d="M-4 0H4L0 7.2Z" fill="#b388ff"/></g></g><g transform="translate(144 12)"><g class="lp-flag" style="animation-duration:2.20s;animation-delay:-2.20s"><path d="M-4 0H4L0 7.2Z" fill="#ff8c42"/></g></g></g></g><text x="80" y="171" text-anchor="middle" class="lp-mini-name">Ruli</text><text x="80" y="185" text-anchor="middle" class="lp-mini-sub">Lv.21 · 🥳 partying</text></svg>